<?xml version="1.0" standalone="no"?>
<!DOCTYPE svg PUBLIC "-//W3C//DTD SVG 1.1//EN" "http://www.w3.org/Graphics/SVG/1.1/DTD/svg11.dtd" >
<svg xmlns="http://www.w3.org/2000/svg">
<metadata></metadata>
<defs>
<font id="houschkaaltthinitalicregular" horiz-adv-x="1024" >
<font-face units-per-em="2048" ascent="1638" descent="-410" />
<missing-glyph horiz-adv-x="544" />
<glyph horiz-adv-x="2048" />
<glyph horiz-adv-x="2048" />
<glyph unicode="&#xd;" />
<glyph unicode=" "  horiz-adv-x="544" />
<glyph unicode="&#x09;" horiz-adv-x="544" />
<glyph unicode="&#xa0;" horiz-adv-x="544" />
<glyph unicode="!" horiz-adv-x="307" d="M74 6q0 -2 4 -6h8q8 0 8 6l25 176q0 2 -4 6h-11q-6 0 -6 -6zM125 356q-4 -4 4 -6h6q6 2 6 8l150 1047q2 2 -4 6h-13q-6 0 -6 -6z" />
<glyph unicode="&#x22;" horiz-adv-x="980" />
<glyph unicode="#" horiz-adv-x="1308" d="M-8 297q0 -6 6 -6h244l-154 -451q-2 -2 4 -6h10q6 0 7 6l153 451h494l-152 -451q-4 -6 4 -6h10q6 0 7 6l153 451h350q4 0 9 6v8q0 2 -4 6h-349l162 471h252q6 0 6 6l2 9q0 6 -6 6h-248l156 454q0 6 -6 7h-8q-6 0 -9 -7l-153 -454h-496l156 454q2 6 -6 7h-8q-6 0 -9 -7 l-153 -454h-346q-8 0 -9 -6v-9q-2 -2 5 -6h342l-160 -471h-248q-6 0 -6 -6zM270 311l160 471h494l-160 -471h-494z" />
<glyph unicode="$" horiz-adv-x="1071" d="M37 92q-4 -4 2 -8q152 -102 375 -102h10l-12 -80q0 -6 6 -6h8q6 0 6 6l12 80q203 8 312.5 101t109.5 267q0 133 -106 215q-51 39 -219 109l88 622h16q168 0 291 -51q4 -4 6 2l4 8q2 4 -4 9q-129 53 -297 53h-14l14 100q0 2 -4 6h-10q-6 0 -6 -6l-15 -102 q-414 -8 -413 -316q0 -131 90 -208q47 -41 198 -115q10 -4 19.5 -8t13.5 -6l-92 -660h-12q-221 0 -365 98q-4 2 -6 0zM217 999q0 283 391 295l-86 -612q-145 57 -209 111q-96 84 -96 206zM446 2l93 651q152 -63 206 -104q101 -76 101 -199q0 -334 -400 -348z" />
<glyph unicode="%" horiz-adv-x="1222" d="M96 -12q-4 -4 4 -6h17l6 6l1071 1419q6 6 -4 6h-14q-2 0 -9 -6zM141 1053q0 -61 20.5 -110.5t57.5 -84.5t85 -53.5t104 -18.5q137 0 227 103q90 106 90 256q0 61 -20.5 110.5t-56.5 85t-84 54t-103 18.5q-129 0 -223 -100q-96 -109 -97 -260zM162 1053q0 143 92 245 q88 94 207 95q104 0 174 -67.5t70 -180.5q0 -143 -87 -242q-84 -96 -210 -96q-51 0 -96.5 17.5t-78 49t-52 77.5t-19.5 102zM561 248q0 -61 20.5 -110.5t57.5 -85.5t85 -54t103 -18q139 0 230 104q90 106 90 256q0 61 -20.5 110.5t-56.5 84t-84 53t-103 18.5 q-129 0 -225.5 -102.5t-96.5 -255.5zM582 248q0 145 90 241.5t211 96.5q51 0 96 -17.5t78 -50.5t51 -78t18 -100q0 -145 -86 -244q-84 -96 -213 -96q-104 0 -174.5 65.5t-70.5 182.5z" />
<glyph unicode="&#x26;" horiz-adv-x="1222" d="M90 317q0 -340 385 -340q215 0 373 152q154 -147 278 -147q6 0 7 6l2 8q0 6 -7 6q-123 0 -266 141q174 186 213 494q0 6 -6 6h-8q-6 0 -6 -6q-39 -303 -207 -479q-233 231 -371 581q236 113 305 168q141 106 142 264q0 213 -232 213q-109 0 -194 -86q-102 -106 -103 -280 q0 -117 58 -268q-176 -90 -252 -166q-111 -111 -111 -267zM111 317q0 147 106 254q74 74 244 158q133 -348 373 -586q-145 -145 -359 -145q-365 0 -364 319zM416 1018q0 168 98 266q80 80 178 80q211 0 211 -193q0 -145 -137 -249q-66 -51 -295 -164q-55 154 -55 260z" />
<glyph unicode="'" horiz-adv-x="299" d="M66 958l4 -10q4 -6 8 -2q133 53 160 254l26 195q0 2 -4 6h-10q-6 0 -6 -6l-27 -193q-29 -193 -147 -237q-4 0 -4 -7z" />
<glyph unicode="(" horiz-adv-x="399" d="M68 201q0 -367 161 -664q2 -4 9 -2l6 4q4 4 4 8q-160 289 -160 654q0 704 418 1200q6 2 0 8l-6 6q-4 4 -8 -2q-424 -502 -424 -1212z" />
<glyph unicode=")" horiz-adv-x="428" d="M-76 -451q-4 -4 0 -8l8 -6q4 -4 9 2q421 496 421 1213q0 371 -159 663q-4 6 -8 2l-9 -4q-6 -4 -2 -8q158 -293 158 -653q0 -709 -418 -1201z" />
<glyph unicode="*" horiz-adv-x="718" d="M129 981l4 -6l8 -4l271 151l-43 -301q0 -2 4 -6h10q6 0 6 6l43 303l230 -151q2 -4 8 2l4 6q2 8 -2 8l-230 152l275 149q4 4 2 8l-4 11q0 2 -8 2l-271 -152l43 301q0 6 -6 6h-8q-6 0 -6 -6l-43 -303l-230 152q-4 2 -8 -2l-4 -7q-2 -8 2 -8l230 -151l-273 -152q-6 0 -4 -8z " />
<glyph unicode="+" horiz-adv-x="1128" d="M141 719q0 -2 4 -6h447l-66 -465q0 -6 6 -6h9q6 0 6 6l65 465h445q6 0 6 6l2 8q0 6 -6 6h-445l66 465q0 6 -6 6h-8q-6 0 -9 -6l-63 -465h-444q-6 0 -7 -6z" />
<glyph unicode="," horiz-adv-x="337" d="M-47 -217l2 -10q2 -2 8 -2q123 43 170 170q6 20 16.5 79.5t24.5 161.5q0 2 -4 6h-10q-6 0 -6 -6q-29 -197 -39 -229q-39 -121 -158 -162q-10 -4 -4 -8z" />
<glyph unicode="-" horiz-adv-x="856" d="M184 489q0 -2 4 -6h465q8 0 9 6v9q2 2 -5 6h-464q-6 0 -7 -6z" />
<glyph unicode="." horiz-adv-x="339" d="M131 6q0 -2 4 -6h10q6 0 7 6l24 176q0 2 -4 6h-10q-6 0 -6 -6z" />
<glyph unicode="/" horiz-adv-x="606" d="M-113 -25q-4 -4 4 -6h15l6 6l883 1444q4 4 -4 6h-13l-6 -6z" />
<glyph unicode="0" horiz-adv-x="1187" d="M70 420q0 -248 159 -361q115 -82 301 -82q281 0 441 207q147 187 147 488q0 444 -461 444q-281 0 -440 -209q-147 -195 -147 -487zM90 420q0 289 143 475q154 201 424 201q441 0 441 -424q0 -295 -144 -475q-154 -199 -424 -199q-176 0 -288 78q-152 109 -152 344z" />
<glyph unicode="1" horiz-adv-x="1187" d="M168 6q0 -4 6 -6h682q6 0 6 6l2 8q0 6 -6 6h-301l154 1090q0 6 -4 6h-11q-8 0 -10 -2l-369 -92q-4 0 -6 -6l-2 -8q0 -2 4 -7l375 93l-151 -1074h-361q-6 0 -6 -6z" />
<glyph unicode="2" horiz-adv-x="1187" d="M154 6q-2 -2 4 -6h741q6 0 6 6l2 8q0 6 -6 6h-725v13q41 260 410 403q113 45 191.5 83t123.5 73q139 103 139 250t-106 217q-84 57 -229 57q-244 0 -406 -155q-6 -4 -2 -9l6 -6q2 -6 8 0q158 150 394 150q317 0 317 -254q0 -139 -131 -234q-92 -66 -311 -153 q-164 -66 -256 -140q-156 -123 -168 -282z" />
<glyph unicode="3" horiz-adv-x="1187" d="M102 -205q-4 -4 2 -8q145 -102 332 -102q231 0 365 141q119 125 119 315q0 111 -63.5 190t-180.5 103q61 14 114.5 45t91.5 76t59.5 100.5t21.5 118.5q0 156 -89.5 249t-261.5 93q-139 0 -295 -94q-6 -4 -2 -8l4 -8q4 -6 9 -2q154 92 284 92q162 0 246 -87t84 -235 q0 -143 -106.5 -237.5t-255.5 -94.5h-166q-4 0 -8 -4v-8q-8 -8 4 -8h170q156 0 239 -82q80 -78 80 -199q0 -180 -115 -301q-127 -135 -348 -135q-182 0 -319 98q-6 2 -8 0z" />
<glyph unicode="4" horiz-adv-x="1187" d="M57 6q0 -6 4 -6h773l-39 -291q-4 -6 4 -6h8q4 0 8 6l39 291h201q8 2 8 6v8q2 2 -4 6h-201l150 1072q2 2 -4 6h-7q-8 0 -10 -6l-926 -1072q-2 -2 -2 -4l-2 -2v-8zM86 20l897 1039l-145 -1039h-752z" />
<glyph unicode="5" horiz-adv-x="1187" d="M170 -213q-4 -4 0 -8q137 -94 336 -94q209 0 356.5 153.5t147.5 376.5q0 166 -105 262q-96 88 -264 88q-195 0 -365 -176l117 688h563q4 0 9 6v9q0 2 -4 6h-576q-10 0 -10 -13l-125 -729q0 -2 4 -6h10q4 0 8 6q176 188 369 189q160 0 254 -85t94 -245q0 -215 -141 -362.5 t-342 -147.5q-193 0 -324 90q-4 4 -8 -2z" />
<glyph unicode="6" horiz-adv-x="1187" d="M172 406q0 -424 358 -424q219 0 353 159q123 148 123 363q0 334 -363 334q-152 0 -283 -117q-127 -113 -167 -293q6 365 141 633q166 332 465 332q106 0 196 -23q4 -4 9 4l2 8q0 4 -5 9q-94 23 -202 22q-317 0 -490 -354q-137 -281 -137 -653zM199 301h2q0 213 139 369 q131 147 303 147q342 0 342 -313q0 -207 -117 -348q-127 -154 -338 -154q-289 0 -331 299z" />
<glyph unicode="7" horiz-adv-x="1187" d="M178 811q0 -2 4 -6h11q6 0 6 6l37 266h792q-203 -344 -403.5 -684t-405.5 -684q0 -6 4 -6h13l6 6l811 1370q4 0 4 4v9q0 2 -4 6h-830q-6 0 -6 -6z" />
<glyph unicode="8" horiz-adv-x="1187" d="M121 287q0 -305 395 -305q248 0 381 120q115 104 115 275q0 227 -353 358v2q406 119 406 391q0 285 -350 285q-211 0 -328 -90t-117 -244q0 -203 326 -340q-475 -150 -475 -452zM141 287q0 156 144 274q119 98 321 160l21 6q162 -63 237 -119q127 -96 127 -231 q0 -162 -108 -260q-125 -115 -367 -115q-375 0 -375 285zM291 1079q0 141 109.5 227.5t314.5 86.5q329 -1 329 -265q0 -262 -415 -378q-338 135 -338 329z" />
<glyph unicode="9" horiz-adv-x="1187" d="M193 -285q0 -4 4 -8q94 -23 204 -22q322 0 492 360q133 285 133 647q0 424 -358 424q-221 0 -353 -160q-123 -147 -122 -362q0 -334 364 -334q158 0 291 127q121 121 158 283q-6 -350 -134 -621q-166 -344 -471 -344q-109 0 -198 23q-4 4 -8 -4zM213 594q0 205 117 350 q127 152 338 152q290 0 331 -299q0 -193 -122 -348q-131 -168 -320 -168q-344 0 -344 313z" />
<glyph unicode=":" horiz-adv-x="313" d="M131 6q0 -2 4 -6h10q6 0 7 6l24 176q0 2 -4 6h-10q-6 0 -6 -6zM233 737q-2 -2 5 -6h10q6 0 6 6l25 176q0 6 -7 7h-8q-6 0 -6 -7z" />
<glyph unicode=";" horiz-adv-x="272" d="M-86 -217l2 -10q2 -2 8 -2q123 43 170 170q6 20 16.5 79.5t24.5 161.5q0 2 -4 6h-10q-6 0 -6 -6q-29 -197 -39 -229q-39 -121 -158 -162q-10 -4 -4 -8zM193 737q0 -2 4 -6h10q6 0 6 6l25 176q0 2 -5 7h-10q-6 0 -6 -7z" />
<glyph unicode="&#x3c;" horiz-adv-x="1040" d="M197 719q0 -2 4 -6l684 -498q2 -4 8 2l4 6q4 4 0 8l-676 492l813 491q4 5 4 9l-4 8q0 4 -8 2l-823 -496q-4 -4 -4 -8z" />
<glyph unicode="=" horiz-adv-x="1144" d="M109 442q0 -6 6 -6h911q6 0 6 6l2 9q0 6 -6 6h-911q-6 0 -6 -6zM186 995q0 -6 7 -6h911q6 0 6 6v9q2 6 -4 6h-911q-6 0 -7 -6z" />
<glyph unicode="&#x3e;" horiz-adv-x="1036" d="M76 225l4 -8q2 -6 6 -2l823 498l6 6v10q2 2 -2 8l-684 496q-4 4 -8 -2l-6 -6q-4 -4 2 -8l676 -490l-815 -494q-6 -6 -2 -8z" />
<glyph unicode="?" horiz-adv-x="870" d="M133 1286l6 -8q2 -2 8 0q174 115 347 115q147 0 233 -88q80 -84 80 -222q0 -190 -223 -350q-172 -123 -193 -143q-74 -82 -94 -234q0 -6 6 -6h8q6 0 6 6q16 106 50 164q35 59 112 117q100 72 158.5 118t75.5 62q114 114 114 266q0 147 -87 238.5t-246 91.5 q-176 0 -359 -119q-6 -6 -2 -8zM250 6q-2 -2 4 -6h10q6 0 6 6l25 176q0 6 -6 6h-8q-6 0 -7 -6z" />
<glyph unicode="@" horiz-adv-x="1837" d="M256 678q0 -336 209 -535q211 -199 547 -198q244 0 440 67q6 0 4 8l-4 9q-2 6 -6 2q-201 -66 -434 -66q-326 0 -533 195q-203 193 -203 518q0 289 211 493q213 207 517 207q279 0 466 -159q186 -160 187 -424q0 -197 -113 -349q-111 -152 -248 -151q-86 0 -73 84l53 385 q6 39 6 74q0 147 -96 215q-66 47 -158 47q-29 0 -64.5 -7.5t-70.5 -19.5t-67.5 -29.5t-55.5 -35.5q-4 -4 -2 -11l6 -6q4 -4 8 0q47 37 119 62q72 27 127 26q84 0 148 -41q90 -59 90 -184q0 -37 -11 -88l-2 -10q-246 -8 -366 -49q-213 -68 -213 -246q0 -197 241 -197 q170 0 291 148l-4 -31q-14 -106 94 -107q147 0 265 160q116 162 116 361q0 272 -196 442q-186 162 -477 162q-311 0 -531 -213q-217 -211 -217 -508zM694 461q0 166 205 229q57 16 145 28.5t207 16.5l-39 -280q-115 -170 -297 -170q-221 0 -221 176z" />
<glyph unicode="A" horiz-adv-x="1169" d="M-18 6q-2 -2 -2 -4t6 -2h10q4 0 10 6l211 397h735l92 -397q0 -4 7 -6h12q4 0 4 6l-317 1389q-4 6 -7 6h-12q-6 0 -8 -6zM227 424l506 948l215 -948h-721z" />
<glyph unicode="B" horiz-adv-x="1212" d="M92 6q0 -2 4 -6h533q248 0 383 117q125 107 125 295q0 285 -363 325q289 51 289 336q0 125 -102 217q-121 104 -320 105h-348q-6 0 -6 -6zM115 20l98 703h403q219 0 328 -45q172 -71 172 -266q0 -178 -119 -279q-127 -113 -368 -113h-514zM217 743l88 631h336 q193 0 305 -100q96 -86 96 -201q0 -207 -159 -280q-104 -49 -316 -50h-350z" />
<glyph unicode="C" horiz-adv-x="1224" d="M96 610q0 -297 199 -471q175 -157 415 -157h3q227 0 397 79q10 0 4 7l-4 8q-4 4 -8 4q-162 -78 -389 -78q-236 0 -406 152q-190 168 -190 456q0 319 243 557q233 227 531 228q221 0 348 -56q4 -6 8 4l2 9q2 2 2 3q0 2 -4 5q-133 55 -356 55q-305 0 -545 -233 q-250 -244 -250 -572z" />
<glyph unicode="D" horiz-adv-x="1357" d="M92 6q0 -2 4 -6h342q412 0 619 158q266 205 266 547q0 209 -93 367.5t-253 244.5q-145 78 -375 78h-309q-6 0 -8 -6zM115 20l190 1354h297q123 0 225 -24q221 -53 351 -236q125 -173 125 -409q0 -332 -261 -531q-201 -154 -604 -154h-323z" />
<glyph unicode="E" horiz-adv-x="1110" d="M92 6q0 -2 4 -6h916q8 0 8 6v8q2 2 -4 6h-901l94 668h717q6 0 6 6l2 8q0 6 -6 7h-717l94 665h797q4 0 8 6v9q0 2 -4 6h-813q-6 0 -8 -6z" />
<glyph unicode="F" horiz-adv-x="966" d="M92 6q0 -2 4 -6h8q4 0 9 6l94 682h637q6 0 6 6l2 8q0 2 -4 7h-637l92 665h741q6 0 7 6l2 9q0 6 -6 6h-754q-6 0 -8 -6z" />
<glyph unicode="G" horiz-adv-x="1345" d="M96 610q0 -297 199 -471q175 -157 415 -157h3q264 0 452 149l-16 -125q-4 -6 4 -6h8q6 0 6 6l86 615q0 2 -4 6h-553q-6 0 -6 -6v-9q-4 -6 4 -6h539l-64 -446q-188 -158 -456 -158q-236 0 -406 152q-190 168 -190 456q0 319 243 557q233 227 531 228q221 0 348 -56 q4 -6 8 4l2 9q4 4 -2 8q-133 55 -356 55q-305 0 -545 -233q-250 -244 -250 -572z" />
<glyph unicode="H" horiz-adv-x="1384" d="M92 6q0 -2 4 -6h10q6 0 7 6l96 682h1046l-96 -682q0 -2 4 -6h11q6 0 6 6l194 1383q0 6 -6 6h-8q-6 0 -6 -6l-97 -680h-1046l96 680q0 6 -6 6h-8q-6 0 -6 -6z" />
<glyph unicode="I" horiz-adv-x="317" d="M92 6q0 -2 4 -6h10q6 0 7 6l194 1383q0 6 -6 6h-8q-6 0 -6 -6z" />
<glyph unicode="J" horiz-adv-x="966" d="M-31 86q123 -104 307 -104q197 0 342 116q166 135 203 396l125 895q0 2 -4 6h-10q-6 0 -6 -6l-125 -893q-33 -250 -197 -383q-135 -111 -328 -111q-176 0 -294 100q-4 4 -9 -2l-4 -6q-2 -2 -2 -4t2 -4z" />
<glyph unicode="K" horiz-adv-x="1046" d="M92 6q0 -2 4 -6h10q6 0 7 6l82 578l258 231l467 -801q8 -14 14 -14h10q8 0 4 10l-481 817l625 559q4 4 4 6q0 3 -6 3h-11q-6 0 -12 -6l-868 -777l108 777q0 6 -6 6h-8q-6 0 -6 -6z" />
<glyph unicode="L" horiz-adv-x="937" d="M92 6q0 -2 4 -6h766q6 0 6 6v8v3q0 3 -4 3h-749l192 1369q0 6 -6 6h-8q-6 0 -6 -6z" />
<glyph unicode="M" horiz-adv-x="1753" d="M20 6q-2 -2 5 -6h12q2 0 6 6l426 1350l324 -1262q4 -4 4 -6h14q4 4 4 6l762 1260v-1348q0 -2 4 -6h10q6 0 6 6v1383q0 2 -4 6h-12q-6 0 -8 -6l-764 -1268l-328 1268q0 6 -6 6h-10q-6 0 -6 -6z" />
<glyph unicode="N" horiz-adv-x="1361" d="M92 6q0 -2 4 -6h10q6 0 7 6l190 1354l834 -1354q0 -6 6 -6h8q4 0 8 6l193 1383v1q0 2 -4 5h-9q-6 0 -8 -6l-188 -1354l-834 1354q-6 6 -8 6h-8q-6 0 -6 -6z" />
<glyph unicode="O" horiz-adv-x="1406" d="M96 575q0 -283 172 -444q155 -149 388 -149h3q305 0 512 245q203 240 203 588q0 272 -168 440q-164 160 -401 160q-287 0 -496 -239q-213 -248 -213 -601zM117 575q0 348 209 588q203 231 479 232q229 0 387 -154q162 -162 162 -426q0 -340 -201 -577 q-199 -236 -494 -236q-229 0 -378 143q-164 158 -164 430z" />
<glyph unicode="P" horiz-adv-x="1093" d="M92 6q0 -2 4 -6h10q6 0 7 6l73 531h252q317 0 436 69q220 128 220 361q0 238 -203 358q-115 70 -340 70h-258q-6 0 -6 -6zM190 557l115 817h246q160 0 276 -41q113 -41 179.5 -141t66.5 -225q0 -223 -209 -342q-117 -68 -426 -68h-248z" />
<glyph unicode="Q" horiz-adv-x="1406" d="M96 575q0 -264 154 -425q141 -147 358 -166v-11q-6 -6 4 -6q53 -10 85 -16t42 -8q182 -47 316.5 -83t224.5 -63q1 -1 2 -1q3 0 8 3l10 11q4 4 -2 6q-63 16 -124.5 34.5t-124.5 36.5q-86 23 -161 42.5t-140 33.5q-29 4 -48.5 8t-31.5 6q-10 2 -11 5h11q301 2 503 245 q203 242 203 588q0 272 -168 440q-164 160 -401 160q-287 0 -496 -239q-213 -248 -213 -601zM117 575q0 348 209 588q203 231 479 232q229 0 387 -154q162 -162 162 -426q0 -340 -201 -577q-199 -236 -494 -236q-229 0 -378 143q-164 158 -164 430z" />
<glyph unicode="R" horiz-adv-x="1134" d="M92 6q0 -2 4 -6h10q6 0 7 6l84 594h338l380 -594q6 -6 11 -6h14q4 0 2 6l-383 596q231 10 371 103q166 106 166 321q0 160 -121 258q-139 111 -406 111h-276q-6 0 -6 -6zM199 621l106 753h264q260 0 392 -106q114 -92 114 -242q0 -217 -182 -319q-147 -86 -397 -86h-297z " />
<glyph unicode="S" horiz-adv-x="1040" d="M55 88q158 -106 398 -106q233 0 358 102t125 293q0 152 -135 241q-16 10 -80 42t-180 83q-145 66 -205 115q-96 84 -96 213q0 319 460 320q176 0 306 -54q4 -4 8 4l4 7q0 8 -4 8q-133 55 -314 55q-481 0 -481 -340q0 -137 98 -225q57 -53 215 -123q41 -18 84 -36.5 t86 -35.5q94 -47 150 -102q63 -70 63 -172q0 -180 -117.5 -277.5t-344.5 -97.5q-231 0 -387 104q-4 4 -9 -2l-2 -6q-2 -3 -2 -5.5t2 -4.5z" />
<glyph unicode="T" horiz-adv-x="952" d="M113 1380q0 -2 4 -6h444l-190 -1368q0 -2 4 -6h8q4 0 8 6l191 1368h444q6 0 6 6l2 9q0 6 -6 6h-907q-6 0 -6 -6z" />
<glyph unicode="U" horiz-adv-x="1325" d="M133 428q0 -215 114.5 -330.5t342.5 -115.5q258 0 418 153q154 150 190 418l117 836q0 2 -4 6h-11q-6 0 -6 -6l-116 -832q-37 -264 -185 -407q-154 -147 -403 -148q-217 0 -327.5 109.5t-110.5 314.5q0 29 3 60.5t7 64.5l119 838q0 6 -7 6h-8q-6 0 -6 -6l-117 -836 q-4 -33 -7 -64.5t-3 -60.5z" />
<glyph unicode="V" horiz-adv-x="1157" d="M156 1389l317 -1389q2 -6 6 -6h13q4 0 8 6l741 1389q1 2 1 3q0 3 -5 3h-10q-8 0 -10 -6l-728 -1366l-311 1366q0 2 -6 6h-12q-4 0 -4 -6z" />
<glyph unicode="W" horiz-adv-x="1945" d="M156 1389l276 -1389q0 -2 4 -6h15q2 0 6 6l630 1360l271 -1360q2 -6 6 -6h12q4 0 8 6l646 1389q2 6 -5 6h-10q-6 0 -8 -6l-633 -1366l-270 1366q-4 6 -6 6h-8q-8 0 -11 -6l-633 -1366l-270 1366q0 2 -4 6h-12q-4 0 -4 -6z" />
<glyph unicode="X" horiz-adv-x="1228" d="M-47 6q-3 -3 -3 -4q0 -2 5 -2h16q4 0 11 6l647 668l397 -668q4 -4 8 -6h15q6 4 4 6l-412 684l680 699q1 2 1 3q0 3 -3 3h-16q-4 0 -11 -6l-661 -680l-408 680q-4 6 -8 6h-12q-8 0 -4 -6l419 -697z" />
<glyph unicode="Y" horiz-adv-x="1015" d="M129 1389l391 -801l-82 -582q0 -2 4 -6h9q6 0 6 6l84 578l575 805q1 1 1 2t-3 4h-14q-6 0 -8 -6l-560 -783l-378 783q-4 6 -9 6h-12q-6 0 -6 -2t2 -4z" />
<glyph unicode="Z" horiz-adv-x="1148" d="M-20 6l2 -6h1024q6 2 6 6v8q2 6 -4 6h-990l1178 1369q2 2 2 4t-6 2h-991q-6 -4 -6 -6l-2 -9q0 -6 6 -6h956z" />
<glyph unicode="[" horiz-adv-x="544" d="M70 -446q0 -2 4 -7h268q6 0 6 7l2 8q0 2 -4 6h-254l252 1806h254q6 0 6 6l2 9q0 6 -6 6h-266q-6 0 -8 -6z" />
<glyph unicode="\" horiz-adv-x="342" d="M139 1405l183 -1417q0 -6 4 -6h8q8 0 6 8l-180 1417q0 6 -6 6h-9q-6 -4 -6 -8z" />
<glyph unicode="]" horiz-adv-x="499" d="M-55 -446q0 -2 4 -7h268q6 0 6 7l258 1835q0 6 -6 6h-266q-6 0 -8 -6v-9q0 -2 4 -6h254l-254 -1806h-252q-6 0 -6 -6z" />
<glyph unicode="^" horiz-adv-x="1961" />
<glyph unicode="_" horiz-adv-x="1036" d="M8 -233q0 -2 4 -7h996q4 0 8 7v8q2 2 -4 6h-996q-6 0 -6 -6z" />
<glyph unicode="`" horiz-adv-x="487" d="M295 1382l139 -282l6 -6h15q8 2 4 6l-142 289l-6 6h-12q-14 0 -4 -13z" />
<glyph unicode="a" horiz-adv-x="948" d="M78 375q0 -201 115 -305q90 -84 208 -84q207 0 351 161l-21 -141q0 -6 6 -6h8q6 0 7 6l127 897q2 12 -9 21q-18 4 -34.5 6l-33 4t-45 3t-69.5 1q-236 0 -409 -137q-201 -160 -201 -426zM98 375q0 256 193 409q170 133 397 134q96 -1 170 -13l-102 -721 q-145 -178 -355 -178q-111 0 -194 78q-109 102 -109 291z" />
<glyph unicode="b" horiz-adv-x="970" d="M92 6q0 -4 6 -6q76 -18 219 -18q274 0 435 165q149 156 149 414q0 201 -129 303q-96 72 -217 72q-174 0 -330 -133l82 588q0 6 -6 6h-8q-6 0 -6 -6zM115 16l104 754q162 145 336 145q115 0 205 -67q121 -97 121 -287q0 -248 -146 -399q-152 -160 -418 -160 q-137 0 -202 14z" />
<glyph unicode="c" horiz-adv-x="839" d="M78 395q0 -186 123 -303q116 -110 283 -110h3q162 0 281 71q8 0 2 6l-4 11q-4 4 -8 0q-109 -68 -271 -68t-272 104q-117 111 -117 289q0 221 168 377q158 145 357 146q160 0 237 -48q4 -4 6 2l6 9q1 1 1 2q0 2 -3 6q-90 49 -247 49q-207 0 -371 -152q-174 -160 -174 -391 z" />
<glyph unicode="d" horiz-adv-x="956" d="M78 401q0 -215 151 -325q125 -92 312 -92q104 0 209 12q8 0 8 6l194 1389v1q0 2 -4 5h-10q-6 0 -6 -6l-66 -473q-72 14 -192 14q-221 0 -391 -121q-205 -147 -205 -410zM98 401q0 252 197 394q161 116 375 116h4q110 0 188 -12l-123 -885q-57 -4 -106 -7t-92 -3 q-182 0 -301 88q-141 104 -142 309z" />
<glyph unicode="e" horiz-adv-x="899" d="M78 395q0 -184 108.5 -298.5t290.5 -114.5q195 0 311 73q4 4 5 8l-7 9q-2 2 -8 2q-115 -72 -301 -72q-166 0 -266 98.5t-111 259.5q27 -2 67 -3t97 -1q254 0 422 90q178 99 178 269q0 100 -73.5 161.5t-202.5 61.5q-217 0 -365 -164q-145 -164 -145 -379zM98 381v14 q0 207 140 365q141 158 350 158q119 0 187.5 -55.5t68.5 -147.5q0 -158 -168 -250q-158 -88 -412 -88q-55 0 -96 1t-70 3z" />
<glyph unicode="f" horiz-adv-x="532" d="M72 -385q0 -2 4 -6h10q6 0 6 6l174 1284h340q6 0 6 6l2 8q0 6 -6 7h-340q4 35 8.5 60.5t6.5 41.5q49 358 307 358q131 0 213 -47q2 -4 8 2l4 8q2 2 2 3q0 3 -4 6q-80 49 -223 49q-276 0 -328 -377q-4 -37 -7 -62.5t-7 -41.5h-119q-8 0 -8 -7v-8q-2 -2 4 -6h119z" />
<glyph unicode="g" horiz-adv-x="927" d="M33 -342q-2 -2 -2 -3q0 -3 4 -5q137 -90 256 -90q389 0 448 424l131 929v1q0 2 -4 6h-10q-6 0 -6 -7l-12 -90q-117 111 -273 111q-215 0 -360 -189q-131 -168 -131 -380q0 -180 91 -281.5t257 -101.5q82 0 168 41q96 45 153 131l-24 -168q-59 -406 -428 -406 q-113 0 -244 86q-6 2 -8 0zM94 365q0 205 127 368q137 180 344 180h3q152 0 266 -114l-82 -586q-45 -104 -150 -162q-90 -49 -180 -49q-154 0 -241 94t-87 269z" />
<glyph unicode="h" horiz-adv-x="970" d="M92 6q0 -2 4 -6h10q6 0 7 6l65 459v4q33 242 170 354q109 90 262 90q231 0 232 -295q0 -53 -6 -98l-72 -514q0 -6 6 -6h8q6 0 6 6l72 512q6 43 6 100q0 315 -252 316q-295 0 -407 -291l102 748q2 6 -4 6h-8q-6 0 -8 -6z" />
<glyph unicode="i" horiz-adv-x="311" d="M92 6q0 -2 4 -6h10q6 0 7 6l127 907q0 2 -4 7h-11q-6 0 -6 -7zM266 1251q0 -2 4 -6h11q6 0 6 6l20 140q0 6 -6 6h-8q-6 0 -6 -6z" />
<glyph unicode="j" horiz-adv-x="311" d="M-211 -451l2 -8q4 -4 8 -4q260 70 297 342l140 1034q0 6 -7 7h-10q-4 0 -6 -7l-137 -1032q-35 -260 -283 -323q-4 -4 -4 -9zM260 1251v-1q0 -2 4 -5h10q6 0 7 6l20 140q0 6 -6 6h-8q-6 0 -8 -6z" />
<glyph unicode="k" horiz-adv-x="806" d="M92 6q0 -2 4 -6h10q6 0 7 6l43 309l231 195l383 -504q6 -6 12 -6h6q14 0 7 8l-394 514l461 389q2 2 2 3q0 3 -4 6h-12q-6 0 -14 -7l-674 -569l147 1047q0 6 -6 6h-8q-6 0 -6 -6z" />
<glyph unicode="l" horiz-adv-x="311" d="M92 6q0 -2 4 -6h10q6 0 7 6l194 1385q0 6 -6 6h-8q-6 0 -6 -6z" />
<glyph unicode="m" horiz-adv-x="1619" d="M92 6q0 -2 4 -6h10q6 0 7 6q76 524 73 512q31 215 174 320q108 77 237 77h3q231 0 231 -299q0 -16 -2 -39.5t-6 -54.5l-69 -516q-4 -6 4 -6h8q4 0 8 6l70 514q27 215 172 320q105 75 237 75h4q233 0 234 -299q0 -10 -3 -33.5t-7 -62.5l-70 -514q-4 -6 4 -6h8q4 0 9 6 l69 514q4 39 7 62.5t3 33.5q0 319 -254 320q-117 0 -217 -57q-133 -78 -188 -236q-10 293 -252 293q-111 0 -207 -53q-129 -70 -186 -207l33 237q2 6 -4 7h-9q-6 0 -8 -7z" />
<glyph unicode="n" horiz-adv-x="970" d="M92 6q0 -2 4 -6h10q6 0 7 6l65 459v6q35 242 170 354q106 88 262 88q231 0 232 -295q0 -53 -6 -98l-72 -514q0 -6 6 -6h8q6 0 6 6l72 512q6 43 6 100q0 315 -252 316q-295 0 -407 -289l37 268q2 6 -4 7h-9q-6 0 -8 -7z" />
<glyph unicode="o" horiz-adv-x="1040" d="M201 88q113 -106 282 -106q207 0 346 157q140 162 140 391q0 184 -121 299q-115 109 -283 109q-197 0 -338 -154q-149 -157 -149 -392q0 -191 123 -304zM98 389q0 229 144 381q137 147 323 148q160 0 269 -103q114 -109 114 -285q0 -221 -133 -376q-133 -152 -332 -152 q-160 0 -268 102q-117 106 -117 285z" />
<glyph unicode="p" horiz-adv-x="958" d="M18 -469q0 -2 5 -6h10q6 0 6 6l67 475q86 -18 199 -18q252 0 412 141q170 152 170 422q0 178 -93.5 282.5t-258.5 104.5q-43 0 -87.5 -12.5t-87.5 -33t-80.5 -48t-64.5 -58.5l16 127q2 6 -4 7h-8q-6 0 -8 -7zM109 27l100 721q49 66 143 116q96 53 183 54 q154 0 242.5 -99.5t88.5 -267.5q0 -260 -164 -406q-152 -137 -397 -137q-115 0 -196 19z" />
<glyph unicode="q" horiz-adv-x="944" d="M78 369q0 -160 90 -267q93 -112 251 -112h3q254 0 346 225l-94 -684q-2 -2 4 -6h8q8 0 8 6l193 1382l1 1q0 2 -5 6q-102 18 -232 18q-233 0 -391 -137q-182 -158 -182 -432zM98 369q0 266 176 417q150 131 377 132q53 0 106.5 -4.5t106.5 -12.5l-73 -524 q-53 -367 -369 -367q-152 0 -240 107q-84 100 -84 252z" />
<glyph unicode="r" horiz-adv-x="557" d="M92 6q0 -2 4 -6h10q6 0 7 6l65 459q33 233 156 356q94 92 215 92q39 0 61 -8q4 0 8 4l3 9q1 1 1 2q0 3 -6 6q-25 8 -67 8q-96 0 -184 -60q-100 -74 -160 -219l35 258q2 6 -4 7h-9q-6 0 -8 -7z" />
<glyph unicode="s" horiz-adv-x="700" d="M-2 66q-1 -1 -1 -2q0 -2 3 -5q112 -77 283 -77h4q143 0 233 59q96 66 96 188q0 111 -92 177l-53 26.5t-131 61.5q-68 33 -105.5 51t-46.5 24q-71 52 -71 145q0 97 87 150.5t228 53.5q127 0 227 -41q4 0 9 4l2 8q1 1 1 2q0 2 -3 6q-111 41 -236 41q-143 0 -235 -55 q-100 -57 -101 -166q0 -104 74 -162q27 -20 162 -82q82 -39 126 -58.5t48 -23.5q90 -59 90 -162q0 -113 -84 -170t-225 -57q-168 0 -275 74q-6 2 -8 0z" />
<glyph unicode="t" horiz-adv-x="559" d="M82 905q0 -6 6 -6h117l-86 -608q-6 -43 -6 -82q0 -227 225 -227q119 0 213 53q10 0 4 6l-6 10q0 2 -6 0q-98 -49 -205 -49q-205 0 -205 207q0 35 6 78l86 612h342q4 0 8 6v8q0 2 -4 7h-342l27 192q0 6 -6 6h-8q-6 0 -6 -6l-29 -192h-117q-6 0 -6 -7z" />
<glyph unicode="u" horiz-adv-x="968" d="M115 266q0 -76 28 -143q61 -141 283 -141q215 0 319 145q68 94 91 248l73 538q0 2 -4 7h-10q-6 0 -6 -7l-74 -536q-23 -145 -86 -238q-98 -137 -303 -137q-207 0 -264 129q-27 59 -27 135q0 23 2 49.5t6 57.5l74 540q0 6 -6 7h-8q-6 0 -8 -7l-72 -538q-4 -31 -6 -58.5 t-2 -50.5z" />
<glyph unicode="v" horiz-adv-x="774" d="M98 913l201 -913q0 -6 6 -6h12q2 0 7 6l514 913q1 1 1 2q0 2 -3 5h-13q-8 0 -10 -7l-498 -888l-196 888q0 2 -6 7h-11q-4 0 -4 -7z" />
<glyph unicode="w" horiz-adv-x="1308" d="M98 913l174 -913q2 -6 7 -6h14q2 0 6 6l432 885l170 -885q0 -2 4 -6h17q2 2 2 4l2 2l448 913q1 1 1 2q0 2 -3 5h-12q-8 0 -8 -7l-434 -888l-170 888q-4 6 -7 7h-10q-6 0 -8 -7l-432 -888l-172 888q0 2 -6 7h-11q-4 0 -4 -7z" />
<glyph unicode="x" horiz-adv-x="794" d="M-45 6q-6 -3 -6 -4q0 -2 8 -2h14q6 0 11 6l424 451l276 -451q4 -4 8 -6h12q6 0 5 6l-287 465l414 442q3 1 3 3t-3 4h-17q-4 0 -10 -7l-397 -424l-263 424q-4 6 -8 7h-12q-8 0 -4 -7l270 -438z" />
<glyph unicode="y" horiz-adv-x="851" d="M-94 -455v-10q0 -4 6 -4q154 8 262 117q80 82 203 307l520 958q1 2 1 3q0 3 -3 4h-12q-6 0 -9 -7l-501 -923l-273 923q0 6 -6 7h-10q-8 0 -4 -7l278 -948q-121 -225 -198 -303q-102 -102 -248 -111q-6 0 -6 -6z" />
<glyph unicode="z" horiz-adv-x="747" d="M-41 4q0 -4 6 -4h703q6 0 6 6l2 8q0 6 -6 6h-678l815 881q2 2 2 4l2 8q0 2 -4 7h-680q-6 0 -8 -7v-8q0 -2 4 -6h655l-815 -881q-2 -2 -2 -4z" />
<glyph unicode="{" horiz-adv-x="477" d="M61 526q0 -2 5 -6h4q82 0 124 -70.5t42 -183.5q0 -53 -9 -100l-61 -369q-8 -41 -8 -78q0 -150 151 -149q6 0 6 6v8q2 2 -4 6h-2q-133 0 -133 127q0 37 8 76l64 369q8 47 8 102q0 211 -123 264q143 45 205 310q25 100 37 245q4 45 8 89.5t8 89.5q20 209 187 208q6 0 6 7 l2 8q0 6 -6 6h-2q-182 0 -207 -227q-6 -66 -12.5 -133.5t-12.5 -133.5q-14 -100 -32.5 -177t-45.5 -132q-72 -147 -194 -147h-4q-6 0 -7 -6z" />
<glyph unicode="|" horiz-adv-x="362" d="M72 -461q0 -6 6 -6h8q6 0 6 6l258 1850q0 6 -6 6h-8q-6 0 -6 -6z" />
<glyph unicode="}" horiz-adv-x="477" d="M-47 -424q0 -2 4 -6h4q182 0 207 227q6 66 12 133.5t13 132.5q14 100 32.5 177t44.5 133q70 147 195 147h4q6 0 6 6l2 9q0 6 -6 6h-4q-80 0 -123 73q-41 70 -41 179q0 55 8 102l62 369q8 41 8 77q0 150 -152 150q-6 0 -6 -6l-2 -8q0 -6 6 -7h2q129 0 129 -127 q0 -33 -6 -75l-61 -369q-8 -47 -8 -104q0 -213 123 -263q-143 -45 -205 -309q-25 -102 -37 -246q-4 -45 -8 -89t-9 -89q-23 -209 -186 -209q-6 0 -6 -6z" />
<glyph unicode="~" horiz-adv-x="1961" />
<glyph unicode="&#xa1;" horiz-adv-x="307" d="M16 -485q0 -2 4 -7h13q6 0 6 7l145 1046q0 8 -6 8h-4q-6 0 -8 -8zM188 737q0 -6 7 -6h8q6 0 6 6l24 176q2 2 -4 7h-8q-6 0 -6 -7z" />
<glyph unicode="&#xa2;" horiz-adv-x="839" d="M78 395q0 -174 106 -286q100 -106 254 -125l-8 -58q0 -6 6 -6h8q6 0 7 6l8 56h28q162 0 281 71q8 0 2 6l-4 11q-4 4 -8 0q-109 -68 -271 -68h-24l127 913q6 2 33 3q160 0 237 -48q4 -4 6 2l6 9q2 2 -2 8q-90 49 -247 49h-31l10 68q0 2 -4 6h-10q-6 0 -6 -6l-11 -70 q-195 -23 -338 -168q-156 -156 -155 -373zM98 395q0 205 148 357q137 141 323 161l-127 -909q-143 14 -241 119q-102 109 -103 272z" />
<glyph unicode="&#xa3;" horiz-adv-x="985" d="M57 6q0 -2 4 -6h783q8 0 8 6v8q2 2 -4 6h-629l96 693h445q8 0 8 6v8q2 2 -4 6h-445l11 86q68 573 434 574q186 0 293 -70q4 -4 8 2l4 6q4 4 -2 8q-117 74 -303 74q-233 0 -346 -209q-76 -135 -109 -383l-12 -88h-131q-6 0 -6 -6v-8q-4 -6 4 -6h131l-96 -693h-133 q-6 0 -7 -6z" />
<glyph unicode="&#xa4;" horiz-adv-x="1265" d="M25 561q0 -2 4 -6h110q18 -270 211 -430q170 -143 404 -143q227 0 397 79l4 7l-6 8q0 4 -6 4q-162 -78 -389 -78q-225 0 -389 137q-190 156 -205 416h714q2 0 9 6l4 8q4 4 -4 6h-725v35q0 100 28 205h856q2 0 9 6l4 8q4 4 -4 7h-858q76 242 288 399q211 160 451 160 q219 0 348 -56q6 -6 6 4l4 9q4 4 -2 8q-133 55 -356 55q-246 0 -465 -164q-217 -162 -295 -415h-102q-6 0 -9 -7v-8q0 -2 5 -6h100q-29 -104 -29 -205v-35h-104q-6 0 -6 -6z" />
<glyph unicode="&#xa5;" horiz-adv-x="1062" d="M129 461q0 -2 4 -6h414l-64 -449q0 -2 4 -6h9q4 0 8 6l63 449h414q4 0 8 6v8q0 2 -4 6h-416l17 109l20 28h398q6 0 6 6l2 9q0 6 -6 6h-385l540 756q2 6 -2 6h-14q-6 0 -8 -6l-559 -783l-379 783q-4 6 -9 6h-12q-8 -2 -4 -6l371 -756h-385q-6 0 -8 -6v-9q0 -2 4 -6h399 l10 -24l-14 -113h-414q-6 0 -6 -6z" />
<glyph unicode="&#xa6;" />
<glyph unicode="&#xa7;" horiz-adv-x="788" d="M-10 -373q-4 -4 0 -8q127 -90 270 -90q150 0 252 92q104 88 104 240q0 121 -98 219q219 152 219 350q0 135 -127 240q-59 43 -116.5 86t-116.5 84q-127 104 -127 235q0 150 106 238q94 80 224 80q141 0 260 -70q6 -2 8 2l4 6q2 6 0 8q-121 74 -272 74q-135 0 -236 -84 q-115 -96 -115 -254q0 -109 84 -205q-217 -162 -217 -352l500 -657q0 -141 -96 -226q-96 -86 -240 -86q-147 0 -258 86q-4 4 -8 -2zM117 518q0 178 211 338q23 -23 63.5 -53.5t100.5 -71.5q111 -74 155 -125q70 -78 70 -176q0 -188 -213 -336q-23 20 -64 52t-102 75 q-53 39 -92 70t-62 57q-68 76 -67 170z" />
<glyph unicode="&#xa8;" horiz-adv-x="479" d="M270 1212q0 -2 4 -6h11q6 0 6 6l24 177q0 2 -4 6h-10q-6 0 -6 -6zM610 1212q0 -2 4 -6h11q6 0 6 6l24 177q0 2 -4 6h-10q-6 0 -6 -6z" />
<glyph unicode="&#xa9;" horiz-adv-x="1757" d="M82 737q0 -311 219 -534q221 -221 535 -221q313 0 534 221t221 534t-221 533q-221 221 -534 221t-535 -221q-219 -219 -219 -533zM102 737q0 305 215 518q215 215 519 215q305 0 520 -215q215 -213 215 -518q0 -303 -215 -520q-215 -215 -520 -215t-521 215 q-213 217 -213 520zM459 678q0 -172 116 -277q104 -92 246 -92q135 0 234 47q10 0 4 6l-4 11q-4 6 -8 2q-92 -45 -226 -45q-137 0 -231 86q-111 98 -111 262q0 182 142 321q133 131 305 131q135 0 200 -30q2 -4 9 2l2 8q2 4 -2 8q-72 33 -209 33q-180 0 -320 -137 q-147 -145 -147 -336z" />
<glyph unicode="&#xaa;" horiz-adv-x="520" d="M49 1073q0 -121 70 -184q53 -51 127 -51q131 0 203 104q4 8 8 14.5t8 10.5l-16 -115q0 -2 4 -6h10q2 0 6 6l76 547q0 2 -6 6q-41 10 -121 10q-139 0 -248 -84q-121 -96 -121 -258zM70 1073q0 154 112 242q100 80 236 80q63 0 106 -6l-45 -312q-31 -219 -233 -219 q-68 0 -113 45q-63 57 -63 170zM100 571q0 -6 6 -6h199q6 0 6 6l2 9q0 6 -6 6h-198q-4 0 -7 -6z" />
<glyph unicode="&#xab;" horiz-adv-x="739" d="M82 444l215 -442q0 -2 8 -2h10q10 0 2 8l-219 451l348 452q8 8 0 9h-12q-6 0 -8 -2l-342 -443q-10 -16 -2 -31zM317 444l215 -442q0 -2 9 -2h10q10 0 2 8l-219 451l348 452q4 4 0 9h-12q-6 0 -8 -2l-343 -443q-10 -16 -2 -31z" />
<glyph unicode="&#xac;" horiz-adv-x="1961" />
<glyph unicode="&#xad;" horiz-adv-x="856" d="M184 489q0 -2 4 -6h465q8 0 9 6v9q2 2 -5 6h-464q-6 0 -7 -6z" />
<glyph unicode="&#xae;" horiz-adv-x="1757" d="M82 737q0 -311 219 -534q221 -221 535 -221q313 0 534 221t221 534t-221 533q-221 221 -534 221t-535 -221q-219 -219 -219 -533zM102 737q0 305 215 518q215 215 519 215q305 0 520 -215q215 -213 215 -518q0 -303 -215 -520q-215 -215 -520 -215t-521 215 q-213 217 -213 520zM518 322q0 -6 6 -7h8q6 0 7 7l47 333h243l211 -333q2 -6 9 -7h14q4 2 2 9l-211 331h41q111 0 186 76q78 78 78 184q0 104 -74 164q-66 53 -167 54h-279q-6 0 -8 -7zM590 676l59 436h269q98 0 159.5 -49.5t61.5 -147.5t-72 -170q-70 -70 -172 -69h-305z " />
<glyph unicode="&#xaf;" horiz-adv-x="980" />
<glyph unicode="&#xb0;" horiz-adv-x="618" d="M123 1214q0 -115 80 -196q82 -80 196 -80q115 0 195 80q82 81 82 196t-82 195q-80 82 -195 82t-196 -82q-80 -80 -80 -195zM143 1214q0 106 74 181q76 76 182 75q106 0 181 -75t75 -181t-75 -182q-74 -74 -181 -74q-106 0 -182 74q-74 76 -74 182z" />
<glyph unicode="&#xb1;" horiz-adv-x="1961" />
<glyph unicode="&#xb2;" />
<glyph unicode="&#xb3;" />
<glyph unicode="&#xb4;" horiz-adv-x="489" d="M252 1100q-4 -4 4 -6h14q2 0 6 6l222 282q8 12 -4 13h-15l-6 -6z" />
<glyph unicode="&#xb6;" horiz-adv-x="917" d="M82 973q0 -139 82 -228q88 -92 254 -108l-146 -1038q0 -2 4 -7h11q6 0 6 7l258 1845q10 2 49 2h162l-260 -1847q0 -6 6 -7h8q6 0 6 7l260 1847h224v20h-406q-225 0 -367 -123q-152 -133 -151 -370zM102 973q0 207 123 334q115 117 305 135l-110 -785q-160 12 -242 101 q-76 82 -76 215z" />
<glyph unicode="&#xb7;" horiz-adv-x="208" d="M92 616q-4 -6 4 -6h8q8 0 9 6l24 177q0 6 -6 6h-8q-6 0 -6 -6z" />
<glyph unicode="&#xb8;" horiz-adv-x="694" d="M190 -342q0 -2 5 -6q31 -8 81 -8q88 0 152 39q80 49 80 139q0 125 -178 117l14 71l-20 4l-19 -96q182 16 182 -96q0 -80 -69 -123q-59 -35 -142 -35q-47 0 -77 8q-6 0 -6 -6z" />
<glyph unicode="&#xb9;" />
<glyph unicode="&#xba;" horiz-adv-x="606" d="M92 1081q0 -55 19.5 -101t52.5 -78t78 -49t96 -17q127 0 211 96t84 235q0 55 -19.5 101.5t-52.5 79t-78 50t-96 17.5q-117 0 -207 -96q-88 -94 -88 -238zM113 1081q0 135 82 224q84 90 192 90q98 0 161.5 -62t63.5 -166q0 -133 -77 -223q-76 -88 -197 -88 q-94 0 -159.5 60.5t-65.5 164.5zM168 571q0 -6 6 -6h199q6 0 6 6l2 9q0 6 -6 6h-199q-4 0 -6 -6z" />
<glyph unicode="&#xbb;" horiz-adv-x="739" d="M57 0h13q8 0 8 2l342 442q10 17 2 31l-215 443q0 2 -8 2h-11q-6 -4 -2 -9l222 -450l-351 -453q-4 -4 0 -8zM293 0h12q8 0 8 2l342 442q10 17 2 31l-215 443q0 2 -8 2h-10q-6 -4 -2 -9l221 -450l-350 -453q-4 -4 0 -8z" />
<glyph unicode="&#xbc;" />
<glyph unicode="&#xbd;" />
<glyph unicode="&#xbe;" />
<glyph unicode="&#xbf;" horiz-adv-x="811" d="M82 -164q0 -147 86 -235q88 -94 248 -95q176 0 356 119q8 2 4 8l-6 9q-4 4 -8 0q-176 -115 -346 -115q-147 0 -230.5 86t-83.5 223q0 190 224 350q168 119 192 144q70 80 92 233q2 6 -4 6h-8q-6 0 -8 -6q-6 -53 -17.5 -92t-30 -71.5t-46 -60.5t-66.5 -56 q-100 -72 -159.5 -117t-75.5 -64q-113 -113 -113 -266zM614 737q0 -2 4 -6h11q6 0 6 6l24 176q0 2 -4 7h-10q-6 0 -6 -7z" />
<glyph unicode="&#xc0;" horiz-adv-x="1202" d="M-18 6q-6 -6 4 -6h12q4 0 8 6l217 397h760l92 -397q2 -6 6 -6h13q6 0 4 6l-326 1389q-4 6 -6 6h-12q-6 0 -9 -6zM236 424l520 948l221 -948h-741zM692 1831l139 -283q2 -6 7 -6h14q6 0 4 6l-141 289l-6 6h-13q-14 0 -4 -12z" />
<glyph unicode="&#xc1;" horiz-adv-x="1202" d="M-18 6q-6 -6 4 -6h12q4 0 8 6l217 397h760l92 -397q2 -6 6 -6h13q6 0 4 6l-326 1389q-4 6 -6 6h-12q-6 0 -9 -6zM236 424l520 948l221 -948h-741zM641 1546q-4 -4 4 -6h14q2 0 9 6l219 283q12 12 -2 12h-15q-6 0 -8 -6z" />
<glyph unicode="&#xc2;" horiz-adv-x="1210" d="M-18 6q-6 -6 4 -6h12q4 0 8 6l217 397h760l92 -397q2 -6 6 -6h13q6 0 4 6l-326 1389q-4 6 -6 6h-12q-6 0 -9 -6zM236 424l520 948l221 -948h-741zM561 1542q-4 -6 4 -6h15q2 0 8 6l237 275l160 -275q2 -4 3 -5l1 -1h15q6 0 4 6l-170 293l-2 2q0 2 -2 4h-13q4 0 -8 -6z " />
<glyph unicode="&#xc3;" horiz-adv-x="1255" d="M-18 6q-6 -6 4 -6h12q4 0 8 6l217 397h760l92 -397q2 -6 6 -6h13q6 0 4 6l-326 1389q-4 6 -6 6h-12q-6 0 -9 -6zM236 424l520 948l221 -948h-741zM524 1599q-6 -6 4 -6h9q2 0 8 6q6 43 33 78q33 49 88 49q41 0 118.5 -65.5t130.5 -65.5q59 0 100.5 43.5t49.5 104.5 q0 6 -6 6h-8q-6 0 -7 -6q-23 -127 -129 -127q-47 0 -124.5 65.5t-124.5 65.5q-68 0 -107 -61q-29 -45 -35 -87z" />
<glyph unicode="&#xc4;" horiz-adv-x="1202" d="M-18 6q-6 -6 4 -6h12q4 0 8 6l217 397h760l92 -397q2 -6 6 -6h13q6 0 4 6l-326 1389q-4 6 -6 6h-12q-6 0 -9 -6zM236 424l520 948l221 -948h-741zM592 1589q0 -6 6 -6h8q4 0 8 6l25 176q0 6 -6 7h-8q-6 0 -9 -7zM932 1589q0 -6 6 -6h8q4 0 8 6l25 176q0 6 -6 7h-8 q-6 0 -9 -7z" />
<glyph unicode="&#xc5;" horiz-adv-x="1202" d="M-18 6q-6 -6 4 -6h12q4 0 8 6l217 397h760l92 -397q2 -6 6 -6h13q6 0 4 6l-326 1389q-4 6 -6 6h-12q-6 0 -9 -6zM236 424l520 948l221 -948h-741zM600 1714q0 -39 15.5 -73.5t41 -60.5t60.5 -41t74 -15t73.5 15t60 41t41 60.5t15.5 73.5t-15.5 74t-41 60.5t-60.5 41 t-73 15.5q-39 0 -74 -15.5t-60.5 -41t-41 -60.5t-15.5 -74zM621 1714q0 70 50 120t120 50t120 -50t50 -120t-50.5 -120t-119.5 -50q-70 0 -120 50.5t-50 119.5z" />
<glyph unicode="&#xc6;" horiz-adv-x="1959" d="M-18 0h14q6 0 12 6l350 397h721l-55 -397q0 -6 6 -6h834q6 0 6 6l2 8q0 6 -6 6h-817l92 668h635q6 0 6 6l2 8q0 6 -6 7h-633l92 665h717q6 0 6 6l2 9q0 6 -6 6h-739q-4 0 -11 -6l-1224 -1383q-6 -6 0 -6zM377 424l840 948l-134 -948h-706z" />
<glyph unicode="&#xc7;" horiz-adv-x="1224" d="M84 610q0 -272 168 -442q150 -156 369 -182l-13 -68q182 16 183 -96q0 -80 -70 -123q-59 -35 -141 -35q-49 0 -76 8q-8 0 -8 -6l-2 -8q0 -2 4 -6q31 -8 82 -8q88 0 151 39q80 49 80 139q0 125 -178 117l8 45q10 -2 25 -2h34q227 0 398 79q10 0 4 7l-4 8q-4 4 -8 4 q-162 -78 -390 -78q-236 0 -405 152q-190 168 -191 456q0 319 244 557q233 227 531 228q221 0 348 -56q4 -6 8 4l2 9q4 4 -2 8q-133 55 -356 55q-305 0 -545 -233q-250 -244 -250 -572z" />
<glyph unicode="&#xc8;" horiz-adv-x="1110" d="M92 6q0 -2 4 -6h916q8 0 8 6v8q2 2 -4 6h-901l94 668h717q6 0 6 6l2 8q0 6 -6 7h-717l94 665h797q4 0 8 6v9q0 2 -4 6h-813q-6 0 -8 -6zM686 1831l141 -283q2 -6 7 -6h12q6 0 6 6l-143 289q0 2 -4 6h-13q-10 0 -6 -12z" />
<glyph unicode="&#xc9;" horiz-adv-x="1110" d="M92 6q0 -2 4 -6h916q8 0 8 6v8q2 2 -4 6h-901l94 668h717q6 0 6 6l2 8q0 6 -6 7h-717l94 665h797q4 0 8 6v9q0 2 -4 6h-813q-6 0 -8 -6zM612 1546q-6 -6 6 -6h13q2 0 8 6l219 283q12 12 -2 12h-14q-6 0 -8 -6z" />
<glyph unicode="&#xca;" horiz-adv-x="1110" d="M92 6q0 -2 4 -6h916q8 0 8 6v8q2 2 -4 6h-901l94 668h717q6 0 6 6l2 8q0 6 -6 7h-717l94 665h797q4 0 8 6v9q0 2 -4 6h-813q-6 0 -8 -6zM561 1542q-2 -2 2 -6h17q2 0 6 6l239 275l158 -275q2 -6 6 -6h15q6 4 4 6l-170 293l-7 6h-12l-6 -6z" />
<glyph unicode="&#xcb;" horiz-adv-x="1110" d="M92 6q0 -2 4 -6h916q8 0 8 6v8q2 2 -4 6h-901l94 668h717q6 0 6 6l2 8q0 6 -6 7h-717l94 665h797q4 0 8 6v9q0 2 -4 6h-813q-6 0 -8 -6zM559 1589q0 -6 6 -6h8q6 0 7 6l24 176q0 2 -4 7h-10q-6 0 -6 -7zM899 1589q0 -2 4 -6h10q6 0 7 6l24 176q0 2 -4 7h-10q-6 0 -6 -7z " />
<glyph unicode="&#xcc;" horiz-adv-x="319" d="M92 6q0 -2 4 -6h10q6 0 7 6l194 1383q0 6 -6 6h-8q-6 0 -6 -6zM272 1831l142 -283q2 -6 6 -6h14q6 0 4 6l-143 289q0 6 -4 6h-12q-10 0 -7 -12z" />
<glyph unicode="&#xcd;" horiz-adv-x="315" d="M92 6q0 -2 4 -6h10q6 0 7 6l194 1383q0 6 -6 6h-8q-6 0 -6 -6zM188 1546q-4 -4 5 -6h14l6 6l221 283q8 12 -4 12h-14q-4 0 -6 -6z" />
<glyph unicode="&#xce;" horiz-adv-x="315" d="M92 6q0 -2 4 -6h10q6 0 7 6l194 1383q0 6 -6 6h-8q-6 0 -6 -6zM106 1542q-4 -6 5 -6h16q2 0 6 6l238 275l159 -275q2 -6 7 -6h12q6 0 6 6l-172 293l-2 2q0 2 -2 4h-12l-7 -6z" />
<glyph unicode="&#xcf;" horiz-adv-x="311" d="M92 6q0 -2 4 -6h10q6 0 7 6l194 1383q0 6 -6 6h-8q-6 0 -6 -6zM150 1589q0 -6 6 -6h8q4 0 8 6l25 176q0 6 -7 7h-8q-6 0 -8 -7zM489 1589q0 -6 7 -6h8q6 0 6 6l27 176q0 6 -7 7h-8q-6 0 -8 -7z" />
<glyph unicode="&#xd0;" />
<glyph unicode="&#xd1;" horiz-adv-x="1361" d="M92 6q0 -2 4 -6h10q6 0 7 6l190 1354l834 -1354q0 -6 6 -6h8q4 0 8 6l193 1383q0 2 -4 6h-9q-6 0 -8 -6l-188 -1354l-834 1354q-6 6 -8 6h-8q-6 0 -6 -6zM598 1599q0 -2 4 -6h10q2 0 6 6q6 43 33 78q33 49 88 49q41 0 119 -65.5t133 -65.5q59 0 103 45q35 40 45 103 q0 2 -4 6h-11q-6 0 -6 -6q-8 -57 -44 -92t-83 -35t-125 65.5t-127 65.5q-63 0 -106 -61q-29 -45 -35 -87z" />
<glyph unicode="&#xd2;" horiz-adv-x="1406" d="M96 575q0 -283 172 -444q156 -150 391 -149q305 0 512 245q203 240 203 588q0 272 -168 440q-164 160 -401 160q-287 0 -496 -239q-213 -248 -213 -601zM117 575q0 348 209 588q203 231 479 232q229 0 387 -154q162 -162 162 -426q0 -340 -201 -577q-199 -236 -494 -236 q-229 0 -378 143q-164 158 -164 430zM786 1831l142 -283q2 -6 4 -6h14q6 0 6 6l-143 289l-2 2q0 2 -2 4h-12q-16 0 -7 -12z" />
<glyph unicode="&#xd3;" horiz-adv-x="1406" d="M96 575q0 -283 172 -444q156 -150 391 -149q305 0 512 245q203 240 203 588q0 272 -168 440q-164 160 -401 160q-287 0 -496 -239q-213 -248 -213 -601zM117 575q0 348 209 588q203 231 479 232q229 0 387 -154q162 -162 162 -426q0 -340 -201 -577q-199 -236 -494 -236 q-229 0 -378 143q-164 158 -164 430zM696 1546q-4 -4 4 -6h15l6 6l221 283q8 12 -4 12h-14q-4 0 -6 -6z" />
<glyph unicode="&#xd4;" horiz-adv-x="1406" d="M96 575q0 -283 172 -444q156 -150 391 -149q305 0 512 245q203 240 203 588q0 272 -168 440q-164 160 -401 160q-287 0 -496 -239q-213 -248 -213 -601zM117 575q0 348 209 588q203 231 479 232q229 0 387 -154q162 -162 162 -426q0 -340 -201 -577q-199 -236 -494 -236 q-229 0 -378 143q-164 158 -164 430zM641 1542q-2 -2 2 -6h16q2 0 9 6l237 275l160 -275q2 -4 3 -5l1 -1h14q6 0 4 6l-169 293l-7 6h-10q4 0 -8 -6z" />
<glyph unicode="&#xd5;" horiz-adv-x="1406" d="M96 575q0 -283 172 -444q156 -150 391 -149q305 0 512 245q203 240 203 588q0 272 -168 440q-164 160 -401 160q-287 0 -496 -239q-213 -248 -213 -601zM117 575q0 348 209 588q203 231 479 232q229 0 387 -154q162 -162 162 -426q0 -340 -201 -577q-199 -236 -494 -236 q-229 0 -378 143q-164 158 -164 430zM618 1599q0 -2 5 -6h10q2 0 6 6q6 43 33 78q37 49 88 49q43 0 120.5 -65.5t131.5 -65.5q59 0 102 45q35 40 45 103q0 2 -4 6h-10q-6 0 -6 -6q-8 -57 -44 -92t-83 -35t-125 65.5t-127 65.5q-63 0 -107 -61q-29 -45 -35 -87z" />
<glyph unicode="&#xd6;" horiz-adv-x="1406" d="M96 575q0 -283 172 -444q156 -150 391 -149q305 0 512 245q203 240 203 588q0 272 -168 440q-164 160 -401 160q-287 0 -496 -239q-213 -248 -213 -601zM117 575q0 348 209 588q203 231 479 232q229 0 387 -154q162 -162 162 -426q0 -340 -201 -577q-199 -236 -494 -236 q-229 0 -378 143q-164 158 -164 430zM670 1589q-4 -6 4 -6h8q4 0 8 6l25 176q0 6 -6 7h-9q-6 0 -6 -7zM1010 1589q-4 -6 4 -6h8q4 0 8 6l25 176q0 6 -6 7h-9q-6 0 -6 -7z" />
<glyph unicode="&#xd7;" />
<glyph unicode="&#xd8;" horiz-adv-x="1419" d="M117 575q0 -266 155 -428l-125 -141q-4 -4 0 -8l7 -6q4 -4 8 0l125 139q158 -150 393 -149q305 0 512 245q203 240 203 588q0 240 -140 408l154 172q6 4 2 8l-6 6q-4 4 -8 0l-154 -172q-164 178 -418 178q-287 0 -495 -239q-213 -248 -213 -601zM137 575q0 348 209 588 q203 231 479 232q248 0 404 -174l-942 -1059q-150 156 -150 413zM301 147l942 1059q131 -162 131 -391q0 -340 -200 -577q-199 -236 -494 -236q-227 0 -379 145z" />
<glyph unicode="&#xd9;" horiz-adv-x="1284" d="M133 428q0 -215 114.5 -330.5t342.5 -115.5q258 0 418 153q154 150 190 418l117 836q0 2 -4 6h-11q-6 0 -6 -6l-116 -832q-37 -264 -185 -407q-154 -147 -403 -148q-217 0 -327.5 109.5t-110.5 314.5q0 29 3 60.5t7 64.5l119 838q0 6 -7 6h-8q-6 0 -6 -6l-117 -836 q-4 -33 -7 -64.5t-3 -60.5zM748 1831l141 -283q2 -6 6 -6h12q6 0 6 6l-143 289q0 2 -4 6h-12q-10 0 -6 -12z" />
<glyph unicode="&#xda;" horiz-adv-x="1284" d="M133 428q0 -215 114.5 -330.5t342.5 -115.5q258 0 418 153q154 150 190 418l117 836q0 2 -4 6h-11q-6 0 -6 -6l-116 -832q-37 -264 -185 -407q-154 -147 -403 -148q-217 0 -327.5 109.5t-110.5 314.5q0 29 3 60.5t7 64.5l119 838q0 6 -7 6h-8q-6 0 -6 -6l-117 -836 q-4 -33 -7 -64.5t-3 -60.5zM702 1546q-4 -4 5 -6h14q2 0 8 6l219 283q12 12 -4 12h-12q-6 0 -8 -6z" />
<glyph unicode="&#xdb;" horiz-adv-x="1284" d="M133 428q0 -215 114.5 -330.5t342.5 -115.5q258 0 418 153q154 150 190 418l117 836q0 2 -4 6h-11q-6 0 -6 -6l-116 -832q-37 -264 -185 -407q-154 -147 -403 -148q-217 0 -327.5 109.5t-110.5 314.5q0 29 3 60.5t7 64.5l119 838q0 6 -7 6h-8q-6 0 -6 -6l-117 -836 q-4 -33 -7 -64.5t-3 -60.5zM596 1542q-4 -6 4 -6h14q4 0 9 6l237 275l160 -275q2 -4 3 -5l1 -1h14q6 0 6 6l-172 293l-2 2q0 2 -2 4h-12l-6 -6z" />
<glyph unicode="&#xdc;" horiz-adv-x="1335" d="M82 428q0 -215 114.5 -330.5t342.5 -115.5q258 0 417 153q154 150 191 418l117 836q0 2 -4 6h-11q-6 0 -6 -6l-117 -832q-37 -264 -184 -407q-154 -147 -403 -148q-217 0 -328 109.5t-111 314.5q0 29 3 60.5t8 64.5l118 838q0 6 -6 6h-8q-6 0 -6 -6l-117 -836 q-4 -33 -7 -64.5t-3 -60.5zM592 1589q0 -6 6 -6h8q6 0 6 6l25 176q0 2 -4 7h-10q-6 0 -7 -7zM932 1589q0 -2 4 -6h10q6 0 6 6l25 176q0 2 -4 7h-10q-6 0 -7 -7z" />
<glyph unicode="&#xdd;" />
<glyph unicode="&#xde;" />
<glyph unicode="&#xdf;" horiz-adv-x="952" d="M74 -121q0 -2 4 -6h10q2 0 6 6l160 1145q51 371 346 371q123 0 193.5 -67.5t70.5 -178.5q0 -150 -80 -244q-102 -123 -313 -123h-141q-4 0 -6 -6l-2 -8q0 -6 6 -6h143q164 0 270 -76q121 -90 121 -256q0 -190 -135 -309q-127 -117 -309 -117q-139 0 -219 27q-4 0 -9 -4 l-2 -9q-4 -4 5 -8q86 -27 225 -26q190 0 323 122q141 125 142 324q0 281 -299 340q160 31 239 152q62 94 62 227q0 117 -78 191.5t-207 74.5q-315 0 -367 -387z" />
<glyph unicode="&#xe0;" horiz-adv-x="948" d="M78 375q0 -201 115 -305q90 -84 208 -84q207 0 351 161l-21 -141q0 -6 6 -6h8q6 0 7 6l127 897q2 12 -9 21q-18 4 -34.5 6l-33 4t-45 3t-69.5 1q-236 0 -409 -137q-201 -160 -201 -426zM98 375q0 256 193 409q170 133 397 134q96 -1 170 -13l-102 -721 q-145 -178 -355 -178q-111 0 -194 78q-109 102 -109 291zM537 1382l141 -282l6 -6h12q2 0 6 6l-143 289q0 2 -4 6h-12q-10 0 -6 -13z" />
<glyph unicode="&#xe1;" horiz-adv-x="948" d="M78 375q0 -201 115 -305q90 -84 208 -84q207 0 351 161l-21 -141q0 -6 6 -6h8q6 0 7 6l127 897q2 12 -9 21q-18 4 -34.5 6l-33 4t-45 3t-69.5 1q-236 0 -409 -137q-201 -160 -201 -426zM98 375q0 256 193 409q170 133 397 134q96 -1 170 -13l-102 -721 q-145 -178 -355 -178q-111 0 -194 78q-109 102 -109 291zM485 1100q-6 -6 7 -6h14l6 6l221 282q8 12 -4 13h-14l-6 -6z" />
<glyph unicode="&#xe2;" horiz-adv-x="948" d="M78 375q0 -201 115 -305q90 -84 208 -84q207 0 351 161l-21 -141q0 -6 6 -6h8q6 0 7 6l127 897q2 12 -9 21q-18 4 -34.5 6l-33 4t-45 3t-69.5 1q-236 0 -409 -137q-201 -160 -201 -426zM98 375q0 256 193 409q170 133 397 134q96 -1 170 -13l-102 -721 q-145 -178 -355 -178q-111 0 -194 78q-109 102 -109 291zM389 1096q-4 -4 2 -6h17l6 6l239 274l160 -274q0 -2 4 -6h14q11 0 5 6l-170 293l-7 6h-10q-2 0 -8 -6z" />
<glyph unicode="&#xe3;" horiz-adv-x="956" d="M78 375q0 -201 115 -305q90 -84 208 -84q207 0 351 161l-21 -141q0 -6 6 -6h8q6 0 7 6l127 897q2 12 -9 21q-18 4 -34.5 6l-33 4t-45 3t-69.5 1q-236 0 -409 -137q-201 -160 -201 -426zM98 375q0 256 193 409q170 133 397 134q96 -1 170 -13l-102 -721 q-145 -178 -355 -178q-111 0 -194 78q-109 102 -109 291zM346 1174q-4 -6 4 -7h8q4 0 9 7q6 43 32 75q33 51 88 51q41 0 119 -65.5t131 -65.5q59 0 100.5 43.5t49.5 104.5q0 6 -6 6h-9q-6 0 -6 -6q-23 -127 -129 -127q-47 0 -124.5 65.5t-125.5 65.5q-68 0 -106 -61 q-29 -45 -35 -86z" />
<glyph unicode="&#xe4;" horiz-adv-x="948" d="M78 375q0 -201 115 -305q90 -84 208 -84q207 0 351 161l-21 -141q0 -6 6 -6h8q6 0 7 6l127 897q2 12 -9 21q-18 4 -34.5 6l-33 4t-45 3t-69.5 1q-236 0 -409 -137q-201 -160 -201 -426zM98 375q0 256 193 409q170 133 397 134q96 -1 170 -13l-102 -721 q-145 -178 -355 -178q-111 0 -194 78q-109 102 -109 291zM465 1212q0 -2 4 -6h10q6 0 6 6l25 177q0 6 -6 6h-8q-6 0 -7 -6zM805 1212q-2 -2 4 -6h10q6 0 6 6l25 177q0 6 -6 6h-8q-6 0 -7 -6z" />
<glyph unicode="&#xe5;" horiz-adv-x="948" d="M78 375q0 -201 115 -305q90 -84 208 -84q207 0 351 161l-21 -141q0 -6 6 -6h8q6 0 7 6l127 897q2 12 -9 21q-18 4 -34.5 6l-33 4t-45 3t-69.5 1q-236 0 -409 -137q-201 -160 -201 -426zM98 375q0 256 193 409q170 133 397 134q96 -1 170 -13l-102 -721 q-145 -178 -355 -178q-111 0 -194 78q-109 102 -109 291zM461 1264q0 -39 15.5 -74t41 -60.5t60 -41t73.5 -15.5t74 15.5t60.5 41t41 60.5t15.5 74t-15.5 73.5t-41 60t-60.5 41t-74 15.5t-73.5 -15.5t-60 -41t-41 -60t-15.5 -73.5zM481 1264q0 70 50.5 120t119.5 50 q70 0 120 -50t50 -120t-50 -120t-120 -50t-120 50t-50 120z" />
<glyph unicode="&#xe6;" horiz-adv-x="1613" d="M78 375q0 -201 115 -305q90 -84 208 -84q207 0 351 161q12 14 17 20.5t6 8.5t1 4t2 6l19 136q23 -154 127 -247t266 -93q193 0 313 73q4 4 2 8l-4 9q-2 2 -8 2q-115 -72 -303 -72q-82 0 -149.5 25.5t-115.5 72.5t-77 114t-35 146q27 -2 68 -3t98 -1q254 0 422 90 q178 99 178 269q0 100 -73.5 161.5t-202.5 61.5q-156 0 -283 -90q-119 -84 -180 -227l39 282q2 12 -9 21q-18 4 -34.5 6l-33 4t-45 3t-69.5 1q-236 0 -409 -137q-201 -160 -201 -426zM98 375q0 256 193 409q170 133 397 134q96 -1 170 -13l-102 -721q-145 -178 -355 -178 q-111 0 -194 78q-109 102 -109 291zM813 381v14q0 207 139 365q141 158 351 158q119 0 187.5 -55.5t68.5 -147.5q0 -158 -168 -250q-158 -88 -412 -88q-55 0 -96 1t-70 3z" />
<glyph unicode="&#xe7;" horiz-adv-x="839" d="M78 395q0 -168 100 -280q96 -109 242 -129l-12 -68q182 16 182 -96q0 -80 -70 -123q-59 -35 -141 -35q-47 0 -78 8q-6 0 -6 -6l-2 -8q0 -2 4 -6q31 -8 82 -8q88 0 151 39q80 49 80 139q0 125 -178 117l8 45q8 -2 19 -2h28q162 0 281 71q8 0 2 6l-4 11q-4 4 -8 0 q-109 -68 -271 -68t-272 104q-117 111 -117 289q0 221 168 377q158 145 357 146q160 0 237 -48q4 -4 6 2l6 9q2 2 -2 8q-90 49 -247 49q-207 0 -371 -152q-174 -160 -174 -391z" />
<glyph unicode="&#xe8;" horiz-adv-x="899" d="M78 395q0 -184 108.5 -298.5t290.5 -114.5q190 0 311 73q4 4 5 8l-7 9q-2 2 -8 2q-115 -72 -301 -72q-166 0 -266 98.5t-111 259.5q27 -2 67 -3t97 -1q254 0 422 90q178 99 178 269q0 100 -73.5 161.5t-202.5 61.5q-217 0 -365 -164q-145 -164 -145 -379zM98 381v14 q0 207 140 365q141 158 350 158q119 0 187.5 -55.5t68.5 -147.5q0 -158 -168 -250q-158 -88 -412 -88q-55 0 -96 1t-70 3zM539 1382l141 -282l6 -6h12q3 0 7 6l-144 289q0 2 -4 6h-12q-10 0 -6 -13z" />
<glyph unicode="&#xe9;" horiz-adv-x="899" d="M78 395q0 -184 108.5 -298.5t290.5 -114.5q190 0 311 73q4 4 5 8l-7 9q-2 2 -8 2q-115 -72 -301 -72q-166 0 -266 98.5t-111 259.5q27 -2 67 -3t97 -1q254 0 422 90q178 99 178 269q0 100 -73.5 161.5t-202.5 61.5q-217 0 -365 -164q-145 -164 -145 -379zM98 381v14 q0 207 140 365q141 158 350 158q119 0 187.5 -55.5t68.5 -147.5q0 -158 -168 -250q-158 -88 -412 -88q-55 0 -96 1t-70 3zM457 1100q-4 -4 4 -6h14q2 0 8 6l219 282q8 12 -4 13h-12q-2 0 -8 -6z" />
<glyph unicode="&#xea;" horiz-adv-x="901" d="M78 395q0 -184 108.5 -298.5t290.5 -114.5q190 0 311 73q4 4 5 8l-7 9q-2 2 -8 2q-115 -72 -301 -72q-166 0 -266 98.5t-111 259.5q27 -2 67 -3t97 -1q254 0 422 90q178 99 178 269q0 100 -73.5 161.5t-202.5 61.5q-217 0 -365 -164q-145 -164 -145 -379zM98 381v14 q0 207 140 365q141 158 350 158q119 0 187.5 -55.5t68.5 -147.5q0 -158 -168 -250q-158 -88 -412 -88q-55 0 -96 1t-70 3zM420 1096q-6 -6 4 -6h14q2 0 8 6l238 274l160 -274q4 -4 4 -6h14q2 0 6 6l-172 293l-2 2q0 2 -2 4h-12l-6 -6z" />
<glyph unicode="&#xeb;" horiz-adv-x="899" d="M78 395q0 -184 108.5 -298.5t290.5 -114.5q190 0 311 73q4 4 5 8l-7 9q-2 2 -8 2q-115 -72 -301 -72q-166 0 -266 98.5t-111 259.5q27 -2 67 -3t97 -1q254 0 422 90q178 99 178 269q0 100 -73.5 161.5t-202.5 61.5q-217 0 -365 -164q-145 -164 -145 -379zM98 381v14 q0 207 140 365q141 158 350 158q119 0 187.5 -55.5t68.5 -147.5q0 -158 -168 -250q-158 -88 -412 -88q-55 0 -96 1t-70 3zM440 1212q0 -6 6 -6h9q6 0 6 6l24 177q2 2 -4 6h-8q-8 0 -8 -6zM780 1212q0 -6 6 -6h9q6 0 6 6l24 177q2 2 -4 6h-10q-6 0 -6 -6z" />
<glyph unicode="&#xec;" horiz-adv-x="260" d="M92 6q0 -2 4 -6h10q6 0 7 6l127 907q0 2 -4 7h-11q-6 0 -6 -7zM201 1382l139 -282l6 -6h14q9 2 5 6l-144 289q0 6 -4 6h-12q-14 0 -4 -13z" />
<glyph unicode="&#xed;" horiz-adv-x="260" d="M92 6q0 -2 4 -6h10q6 0 7 6l127 907q0 2 -4 7h-11q-6 0 -6 -7zM156 1100q-6 -6 6 -6h12q2 0 8 6l219 282q12 12 -2 13h-14q-2 0 -8 -6z" />
<glyph unicode="&#xee;" horiz-adv-x="260" d="M49 1096q-6 -6 4 -6h15q-4 0 8 6l237 274l160 -274q4 -4 4 -6h15q10 0 4 6l-170 293l-2 2q0 2 -2 4h-13q4 0 -8 -6zM92 6q0 -2 4 -6h10q6 0 7 6l127 907q0 2 -4 7h-11q-6 0 -6 -7z" />
<glyph unicode="&#xef;" horiz-adv-x="258" d="M92 6q0 -2 4 -6h10q6 0 7 6l127 907q0 2 -4 7h-11q-6 0 -6 -7zM94 1212q0 -2 4 -6h11q6 0 6 6l24 177q0 2 -4 6h-10q-6 0 -6 -6zM434 1212q0 -2 4 -6h11q6 0 6 6l24 177q0 2 -4 6h-10q-6 0 -6 -6z" />
<glyph unicode="&#xf0;" />
<glyph unicode="&#xf1;" horiz-adv-x="1017" d="M92 6q0 -2 4 -6h10q6 0 7 6l65 459v6q35 242 170 354q106 88 262 88q231 0 232 -295q0 -53 -6 -98l-72 -514q0 -6 6 -6h8q6 0 6 6l72 512q6 43 6 100q0 315 -252 316q-295 0 -407 -289l37 268q2 6 -4 7h-9q-6 0 -8 -7zM369 1174q-2 -2 4 -7h10q6 0 6 7q6 43 33 75 q33 51 88 51q41 0 119 -65.5t131 -65.5q61 0 101 43.5t48 104.5q0 6 -6 6h-8q-6 0 -6 -6q-23 -127 -129 -127q-47 0 -125 65.5t-125 65.5q-68 0 -107 -61q-29 -45 -34 -86z" />
<glyph unicode="&#xf2;" horiz-adv-x="1040" d="M78 389q0 -188 123 -301q113 -106 282 -106q207 0 346 157q140 162 140 391q0 184 -121 299q-115 109 -283 109q-197 0 -338 -154q-150 -158 -149 -395zM98 389q0 229 144 381q137 147 323 148q160 0 269 -103q114 -109 114 -285q0 -221 -133 -376q-133 -152 -332 -152 q-160 0 -268 102q-117 106 -117 285zM543 1382l141 -282l6 -6h12q3 0 7 6l-144 289q0 2 -4 6h-12q-10 0 -6 -13z" />
<glyph unicode="&#xf3;" horiz-adv-x="1040" d="M78 389q0 -188 123 -301q113 -106 282 -106q207 0 346 157q140 162 140 391q0 184 -121 299q-115 109 -283 109q-197 0 -338 -154q-150 -158 -149 -395zM98 389q0 229 144 381q137 147 323 148q160 0 269 -103q114 -109 114 -285q0 -221 -133 -376q-133 -152 -332 -152 q-160 0 -268 102q-117 106 -117 285zM463 1100q-4 -4 4 -6h14q2 0 6 6l222 282q8 12 -4 13h-13q-2 0 -8 -6z" />
<glyph unicode="&#xf4;" horiz-adv-x="1040" d="M78 389q0 -188 123 -301q113 -106 282 -106q207 0 346 157q140 162 140 391q0 184 -121 299q-115 109 -283 109q-197 0 -338 -154q-150 -158 -149 -395zM98 389q0 229 144 381q137 147 323 148q160 0 269 -103q114 -109 114 -285q0 -221 -133 -376q-133 -152 -332 -152 q-160 0 -268 102q-117 106 -117 285zM442 1096q-4 -4 2 -6h17l6 6l240 274l159 -274q0 -6 4 -6h15q8 2 4 6l-170 293l-6 6h-13l-6 -6z" />
<glyph unicode="&#xf5;" horiz-adv-x="1040" d="M78 389q0 -188 123 -301q113 -106 282 -106q207 0 346 157q140 162 140 391q0 184 -121 299q-115 109 -283 109q-197 0 -338 -154q-150 -158 -149 -395zM98 389q0 229 144 381q137 147 323 148q160 0 269 -103q114 -109 114 -285q0 -221 -133 -376q-133 -152 -332 -152 q-160 0 -268 102q-117 106 -117 285zM393 1174q-2 -2 4 -7h9q8 0 8 7q6 43 32 75q33 51 89 51q41 0 118.5 -65.5t130.5 -65.5q61 0 101.5 43.5t48.5 104.5q0 6 -6 6h-8q-6 0 -7 -6q-23 -127 -129 -127q-47 0 -124.5 65.5t-124.5 65.5q-68 0 -107 -61q-29 -45 -35 -86z" />
<glyph unicode="&#xf6;" horiz-adv-x="1040" d="M78 389q0 -188 123 -301q113 -106 282 -106q207 0 346 157q140 162 140 391q0 184 -121 299q-115 109 -283 109q-197 0 -338 -154q-150 -158 -149 -395zM98 389q0 229 144 381q137 147 323 148q160 0 269 -103q114 -109 114 -285q0 -221 -133 -376q-133 -152 -332 -152 q-160 0 -268 102q-117 106 -117 285zM479 1212q0 -6 6 -6h9q6 0 6 6l24 177q2 6 -4 6h-8q-6 0 -8 -6zM819 1212q0 -6 6 -6h9q6 0 6 6l24 177q2 2 -4 6h-8q-8 0 -8 -6z" />
<glyph unicode="&#xf7;" horiz-adv-x="1961" />
<glyph unicode="&#xf8;" horiz-adv-x="1040" d="M78 389q0 -184 119 -297l-105 -119q-6 -4 -2 -8l8 -6q4 -4 8 0l105 119q115 -96 272 -96q207 0 346 157q139 162 140 391q0 172 -105 283l113 125q4 6 0 10l-8 4q-2 2 -8 0l-111 -125q-115 111 -285 111q-197 0 -338 -154q-150 -158 -149 -395zM98 389q0 229 144 381 q137 147 323 148q164 -1 273 -105l-627 -707q-113 106 -113 283zM225 94l627 705q96 -109 96 -269q0 -221 -133 -376q-133 -152 -332 -152q-152 0 -258 92z" />
<glyph unicode="&#xf9;" horiz-adv-x="968" d="M115 266q0 -76 28 -143q61 -141 283 -141q215 0 319 145q68 94 91 248l73 538q0 2 -4 7h-10q-6 0 -6 -7l-74 -536q-23 -145 -86 -238q-98 -137 -303 -137q-207 0 -264 129q-27 59 -27 135q0 23 2 49.5t6 57.5l74 540q0 6 -6 7h-8q-6 0 -8 -7l-72 -538q-4 -31 -6 -58.5 t-2 -50.5zM506 1382l141 -282q0 -6 4 -6h15q8 2 4 6l-142 289l-6 6h-10q-16 0 -6 -13z" />
<glyph unicode="&#xfa;" horiz-adv-x="968" d="M115 266q0 -76 28 -143q61 -141 283 -141q215 0 319 145q68 94 91 248l73 538q0 2 -4 7h-10q-6 0 -6 -7l-74 -536q-23 -145 -86 -238q-98 -137 -303 -137q-207 0 -264 129q-27 59 -27 135q0 23 2 49.5t6 57.5l74 540q0 6 -6 7h-8q-6 0 -8 -7l-72 -538q-4 -31 -6 -58.5 t-2 -50.5zM467 1100q-6 -6 4 -6h14l7 6l221 282q8 12 -4 13h-15l-6 -6z" />
<glyph unicode="&#xfb;" horiz-adv-x="968" d="M115 266q0 -76 28 -143q61 -141 283 -141q215 0 319 145q68 94 91 248l73 538q0 2 -4 7h-10q-6 0 -6 -7l-74 -536q-23 -145 -86 -238q-98 -137 -303 -137q-207 0 -264 129q-27 59 -27 135q0 23 2 49.5t6 57.5l74 540q0 6 -6 7h-8q-6 0 -8 -7l-72 -538q-4 -31 -6 -58.5 t-2 -50.5zM367 1096q-4 -4 2 -6h16l6 6l240 274l160 -274q0 -6 4 -6h14q8 2 4 6l-170 293l-6 6h-12l-7 -6z" />
<glyph unicode="&#xfc;" horiz-adv-x="968" d="M115 266q0 -76 28 -143q61 -141 283 -141q215 0 319 145q68 94 91 248l73 538q0 2 -4 7h-10q-6 0 -6 -7l-74 -536q-23 -145 -86 -238q-98 -137 -303 -137q-207 0 -264 129q-27 59 -27 135q0 23 2 49.5t6 57.5l74 540q0 6 -6 7h-8q-6 0 -8 -7l-72 -538q-4 -31 -6 -58.5 t-2 -50.5zM416 1212q-4 -6 4 -6h8q8 0 8 6l25 177q0 6 -6 6h-9q-6 0 -6 -6zM756 1212q-4 -6 4 -6h8q4 0 8 6l25 177q0 6 -6 6h-9q-6 0 -6 -6z" />
<glyph unicode="&#xfd;" />
<glyph unicode="&#xfe;" />
<glyph unicode="&#xff;" horiz-adv-x="851" d="M-94 -455v-10q0 -4 6 -4q154 8 262 117q80 82 203 307l520 958q2 2 -2 7h-12q-6 0 -9 -7l-501 -923l-273 923q0 6 -6 7h-10q-8 0 -4 -7l278 -948q-121 -225 -198 -303q-102 -102 -248 -111q-6 0 -6 -6zM395 1212q0 -6 6 -6h9q4 0 8 6l24 177q0 6 -6 6h-8q-6 0 -8 -6z M735 1212q0 -6 6 -6h9q4 0 8 6l24 177q0 6 -6 6h-8q-6 0 -8 -6z" />
<glyph unicode="&#x152;" horiz-adv-x="2267" d="M96 575q0 -283 172 -444q156 -150 391 -149q221 0 402 139q172 135 256 360l-68 -475q0 -6 6 -6h916q6 0 6 6v8q2 6 -4 6h-901l94 668h717q6 0 6 6l2 8q0 6 -6 7h-717l94 665h797q4 0 8 6v9q2 2 -4 6h-813q-6 0 -8 -6l-72 -512q-23 246 -182 395q-156 143 -383 143 q-287 0 -496 -239q-213 -248 -213 -601zM117 575q0 348 209 588q203 231 479 232q229 0 387 -154q162 -162 162 -426q0 -340 -201 -577q-199 -236 -494 -236q-229 0 -378 143q-164 158 -164 430z" />
<glyph unicode="&#x153;" horiz-adv-x="1763" d="M78 389q0 -188 123 -301q113 -106 282 -106q164 0 291 102q121 102 170 264q14 -166 119.5 -266t277.5 -100q195 0 312 73q4 4 4 8l-6 9q-2 2 -9 2q-115 -72 -301 -72q-166 0 -266 98.5t-110 259.5q27 -2 66.5 -3t96.5 -1q254 0 422 90q179 99 179 269q0 100 -74 161.5 t-203 61.5q-168 0 -305 -109q-127 -102 -178 -264q-12 170 -131 275q-115 98 -273 98q-197 0 -338 -154q-150 -158 -149 -395zM98 389q0 229 144 381q137 147 323 148q160 0 269 -103q114 -109 114 -285q0 -221 -133 -376q-133 -152 -332 -152q-160 0 -268 102 q-117 106 -117 285zM963 381v14q0 207 139 365q141 158 350 158q119 0 187.5 -55.5t68.5 -147.5q0 -158 -164 -248t-416 -90q-55 0 -96 1t-69 3z" />
<glyph unicode="&#x178;" horiz-adv-x="1015" d="M129 1389l391 -801l-82 -582q0 -2 4 -6h9q6 0 6 6l84 578l575 805q2 2 -2 6h-14q-6 0 -8 -6l-560 -783l-378 783q-4 6 -9 6h-12q-10 0 -4 -6zM483 1589q0 -2 4 -6h11q6 0 6 6l24 176q0 2 -4 7h-10q-6 0 -6 -7zM823 1589q0 -2 4 -6h11q6 0 6 6l24 176q0 2 -4 7h-10 q-6 0 -6 -7z" />
<glyph unicode="&#x2c6;" horiz-adv-x="487" d="M299 1096q-6 -6 4 -6h14q2 0 9 6l237 274l160 -274q4 -4 4 -6h14q10 0 4 6l-170 293l-2 2q0 2 -2 4h-12l-6 -6z" />
<glyph unicode="&#x2dc;" horiz-adv-x="487" d="M115 1174q-2 -2 4 -7h10q6 0 6 7q6 43 33 75q33 51 88 51q41 0 119 -65.5t131 -65.5q61 0 101 43.5t48 104.5q0 6 -6 6h-8q-6 0 -6 -6q-23 -127 -129 -127q-47 0 -125 65.5t-125 65.5q-68 0 -106 -61q-29 -45 -35 -86z" />
<glyph unicode="&#x2000;" horiz-adv-x="952" />
<glyph unicode="&#x2001;" horiz-adv-x="1905" />
<glyph unicode="&#x2002;" horiz-adv-x="952" />
<glyph unicode="&#x2003;" horiz-adv-x="1905" />
<glyph unicode="&#x2004;" horiz-adv-x="635" />
<glyph unicode="&#x2005;" horiz-adv-x="476" />
<glyph unicode="&#x2006;" horiz-adv-x="317" />
<glyph unicode="&#x2007;" horiz-adv-x="317" />
<glyph unicode="&#x2008;" horiz-adv-x="238" />
<glyph unicode="&#x2009;" horiz-adv-x="381" />
<glyph unicode="&#x200a;" horiz-adv-x="105" />
<glyph unicode="&#x2010;" horiz-adv-x="856" d="M184 489q0 -2 4 -6h465q8 0 9 6v9q2 2 -5 6h-464q-6 0 -7 -6z" />
<glyph unicode="&#x2011;" horiz-adv-x="856" d="M184 489q0 -2 4 -6h465q8 0 9 6v9q2 2 -5 6h-464q-6 0 -7 -6z" />
<glyph unicode="&#x2012;" horiz-adv-x="856" d="M184 489q0 -2 4 -6h465q8 0 9 6v9q2 2 -5 6h-464q-6 0 -7 -6z" />
<glyph unicode="&#x2013;" horiz-adv-x="1079" d="M117 512q0 -2 4 -6h981q2 0 8 6v8q0 2 -4 6h-981q-6 0 -6 -6z" />
<glyph unicode="&#x2014;" horiz-adv-x="2058" d="M117 512q0 -2 4 -6h1962q2 0 8 6v8q0 2 -4 6h-1962q-6 0 -6 -6z" />
<glyph unicode="&#x2018;" horiz-adv-x="188" d="M111 952q0 -2 4 -6h10q6 0 6 6l27 193q29 193 147 237q4 1 4 7l-4 8q-4 6 -6 4q-135 -53 -162 -254z" />
<glyph unicode="&#x2019;" horiz-adv-x="253" d="M131 956l4 -10q0 -6 6 -2q129 49 160 254l29 195q0 6 -6 6h-9q-4 0 -6 -6l-28 -193q-27 -190 -148 -237q-4 -4 -2 -7z" />
<glyph unicode="&#x201a;" horiz-adv-x="360" d="M57 -244l2 -10q4 -6 9 -2q133 53 159 254l27 195q6 6 -4 6h-8q-2 0 -9 -6l-26 -193q-29 -193 -148 -238q-4 -4 -2 -6z" />
<glyph unicode="&#x201c;" horiz-adv-x="481" d="M111 952q0 -2 4 -6h10q6 0 6 6l27 193q29 193 147 237q4 1 4 7l-4 8q-4 6 -6 4q-135 -53 -162 -254zM403 952q0 -2 5 -6h10q6 0 6 6l27 193q29 193 147 237q4 1 4 7l-4 8q-4 6 -6 4q-135 -53 -162 -254z" />
<glyph unicode="&#x201d;" horiz-adv-x="546" d="M131 958l4 -10q0 -6 6 -2q129 49 160 254l29 195q0 6 -6 6h-9q-6 0 -6 -6l-28 -193q-27 -190 -148 -237q-6 0 -2 -7zM424 958l4 -10q0 -6 6 -2q129 49 160 254l29 195q0 6 -7 6h-8q-6 0 -8 -6l-27 -193q-27 -190 -147 -237q-6 0 -2 -7z" />
<glyph unicode="&#x201e;" horiz-adv-x="653" d="M57 -244l4 -10q0 -6 7 -2q129 49 159 254l29 195q0 6 -6 6h-8q-4 0 -6 -6l-29 -193q-27 -190 -148 -238q-4 -4 -2 -6zM350 -244l4 -10q0 -6 6 -2q129 49 160 254l29 195q0 6 -6 6h-8q-2 0 -9 -6l-26 -193q-27 -190 -148 -238q-4 -4 -2 -6z" />
<glyph unicode="&#x2022;" horiz-adv-x="753" d="M133 698q0 -104 74 -180q76 -74 180 -74t178 74q76 76 76 180t-76 179q-74 76 -178 75q-104 0 -180 -75q-74 -74 -74 -179z" />
<glyph unicode="&#x2026;" horiz-adv-x="1218" d="M131 6q0 -2 4 -6h10q6 0 7 6l24 176q0 2 -4 6h-10q-6 0 -6 -6zM569 6q0 -6 6 -6h9q4 0 8 6l24 176q0 6 -6 6h-8q-6 0 -8 -6zM1010 6q0 -2 4 -6h10q6 0 6 6l25 176q0 2 -4 6h-11q-6 0 -6 -6z" />
<glyph unicode="&#x202f;" horiz-adv-x="381" />
<glyph unicode="&#x2039;" horiz-adv-x="428" d="M27 444l215 -442q0 -2 8 -2h10q10 0 2 8l-219 451l348 452q8 8 0 9h-12q-6 0 -8 -2l-342 -443q-10 -16 -2 -31z" />
<glyph unicode="&#x203a;" horiz-adv-x="473" d="M84 0h12q8 0 8 2l342 442q11 17 3 31l-216 443q0 2 -8 2h-10q-6 -4 -2 -9l221 -450l-350 -453q-4 -4 0 -8z" />
<glyph unicode="&#x205f;" horiz-adv-x="476" />
<glyph unicode="&#x20ac;" horiz-adv-x="1265" d="M25 561q0 -2 4 -6h110q18 -270 211 -430q170 -143 404 -143q227 0 397 79l4 7l-6 8q0 4 -6 4q-162 -78 -389 -78q-225 0 -389 137q-190 156 -205 416h714q2 0 9 6l4 8q4 4 -4 6h-725v35q0 100 28 205h856q2 0 9 6l4 8q4 4 -4 7h-858q76 242 288 399q211 160 451 160 q219 0 348 -56q6 -6 6 4l4 9q4 4 -2 8q-133 55 -356 55q-246 0 -465 -164q-217 -162 -295 -415h-102q-6 0 -9 -7v-8q0 -2 5 -6h100q-29 -104 -29 -205v-35h-104q-6 0 -6 -6z" />
<glyph unicode="&#x2122;" horiz-adv-x="1533" d="M176 1454q0 -2 4 -6h256l-100 -721q0 -2 4 -6h10q2 0 6 6l101 721h254q6 0 6 6l2 8q0 2 -4 6h-531q-6 0 -6 -6zM657 727q0 -2 5 -6h10q2 0 6 6l98 696l244 -520q4 -4 6 -4h8q2 0 6 4l392 520l-99 -696q0 -6 6 -6h9q2 0 6 6l104 735q0 6 -6 6h-10l-6 -6l-402 -536 l-252 536l-6 6h-8q-6 0 -6 -6z" />
<glyph unicode="&#x25fc;" horiz-adv-x="921" d="M0 0v922h922v-922h-922z" />
</font>
</defs>
</svg>
