<?xml version="1.0" standalone="no"?>
<!DOCTYPE svg PUBLIC "-//W3C//DTD SVG 1.1//EN" "http://www.w3.org/Graphics/SVG/1.1/DTD/svg11.dtd" >
<svg xmlns="http://www.w3.org/2000/svg">
<metadata></metadata>
<defs>
<font id="houschkaaltheavyitalicregular" horiz-adv-x="1024" >
<font-face units-per-em="2048" ascent="1638" descent="-410" />
<missing-glyph horiz-adv-x="559" />
<glyph horiz-adv-x="2048" />
<glyph horiz-adv-x="2048" />
<glyph unicode="&#xd;" />
<glyph unicode=" "  horiz-adv-x="559" />
<glyph unicode="&#x09;" horiz-adv-x="559" />
<glyph unicode="&#xa0;" horiz-adv-x="559" />
<glyph unicode="!" horiz-adv-x="620" d="M57 178q0 -82 57.5 -139t139.5 -57t139.5 57t57.5 139t-57.5 139.5t-139.5 57.5t-139.5 -57.5t-57.5 -139.5zM162 1045.5q-2 -50.5 2 -109.5l26 -473q2 -18 37 -19h101q35 0 41 19l161 473q38 105 50 201q6 39 6 71q0 203 -183 203q-195 0 -235 -274q-4 -41 -6 -91.5z " />
<glyph unicode="&#x22;" horiz-adv-x="1009" />
<glyph unicode="#" horiz-adv-x="1449" d="M8 213q-4 -35 27 -35h147l-100 -309q-4 -14 5 -24.5t22 -10.5h184q27 0 37 35l98 309h252l-100 -309q-4 -14 5 -24.5t21 -10.5h185q27 0 36 35l99 309h288q31 0 35 35l27 188q4 35 -27 35h-239l75 230h193q33 0 37 34l24 189q10 35 -26 35h-146l99 305q10 35 -29 35h-184 q-25 0 -35 -35l-98 -305h-250l98 305q10 35 -29 35h-184q-25 0 -35 -35l-100 -305h-285q-33 0 -37 -35l-26 -189q-4 -35 28 -34h238l-74 -230h-194q-27 0 -37 -35zM512 436l74 230h250l-74 -230h-250z" />
<glyph unicode="$" horiz-adv-x="1083" d="M37 96q131 -100 334 -112l-9 -58q-4 -31 23 -30h123q23 0 33 30l8 62q98 12 178 48t136.5 90t87 126t30.5 156q0 135 -102 237q-47 47 -177 121q-41 23 -84 45.5t-83 44.5q-70 39 -70 76q0 90 147 90q51 0 107 -18q20 -6 39.5 -12.5t40.5 -14.5q31 -8 39 6l145 229 q12 20 -18 33q-115 47 -242 60l12 88q4 29 -22 28h-123q-27 0 -31 -28l-12 -93q-203 -25 -318 -145q-106 -109 -106 -260q0 -133 96 -229q49 -51 182 -127q78 -45 123 -72t58 -37q53 -41 53 -78q0 -94 -164 -94q-139 0 -233 72q-25 18 -43 -4l-152 -187q-23 -29 -6 -43z" />
<glyph unicode="%" horiz-adv-x="1423" d="M96 16q-25 -35 4 -34h289q10 0 35 34l971 1362q25 35 -13 35h-280q-10 0 -35 -35zM127 1053q0 -61 20.5 -110.5t57.5 -84.5t85 -53.5t103 -18.5q137 0 228 103q92 104 92 256q0 61 -20.5 110.5t-56.5 85t-85 54t-105 18.5q-129 0 -221 -100q-98 -109 -98 -260zM340 1085 q0 47 26.5 84t63.5 37q66 0 66 -98q0 -41 -26 -79t-62 -38q-68 0 -68 94zM776 252q0 -61 20.5 -110.5t57.5 -85.5t85 -54t103 -18q137 0 228 104q90 106 90 256q0 61 -20.5 110.5t-56.5 84t-84 53t-103 18.5q-129 0 -226 -102q-94 -100 -94 -256zM987 283q0 47 26.5 83.5 t63.5 36.5q66 0 66 -98q0 -43 -24.5 -80t-63.5 -37q-68 0 -68 95z" />
<glyph unicode="&#x26;" horiz-adv-x="1392" d="M84 336q0 -158 102 -254q113 -104 324 -105q197 0 360 111q125 -106 258 -106q33 0 37 34l37 265q2 27 -26 34q-33 0 -78 17q74 131 90 272q4 35 -25 35h-215q-23 0 -26.5 -29.5t-18.5 -70.5q-29 41 -55.5 83t-50.5 87q236 143 270 319q8 35 8 74q0 129 -88 211 q-78 72 -182 71q-330 0 -408 -274q-12 -47 -12 -100q0 -88 35 -205q-270 -152 -320 -340q-16 -70 -16 -129zM399 377q0 100 125 182q12 -23 21.5 -40t15.5 -30q29 -51 59.5 -98t63.5 -94q-66 -35 -137 -35q-147 0 -148 115zM676 1036q0 66 53 66q55 -1 35 -64 q-16 -47 -74 -90q-14 55 -14 88z" />
<glyph unicode="'" horiz-adv-x="530" d="M92 791l39 -60q12 -16 31 -6q174 53 284 176q113 119 113 242q0 125 -61.5 199.5t-167.5 74.5q-90 0 -144 -47q-59 -53 -59 -145q0 -74 49 -124t129 -61q-23 -66 -53 -100q-41 -49 -141 -111q-31 -18 -19 -38z" />
<glyph unicode="(" horiz-adv-x="696" d="M80 389q0 -301 119 -584q86 -207 147 -260q20 -18 37 -18h145q27 0 15 22q-141 270 -142 680q0 186 35 392q23 137 69 266t111 252q31 55 75.5 120.5t101.5 143.5q14 20 -9 20h-151q-25 0 -45 -18q-33 -27 -63.5 -52.5t-61.5 -52.5q-123 -117 -207 -251 q-115 -190 -156 -424q-10 -59 -15 -117.5t-5 -118.5z" />
<glyph unicode=")" horiz-adv-x="722" d="M-76 -451q-16 -23 13 -22h147q20 0 43 18q145 115 223 205q209 248 264 576q10 59 15.5 117.5t5.5 117.5q0 301 -119 584q-84 205 -145 260q-23 18 -39 18h-146q-25 0 -12 -22q139 -266 139 -676q0 -96 -9 -193.5t-25 -201.5q-23 -137 -69 -265t-112 -251 q-57 -109 -174 -265z" />
<glyph unicode="*" horiz-adv-x="710" d="M129 1051l55 -144q10 -25 33 -8l90 55l-14 -110q-2 -27 20 -27h154q25 0 27 27l14 108l76 -55q16 -12 32 10l99 144q16 23 -4 36l-76 56l88 55q24 12 14 35l-57 141q-6 25 -31 10l-90 -55l14 111q2 27 -20 26h-154q-27 0 -26 -26l-15 -109l-75 55q-16 12 -33 -10 l-98 -143q-16 -23 4 -37l75 -55l-88 -56q-23 -14 -14 -34z" />
<glyph unicode="+" horiz-adv-x="1136" d="M141 602q-4 -35 27 -35h262l-39 -293q-4 -35 27 -34h246q33 0 36 34l39 293h260q33 0 37 35l33 242q4 35 -27 35h-262l39 292q4 35 -26 35h-246q-33 0 -37 -35l-39 -292h-260q-33 0 -37 -35z" />
<glyph unicode="," horiz-adv-x="675" d="M68 -252l36 -59q2 -8 31 -8q158 53 268 176q107 118 107 243t-58.5 199t-158.5 74q-86 0 -139.5 -49.5t-53.5 -141.5q0 -74 47.5 -124t122.5 -60q-20 -63 -51 -100q-37 -47 -133 -111q-31 -20 -18 -39z" />
<glyph unicode="-" horiz-adv-x="864" d="M180 285q-4 -35 27 -35h387q27 0 37 35l33 250q2 33 -27 32h-387q-33 0 -35 -32z" />
<glyph unicode="." horiz-adv-x="698" d="M119 178q0 -82 57 -139t139 -57t139.5 57t57.5 139t-57.5 139.5t-139.5 57.5t-139 -57.5t-57 -139.5z" />
<glyph unicode="/" horiz-adv-x="929" d="M-96 4q-10 -12 0 -24q6 -10 18 -11h303q12 0 35 35l852 1387q23 35 -20 34h-301q-14 0 -37 -34z" />
<glyph unicode="0" horiz-adv-x="1187" d="M68 420q0 -248 159 -361q115 -82 301 -82q281 0 441 207q147 187 147 488q0 444 -461 444q-281 0 -440 -209q-147 -195 -147 -487zM426 465q0 141 55 246q55 106 148 106q125 1 125 -192q0 -137 -54 -240q-59 -109 -147 -109q-127 0 -127 189z" />
<glyph unicode="1" horiz-adv-x="1187" d="M84 35q-4 -35 31 -35h872q35 0 39 35l31 219q4 35 -31 35h-219l113 792q4 35 -31 35h-199q-39 0 -74 -8l-346 -72q-37 -10 -43 -49l-28 -203q-4 -23 4 -31t22 -5l291 28l-70 -487h-290q-37 0 -41 -35z" />
<glyph unicode="2" horiz-adv-x="1187" d="M98 72q-4 -27 10.5 -49.5t45.5 -22.5h759q55 0 62 51l26 193q10 53 -47 53h-364q-14 0 -32.5 -1t-41.5 -3q31 49 137 106q41 20 80 39t80 39q252 129 252 332q0 70 -26.5 127t-73.5 97t-113 61.5t-145 21.5q-281 0 -476 -170q-35 -31 -10 -61l127 -166q23 -29 60 6 q117 111 235 111q84 0 84 -58q0 -68 -184 -147q-160 -68 -250 -142q-147 -117 -180 -327z" />
<glyph unicode="3" horiz-adv-x="1187" d="M6 -199q0 -8 6 -10q98 -70 193 -90q35 -8 82 -12t106 -4q231 0 383 141q139 133 139 311q0 98 -36.5 163t-135.5 124q-10 8 0 16q100 53 158 150q55 92 55 188q0 74 -27.5 136.5t-77.5 107.5t-122 69.5t-158 24.5q-160 0 -327 -86q-23 -12 -13 -35l99 -204q8 -18 30 -7 q82 51 158 52q47 0 75 -34t28 -81q0 -72 -54 -121q-59 -55 -164 -55h-14q-6 0 -16 2h-27q-20 0 -24 -17l-43 -245q-4 -25 18 -25q6 0 33.5 2t46.5 2q94 0 135 -22q61 -35 61 -129q0 -43 -36 -82q-47 -53 -131 -54q-121 0 -234 72q-25 14 -37 -6l-121 -217q-8 -14 -8 -25z " />
<glyph unicode="4" horiz-adv-x="1187" d="M12 35q-4 -35 31 -35h506l-35 -244q-4 -35 31 -35h291q35 0 38 35l35 244h181q35 0 38 35l31 219q4 35 -29 35h-180l111 792q4 35 -29 35h-274q-29 0 -58 -35l-626 -747q-25 -31 -27 -53zM395 289l234 278l-39 -278h-195z" />
<glyph unicode="5" horiz-adv-x="1187" d="M123 -154q-18 -33 2 -47q109 -74 199 -98q70 -16 186 -16q219 0 377 153q160 154 160 377q0 186 -97 301q-104 125 -305 125q-4 0 -29.5 -2t-70.5 -6l35 182h405q33 0 35 33l16 215q4 35 -28 35h-680q-27 0 -31 -29l-121 -698q-2 -27 31 -35l203 -51q25 -6 32 2 q57 76 144 75q57 0 90 -51q27 -41 26 -104q0 -49 -15 -90t-42 -70t-60.5 -45t-70.5 -16q-127 0 -221 88q-27 23 -47 -11z" />
<glyph unicode="6" horiz-adv-x="1187" d="M131 539q0 -557 455 -557q223 0 362 165q129 154 129 381q0 172 -97 270.5t-257 98.5q-125 0 -236 -55q33 123 123 196q82 68 176 68q84 0 146 -23q39 -14 47 7l98 251q12 31 -18 37q-98 35 -246 35q-326 0 -518 -303q-164 -256 -164 -571zM489 410q0 80 48 137 q43 49 104 49q100 0 100 -117q0 -78 -34 -137q-37 -63 -97 -63q-121 0 -121 131z" />
<glyph unicode="7" horiz-adv-x="1187" d="M39 -262q-23 -35 16 -35h326q29 0 51 35l608 1050q14 27 19 43l33 232q4 35 -29 35h-887q-33 0 -37 -35l-35 -371q-2 -33 27 -33h229q37 0 39 33l13 123h307q-133 -186 -199 -297q-92 -154 -212 -347.5t-269 -432.5z" />
<glyph unicode="8" horiz-adv-x="1187" d="M84 346q0 -162 121 -264q121 -100 321 -100q242 0 387 92q178 111 179 348q0 164 -181 307q193 149 193 354q0 160 -131 252q-109 78 -254 78q-236 0 -364 -96t-128 -258q0 -170 166 -318q-143 -78 -215 -157q-94 -102 -94 -238zM428 393q0 76 197 172q120 -96 120 -174 q0 -45 -43 -78q-49 -37 -129 -37q-145 0 -145 117zM565 1057q0 74 125 73q80 1 80 -81q0 -78 -96 -150q-109 84 -109 158z" />
<glyph unicode="9" horiz-adv-x="1187" d="M129 569q0 -166 94 -267t260 -101q127 0 236 55q-18 -61 -49 -110.5t-71 -83t-86 -52t-93 -18.5q-86 0 -144 22q-41 14 -49 -6l-96 -252q-12 -31 16 -37q104 -35 248 -34q315 0 510 288q170 256 170 586q0 557 -454 557q-225 0 -363 -166q-129 -154 -129 -381zM465 618 q0 39 11 76t29.5 64.5t45.5 44t57 16.5q111 0 111 -131q0 -82 -48 -134t-106 -52q-100 0 -100 116z" />
<glyph unicode=":" horiz-adv-x="694" d="M125 178q0 -82 57.5 -139t139.5 -57t139 57t57 139t-57.5 139.5t-138.5 57.5q-82 0 -139.5 -57.5t-57.5 -139.5zM221 741q0 -82 57.5 -139t139.5 -57t139 57t57 139q0 39 -15 75t-42 62.5t-62.5 42t-76.5 15.5t-77 -15.5t-62.5 -42t-42 -62.5t-15.5 -75z" />
<glyph unicode=";" horiz-adv-x="694" d="M80 -252l37 -59q2 -8 30 -8q158 53 269 176q106 118 106 243t-58 199t-159 74q-86 0 -139 -49.5t-53 -141.5q0 -74 47 -124t123 -60q-20 -63 -52 -100q-37 -47 -133 -111q-31 -20 -18 -39zM221 741q0 -82 57.5 -139t139.5 -57t139 57t57 139q0 39 -15 75t-42 62.5 t-62.5 42t-76.5 15.5t-77 -15.5t-62.5 -42t-42 -62.5t-15.5 -75z" />
<glyph unicode="&#x3c;" horiz-adv-x="1200" d="M197 551q-6 -43 26 -51l815 -285q31 -10 33 21l35 286q4 41 -29 49l-549 140l584 139q37 8 43 55l43 305q2 14 -8 22.5t-29 2.5l-876 -285q-33 -8 -39 -49z" />
<glyph unicode="=" horiz-adv-x="1099" d="M109 420q-4 -35 28 -35h811q33 0 37 35l31 231q4 35 -27 35h-813q-33 0 -37 -35zM158 795q-4 -35 28 -35h811q33 0 37 35l31 231q4 35 -27 35h-813q-33 0 -37 -35z" />
<glyph unicode="&#x3e;" horiz-adv-x="1196" d="M74 236q-2 -14 4 -21q8 -2 22 0l889 285q33 8 39 51l49 350q6 41 -26 49l-815 287q-31 10 -33 -23l-37 -284q-6 -39 29 -49l548 -142l-581 -137q-37 -10 -43 -47z" />
<glyph unicode="?" d="M131 1223l100 -209q6 -14 19 -17q14 -4 24 7q115 115 242 114q51 0 86 -31.5t35 -82.5q0 -49 -27 -82q-6 -6 -57 -52q-45 -41 -90 -79.5t-90 -77.5q-82 -90 -115 -234q-10 -35 29 -35h262q20 0 37 35q29 68 86 119q16 14 43.5 34.5t66.5 49.5q199 137 199 356 q0 170 -113 271q-111 104 -286 104q-256 0 -437 -143q-27 -20 -14 -47zM203 178q0 -82 57 -139t139 -57t139.5 57t57.5 139t-57.5 139.5t-139.5 57.5t-139 -57.5t-57 -139.5z" />
<glyph unicode="@" horiz-adv-x="1861" d="M207 678q0 -336 209 -535q211 -199 547 -198q276 0 507 92q18 8 11 22l-23 58q-6 16 -22 10q-213 -86 -473 -86q-147 0 -273 49q-180 70 -281.5 219.5t-101.5 354.5q0 272 191 454q193 184 463 185q236 0 395 -129q174 -137 174 -373q0 -156 -74 -287q-84 -145 -205 -145 q-31 0 -24 41l51 387q2 16 3 29.5t1 27.5q0 139 -100 203q-72 43 -170 43q-168 0 -305 -103q-23 -16 -13 -36l60 -119q14 -20 32 -8q102 66 193 65q61 0 61 -80q0 -20 -2 -31q-213 -35 -288 -77q-160 -90 -160 -254q0 -47 17.5 -87t47 -70t70.5 -47t90 -17q113 0 209 49 q37 -57 123 -58q217 0 358 197q123 172 123 371q0 272 -196 442q-186 162 -476 162q-313 0 -532 -213q-217 -211 -217 -508zM829 498q6 55 64 75q27 8 117 31l-17 -145q-59 -33 -104 -33q-59 0 -60 72z" />
<glyph unicode="A" horiz-adv-x="1247" d="M-6 35q-5 -11 -5 -19q0 -16 23 -16h314q25 0 36 35l82 217h330l19 -217q4 -35 26 -35h295q31 0 31 28v7l-176 1331q-4 35 -33 35h-346q-20 0 -37 -35zM551 541l162 432l37 -432h-199z" />
<glyph unicode="B" horiz-adv-x="1208" d="M92 35v-7q0 -28 29 -28h516q178 0 309 76q191 107 191 336q0 246 -240 336v4q82 53 127 147q39 80 39 158q0 186 -158 276q-111 61 -260 62h-330q-33 0 -36 -35zM473 293l39 285h90q178 -1 178 -138q0 -147 -209 -147h-98zM553 864l33 246h51q104 0 104 -98 q0 -55 -32 -94q-47 -53 -131 -54h-25z" />
<glyph unicode="C" horiz-adv-x="1204" d="M127 610q0 -297 199 -471q175 -157 414 -157h3q227 0 385 73q31 16 17 49l-103 240q-12 27 -43 10q-90 -49 -204 -49q-133 0 -222 88q-90 90 -90 234q0 188 142 334q129 135 274 135q94 0 178 -23q39 -10 47 8l146 244q8 13 8 22q0 11 -12 17q-129 51 -344 51 q-305 0 -545 -233q-250 -244 -250 -572z" />
<glyph unicode="D" horiz-adv-x="1386" d="M92 35v-7q0 -28 29 -28h313q410 0 617 158q268 207 268 547q0 211 -89 368.5t-251 243.5q-150 78 -381 78h-281q-35 0 -38 -35zM467 311l117 774h39q106 0 200 -59q57 -37 99 -123q45 -92 45 -219q0 -47 -11.5 -93t-33 -86t-51 -73t-66.5 -53q-117 -68 -240 -68h-98z" />
<glyph unicode="E" horiz-adv-x="1193" d="M92 35v-7q0 -28 29 -28h956q33 0 37 35l33 229q2 33 -27 33h-649l39 262h453q31 0 36 35l35 233q2 33 -26 33h-457l33 238h538q35 0 37 32l33 230v8q0 27 -27 27h-848q-35 0 -38 -35z" />
<glyph unicode="F" horiz-adv-x="1124" d="M92 35v-7q0 -28 29 -28h276q33 0 37 35l74 524h379q31 0 37 35l34 233q2 33 -28 33h-379l33 238h481q35 0 37 32l33 230v8q0 27 -27 27h-793q-33 0 -36 -35z" />
<glyph unicode="G" horiz-adv-x="1466" d="M127 610q0 -297 192 -471q169 -157 409 -157h3q45 0 74 1t43 3q61 10 131 49q-4 -35 29 -35h276q35 0 39 35l88 635q2 33 -29 32h-479q-37 0 -39 -32l-30 -230q-4 -35 26 -34h170l-6 -52q-115 -51 -242 -51q-135 0 -217 88t-82 236q0 190 140 336q131 137 280 137 q84 0 189 -31q39 -10 53 16l131 228q23 37 0 47q-127 55 -354 55q-305 0 -545 -233q-250 -244 -250 -572z" />
<glyph unicode="H" horiz-adv-x="1437" d="M92 35v-7q0 -28 29 -28h274q35 0 39 35l70 508h467l-72 -508q-4 -35 27 -35h276q35 0 39 35l184 1325v8q0 27 -26 27h-277q-35 0 -39 -35l-69 -500h-465l72 500q4 35 -29 35h-277q-33 0 -36 -35z" />
<glyph unicode="I" horiz-adv-x="630" d="M92 35v-7q0 -28 29 -28h274q35 0 39 35l187 1325q0 4 1 7q0 28 -30 28h-277q-33 0 -36 -35z" />
<glyph unicode="J" horiz-adv-x="1009" d="M-25 106q-7 -12 -7 -22q0 -15 16 -27q101 -75 285 -75h5q403 0 547 340q27 68 56 225q0 4 8 63.5t24 175.5l80 574v7q0 28 -28 28h-275q-35 0 -39 -35l-94 -672q-16 -119 -33.5 -193.5t-38.5 -103.5q-57 -88 -155 -88q-88 0 -146 33q-35 29 -53 0z" />
<glyph unicode="K" horiz-adv-x="1300" d="M92 35v-7q0 -28 29 -28h274q35 0 39 35l62 446l100 101l248 -555q12 -27 45 -27h325q14 0 21 16q4 16 -2 27l-395 788l508 521q14 14 14 28q-2 14 -21 15h-370q-29 0 -60 -35l-346 -395l58 395q4 35 -29 35h-277q-33 0 -36 -35z" />
<glyph unicode="L" horiz-adv-x="985" d="M92 35v-7q0 -28 29 -28h725q35 0 39 35l33 229q2 33 -29 33h-418l150 1063q4 35 -29 35h-277q-33 0 -36 -35z" />
<glyph unicode="M" horiz-adv-x="1804" d="M20 35q-3 -8 -3 -14q0 -21 32 -21h270q27 0 39 35l234 700l70 -610q4 -29 28 -29h293q29 0 45 31l281 606v-698q0 -35 28 -35h273q39 0 39 35v1325q0 35 -29 35h-268q-25 0 -41 -35l-408 -825l-119 825q-4 35 -28 35h-258q-27 0 -39 -35z" />
<glyph unicode="N" horiz-adv-x="1370" d="M92 35v-7q0 -28 29 -28h256q35 0 39 35l108 766l373 -791q4 -10 23 -10h215q35 0 39 35l186 1325v7q0 28 -29 28h-252q-35 0 -39 -35l-108 -766l-369 786q-6 14 -26 15h-220q-35 0 -38 -35z" />
<glyph unicode="O" horiz-adv-x="1503" d="M127 575q0 -283 180 -444q161 -149 405 -149h3q311 0 518 239q205 238 205 594q0 272 -174 440q-166 160 -414 160q-295 0 -506 -235q-217 -242 -217 -605zM475 600q0 225 127 369q109 121 238 121q106 0 174 -70q73 -78 73 -209q0 -242 -112 -379q-100 -125 -248 -125 q-104 0 -172 68q-80 76 -80 225z" />
<glyph unicode="P" horiz-adv-x="1251" d="M92 35v-7q0 -28 29 -28h274q35 0 39 35l60 432h75q344 0 463 76q219 139 219 389q0 260 -202 389q-115 74 -340 74h-394q-33 0 -36 -35zM537 766l47 330h143q84 0 129 -34t45 -130q0 -68 -52 -117t-134 -49h-178z" />
<glyph unicode="Q" horiz-adv-x="1503" d="M127 575q0 -219 115 -370q102 -139 278 -195l-20 -108q-6 -18 20 -25q78 -18 125 -31q76 -16 209 -57t326 -106q10 -3 19 -3q19 0 32 13l205 192q8 8 8 14q0 9 -19 13q-147 35 -257.5 61.5t-186.5 46.5q-16 2 -6 13q-2 2 -2 0h2q211 90 336 301q127 213 127 481 q0 272 -174 440q-166 160 -414 160q-295 0 -506 -235q-217 -242 -217 -605zM475 600q0 225 127 369q109 121 238 121q106 0 174 -70q73 -78 73 -209q0 -242 -112 -379q-100 -125 -248 -125q-106 0 -172 66q-80 76 -80 227z" />
<glyph unicode="R" horiz-adv-x="1282" d="M92 35v-7q0 -28 29 -28h274q35 0 39 35l64 444h141l164 -444q12 -35 51 -35h307q27 0 27 22q0 10 -6 25l-195 488q258 112 258 436q0 182 -123 297q-139 127 -403 127h-404q-33 0 -36 -35zM539 776l45 318h143q35 0 72 -11q96 -30 96 -141q0 -94 -76 -143 q-35 -23 -127 -23h-153z" />
<glyph unicode="S" horiz-adv-x="1159" d="M76 100q144 -118 435 -118h5q262 0 420 127t158 331q0 150 -111 258q-49 45 -190 129q-45 25 -90.5 49.5t-90.5 49.5q-76 43 -75 82q0 96 159 96q57 0 117 -21q20 -8 40.5 -14t43.5 -14q31 -10 41 6l158 248q4 6 4 11q0 13 -23 23q-164 68 -344 68q-264 0 -422 -139 q-141 -123 -141 -305q0 -145 102 -248q53 -53 197 -137q162 -92 193 -117q59 -43 59 -84q0 -98 -176 -98q-156 0 -250 73q-25 23 -47 -6l-166 -200q-16 -20 -16 -33q0 -10 10 -17z" />
<glyph unicode="T" horiz-adv-x="1093" d="M131 1110q-2 -33 27 -33h301l-148 -1042q-4 -35 29 -35h276q33 0 37 35l148 1042h301q35 0 37 33l35 250v7q0 28 -29 28h-942q-33 0 -37 -35z" />
<glyph unicode="U" horiz-adv-x="1333" d="M133 430q0 -211 118 -329.5t347 -118.5q260 0 422 155q154 150 192 416l115 807v7q0 28 -29 28h-274q-33 0 -37 -35l-110 -776q-39 -285 -230 -285q-80 0 -119 29q-49 39 -49 143q0 23 2 46.5t6 49.5l111 793q4 35 -29 35h-276q-33 0 -37 -35l-115 -807q-4 -33 -6 -63.5 t-2 -59.5z" />
<glyph unicode="V" horiz-adv-x="1191" d="M164 1360l168 -1331q4 -35 33 -35h292q20 0 37 35l586 1331q5 11 5 18q0 17 -25 17h-324q-25 0 -37 -35l-326 -887l-57 887q-4 35 -27 35h-292q-33 0 -33 -29v-6z" />
<glyph unicode="W" horiz-adv-x="1835" d="M164 1360l141 -1331q4 -35 31 -35h354q20 0 33 35l215 630l59 -630q4 -35 29 -35h369q20 0 32 35l496 1331q3 10 3 17q0 18 -21 18h-316q-20 0 -33 -35l-292 -887l-54 887q-4 35 -22 35h-293q-20 0 -33 -35l-295 -887l-51 887q-4 35 -24 35h-299q-29 0 -29 -28v-7z" />
<glyph unicode="X" horiz-adv-x="1255" d="M-55 16q4 -16 20 -16h350q43 0 62 33l219 375l145 -373q16 -35 52 -35h323q18 0 25 18q2 12 -4 29l-291 633l500 668q8 15 8 26q0 20 -21 21h-346q-39 0 -61 -35l-236 -375l-123 375q-12 35 -51 35h-323q-28 0 -28 -21q0 -11 7 -26l274 -643l-493 -660q-10 -14 -8 -29z " />
<glyph unicode="Y" horiz-adv-x="1183" d="M141 1372q0 -10 6 -24l320 -691l-86 -622q-4 -35 27 -35h278q33 0 37 35l86 629l475 684q6 10 6 18q0 6 -2 10q-4 18 -22 19h-303q-39 0 -62 -35l-223 -387l-141 387q-12 35 -54 35h-311q-31 0 -31 -23z" />
<glyph unicode="Z" horiz-adv-x="1210" d="M-14 27q0 -27 28 -27h1061q35 0 39 35l33 229q2 33 -29 33h-547l686 1049q6 7 6 20q0 5 -1 10q-4 18 -21 19h-1012q-33 0 -36 -35l-33 -240q-4 -35 28 -35h478l-670 -1030q-10 -16 -10 -28z" />
<glyph unicode="[" horiz-adv-x="831" d="M70 -418q-4 -35 26 -35h525q31 0 34 35l31 217q2 33 -27 33h-231l168 1282h231q33 0 35 33l31 217q4 35 -27 35h-524q-33 0 -37 -35z" />
<glyph unicode="\" horiz-adv-x="632" d="M139 1380l164 -1366q2 -33 27 -32h264q39 -1 37 32l-164 1366q-2 33 -27 33h-264q-39 0 -37 -33z" />
<glyph unicode="]" horiz-adv-x="786" d="M-55 -418q-4 -35 26 -35h525q31 0 34 35l238 1782q4 35 -27 35h-524q-27 0 -37 -35l-28 -217q-2 -33 26 -33h232l-168 -1282h-232q-29 0 -37 -33z" />
<glyph unicode="^" horiz-adv-x="1009" />
<glyph unicode="_" horiz-adv-x="1122" d="M16 -295q-2 -33 27 -33h903q35 0 37 33l23 170q4 35 -27 35h-903q-33 0 -37 -35z" />
<glyph unicode="`" horiz-adv-x="550" d="M371 1366l196 -254q14 -18 33 -18h88q33 -1 27 34l-47 232q-6 35 -31 35h-244q-12 0 -22 -11q-6 -10 0 -18z" />
<glyph unicode="a" horiz-adv-x="1069" d="M78 375q0 -201 115 -305q90 -84 208 -84q115 0 189 55l-2 -10q-6 -31 24 -31h228q33 0 37 35l120 856q1 5 1 9q0 14 -11 15q-119 23 -291 23q-242 0 -415 -137q-203 -158 -203 -426zM422 377q0 119 63.5 193.5t167.5 74.5l-30 -215q-23 -158 -121 -158q-80 0 -80 105z " />
<glyph unicode="b" horiz-adv-x="1064" d="M92 35v-7q0 -26 27 -28q174 -18 311 -18q209 0 358 112q205 154 205 471q0 186 -114 289q-90 82 -222 82q-35 0 -63.5 -3t-52.5 -7l61 438q4 35 -29 35h-260q-33 0 -37 -35zM453 285l47 340q33 12 75 12q78 0 78 -115q0 -137 -75 -198q-51 -39 -113 -39h-12z" />
<glyph unicode="c" horiz-adv-x="841" d="M78 395q0 -168 108 -289q112 -124 298 -124h3q164 0 293 63q29 16 15 47l-86 203q-12 27 -45 8q-39 -22 -87 -22h-4q-147 0 -147 163q0 72 51 129q57 68 139 68q53 0 91 -10q35 -10 47 10l125 205q8 11 8 21q0 13 -15 22q-111 49 -249 49q-207 0 -371 -152 q-174 -160 -174 -391z" />
<glyph unicode="d" horiz-adv-x="1060" d="M78 401q0 -215 151 -325q125 -92 312 -92q82 0 155.5 5t139.5 15q35 10 36 35l185 1325q1 5 1 9q0 26 -22 26h-264q-39 0 -43 -35l-59 -434q-133 0 -256 -47q-336 -133 -336 -482zM424 408q0 106 63 170q60 59 142 59l-51 -354h-15q-139 0 -139 125z" />
<glyph unicode="e" horiz-adv-x="946" d="M211 72q109 -90 266 -90q193 0 311 71q25 14 15 43l-78 189q-16 31 -45 8q-66 -43 -133 -43q-121 0 -133 78q141 12 264 65q178 80 209 225q8 31 8 66q0 111 -82 182.5t-225 71.5q-211 0 -361 -160q-149 -157 -149 -380q0 -216 133 -326zM408 510q14 57 55 104 q51 61 121 62q26 0 26 -29q0 -27 -14 -43q-51 -70 -188 -94z" />
<glyph unicode="f" horiz-adv-x="751" d="M66 -356v-7q0 -28 28 -28h256q35 0 39 35l143 999h119q35 0 37 33l31 209q4 35 -27 35h-121l17 100q8 61 18 80q14 33 60 33q49 0 114 -37q35 -16 47 2l129 186q6 8 7 16q0 18 -19 29q-133 72 -256 72q-156 0 -262 -70q-117 -76 -141 -217q-8 -47 -16.5 -96t-18.5 -98 h-94q-33 0 -37 -35l-29 -209q-2 -33 27 -33h92z" />
<glyph unicode="g" horiz-adv-x="1087" d="M37 -336q0 -12 22 -29q125 -84 328 -84q215 0 351 122t169 352l123 860v7q0 28 -29 28h-237q-23 0 -27 -23q-66 37 -172 37q-215 0 -360 -189q-129 -170 -129 -380q0 -135 55 -234q87 -149 286 -149h3q96 0 162 36q2 -2 6 -2l-10 -43q-12 -53 -58 -98q-55 -55 -123 -55 q-111 0 -182 53q-31 25 -51 -6l-117 -178q-10 -16 -10 -25zM424 377q0 152 72 217q45 39 102 39q37 -1 74 -15l-29 -188q-25 -156 -141 -156q-78 0 -78 103z" />
<glyph unicode="h" horiz-adv-x="1087" d="M92 35v-7q0 -28 31 -28h250q37 0 41 35l69 483q20 137 127 137q45 0 49 -86q0 -8 -1 -21t-3 -33.5t-2 -31.5v-12l-59 -436q-4 -35 31 -35h249q37 0 41 35l66 483q6 49 6 100q-4 141 -59 222q-63 94 -195 94q-129 0 -201 -39l72 467q6 35 -20 35h-265q-37 0 -40 -35z" />
<glyph unicode="i" horiz-adv-x="604" d="M92 35v-7q0 -28 29 -28h256q33 0 37 35l121 850q4 35 -29 35h-256q-33 0 -37 -35zM238 1255q0 -39 14 -73.5t39.5 -60t60.5 -40t74 -14.5t74 14.5t60.5 40t39.5 60t14 73.5t-14 74t-39.5 60.5t-60.5 40t-74 14.5t-74 -14.5t-60.5 -40t-39.5 -60.5t-14 -74z" />
<glyph unicode="j" horiz-adv-x="595" d="M-59 -242l112 -200q12 -19 39 -19q9 0 19 2q98 23 174 94q92 92 114 244l142 1006q4 35 -29 35h-260q-31 0 -35 -35l-125 -908q-4 -35 -10 -56t-10 -32q-31 -59 -123 -82q-19 -3 -19 -19q0 -11 11 -30zM244 1255q0 -39 14 -73.5t40 -60t60.5 -40t73.5 -14.5t74 14.5 t60.5 40t40 60t14.5 73.5t-14.5 74t-40 60.5t-60.5 40t-74 14.5t-73.5 -14.5t-60.5 -40t-40 -60.5t-14 -74z" />
<glyph unicode="k" horiz-adv-x="991" d="M92 35v-7q0 -28 29 -28h256q33 0 37 35l41 280l55 54l137 -346q10 -23 39 -23h275q34 0 34 22q0 9 -6 23l-246 547l295 282q9 6 9 18q0 4 -1 9q-4 19 -22 19h-293q-20 0 -43 -23l-178 -180l90 647q4 35 -29 35h-256q-33 0 -36 -35z" />
<glyph unicode="l" horiz-adv-x="604" d="M92 35v-7q0 -28 29 -28h256q33 0 37 35l186 1329q0 4 1 8q0 27 -28 27h-258q-33 0 -36 -35z" />
<glyph unicode="m" horiz-adv-x="1591" d="M92 35v-7q0 -28 29 -28h256q33 0 37 35l61 426q27 196 132 196h1q57 0 58 -59q0 -31 -7 -74l-69 -489q-4 -35 28 -35h256q35 0 39 35l62 426q27 196 116 196h1q69 0 69 -57q0 -10 -2 -28.5t-6 -47.5l-68 -489q-4 -35 27 -35h258q33 0 37 35l80 561q2 10 2 49 q0 162 -96 236q-72 55 -179 55q-193 0 -325 -90q-25 35 -76 61q-61 29 -115 29q-137 0 -213 -57l2 12q4 29 -22 29h-215q-33 0 -37 -35z" />
<glyph unicode="n" horiz-adv-x="1087" d="M92 35v-7q0 -28 31 -28h250q37 0 41 35l71 491q18 129 125 129q45 0 49 -86q0 -8 -1 -21t-3 -33.5t-2 -31.5v-12l-59 -436q-4 -35 31 -35h249q37 0 41 35l66 483q6 49 6 100q-4 141 -59 222q-63 94 -195 94q-137 0 -237 -49q10 35 -19 35h-223q-37 0 -41 -35z" />
<glyph unicode="o" horiz-adv-x="1040" d="M201 88q113 -106 282 -106q207 0 346 157q140 162 140 391q0 184 -121 299q-115 109 -283 109q-197 0 -338 -154q-149 -157 -149 -392q0 -191 123 -304zM401 428q0 82 45 152q46 71 105 71h2q94 0 94 -164q0 -82 -39 -145q-47 -74 -110 -74q-96 0 -97 160z" />
<glyph unicode="p" horiz-adv-x="1067" d="M18 -440v-7q0 -28 29 -28h256q33 0 37 35l61 428h15q252 0 409 141q172 150 172 422q0 166 -92 280q-88 106 -213 107q-131 0 -229 -45l4 10q0 16 -25 17h-198q-35 0 -39 -35zM442 274l50 344q53 20 75 21q90 0 90 -143q0 -96 -63 -160q-66 -61 -135 -62h-17z" />
<glyph unicode="q" horiz-adv-x="1034" d="M78 369q0 -170 102 -279q94 -100 242 -100q76 0 113 14l-64 -444q-4 -35 29 -35h256q35 0 39 35l184 1312q2 27 -29 35q-117 31 -299 31q-233 0 -391 -137q-182 -158 -182 -432zM416 393q0 113 58 179.5t151 66.5h-2l-25 -186q-23 -160 -119 -160q-63 0 -63 100z" />
<glyph unicode="r" horiz-adv-x="763" d="M92 35v-7q0 -28 29 -28h256q33 0 37 35l51 352q39 264 250 264q12 0 24.5 -1t26.5 -3q31 -4 35 25l26 223q2 25 -22 37q-37 10 -86 10q-139 0 -246 -86l4 29q4 35 -28 35h-199q-33 0 -37 -35z" />
<glyph unicode="s" horiz-adv-x="802" d="M14 119q-9 -14 -9 -26q0 -15 15 -27q115 -84 314 -84q186 0 295.5 82.5t109.5 230.5q0 150 -170 248q-29 16 -58.5 32.5t-57.5 32.5q-47 29 -47 60q0 34 75 34h4q57 0 121 -32q33 -18 49 4l105 155q8 10 8 25q0 14 -25 31q-88 53 -239 53q-186 0 -291 -74 q-111 -78 -111 -221q0 -117 117 -209q10 -10 45 -31.5t94 -56.5q70 -39 70 -72q0 -49 -98 -49q-82 0 -166 66q-11 8 -21 8q-17 0 -32 -25z" />
<glyph unicode="t" horiz-adv-x="724" d="M74 676q-2 -33 26 -33h95l-48 -352q-6 -41 -6 -76q0 -233 256 -233q166 0 281 63q23 12 14 31l-76 190q-12 29 -41 13q-43 -25 -71 -25q-33 0 -33 53q0 19 4 45l43 291h127q35 0 37 33l31 209v7q0 28 -29 28h-127l25 163q6 37 -23 37q-6 0 -18 -4l-258 -94 q-35 -12 -39 -35l-8 -67h-95q-35 0 -39 -35z" />
<glyph unicode="u" horiz-adv-x="1067" d="M119 264q0 -86 31 -141q23 -41 50 -67.5t67 -43t92.5 -23.5t123.5 -7q240 0 367 145q80 92 100 248l74 510v6q0 29 -35 29h-244q-37 0 -43 -35l-65 -441q-14 -94 -31 -131q-35 -71 -98 -71h-2q-63 0 -64 71v15q0 8 2 18l76 539q4 35 -35 35h-243q-39 0 -43 -35l-66 -463 q-8 -53 -11 -92t-3 -66z" />
<glyph unicode="v" horiz-adv-x="929" d="M90 879l121 -850q4 -35 29 -35h321q20 0 37 35l377 848q3 7 3 14t-3 15q-6 14 -27 14h-276q-23 0 -35 -35l-176 -482l-51 482q-4 35 -27 35h-252q-42 0 -42 -32q0 -4 1 -9z" />
<glyph unicode="w" horiz-adv-x="1425" d="M90 879l107 -850q4 -35 24 -35h330q16 0 33 35l137 352l41 -352q10 -35 26 -35h320q16 0 33 35l327 848q4 12 4 21q0 22 -26 22h-277q-20 0 -30 -35l-154 -482l-43 482q-4 35 -24 35h-281q-20 0 -31 -35l-153 -482l-45 482q0 35 -23 35h-258q-38 0 -38 -32q0 -4 1 -9z " />
<glyph unicode="x" horiz-adv-x="903" d="M-57 20q0 -20 24 -20h312q27 0 38 23l99 167l59 -167q10 -23 41 -23h264q37 0 37 29q0 8 -6 20l-186 400l317 423q8 13 8 25q0 22 -22 23h-273q-37 0 -49 -23l-98 -174l-55 174q-6 23 -43 23h-252q-18 0 -29 -17q-8 -14 0 -33l174 -397l-348 -426q-12 -16 -12 -27z" />
<glyph unicode="y" horiz-adv-x="997" d="M37 -442q-1 -5 -1 -9q0 -11 4 -15t14 -4q4 0 9 1q444 27 609 424l375 915q6 16 6 26q0 23 -29 24h-289q-39 0 -47 -31l-151 -494l-84 486q-6 39 -43 39h-283q-34 0 -34 -31q0 -8 3 -19l234 -911q-39 -112 -189 -112q-17 0 -35 1q-37 4 -40 -32z" />
<glyph unicode="z" horiz-adv-x="847" d="M-49 25q0 -25 26 -25h787q33 0 37 35l28 209q2 33 -28 32h-314l420 596q10 16 11 27q0 20 -25 21h-795q-35 0 -39 -35l-30 -213q-2 -33 28 -33h328l-426 -592q-8 -10 -8 -22z" />
<glyph unicode="{" horiz-adv-x="770" d="M63 414q-4 -35 25 -35q72 0 105 -23q35 -29 34 -108q0 -57 -14 -135l-8 -47q-12 -78 -12 -142q0 -354 382 -354q35 0 39 35l25 176q4 35 -25 35q-129 0 -129 123q0 23 3.5 54.5t11.5 72.5l10 59q12 70 12 125q0 195 -186 282q123 53 168 105q96 109 127 348l2 16 q18 141 47 189q33 55 125 55q35 0 39 35l24 176q4 35 -24 35q-209 0 -340 -105q-121 -94 -144 -247l-36 -265q-16 -106 -52 -145q-43 -47 -135 -47q-37 0 -41 -35z" />
<glyph unicode="|" horiz-adv-x="587" d="M72 -432q-4 -35 26 -35h201q33 0 37 35l239 1792q4 35 -28 35h-199q-33 0 -37 -35z" />
<glyph unicode="}" horiz-adv-x="794" d="M-6 -395q-4 -35 24 -35q207 0 340 104q121 94 144 248l35 264q14 104 54 148.5t132 44.5q39 0 43 35l31 233q4 35 -23 35q-76 0 -102 25q-33 27 -33 112q0 25 3 56.5t7 72.5l6 47q4 35 6.5 66t2.5 59q0 371 -379 371q-33 0 -37 -35l-25 -176q-4 -35 25 -35 q70 0 97.5 -27.5t27.5 -95.5q0 -45 -13 -127l-8 -59q-4 -33 -6 -61.5t-2 -55.5q0 -115 47 -186q39 -57 133 -105q-141 -59 -186 -102q-109 -109 -109 -350v-17q0 -135 -39.5 -189t-134.5 -54q-33 0 -37 -35z" />
<glyph unicode="~" horiz-adv-x="1009" />
<glyph unicode="&#xa1;" horiz-adv-x="620" d="M156 -289q0 -203 180 -203q195 0 235 277q13 93 7 199l-29 473q-4 18 -35 18h-102q-37 0 -39 -18l-164 -473q-16 -47 -27.5 -96.5t-19.5 -102.5q-6 -41 -6 -74zM289 741q0 -82 57 -139t139 -57t139.5 57t57.5 139t-57.5 139.5t-139.5 57.5t-139 -57.5t-57 -139.5z" />
<glyph unicode="&#xa2;" horiz-adv-x="841" d="M78 395q0 -156 92 -268q94 -119 256 -141l-6 -41q-4 -29 24 -29h68q27 0 31 29l6 39q117 6 231 61q29 16 15 47l-86 203q-12 27 -45 8q-41 -23 -91 -22q-147 0 -147 163q0 72 51 129q57 68 139 68q53 0 91 -10q35 -10 47 10l125 205q18 27 -7 43q-41 16 -82.5 28.5 t-84.5 16.5l8 49q10 29 -23 29h-67q-27 0 -31 -29l-8 -47q-195 -14 -346 -164q-160 -158 -160 -377z" />
<glyph unicode="&#xa3;" horiz-adv-x="1058" d="M57 35q-4 -35 27 -35h817q33 0 37 35l33 244q2 33 -27 32h-348l37 275h172q31 0 37 35l32 213q6 35 -26 34h-176l2 27q16 225 125 225q63 0 145 -45q31 -16 45 4l152 178q27 33 0 54q-133 102 -318 102q-426 0 -481 -469l-10 -88l-139 -22q-33 -6 -37 -35l-29 -178 q-6 -35 29 -35h137l-37 -275h-129q-33 0 -35 -32z" />
<glyph unicode="&#xa4;" horiz-adv-x="1204" d="M4 457q-10 -35 29 -35h117q57 -209 235 -330q160 -111 358 -110q227 0 385 73q31 16 17 49l-103 240q-12 27 -43 10q-90 -49 -204 -49q-156 0 -244 117h248q20 0 37 35l51 125q8 16 8 30q0 29 -39 29h-373q2 29 6.5 52.5t8.5 43.5h430q25 0 37 33l51 127q8 16 8 31 q0 27 -39 26h-371q131 141 285 142q98 0 182 -23q39 -10 47 8l142 244q18 29 -4 39q-135 51 -344 51q-215 0 -414 -129q-199 -127 -299 -332h-76q-33 0 -35 -32l-32 -152q-6 -33 28 -33h43q-4 -16 -6 -39.5t-4 -56.5h-55q-31 0 -35 -35z" />
<glyph unicode="&#xa5;" horiz-adv-x="1232" d="M123 231q-2 -33 27 -32h303l-25 -164q-6 -35 29 -35h276q35 0 39 35l23 164h297q35 0 36 32l29 209q4 35 -27 35h-299l19 121h297q31 0 35 35l28 209q4 35 -26 34h-180l329 474q10 16 4 28q-4 18 -22 19h-303q-39 0 -62 -35l-225 -387l-141 387q-12 35 -52 35h-311 q-33 0 -33 -25q0 -10 7 -22l221 -474h-174q-33 0 -37 -34l-29 -209q-4 -35 27 -35h305l-19 -121h-301q-33 0 -36 -35z" />
<glyph unicode="&#xa6;" />
<glyph unicode="&#xa7;" horiz-adv-x="780" d="M-25 -350q0 -16 27 -35q119 -86 266 -86q156 0 277 115q133 127 133 319q0 80 -49 170q172 135 172 322q0 121 -82 233q-4 6 -154 172q-82 90 -82 160q0 139 105 139q61 0 102 -35q20 -25 47 2l117 142q20 27 -2 47q-115 98 -264 98q-164 0 -285 -108 q-133 -121 -133 -320q0 -76 35 -149q-152 -139 -152 -318q0 -131 82 -256q31 -49 150 -192q82 -94 82 -146q0 -139 -119 -139q-55 0 -98 45q-27 27 -46 -4l-118 -152q-10 -14 -11 -24zM362 539q0 43 19 71q113 -121 113 -207q0 -29 -35 -59q-96 115 -97 195z" />
<glyph unicode="&#xa8;" horiz-adv-x="516" d="M78 1309q0 -68 47 -115t115 -47t114.5 47t46.5 115t-47 114.5t-114 46.5q-68 0 -115 -47t-47 -114zM504 1309q0 -68 47 -115t115 -47t114.5 47t46.5 115t-47 114.5t-114 46.5q-68 0 -115 -47t-47 -114z" />
<glyph unicode="&#xa9;" horiz-adv-x="1755" d="M123 737q0 -311 219 -534q221 -221 535 -221q313 0 534 221t221 534t-221 533q-221 221 -534 221t-535 -221q-219 -219 -219 -533zM248 737q0 262 184 445q184 184 445 184q262 0 446 -184.5t184 -444.5t-184 -446q-184 -184 -446 -185q-260 0 -444.5 184.5t-184.5 446.5 zM506 674q0 -152 94 -258.5t242 -106.5q162 0 276 74q23 10 12 35l-65 137q-8 25 -31 8q-78 -55 -170 -55q-74 0 -116.5 51t-42.5 125q0 53 20 96q12 31 34.5 60.5t50.5 53.5t57.5 37t58.5 13q59 0 67 -2q49 -10 94 -55q16 -16 33 6l94 123q12 16 -4 28q-102 102 -258 103 q-143 0 -268 -102.5t-164 -264.5q-14 -49 -14 -106z" />
<glyph unicode="&#xaa;" horiz-adv-x="571" d="M49 1073q0 -121 70 -184q53 -51 127 -51q49 0 90 18q33 14 29 18v-10q-4 -18 24 -18h113q16 0 20 18l74 518q2 14 -12 17q-82 16 -166 16q-139 0 -248 -84q-121 -96 -121 -258zM100 575q0 -45 32 -76.5t77 -31.5t76.5 31.5t31.5 76.5t-31.5 77t-76.5 32t-77 -31.5 t-32 -77.5zM252 1065q0 86 55 139q39 39 72 39h10l-18 -137q-14 -100 -70 -100q-49 0 -49 59z" />
<glyph unicode="&#xab;" horiz-adv-x="1173" d="M-27 436l207 -397q20 -39 49 -39h217q27 0 15 33l-170 430l299 428q6 8 6 14q0 18 -27 19h-241q-33 0 -60 -39l-286 -398q-23 -29 -9 -51zM502 436l207 -397q20 -39 49 -39h217q27 0 14 33l-170 430l297 428q20 33 -18 33h-242q-33 0 -59 -39l-287 -398q-23 -29 -8 -51z " />
<glyph unicode="&#xac;" horiz-adv-x="1009" />
<glyph unicode="&#xad;" horiz-adv-x="864" d="M180 285q-4 -35 27 -35h387q27 0 37 35l33 250q2 33 -27 32h-387q-33 0 -35 -32z" />
<glyph unicode="&#xae;" horiz-adv-x="1755" d="M123 737q0 -311 219 -534q221 -221 535 -221q313 0 534 221t221 534t-221 533q-221 221 -534 221t-535 -221q-219 -219 -219 -533zM248 737q0 262 184 445q184 184 445 184q262 0 446 -184.5t184 -444.5t-184 -446q-184 -184 -446 -185q-260 0 -444.5 184.5t-184.5 446.5 zM561 340q-2 -27 21 -27h151q25 0 27 27l35 260h65l109 -264q10 -23 30 -23h144q33 0 18 37l-117 275q176 55 211 215q6 27 7 59q0 98 -58 162q-66 72 -170 72h-344q-25 0 -26 -27zM819 780l21 172h153q68 0 68 -75q0 -11 -4 -31q-16 -66 -109 -66h-129z" />
<glyph unicode="&#xaf;" horiz-adv-x="1009" />
<glyph unicode="&#xb0;" horiz-adv-x="690" d="M131 1214q0 -115 80 -196q82 -80 197 -80t194 80q82 81 82 196t-82 195q-80 82 -194 82q-115 0 -197 -82q-80 -80 -80 -195zM311 1214q0 41 28 69t69 28t70.5 -28t29.5 -69t-29.5 -70.5t-70.5 -29.5t-69 30t-28 70z" />
<glyph unicode="&#xb1;" horiz-adv-x="1009" />
<glyph unicode="&#xb2;" />
<glyph unicode="&#xb3;" />
<glyph unicode="&#xb4;" horiz-adv-x="782" d="M408 1128q-16 -35 16 -34h117q18 0 37 18l241 254q10 10 6 20q-2 8 -18 9h-256q-23 0 -39 -35z" />
<glyph unicode="&#xb6;" horiz-adv-x="1245" d="M92 983q0 -154 92 -245t252 -101l-139 -1026q-2 -20 16 -21h181q20 0 22 21l229 1692h142l-232 -1692q0 -20 17 -21h182q20 0 23 21l229 1692h190q20 0 23 20l16 123q0 20 -16 20h-707q-215 0 -352 -107.5t-164 -305.5q-2 -16 -3 -35t-1 -35z" />
<glyph unicode="&#xb7;" horiz-adv-x="698" d="M119 713q0 -82 57 -139.5t139 -57.5t139.5 57.5t57.5 139.5t-57.5 139t-139.5 57t-139 -57t-57 -139z" />
<glyph unicode="&#xb8;" horiz-adv-x="755" d="M197 -332q-2 -20 16 -20q10 0 31.5 -2t34.5 -2q230 18 253 176q8 53 -24.5 96t-95.5 55l4 39h-109l-37 -151q10 2 19 2h16q78 0 72 -45q-2 -29 -62 -39h-86q-18 0 -20 -21z" />
<glyph unicode="&#xb9;" />
<glyph unicode="&#xba;" horiz-adv-x="606" d="M92 1081q0 -117 74 -184q68 -61 172 -61q127 0 211 96t84 235q0 117 -67.5 182.5t-178.5 65.5q-117 0 -207 -96q-88 -94 -88 -238zM135 575q0 -45 32 -76.5t77 -31.5q47 0 77.5 31.5t30.5 76.5t-31.5 77t-76.5 32t-77 -31.5t-32 -77.5zM281 1110q0 51 27.5 91t66.5 40 q69 1 69 -108q0 -43 -26.5 -84t-63.5 -41q-74 0 -73 102z" />
<glyph unicode="&#xbb;" horiz-adv-x="1263" d="M102 18q0 -18 27 -18h242q33 0 59 39l287 397q22 28 8 51l-207 398q-20 39 -49 39h-217q-27 0 -14 -33l170 -430l-299 -428q-6 -10 -7 -15zM631 18q0 -18 26 -18h242q33 0 59 39l287 397q22 28 8 51l-209 398q-14 39 -47 39h-217q-27 0 -14 -33l170 -430l-299 -428 q-6 -10 -6 -15z" />
<glyph unicode="&#xbc;" />
<glyph unicode="&#xbd;" />
<glyph unicode="&#xbe;" />
<glyph unicode="&#xbf;" horiz-adv-x="964" d="M80 -117q0 -170 110 -270q113 -104 289 -105q260 0 436 144q27 20 15 47l-101 209q-6 14 -18 16q-16 2 -25 -6q-115 -115 -241 -115q-51 0 -86 32t-35 83q0 49 27 82q4 4 57 51q45 41 90 80t90 80q82 88 115 231q10 35 -27 35h-264q-20 0 -37 -35q-29 -68 -86 -118 q-16 -14 -44 -35t-66 -49q-199 -137 -199 -357zM465 743q0 -82 57.5 -139t139.5 -57t139 57t57 139t-57.5 139.5t-138.5 57.5q-82 0 -139.5 -57.5t-57.5 -139.5z" />
<glyph unicode="&#xc0;" horiz-adv-x="1280" d="M-6 35q-16 -35 20 -35h322q23 0 39 35l84 217h340l18 -217q4 -35 27 -35h303q37 0 33 35l-181 1331q-4 35 -34 35h-357q-25 0 -37 -35zM569 541l164 432l39 -432h-203zM618 1815l195 -254q14 -18 33 -19h88q33 0 27 33l-48 233q-6 35 -30 35h-242q-12 0 -22.5 -10 t-0.5 -18z" />
<glyph unicode="&#xc1;" horiz-adv-x="1280" d="M-6 35q-16 -35 20 -35h322q23 0 39 35l84 217h340l18 -217q4 -35 27 -35h303q37 0 33 35l-181 1331q-4 35 -34 35h-357q-25 0 -37 -35zM569 541l164 432l39 -432h-203zM653 1575q-16 -35 17 -35h116q18 0 37 19l242 253q10 10 6 21q-6 8 -20 8h-254q-25 0 -39 -33z" />
<glyph unicode="&#xc2;" horiz-adv-x="1304" d="M-6 35q-16 -35 20 -35h322q23 0 39 35l84 217h340l18 -217q4 -35 27 -35h303q37 0 33 35l-181 1331q-4 35 -34 35h-357q-25 0 -37 -35zM514 1563q-16 -35 10 -35h135q16 0 52 22l118 84l113 -84q33 -23 49 -22h109q34 0 18 35l-110 252q-12 27 -31 26h-275q-25 0 -38 -26 zM569 541l164 432l39 -432h-203z" />
<glyph unicode="&#xc3;" horiz-adv-x="1280" d="M-6 35q-16 -35 20 -35h322q23 0 39 35l84 217h340l18 -217q4 -35 27 -35h303q37 0 33 35l-181 1331q-4 35 -34 35h-357q-25 0 -37 -35zM528 1556q-4 -35 21 -34h84q12 0 22.5 17t24.5 17q12 0 41 -3t74 -11q47 -8 81.5 -11t57.5 -3q145 -1 227 284q8 33 -20 33h-82 q-8 0 -19.5 -17.5t-17.5 -17.5q-49 0 -143 13q-47 8 -83 11t-63 3q-131 0 -205 -281zM569 541l164 432l39 -432h-203z" />
<glyph unicode="&#xc4;" horiz-adv-x="1398" d="M-6 35q-16 -35 20 -35h322q23 0 39 35l84 217h340l18 -217q4 -35 27 -35h303q37 0 33 35l-181 1331q-4 35 -34 35h-357q-25 0 -37 -35zM459 1686q0 -68 47 -115t115 -47t114.5 47t46.5 115t-47 114.5t-114 46.5q-68 0 -115 -47t-47 -114zM569 541l164 432l39 -432h-203z M885 1686q0 -68 47 -115t115 -47t114.5 47t46.5 115t-47 114.5t-114 46.5q-68 0 -115 -47t-47 -114z" />
<glyph unicode="&#xc5;" horiz-adv-x="1280" d="M-6 35q-16 -35 20 -35h322q23 0 39 35l84 217h340l18 -217q4 -35 27 -35h303q37 0 33 35l-181 1331q-4 35 -34 35h-357q-25 0 -37 -35zM569 541l164 432l39 -432h-203zM659 1714q0 -39 15.5 -73.5t41 -60.5t60.5 -41t74 -15t73.5 15t60.5 41t41 60.5t15 73.5t-15 74 t-41 60.5t-60.5 41t-73.5 15.5t-74 -15.5t-60.5 -41t-41 -60.5t-15.5 -74zM795 1714q0 53 55 53q53 0 53 -53q0 -55 -53 -55q-20 0 -37.5 17.5t-17.5 37.5z" />
<glyph unicode="&#xc6;" horiz-adv-x="2232" d="M-6 35q-35 -35 2 -35h407q23 0 54 35l194 217h512l-30 -217q-4 -35 28 -35h955q33 0 36 35l33 229q2 33 -26 33h-648l39 262h451q31 0 37 35l35 233q2 33 -29 33h-453l33 238h535q37 0 39 32l32 230q4 35 -26 35h-916q-20 0 -55 -35zM907 541l353 397l-56 -397h-297z" />
<glyph unicode="&#xc7;" horiz-adv-x="1204" d="M127 610q0 -287 188 -463q164 -154 404 -163l-31 -125q10 2 19 2h16q78 0 72 -45q-2 -29 -62 -39h-86q-20 0 -20 -21l-13 -88q-2 -20 17 -20q10 0 31.5 -2t33.5 -2q229 18 252 176q8 53 -24.5 96t-94.5 55l2 15q168 10 297 69q31 16 17 49l-103 240q-12 27 -43 10 q-90 -49 -204 -49q-133 0 -222 88q-90 90 -90 234q0 188 142 334q129 135 274 135q94 0 178 -23q39 -10 47 8l146 244q18 29 -4 39q-135 51 -344 51q-305 0 -545 -233q-250 -244 -250 -572z" />
<glyph unicode="&#xc8;" horiz-adv-x="1193" d="M92 35q-4 -35 29 -35h956q33 0 37 35l33 229q2 33 -27 33h-649l39 262h453q31 0 36 35l35 233q2 33 -28 33h-455l33 238h538q35 0 37 32l33 230q4 35 -27 35h-848q-35 0 -38 -35zM610 1815l197 -254q14 -18 33 -19h88q32 0 26 33l-47 233q-6 35 -30 35h-244 q-12 0 -23 -10q-6 -10 0 -18z" />
<glyph unicode="&#xc9;" horiz-adv-x="1193" d="M92 35q-4 -35 29 -35h956q33 0 37 35l33 229q2 33 -27 33h-649l39 262h453q31 0 36 35l35 233q2 33 -28 33h-455l33 238h538q35 0 37 32l33 230q4 35 -27 35h-848q-35 0 -38 -35zM688 1575q-16 -35 14 -35h117q18 0 37 19l244 253q8 8 6 19q-6 10 -21 10h-254 q-27 0 -40 -33z" />
<glyph unicode="&#xca;" horiz-adv-x="1193" d="M92 35q-4 -35 29 -35h956q33 0 37 35l33 229q2 33 -27 33h-649l39 262h453q31 0 36 35l35 233q2 33 -28 33h-455l33 238h538q35 0 37 32l33 230q4 35 -27 35h-848q-35 0 -38 -35zM518 1563q-23 -35 10 -35h136q14 0 49 22l118 84l113 -84q33 -23 49 -22h109q14 0 20 12 q6 11 0 23l-110 252q-12 27 -33 26h-272q-25 0 -39 -26z" />
<glyph unicode="&#xcb;" horiz-adv-x="1193" d="M92 35q-4 -35 29 -35h956q33 0 37 35l33 229q2 33 -27 33h-649l39 262h453q31 0 36 35l35 233q2 33 -28 33h-455l33 238h538q35 0 37 32l33 230q4 35 -27 35h-848q-35 0 -38 -35zM373 1686q0 -68 47 -115t115 -47t114.5 47t46.5 115t-47 114.5t-114 46.5q-68 0 -115 -47 t-47 -114zM799 1686q0 -68 47 -115t115 -47t114.5 47t46.5 115t-47 114.5t-114 46.5q-68 0 -115 -47t-47 -114z" />
<glyph unicode="&#xcc;" horiz-adv-x="624" d="M92 35q-4 -35 29 -35h274q35 0 39 35l187 1325q4 35 -29 35h-277q-33 0 -36 -35zM365 1815l196 -254q14 -18 33 -19h88q33 0 27 33l-47 233q-6 35 -31 35h-244q-12 0 -22 -10q-6 -10 0 -18z" />
<glyph unicode="&#xcd;" horiz-adv-x="626" d="M92 35q-4 -35 29 -35h274q35 0 39 35l187 1325q4 35 -29 35h-277q-33 0 -36 -35zM420 1575q-16 -35 16 -35h117q18 0 37 19l241 253q10 10 7 21q-2 8 -19 8h-256q-25 0 -39 -33z" />
<glyph unicode="&#xce;" horiz-adv-x="626" d="M92 35q-4 -35 29 -35h274q35 0 39 35l187 1325q4 35 -29 35h-277q-33 0 -36 -35zM229 1563q-23 -35 11 -35h135q16 0 51 22l119 84l112 -84q33 -23 50 -22h108q35 0 19 35l-111 252q-12 27 -31 26h-274q-25 0 -39 -26z" />
<glyph unicode="&#xcf;" horiz-adv-x="628" d="M92 35q-4 -35 29 -35h274q35 0 39 35l187 1325q4 35 -29 35h-277q-33 0 -36 -35zM152 1686q0 -68 47 -115t114 -47q68 0 115 47t47 115t-47 114.5t-115 46.5t-114.5 -47t-46.5 -114zM578 1686q0 -68 47 -115t114 -47q68 0 115 47t47 115t-47 114.5t-115 46.5t-114.5 -47 t-46.5 -114z" />
<glyph unicode="&#xd0;" />
<glyph unicode="&#xd1;" horiz-adv-x="1370" d="M92 35q-4 -35 29 -35h256q35 0 39 35l108 766l373 -791q4 -10 23 -10h215q35 0 39 35l186 1325q4 35 -29 35h-252q-35 0 -39 -35l-108 -766l-369 786q-6 14 -26 15h-220q-35 0 -38 -35zM535 1556q-4 -35 20 -34h84q12 0 22.5 17t24.5 17q12 0 41 -3t74 -11q47 -8 82 -11 t57 -3q145 -1 227 284q8 33 -20 33h-80q-10 0 -20.5 -17.5t-16.5 -17.5q-51 0 -145 13q-47 8 -83 11t-63 3q-131 0 -204 -281z" />
<glyph unicode="&#xd2;" horiz-adv-x="1503" d="M127 575q0 -283 180 -444q162 -150 408 -149q311 0 518 239q205 238 205 594q0 272 -174 440q-166 160 -414 160q-295 0 -506 -235q-217 -242 -217 -605zM475 600q0 225 127 369q109 121 238 121q106 0 174 -70q73 -78 73 -209q0 -242 -112 -379q-100 -125 -248 -125 q-104 0 -172 68q-80 76 -80 225zM815 1815l195 -254q14 -18 34 -19h86q33 0 27 33l-45 233q-6 35 -33 35h-241q-12 0 -22.5 -10t-0.5 -18z" />
<glyph unicode="&#xd3;" horiz-adv-x="1503" d="M127 575q0 -283 180 -444q162 -150 408 -149q311 0 518 239q205 238 205 594q0 272 -174 440q-166 160 -414 160q-295 0 -506 -235q-217 -242 -217 -605zM475 600q0 225 127 369q109 121 238 121q106 0 174 -70q73 -78 73 -209q0 -242 -112 -379q-100 -125 -248 -125 q-104 0 -172 68q-80 76 -80 225zM850 1575q-16 -35 16 -35h117q18 0 37 19l242 253q10 10 6 21q-2 8 -19 8h-256q-25 0 -39 -33z" />
<glyph unicode="&#xd4;" horiz-adv-x="1503" d="M127 575q0 -283 180 -444q162 -150 408 -149q311 0 518 239q205 238 205 594q0 272 -174 440q-166 160 -414 160q-295 0 -506 -235q-217 -242 -217 -605zM475 600q0 225 127 369q109 121 238 121q106 0 174 -70q73 -78 73 -209q0 -242 -112 -379q-100 -125 -248 -125 q-104 0 -172 68q-80 76 -80 225zM645 1563q-23 -35 10 -35h136q16 0 51 22l119 84l112 -84q33 -23 47 -22h109q14 0 20 12q6 11 0 23l-110 252q-12 27 -31 26h-274q-25 0 -39 -26z" />
<glyph unicode="&#xd5;" horiz-adv-x="1503" d="M127 575q0 -283 180 -444q162 -150 408 -149q311 0 518 239q205 238 205 594q0 272 -174 440q-166 160 -414 160q-295 0 -506 -235q-217 -242 -217 -605zM475 600q0 225 127 369q109 121 238 121q106 0 174 -70q73 -78 73 -209q0 -242 -112 -379q-100 -125 -248 -125 q-104 0 -172 68q-80 76 -80 225zM666 1556q-4 -35 20 -34h84q12 0 22.5 17t24.5 17q12 0 41 -3t74 -11q47 -8 82 -11t57 -3q145 -1 227 284q8 33 -20 33h-80q-10 0 -20.5 -17.5t-16.5 -17.5q-51 0 -145 13q-47 8 -83 11t-63 3q-131 0 -204 -281z" />
<glyph unicode="&#xd6;" horiz-adv-x="1503" d="M127 575q0 -283 180 -444q162 -150 408 -149q311 0 518 239q205 238 205 594q0 272 -174 440q-166 160 -414 160q-295 0 -506 -235q-217 -242 -217 -605zM475 600q0 225 127 369q109 121 238 121q106 0 174 -70q73 -78 73 -209q0 -242 -112 -379q-100 -125 -248 -125 q-104 0 -172 68q-80 76 -80 225zM526 1686q0 -68 47.5 -115t114.5 -47q68 0 115 47t47 115t-47 114.5t-115 46.5t-115 -47t-47 -114zM952 1686q0 -68 47.5 -115t114.5 -47q68 0 115 47t47 115t-47 114.5t-115 46.5t-115 -47t-47 -114z" />
<glyph unicode="&#xd7;" />
<glyph unicode="&#xd8;" horiz-adv-x="1503" d="M127 575q0 -217 106 -360l-63 -72q-25 -29 4 -57l86 -86q29 -29 57 2l66 72q143 -92 332 -92q311 0 518 239q205 238 205 594q0 199 -95 342l82 92q25 29 -4 58l-88 88q-31 29 -57 -4l-74 -84q-156 109 -352 108q-295 0 -506 -235q-217 -242 -217 -605zM475 600 q0 225 127 369q109 121 238 121q78 0 135 -39l-488 -551q-12 45 -12 100zM612 332l471 534q2 -10 3 -23.5t1 -31.5q0 -242 -112 -379q-100 -125 -248 -125q-63 0 -115 25z" />
<glyph unicode="&#xd9;" horiz-adv-x="1388" d="M133 430q0 -211 118 -329.5t347 -118.5q260 0 422 155q154 150 192 416l115 807q4 35 -29 35h-274q-33 0 -37 -35l-110 -776q-39 -285 -230 -285q-80 0 -119 29q-49 39 -49 143q0 23 2 46.5t6 49.5l111 793q4 35 -29 35h-276q-33 0 -37 -35l-115 -807q-4 -33 -6 -63.5 t-2 -59.5zM612 1815l197 -254q14 -18 33 -19h86q34 0 28 33l-47 233q-6 35 -30 35h-244q-12 0 -22.5 -10t-0.5 -18z" />
<glyph unicode="&#xda;" horiz-adv-x="1388" d="M133 430q0 -211 118 -329.5t347 -118.5q260 0 422 155q154 150 192 416l115 807q4 35 -29 35h-274q-33 0 -37 -35l-110 -776q-39 -285 -230 -285q-80 0 -119 29q-49 39 -49 143q0 23 2 46.5t6 49.5l111 793q4 35 -29 35h-276q-33 0 -37 -35l-115 -807q-4 -33 -6 -63.5 t-2 -59.5zM717 1575q-16 -35 16 -35h115q20 0 39 19l241 253q10 10 7 21q-6 8 -21 8h-254q-27 0 -41 -33z" />
<glyph unicode="&#xdb;" horiz-adv-x="1390" d="M133 430q0 -211 118 -329.5t347 -118.5q260 0 422 155q154 150 192 416l115 807q4 35 -29 35h-274q-33 0 -37 -35l-110 -776q-39 -285 -230 -285q-80 0 -119 29q-49 39 -49 143q0 23 2 46.5t6 49.5l111 793q4 35 -29 35h-276q-33 0 -37 -35l-115 -807q-4 -33 -6 -63.5 t-2 -59.5zM532 1563q-23 -35 11 -35h135q14 0 49 22l119 84l112 -84q33 -23 50 -22h108q14 0 21 12q6 11 0 23l-111 252q-12 27 -33 26h-272q-25 0 -39 -26z" />
<glyph unicode="&#xdc;" horiz-adv-x="1339" d="M82 430q0 -211 117.5 -329.5t347.5 -118.5q260 0 422 155q154 150 192 416l115 807q4 35 -29 35h-274q-33 0 -37 -35l-111 -776q-39 -285 -229 -285q-80 0 -119 29q-49 39 -49 143q0 23 2 46.5t6 49.5l111 793q4 35 -29 35h-276q-33 0 -37 -35l-115 -807q-4 -33 -6 -63.5 t-2 -59.5zM401 1686q0 -68 47.5 -115t114.5 -47q68 0 115 47t47 115t-47 114.5t-115 46.5t-115 -47t-47 -114zM827 1686q0 -68 47.5 -115t114.5 -47q68 0 115 47t47 115t-47 114.5t-115 46.5t-115 -47t-47 -114z" />
<glyph unicode="&#xdd;" />
<glyph unicode="&#xde;" />
<glyph unicode="&#xdf;" horiz-adv-x="1142" d="M76 -82q-6 -45 35 -45h235q37 0 39 33l139 1089q18 147 121 148q82 0 82 -99q0 -143 -115 -143q-4 0 -11 2t-13 2q-16 0 -21 -22l-32 -236q-4 -25 26 -24q164 0 164 -199q0 -170 -172 -170q-12 0 -24.5 2t-22.5 2q-31 4 -35 -39l-22 -201q-2 -31 28 -32q70 -6 113 -6 q223 0 337.5 124t114.5 347q0 80 -38 155q-57 117 -187 158v4q213 80 213 330q0 111 -69 198q-92 119 -277 119q-408 0 -467 -434z" />
<glyph unicode="&#xe0;" horiz-adv-x="1069" d="M78 375q0 -201 115 -305q90 -84 208 -84q113 0 187 55v-10q-6 -31 24 -31h228q33 0 37 35l120 856q4 23 -10 24q-119 23 -291 23q-242 0 -415 -137q-203 -158 -203 -426zM422 377q0 119 63.5 193.5t167.5 74.5l-30 -215q-23 -158 -121 -158q-80 0 -80 105zM485 1366 l195 -254q14 -18 33 -18h88q32 -1 26 34l-47 232q-6 35 -30 35h-242q-12 0 -22.5 -10.5t-0.5 -18.5z" />
<glyph unicode="&#xe1;" horiz-adv-x="1071" d="M78 375q0 -201 115 -305q90 -84 208 -84q113 0 187 55v-10q-6 -31 24 -31h228q33 0 37 35l120 856q4 23 -10 24q-119 23 -291 23q-242 0 -415 -137q-203 -158 -203 -426zM422 377q0 119 63.5 193.5t167.5 74.5l-30 -215q-23 -158 -121 -158q-80 0 -80 105zM588 1128 q-16 -35 16 -34h117q18 0 37 18l241 254q10 10 7 20q-2 8 -19 9h-256q-23 0 -39 -35z" />
<glyph unicode="&#xe2;" horiz-adv-x="1069" d="M78 375q0 -201 115 -305q90 -84 208 -84q113 0 187 55v-10q-6 -31 24 -31h228q33 0 37 35l120 856q4 23 -10 24q-119 23 -291 23q-242 0 -415 -137q-203 -158 -203 -426zM346 1116q-23 -35 10 -35h136q16 0 51 23l119 84l112 -84q33 -23 47 -23h109q14 0 20 13q6 10 0 22 l-110 252q-12 27 -33 27h-272q-25 0 -39 -27zM422 377q0 119 63.5 193.5t167.5 74.5l-30 -215q-23 -158 -121 -158q-80 0 -80 105z" />
<glyph unicode="&#xe3;" horiz-adv-x="1069" d="M78 375q0 -201 115 -305q90 -84 208 -84q113 0 187 55v-10q-6 -31 24 -31h228q33 0 37 35l120 856q4 23 -10 24q-119 23 -291 23q-242 0 -415 -137q-203 -158 -203 -426zM328 1128q-2 -33 20 -32h84q12 0 22.5 17t24.5 17q12 0 41 -3t74 -11q47 -8 82 -11t57 -3 q141 -1 225 282q10 35 -18 35h-82q-8 0 -19.5 -18.5t-17.5 -18.5q-49 0 -143 13q-47 8 -83 11t-63 3q-131 0 -204 -281zM422 377q0 119 63.5 193.5t167.5 74.5l-30 -215q-23 -158 -121 -158q-80 0 -80 105z" />
<glyph unicode="&#xe4;" horiz-adv-x="1058" d="M78 375q0 -201 115 -305q90 -84 208 -84q113 0 187 55v-10q-6 -31 24 -31h228q33 0 37 35l120 856q4 23 -10 24q-119 23 -291 23q-242 0 -415 -137q-203 -158 -203 -426zM287 1309q0 -68 47 -115t115 -47t114.5 47t46.5 115t-47 114.5t-114 46.5q-68 0 -115 -47t-47 -114 zM422 377q0 119 63.5 193.5t167.5 74.5l-30 -215q-23 -158 -121 -158q-80 0 -80 105zM713 1309q0 -68 47 -115t114 -47q68 0 115 47t47 115t-47 114.5t-115 46.5t-114.5 -47t-46.5 -114z" />
<glyph unicode="&#xe5;" horiz-adv-x="1069" d="M78 375q0 -201 115 -305q90 -84 208 -84q113 0 187 55v-10q-6 -31 24 -31h228q33 0 37 35l120 856q4 23 -10 24q-119 23 -291 23q-242 0 -415 -137q-203 -158 -203 -426zM422 377q0 119 63.5 193.5t167.5 74.5l-30 -215q-23 -158 -121 -158q-80 0 -80 105zM551 1264 q0 -39 15.5 -74t41 -60.5t60 -41t73.5 -15.5t74 15.5t60.5 41t41 60.5t15.5 74t-15.5 73.5t-41 60t-60.5 41t-74 15.5t-73.5 -15.5t-60 -41t-41 -60t-15.5 -73.5zM688 1264q0 55 53 55q23 0 39.5 -16t16.5 -39q0 -53 -56 -54q-53 0 -53 54z" />
<glyph unicode="&#xe6;" horiz-adv-x="1492" d="M78 375q0 -199 119 -305q96 -84 213 -84q111 0 172 16q84 25 145 98q111 -119 295 -118q195 0 313 71q27 14 15 43l-80 189q-12 29 -45 8q-66 -43 -131 -43q-123 0 -136 78q143 12 267 65q178 80 209 225q6 33 6 64q0 113 -82 184.5t-225 71.5q-117 0 -220 -53l2 6 q4 25 -14 27q-70 20 -205 20q-242 0 -415 -137q-203 -158 -203 -426zM422 377q0 119 63.5 193.5t167.5 74.5l-30 -215q-23 -158 -121 -158q-80 0 -80 105zM954 510q12 57 54 104q51 61 120 62q29 0 29 -33q0 -23 -14 -39q-51 -70 -189 -94z" />
<glyph unicode="&#xe7;" horiz-adv-x="841" d="M78 395q0 -147 86 -260q88 -117 239 -145l-32 -131q10 2 18 2h17q78 0 71 -45q-2 -29 -61 -39h-86q-20 0 -21 -21l-12 -88q-2 -20 16 -20q10 0 32 -2t34 -2q229 18 252 176q8 53 -25 96t-94 55l2 11q139 2 266 63q29 16 15 47l-86 203q-12 27 -45 8q-41 -23 -91 -22 q-147 0 -147 163q0 72 51 129q57 68 139 68q53 0 91 -10q35 -10 47 10l125 205q18 27 -7 43q-111 49 -249 49q-207 0 -371 -152q-174 -160 -174 -391z" />
<glyph unicode="&#xe8;" horiz-adv-x="946" d="M78 395q0 -213 133 -323q109 -90 266 -90q193 0 311 71q25 14 15 43l-78 189q-16 31 -45 8q-66 -43 -133 -43q-121 0 -133 78q141 12 264 65q178 80 209 225q8 31 8 66q0 111 -82 182.5t-225 71.5q-211 0 -361 -160q-150 -158 -149 -383zM401 1366l195 -254 q14 -18 33 -18h88q32 -1 26 34l-47 232q-4 35 -30 35h-242q-12 0 -22.5 -10.5t-0.5 -18.5zM408 510q14 57 55 104q51 61 121 62q27 0 26 -31q0 -25 -14 -41q-51 -70 -188 -94z" />
<glyph unicode="&#xe9;" horiz-adv-x="952" d="M78 395q0 -213 133 -323q109 -90 266 -90q193 0 311 71q25 14 15 43l-78 189q-16 31 -45 8q-66 -43 -133 -43q-121 0 -133 78q141 12 264 65q178 80 209 225q8 31 8 66q0 111 -82 182.5t-225 71.5q-211 0 -361 -160q-150 -158 -149 -383zM408 510q14 57 55 104 q51 61 121 62q27 0 26 -31q0 -25 -14 -41q-51 -70 -188 -94zM530 1128q-16 -35 17 -34h117q18 0 36 18l242 254q10 10 6 20q-2 8 -18 9h-256q-23 0 -39 -35z" />
<glyph unicode="&#xea;" horiz-adv-x="946" d="M78 395q0 -213 133 -323q109 -90 266 -90q193 0 311 71q25 14 15 43l-78 189q-16 31 -45 8q-66 -43 -133 -43q-121 0 -133 78q141 12 264 65q178 80 209 225q8 31 8 66q0 111 -82 182.5t-225 71.5q-211 0 -361 -160q-150 -158 -149 -383zM279 1116q-23 -35 10 -35h135 q16 0 51 23l119 84l113 -84q33 -23 49 -23h106q14 0 21 13q6 10 0 22l-111 252q-12 27 -31 27h-274q-25 0 -39 -27zM408 510q14 57 55 104q51 61 121 62q27 0 26 -31q0 -25 -14 -41q-51 -70 -188 -94z" />
<glyph unicode="&#xeb;" horiz-adv-x="952" d="M78 395q0 -213 133 -323q109 -90 266 -90q193 0 311 71q25 14 15 43l-78 189q-16 31 -45 8q-66 -43 -133 -43q-121 0 -133 78q141 12 264 65q178 80 209 225q8 31 8 66q0 111 -82 182.5t-225 71.5q-211 0 -361 -160q-150 -158 -149 -383zM199 1309q0 -68 47 -115t114 -47 q68 0 115 47t47 115t-47 114.5t-115 46.5t-114.5 -47t-46.5 -114zM408 510q14 57 55 104q51 61 121 62q27 0 26 -31q0 -25 -14 -41q-51 -70 -188 -94zM625 1309q0 -68 47 -115t114 -47q68 0 115 47t47 115t-47 114.5t-115 46.5t-114.5 -47t-46.5 -114z" />
<glyph unicode="&#xec;" horiz-adv-x="624" d="M127 35q-4 -35 29 -35h247q33 0 37 35l113 850q4 35 -27 35h-250q-31 0 -34 -35zM239.5 1384.5q-10.5 -10.5 0.5 -18.5l194 -254q14 -18 33 -18h88q33 -1 27 34l-47 232q-6 35 -31 35h-242q-12 0 -22.5 -10.5z" />
<glyph unicode="&#xed;" horiz-adv-x="628" d="M127 35q-4 -35 29 -35h247q33 0 37 35l113 850q4 35 -27 35h-250q-31 0 -34 -35zM266 1128q-16 -35 17 -34h116q18 0 37 18l242 254q10 10 6 20q-2 8 -18 9h-256q-23 0 -39 -35z" />
<glyph unicode="&#xee;" horiz-adv-x="626" d="M127 35q-4 -35 29 -35h247q33 0 37 35l113 850q4 35 -27 35h-250q-31 0 -34 -35zM162 1116q-23 -35 10 -35h135q16 0 51 23l119 84l111 -84q29 -23 49 -23h108q14 0 21 13q6 10 0 22l-111 252q-12 27 -32 27h-273q-25 0 -39 -27z" />
<glyph unicode="&#xef;" horiz-adv-x="630" d="M94 1309q0 -68 47 -115t115 -47t115 47t47 115t-47 114.5t-115 46.5t-115 -47t-47 -114zM127 35q-4 -35 29 -35h247q33 0 37 35l113 850q4 35 -27 35h-250q-31 0 -34 -35zM520 1309q0 -68 47 -115t115 -47t115 47t47 115t-47 114.5t-115 46.5t-115 -47t-47 -114z" />
<glyph unicode="&#xf0;" />
<glyph unicode="&#xf1;" horiz-adv-x="1087" d="M92 35q-4 -35 31 -35h250q37 0 41 35l71 491q18 129 125 129q45 0 49 -86q0 -8 -1 -21t-3 -33.5t-2 -31.5v-12l-59 -436q-4 -35 31 -35h249q37 0 41 35l66 483q6 49 6 100q-4 141 -59 222q-63 94 -195 94q-137 0 -237 -49q10 35 -19 35h-223q-37 0 -41 -35zM354 1128 q-2 -33 19 -32h86q14 0 23.5 17t21.5 17q33 0 117 -14q47 -8 81.5 -11t57.5 -3q141 -1 225 282q10 35 -18 35h-82q-8 0 -19.5 -18.5t-17.5 -18.5q-49 0 -143 13q-47 8 -83 11t-63 3q-131 0 -205 -281z" />
<glyph unicode="&#xf2;" horiz-adv-x="1040" d="M78 389q0 -188 123 -301q113 -106 282 -106q207 0 346 157q140 162 140 391q0 184 -121 299q-115 109 -283 109q-197 0 -338 -154q-150 -158 -149 -395zM379 1366l196 -254q14 -18 33 -18h88q33 -1 27 34l-47 232q-6 35 -31 35h-244q-12 0 -22 -11q-6 -10 0 -18zM401 428 q0 82 45 152q47 72 107 71q94 0 94 -164q0 -80 -41 -145q-43 -74 -108 -74q-96 0 -97 160z" />
<glyph unicode="&#xf3;" horiz-adv-x="1040" d="M78 389q0 -188 123 -301q113 -106 282 -106q207 0 346 157q140 162 140 391q0 184 -121 299q-115 109 -283 109q-197 0 -338 -154q-150 -158 -149 -395zM401 428q0 82 45 152q47 72 107 71q94 0 94 -164q0 -80 -41 -145q-43 -74 -108 -74q-96 0 -97 160zM403 1128 q-16 -35 17 -34h117q18 0 36 18l242 254q10 10 6 20q-2 8 -18 9h-256q-23 0 -39 -35z" />
<glyph unicode="&#xf4;" horiz-adv-x="1040" d="M78 389q0 -188 123 -301q113 -106 282 -106q207 0 346 157q140 162 140 391q0 184 -121 299q-115 109 -283 109q-197 0 -338 -154q-150 -158 -149 -395zM338 1116q-23 -35 10 -35h135q16 0 52 23l118 84l113 -84q33 -23 47 -23h109q14 0 20 13q6 10 0 22l-111 252 q-12 27 -30 27h-275q-25 0 -39 -27zM401 428q0 82 45 152q47 72 107 71q94 0 94 -164q0 -80 -41 -145q-43 -74 -108 -74q-96 0 -97 160z" />
<glyph unicode="&#xf5;" horiz-adv-x="1040" d="M78 389q0 -188 123 -301q113 -106 282 -106q207 0 346 157q140 162 140 391q0 184 -121 299q-115 109 -283 109q-197 0 -338 -154q-150 -158 -149 -395zM309 1128q-2 -33 21 -32h84q12 0 22 17t25 17q12 0 40.5 -3t73.5 -11q47 -8 82 -11t58 -3q147 -1 227 282 q10 35 -20 35h-80q-10 0 -20.5 -18.5t-16.5 -18.5q-51 0 -146 13q-47 8 -82.5 11t-62.5 3q-131 0 -205 -281zM401 428q0 82 45 152q47 72 107 71q94 0 94 -164q0 -80 -41 -145q-43 -74 -108 -74q-96 0 -97 160z" />
<glyph unicode="&#xf6;" horiz-adv-x="1040" d="M78 389q0 -188 123 -301q113 -106 282 -106q207 0 346 157q140 162 140 391q0 184 -121 299q-115 109 -283 109q-197 0 -338 -154q-150 -158 -149 -395zM287 1309q0 -68 47 -115t115 -47t114.5 47t46.5 115t-47 114.5t-114 46.5q-68 0 -115 -47t-47 -114zM401 428 q0 82 45 152q47 72 107 71q94 0 94 -164q0 -80 -41 -145q-43 -74 -108 -74q-96 0 -97 160zM713 1309q0 -68 47 -115t114 -47q68 0 115 47t47 115t-47 114.5t-115 46.5t-114.5 -47t-46.5 -114z" />
<glyph unicode="&#xf7;" horiz-adv-x="1009" />
<glyph unicode="&#xf8;" horiz-adv-x="1040" d="M78 389q0 -152 82 -258l-70 -78q-29 -29 4 -59l35 -29q29 -27 57 4l68 78q102 -66 229 -65q207 0 346 157q140 162 140 391q0 141 -72 244l70 80q27 29 -4 57l-35 29q-29 25 -58 -4l-63 -72q-109 74 -242 74q-197 0 -338 -154q-150 -158 -149 -395zM401 406v22 q0 82 45 152q47 72 107 71q30 0 53 -14zM459 279l188 213v-5q0 -82 -39 -145q-47 -74 -110 -74q-14 0 -39 11z" />
<glyph unicode="&#xf9;" horiz-adv-x="1067" d="M119 264q0 -86 31 -141q23 -41 50 -67.5t67 -43t92.5 -23.5t123.5 -7q240 0 367 145q80 92 100 248l74 510q4 35 -35 35h-244q-37 0 -43 -35l-65 -441q-14 -94 -31 -131q-35 -72 -100 -71q-63 0 -64 71v15q0 8 2 18l76 539q4 35 -35 35h-243q-39 0 -43 -35l-66 -463 q-8 -53 -11 -92t-3 -66zM454.5 1384.5q-10.5 -10.5 0.5 -18.5l194 -254q14 -18 33 -18h88q33 -1 27 34l-47 232q-6 35 -31 35h-242q-12 0 -22.5 -10.5z" />
<glyph unicode="&#xfa;" horiz-adv-x="1067" d="M119 264q0 -86 31 -141q23 -41 50 -67.5t67 -43t92.5 -23.5t123.5 -7q240 0 367 145q80 92 100 248l74 510q4 35 -35 35h-244q-37 0 -43 -35l-65 -441q-14 -94 -31 -131q-35 -72 -100 -71q-63 0 -64 71v15q0 8 2 18l76 539q4 35 -35 35h-243q-39 0 -43 -35l-66 -463 q-8 -53 -11 -92t-3 -66zM498 1128q-16 -35 16 -34h115q20 0 39 18l241 254q10 10 6 20q-6 8 -20 9h-254q-23 0 -39 -35z" />
<glyph unicode="&#xfb;" horiz-adv-x="1067" d="M119 264q0 -86 31 -141q23 -41 50 -67.5t67 -43t92.5 -23.5t123.5 -7q240 0 367 145q80 92 100 248l74 510q4 35 -35 35h-244q-37 0 -43 -35l-65 -441q-14 -94 -31 -131q-35 -72 -100 -71q-63 0 -64 71v15q0 8 2 18l76 539q4 35 -35 35h-243q-39 0 -43 -35l-66 -463 q-8 -53 -11 -92t-3 -66zM332 1116q-23 -35 10 -35h135q14 0 49 23l121 84l111 -84q29 -23 49 -23h108q14 0 21 13q6 10 0 22l-111 252q-12 27 -32 27h-273q-27 0 -39 -27z" />
<glyph unicode="&#xfc;" horiz-adv-x="1110" d="M119 264q0 -86 31 -141q23 -41 50 -67.5t67 -43t92.5 -23.5t123.5 -7q240 0 367 145q80 92 100 248l74 510q4 35 -35 35h-244q-37 0 -43 -35l-65 -441q-14 -94 -31 -131q-35 -72 -100 -71q-63 0 -64 71v15q0 8 2 18l76 539q4 35 -35 35h-243q-39 0 -43 -35l-66 -463 q-8 -53 -11 -92t-3 -66zM289 1309q0 -68 47 -115t115 -47t114.5 47t46.5 115t-47 114.5t-114 46.5q-68 0 -115 -47t-47 -114zM715 1309q0 -68 47 -115t115 -47t114.5 47t46.5 115t-47 114.5t-114 46.5q-68 0 -115 -47t-47 -114z" />
<glyph unicode="&#xfd;" />
<glyph unicode="&#xfe;" />
<glyph unicode="&#xff;" horiz-adv-x="962" d="M37 -442q-2 -18 3 -23.5t23 -3.5q444 27 609 424l375 915q20 49 -23 50h-289q-39 0 -47 -31l-151 -494l-84 486q-6 39 -43 39h-283q-43 0 -31 -50l234 -911q-43 -125 -224 -111q-37 4 -40 -32zM227 1309q0 -68 47.5 -115t114.5 -47q68 0 115 47t47 115t-47 114.5 t-115 46.5t-115 -47t-47 -114zM653 1309q0 -68 47.5 -115t114.5 -47q68 0 115 47t47 115t-47 114.5t-115 46.5t-115 -47t-47 -114z" />
<glyph unicode="&#x152;" horiz-adv-x="2086" d="M127 575q0 -283 180 -444q162 -150 408 -149q137 0 270 55v-2q-4 -35 29 -35h956q35 0 39 35l33 229q2 33 -29 33h-649l39 262h452q35 0 39 35l33 233q2 33 -26 33h-457l33 238h538q35 0 37 32l35 230q6 35 -29 35h-848q-35 0 -39 -35l-4 -31q-145 86 -317 86 q-295 0 -506 -235q-217 -242 -217 -605zM475 600q0 225 127 369q109 121 238 121q106 0 174 -70q73 -78 73 -209q0 -242 -112 -379q-100 -125 -248 -125q-104 0 -172 68q-80 76 -80 225z" />
<glyph unicode="&#x153;" horiz-adv-x="1509" d="M78 389q0 -188 123 -301q113 -106 282 -106q158 0 283 96q113 -96 272 -96q195 0 314 71q27 14 14 43l-80 189q-12 29 -45 8q-66 -43 -131 -43q-123 0 -135 78q143 12 266 65q178 80 209 225q6 33 6 64q0 113 -82 184.5t-225 71.5q-164 0 -301 -107q-115 106 -283 107 q-197 0 -338 -154q-150 -158 -149 -395zM401 428q0 82 45 152q47 72 107 71q94 0 94 -164q0 -80 -41 -145q-43 -74 -108 -74q-96 0 -97 160zM971 510q14 57 55 104q51 61 121 62q27 0 27 -31q-1 -25 -15 -41q-51 -70 -188 -94z" />
<glyph unicode="&#x178;" horiz-adv-x="1165" d="M141 1372q0 -10 6 -24l320 -691l-86 -622q-4 -35 27 -35h278q33 0 37 35l86 629l475 684q10 16 4 28q-4 18 -22 19h-303q-39 0 -62 -35l-223 -387l-141 387q-12 35 -54 35h-311q-31 0 -31 -23zM344 1686q0 -68 47 -115t115 -47t115 47t47 115t-47.5 114.5t-114.5 46.5 q-68 0 -115 -47t-47 -114zM770 1686q0 -68 47 -115t115 -47t115 47t47 115t-47.5 114.5t-114.5 46.5q-68 0 -115 -47t-47 -114z" />
<glyph unicode="&#x2c6;" horiz-adv-x="548" d="M76 1116q-23 -35 10 -35h135q16 0 51 23l119 84l113 -84q33 -23 47 -23h108q14 0 21 13q6 10 0 22l-111 252q-12 27 -30 27h-275q-25 0 -39 -27z" />
<glyph unicode="&#x2dc;" horiz-adv-x="546" d="M190 1128q-2 -33 19 -32h86q14 0 23.5 17t21.5 17q33 0 117 -14q47 -8 81.5 -11t57.5 -3q141 -1 225 282q10 35 -18 35h-82q-8 0 -19.5 -18.5t-17.5 -18.5q-49 0 -143 13q-47 8 -83 11t-63 3q-131 0 -205 -281z" />
<glyph unicode="&#x2000;" horiz-adv-x="952" />
<glyph unicode="&#x2001;" horiz-adv-x="1905" />
<glyph unicode="&#x2002;" horiz-adv-x="952" />
<glyph unicode="&#x2003;" horiz-adv-x="1905" />
<glyph unicode="&#x2004;" horiz-adv-x="635" />
<glyph unicode="&#x2005;" horiz-adv-x="476" />
<glyph unicode="&#x2006;" horiz-adv-x="317" />
<glyph unicode="&#x2007;" horiz-adv-x="317" />
<glyph unicode="&#x2008;" horiz-adv-x="238" />
<glyph unicode="&#x2009;" horiz-adv-x="381" />
<glyph unicode="&#x200a;" horiz-adv-x="105" />
<glyph unicode="&#x2010;" horiz-adv-x="864" d="M180 285q-4 -35 27 -35h387q27 0 37 35l33 250q2 33 -27 32h-387q-33 0 -35 -32z" />
<glyph unicode="&#x2011;" horiz-adv-x="864" d="M180 285q-4 -35 27 -35h387q27 0 37 35l33 250q2 33 -27 32h-387q-33 0 -35 -32z" />
<glyph unicode="&#x2012;" horiz-adv-x="864" d="M180 285q-4 -35 27 -35h387q27 0 37 35l33 250q2 33 -27 32h-387q-33 0 -35 -32z" />
<glyph unicode="&#x2013;" horiz-adv-x="1087" d="M117 434q-2 -33 26 -33h918q35 0 37 33l22 170q2 33 -26 33h-918q-35 0 -37 -33z" />
<glyph unicode="&#x2014;" horiz-adv-x="2017" d="M117 434q-2 -33 26 -33h1848q33 0 34 33l25 170q2 33 -29 33h-1845q-35 0 -37 -33z" />
<glyph unicode="&#x2018;" horiz-adv-x="649" d="M102 999q0 -125 61.5 -199.5t168.5 -74.5q92 0 147.5 49t55.5 141q0 74 -49.5 124.5t-129.5 60.5q23 66 54 100q20 23 54 50.5t85 60.5q28 23 20 41l-41 59q-4 6 -30 6q-166 -51 -283 -174q-113 -119 -113 -244z" />
<glyph unicode="&#x2019;" horiz-adv-x="825" d="M229 791l39 -60q8 -12 31 -6q174 53 285 176q110 119 110 242q0 125 -61.5 199.5t-167.5 74.5q-86 0 -143 -47q-57 -51 -58 -145q0 -76 49 -125t129 -60q-23 -66 -53 -100q-41 -49 -141 -111q-31 -18 -19 -38z" />
<glyph unicode="&#x201a;" horiz-adv-x="860" d="M137 -242l39 -59q2 -6 31 -6q170 53 282 174q115 121 115 244q0 125 -61.5 199.5t-167.5 74.5q-90 0 -144 -47q-59 -53 -59 -143q0 -76 49 -126.5t129 -60.5q-23 -66 -53 -100q-41 -49 -141 -111q-31 -18 -19 -39z" />
<glyph unicode="&#x201c;" horiz-adv-x="1161" d="M102 999q0 -125 61.5 -199.5t168.5 -74.5q92 0 147.5 49t55.5 141q0 74 -49.5 124.5t-129.5 60.5q23 66 54 100q20 23 54 50.5t85 60.5q28 23 20 41l-41 59q-4 6 -30 6q-166 -51 -283 -174q-113 -119 -113 -244zM614 999q0 -125 61.5 -199.5t168.5 -74.5q92 0 147.5 49 t55.5 141q0 74 -49.5 124.5t-129.5 60.5q23 66 54 100q39 45 141 111q30 25 18 41l-39 59q-4 6 -30 6q-170 -53 -285 -174q-113 -119 -113 -244z" />
<glyph unicode="&#x201d;" horiz-adv-x="1339" d="M229 791l39 -60q8 -12 31 -6q174 53 285 176q110 119 110 242q0 125 -61.5 199.5t-167.5 74.5q-86 0 -143 -47q-57 -51 -58 -145q0 -76 49 -125t129 -60q-23 -66 -53 -100q-41 -49 -141 -111q-31 -18 -19 -38zM741 791l39 -60q8 -12 31 -6q174 53 285 176 q110 119 110 242q0 125 -61.5 199.5t-165.5 74.5q-90 0 -143 -47q-59 -53 -60 -145q0 -74 49 -124t129 -61q-23 -66 -53 -100q-41 -49 -141 -111q-31 -18 -19 -38z" />
<glyph unicode="&#x201e;" horiz-adv-x="1374" d="M137 -242l39 -59q2 -6 31 -6q170 53 282 174q115 121 115 244q0 125 -61.5 199.5t-167.5 74.5q-90 0 -144 -47q-59 -53 -59 -143q0 -76 49 -126.5t129 -60.5q-23 -66 -53 -100q-41 -49 -141 -111q-31 -18 -19 -39zM649 -242l39 -59q2 -6 31 -6q170 53 282 174 q115 121 115 244q0 125 -61.5 199.5t-167.5 74.5q-90 0 -144 -47q-59 -53 -59 -143q0 -76 49 -126.5t129 -60.5q-23 -66 -53 -100q-41 -49 -141 -111q-31 -18 -19 -39z" />
<glyph unicode="&#x2022;" horiz-adv-x="753" d="M133 698q0 -104 74 -180q76 -74 180 -74t178 74q76 76 76 180t-76 179q-74 76 -178 75q-104 0 -180 -75q-74 -74 -74 -179z" />
<glyph unicode="&#x2026;" horiz-adv-x="2390" d="M174 178q0 -82 57.5 -139t139.5 -57t139 57t57 139t-57 139.5t-139 57.5t-139.5 -57.5t-57.5 -139.5zM977 178q0 -82 57.5 -139t139.5 -57t139 57t57 139t-57.5 139.5t-138.5 57.5q-82 0 -139.5 -57.5t-57.5 -139.5zM1780 178q0 -82 57 -139t139 -57t139.5 57t57.5 139 t-57.5 139.5t-139.5 57.5t-139 -57.5t-57 -139.5z" />
<glyph unicode="&#x202f;" horiz-adv-x="381" />
<glyph unicode="&#x2039;" horiz-adv-x="647" d="M-45 436l209 -397q20 -39 49 -39h215q25 0 16 33l-172 430l299 428q6 8 7 14q0 18 -25 19h-242q-39 0 -59 -39l-289 -398q-23 -29 -8 -51z" />
<glyph unicode="&#x203a;" horiz-adv-x="753" d="M119 33q-20 -33 18 -33h242q33 0 59 39l287 397q22 28 8 51l-207 398q-20 39 -49 39h-217q-27 0 -14 -33l170 -430z" />
<glyph unicode="&#x205f;" horiz-adv-x="476" />
<glyph unicode="&#x20ac;" horiz-adv-x="1204" d="M4 457q-10 -35 29 -35h117q57 -209 235 -330q160 -111 358 -110q227 0 385 73q31 16 17 49l-103 240q-12 27 -43 10q-90 -49 -204 -49q-156 0 -244 117h248q20 0 37 35l51 125q8 16 8 30q0 29 -39 29h-373q2 29 6.5 52.5t8.5 43.5h430q25 0 37 33l51 127q8 16 8 31 q0 27 -39 26h-371q131 141 285 142q98 0 182 -23q39 -10 47 8l142 244q18 29 -4 39q-135 51 -344 51q-215 0 -414 -129q-199 -127 -299 -332h-76q-33 0 -35 -32l-32 -152q-6 -33 28 -33h43q-4 -16 -6 -39.5t-4 -56.5h-55q-31 0 -35 -35z" />
<glyph unicode="&#x2122;" horiz-adv-x="1466" d="M176 1303q-6 -45 37 -46h104l-61 -485q-6 -45 35 -45h131q43 0 49 45l61 485h107q43 0 49 46l14 112q6 45 -34 45h-428q-41 0 -47 -45zM659 772q-6 -45 35 -45h123q41 0 47 45l41 313l53 -176q6 -23 33 -22h27q33 0 41 20l96 180l-39 -315q-6 -45 35 -45h127q41 0 47 45 l84 643q6 45 -35 45h-145q-20 0 -35 -26l-150 -281l-88 268q-12 39 -41 39h-124q-43 0 -50 -45z" />
<glyph unicode="&#x25fc;" horiz-adv-x="921" d="M0 0v922h922v-922h-922z" />
</font>
</defs>
</svg>
