<?xml version="1.0" standalone="no"?>
<!DOCTYPE svg PUBLIC "-//W3C//DTD SVG 1.1//EN" "http://www.w3.org/Graphics/SVG/1.1/DTD/svg11.dtd" >
<svg xmlns="http://www.w3.org/2000/svg">
<metadata></metadata>
<defs>
<font id="houschkaaltmediumitalicRg" horiz-adv-x="1009" >
<font-face units-per-em="2048" ascent="1638" descent="-410" />
<missing-glyph horiz-adv-x="552" />
<glyph horiz-adv-x="2048" />
<glyph horiz-adv-x="2048" />
<glyph unicode="&#xd;" horiz-adv-x="1024" />
<glyph unicode=" "  horiz-adv-x="552" />
<glyph unicode="&#x09;" horiz-adv-x="552" />
<glyph unicode="&#xa0;" horiz-adv-x="552" />
<glyph unicode="!" horiz-adv-x="466" d="M74 104q0 -51 35.5 -86.5t87.5 -35.5q51 0 86.5 35.5t35.5 86.5t-35.5 87t-86.5 36t-87 -35.5t-36 -87.5zM184 371q0 -20 17 -21h57q14 0 23 21l116 520q33 149 43 219q12 86 13 145q0 158 -78 158q-106 0 -150 -303q-12 -92 -18 -219z" />
<glyph unicode="&#x22;" />
<glyph unicode="#" horiz-adv-x="1347" d="M4 254q-2 -20 16 -21h152l-125 -378q-6 -20 16 -21h109q16 0 23 21l124 378h369l-125 -378q-6 -20 17 -21h110q14 0 21 21l125 378h278q18 0 21 21l14 100q2 20 -16 21h-250l116 348h181q20 0 22 20l12 101q2 20 -16 20h-154l127 379q2 20 -16 21h-111q-18 0 -20 -21 l-127 -379h-369l125 379q6 20 -16 21h-109q-16 0 -22 -21l-125 -379h-275q-20 0 -22 -20l-12 -101q-2 -20 14 -20h248l-115 -348h-180q-20 0 -21 -21zM367 375l114 348h371l-117 -348h-368z" />
<glyph unicode="$" horiz-adv-x="1077" d="M37 90q137 -96 330 -106l-9 -68q-2 -20 17 -20h121q20 0 22 20l10 74q184 25 287 128t103 263q0 129 -99 219q-27 23 -75 51.5t-117 63.5l57 430q104 -10 166 -45q18 -10 24 6l78 125q12 20 0 26q-109 45 -245 56l12 88q4 23 -14 22h-123q-18 0 -23 -22l-12 -92 q-190 -23 -291.5 -121t-101.5 -240q0 -127 90 -211q31 -29 196 -127l11 -6l-62 -454q-147 10 -233 83q-12 10 -27 -4l-90 -112q-18 -18 -2 -27zM334 967q0 145 190 174l-47 -350q-143 80 -143 176zM551 158l49 366q137 -76 137 -172q0 -156 -186 -194z" />
<glyph unicode="%" horiz-adv-x="1325" d="M96 2q-14 -20 4 -20h156q8 0 20 20l1020 1391q14 20 -8 20h-149q-10 0 -23 -20zM133 1053q0 -61 20.5 -110.5t57.5 -84.5t86 -53.5t104 -18.5q137 0 228 103q90 106 90 256q0 61 -20.5 110.5t-56.5 84t-84 54t-103 19.5q-129 0 -224 -100q-98 -109 -98 -260zM270 1073 q0 43 14.5 80t38 64.5t54.5 44t65 16.5q63 0 100.5 -43t37.5 -113q0 -41 -13.5 -77.5t-36 -65.5t-53.5 -45t-67 -16q-57 0 -98.5 41.5t-41.5 113.5zM670 250q0 -123 82 -199q76 -70 186 -69q137 0 227 104q90 106 90 256q0 61 -20.5 110.5t-56 84t-83.5 53t-104 18.5 q-129 0 -225 -102.5t-96 -255.5zM809 268q0 43 14.5 81t37 65.5t53 44t65.5 16.5q61 0 99 -44t38 -114q0 -41 -13 -76.5t-36 -64.5t-53.5 -45t-67.5 -16q-57 0 -97 41t-40 112z" />
<glyph unicode="&#x26;" horiz-adv-x="1335" d="M86 328q0 -166 108.5 -258.5t294.5 -92.5q203 0 373 134q41 -35 75 -58.5t56 -36.5q66 -35 135 -34q20 0 21 20l20 139q0 16 -16 21q-84 12 -160 88q113 156 142 371q0 20 -17 20h-135q-20 0 -22 -20q-23 -154 -87 -252q-133 160 -227 350q78 39 135.5 74.5t94.5 68.5 q106 98 124 236q2 10 3 22v23q0 111 -69 176t-185 65q-172 0 -275 -114q-74 -86 -88 -205q-2 -16 -3 -30.5t-1 -30.5q0 -96 39 -211q-297 -156 -332 -398q-2 -16 -3 -33.5t-1 -33.5zM268 352q0 170 215 285q106 -232 262 -412q-121 -78 -231 -78q-246 0 -246 205zM563 1061 q23 152 164 151q57 0 82 -41q20 -32 14 -73q-8 -68 -78 -127q-51 -41 -157 -97q-33 113 -25 187z" />
<glyph unicode="'" horiz-adv-x="362" d="M106 956l23 -43q2 -6 18 -6q100 39 172 139.5t72 204.5q0 74 -33.5 118t-87.5 44q-117 0 -133 -139q-6 -53 20.5 -92t65.5 -43q-29 -90 -106 -154q-16 -16 -11 -29z" />
<glyph unicode="(" horiz-adv-x="550" d="M68 334q0 -270 102 -535q72 -182 135 -256q12 -14 25 -14h65q18 0 11 20q-154 285 -154 689q0 70 5 141.5t15 142.5q45 326 179 578q63 123 206 301q14 20 -6 20h-63q-14 0 -29 -14q-66 -57 -125 -125t-112 -145q-195 -285 -242 -615q-12 -96 -12 -188z" />
<glyph unicode=")" horiz-adv-x="577" d="M-80 -465q0 -6 8 -6h66q14 0 29 14q66 57 125 125t112 146q195 284 242 614q12 94 12 188q0 270 -102 535q-72 182 -136 256q-12 14 -24 14h-66q-18 0 -10 -20q154 -287 154 -688q0 -70 -5.5 -141.5t-15.5 -143.5q-47 -326 -178 -578q-66 -123 -207 -301q-6 -6 -4 -14z " />
<glyph unicode="*" horiz-adv-x="714" d="M129 1018l31 -78q6 -14 20 -6l178 102l-28 -205q0 -16 14 -16h82q16 0 16 16l29 205l150 -102q14 -6 22 6l51 78q12 12 -2 20l-151 103l178 102q12 9 10 23l-31 75q-6 14 -20 7l-178 -103l26 205q4 16 -12 16h-82q-14 0 -18 -16l-27 -205l-151 103q-12 8 -21 -7l-51 -75 q-8 -14 2 -23l149 -102l-178 -103q-10 -8 -8 -20z" />
<glyph unicode="+" horiz-adv-x="1132" d="M141 659q-2 -20 17 -20h350l-51 -377q0 -20 16 -20h131q20 0 21 20l51 377h352q20 0 21 20l18 127q2 20 -16 21h-351l52 377q0 20 -17 20h-131q-20 0 -20 -20l-52 -377h-352q-20 0 -22 -21z" />
<glyph unicode="," horiz-adv-x="540" d="M90 -182l23 -39q4 -4 18 -4q94 33 168 119q76 90 76 190q0 66 -34 104.5t-87 38.5q-117 0 -131 -125q-6 -47 19.5 -81.5t64.5 -38.5q-27 -76 -107 -138q-16 -16 -10 -26z" />
<glyph unicode="-" horiz-adv-x="860" d="M182 385q-2 -20 17 -20h424q20 0 22 20l19 131q0 20 -17 21h-426q-20 0 -20 -21z" />
<glyph unicode="." horiz-adv-x="542" d="M131 104q0 -51 36 -86.5t87 -35.5t87 35.5t36 86.5t-36 87t-87 36t-87 -35.5t-36 -87.5z" />
<glyph unicode="/" horiz-adv-x="772" d="M-104 -10q-12 -20 12 -21h160q10 0 22 21l866 1415q12 20 -12 20h-160q-10 0 -22 -20z" />
<glyph unicode="0" horiz-adv-x="1187" d="M72 420q0 -248 159 -361q115 -82 301 -82q281 0 439 207q147 187 147 488q0 444 -461 444q-281 0 -440 -209q-145 -193 -145 -487zM260 442q0 213 98 359q106 156 287 155q283 0 283 -307q0 -217 -99 -358q-104 -154 -284 -154q-125 0 -197 70q-88 80 -88 235z" />
<glyph unicode="1" horiz-adv-x="1187" d="M123 20q-2 -20 16 -20h779q20 0 22 20l16 113q2 20 -18 21h-260l133 942q2 20 -18 20h-105q-12 0 -22.5 -1t-20.5 -3l-356 -82q-23 -10 -25 -29l-14 -106q-2 -25 14 -21l334 60l-111 -780h-325q-23 0 -25 -21z" />
<glyph unicode="2" horiz-adv-x="1187" d="M125 41q-6 -41 35 -41h745q33 0 37 31l14 102q2 33 -30 33h-576q25 94 123 164q66 47 227 119q86 39 148.5 75.5t103.5 75.5q101 94 101 225q0 143 -105 222q-94 70 -243 69q-258 0 -441 -164q-23 -18 -6 -37l68 -88q16 -16 36 4q137 131 312 132q197 0 196 -154 q0 -88 -88 -152q-59 -45 -219 -110q-152 -63 -256 -141q-150 -117 -174 -304z" />
<glyph unicode="3" horiz-adv-x="1187" d="M41 -190q-10 -16 2 -25q143 -100 354 -100q233 0 375 141q129 129 129 315q0 197 -180 289q-2 2 0 4q94 49 156 137q67 99 67 205q0 154 -98 247t-273 93q-145 0 -307 -86q-18 -8 -8 -24l61 -123q8 -14 23 -6q113 70 215 69q203 0 203 -178q0 -102 -90 -186 q-88 -82 -201 -80l-100 2q-18 0 -21 -19l-22 -135q6 -16 14 -18l104 2q131 2 205 -62q68 -59 68 -163q0 -94 -72 -166q-86 -86 -235 -86q-160 0 -269 84q-14 12 -26 -4z" />
<glyph unicode="4" horiz-adv-x="1187" d="M43 20q-2 -20 18 -20h639l-38 -266q0 -20 18 -21h149q23 0 23 21l39 266h190q20 0 23 20l16 113q2 20 -18 21h-191l131 933q2 20 -16 21h-141q-14 0 -33 -21l-776 -909q-10 -16 -15 -31zM248 154l567 659l-94 -659h-473z" />
<glyph unicode="5" horiz-adv-x="1187" d="M133 -176q-12 -20 2 -29q156 -111 359 -110q211 0 362 153q152 156 152 377q0 184 -93 299q-102 127 -286 127q-129 0 -223 -63l59 358h483q20 0 21 20l12 121q0 20 -18 21h-627q-20 0 -23 -21l-123 -719q-2 -12 19 -20l123 -35q4 -2 24 21q86 135 256 135 q100 0 154.5 -68.5t54.5 -179.5q0 -152 -98 -250q-94 -100 -223 -100q-145 0 -264 94q-16 16 -29 -6z" />
<glyph unicode="6" horiz-adv-x="1187" d="M143 473q0 -492 408 -491q223 0 358 163q127 152 127 373q0 162 -88 258q-96 109 -272 109q-182 0 -314 -137q111 483 410 483q109 0 195 -27q25 -4 28 6l60 146q10 27 -8 28q-109 29 -250 29q-319 0 -502 -330q-152 -274 -152 -610zM342 391q0 125 96.5 221.5 t220.5 96.5q193 0 193 -217q0 -127 -66 -224q-78 -111 -211 -110q-125 0 -184 78q-49 63 -49 155z" />
<glyph unicode="7" horiz-adv-x="1187" d="M119 -276q-12 -20 16 -21h166q18 0 31 21l706 1206q10 20 11 24l18 123q0 20 -18 21h-850q-23 0 -23 -21l-39 -334q0 -20 17 -20h120q23 0 23 20l31 193h532q-39 -57 -90 -138t-117 -188z" />
<glyph unicode="8" horiz-adv-x="1187" d="M100 317q0 -168 125 -256q113 -80 295 -79q123 0 220.5 27.5t166 81.5t105.5 134t37 185q0 125 -95 221q-16 16 -49 41.5t-86 60.5q264 131 264 373q0 147 -110 231q-100 76 -258 76q-223 0 -346 -94t-123 -250q0 -197 205 -328q-164 -78 -232 -141q-119 -111 -119 -283z M285 344q0 113 125 195q57 39 213 102q117 -68 168 -113q73 -71 73 -149q0 -96 -73 -154q-82 -70 -246 -69q-260 0 -260 188zM430 1085q0 66 57 105q76 53 220 53q192 0 192 -166q0 -150 -250 -252h-2q-217 119 -217 260z" />
<glyph unicode="9" horiz-adv-x="1187" d="M147 -258q-10 -23 9 -29q119 -29 247 -28q317 0 500 325q154 271 154 615q0 492 -408 491q-221 0 -356 -164q-127 -152 -127 -372q0 -166 106.5 -266.5t274.5 -100.5q162 0 293 137q-115 -483 -410 -483q-113 0 -194 27q-25 4 -29 -7zM348 606q0 127 66 223 q76 111 213 111q123 0 184 -78q47 -65 47 -155q0 -129 -86 -223.5t-209 -94.5q-100 0 -157.5 59.5t-57.5 157.5z" />
<glyph unicode=":" horiz-adv-x="393" d="M59 104q0 -51 36 -86.5t87 -35.5t87 35.5t36 86.5t-36 87t-87 36t-87 -35.5t-36 -87.5zM158 815q0 -51 35.5 -87t87.5 -36q51 0 86.5 36t35.5 87t-35.5 87t-86.5 36t-87 -36t-36 -87z" />
<glyph unicode=";" horiz-adv-x="532" d="M104 -182l23 -39q4 -4 18 -4q94 33 162 112q72 80 80 162v-2q2 10 2 19v16q0 68 -33.5 106.5t-87.5 38.5q-117 0 -131 -125q-6 -47 19.5 -81.5t64.5 -38.5q-27 -76 -106 -138q-16 -16 -11 -26zM236 815q0 -51 35.5 -87t86.5 -36t87 36t36 87t-35.5 87t-87.5 36 q-51 0 -86.5 -36t-35.5 -87z" />
<glyph unicode="&#x3c;" horiz-adv-x="1122" d="M197 633q0 -23 16 -29l750 -389q20 -8 20 12l23 158q2 18 -15 29l-612 311l696 311q20 8 23 29l22 158q0 18 -18 12l-856 -389q-23 -10 -23 -29z" />
<glyph unicode="=" horiz-adv-x="1120" d="M109 436q0 -20 16 -20h862q20 0 21 20l18 127q2 20 -16 21h-860q-20 0 -23 -21zM170 883q-2 -20 16 -21h861q20 0 22 21l18 127q0 20 -16 20h-862q-20 0 -21 -20z" />
<glyph unicode="&#x3e;" horiz-adv-x="1118" d="M76 227q-2 -8 4 -12q4 -4 14 0l856 389q20 8 23 29l24 184q4 23 -14 29l-752 389q-18 8 -20 -12l-21 -158q-2 -18 15 -29l610 -311l-694 -311q-23 -10 -25 -29z" />
<glyph unicode="?" horiz-adv-x="948" d="M133 1247l60 -123q12 -14 26 -6q143 123 285 123q111 0 166 -61q49 -53 49 -138q0 -121 -105 -202q-207 -164 -227 -185q-92 -100 -117 -284q-2 -20 15 -21h141q20 0 23 21q20 168 190 282q266 181 266 408q0 78 -26.5 142.5t-73.5 111.5t-115.5 72.5t-150.5 25.5 q-211 0 -398 -137q-16 -14 -8 -29zM203 104q0 -51 35.5 -86.5t87.5 -35.5q51 0 87 35.5t36 86.5t-36 87t-87 36t-87 -35.5t-36 -87.5z" />
<glyph unicode="@" horiz-adv-x="1837" d="M219 678q0 -336 209 -535q211 -199 547 -198q276 0 508 92q18 8 10 22l-23 58q-6 18 -24 10q-213 -86 -471 -86q-150 0 -275 49q-178 72 -278 215q-104 154 -105 359q0 272 195 456q188 182 459 183q233 0 397 -129q174 -137 174 -373q0 -174 -88 -305 q-90 -129 -199 -129q-45 0 -34 59l49 358q2 16 3 33t1 33q0 139 -96 205q-66 45 -166 45q-162 0 -287 -99q-18 -18 -8 -26l47 -92q8 -14 22 -6q113 76 205 75q129 0 129 -127q0 -10 -1 -19t-3 -20q-201 -14 -305 -59q-195 -84 -197 -268q0 -98 67 -160.5t167 -62.5 q113 0 203 61q31 -61 96 -61q231 0 373 192q120 164 120 367q0 272 -196 442q-186 162 -477 162q-311 0 -531 -213q-217 -211 -217 -508zM770 481q2 76 92 117q39 18 117 31q4 2 34 5t83 11l-25 -190q-88 -86 -207 -76q-39 4 -66.5 32.5t-27.5 69.5z" />
<glyph unicode="A" horiz-adv-x="1214" d="M0 20q-2 -6 -2 -10q0 -10 14 -10h168q14 0 23 20l145 318h500l49 -318q2 -20 18 -20h156q16 0 14 20l-239 1360q0 20 -17 21h-157q-10 0 -23 -21zM420 489l299 654l104 -654h-403z" />
<glyph unicode="B" horiz-adv-x="1210" d="M92 20q-2 -20 17 -20h518q246 0 379 119q127 111 127 293q0 262 -273 331v5q201 96 201 325q0 125 -103 217q-121 104 -319 105h-334q-23 0 -22 -21zM297 160l68 489h284q156 0 236 -80q59 -63 59 -147q0 -262 -348 -262h-299zM387 805l62 434h180q125 0 188 -63 q51 -51 51 -123q0 -248 -319 -248h-162z" />
<glyph unicode="C" horiz-adv-x="1224" d="M84 610q0 -297 199 -471q175 -157 414 -157h3q225 0 398 79q18 10 10 29l-55 129q-6 14 -25 6q-139 -65 -296 -65h-5q-182 0 -311 116q-139 129 -140 342q0 250 189 439q178 180 397 180q125 0 266 -41q23 -4 29 6l80 129q8 11 8 18q0 8 -10 11q-127 55 -356 55 q-305 0 -545 -233q-250 -244 -250 -572z" />
<glyph unicode="D" horiz-adv-x="1378" d="M92 20q-2 -20 17 -20h327q410 0 617 158q268 207 268 547q0 209 -93 367.5t-253 244.5q-145 78 -375 78h-295q-23 0 -22 -21zM299 168l145 1059h168q223 0 365 -135q156 -148 156 -410q0 -246 -199 -387q-176 -127 -430 -127h-205z" />
<glyph unicode="E" horiz-adv-x="1187" d="M92 20q-2 -20 17 -20h972q20 0 23 20l16 121q2 20 -16 21h-807l63 461h619q23 0 22 20l19 123q2 20 -16 20h-619l61 447h701q23 0 22 20l19 121q2 20 -17 21h-866q-23 0 -22 -21z" />
<glyph unicode="F" horiz-adv-x="1044" d="M92 20q-2 -20 17 -20h145q20 0 22 20l84 603h541q20 0 23 20l16 123q2 20 -16 20h-539l61 447h644q20 0 22 20l16 121q2 20 -16 21h-807q-23 0 -22 -21z" />
<glyph unicode="G" horiz-adv-x="1406" d="M84 610q0 -295 195 -471q173 -157 410 -157h3q182 0 342 69l-4 -31q-2 -20 17 -20h145q20 0 22 20l86 625q2 20 -16 21h-493q-20 0 -23 -21l-16 -121q-2 -20 16 -20h330l-35 -252q-170 -96 -344 -96q-182 0 -307 118q-135 131 -136 344q0 250 189 439q178 180 397 180 q125 0 266 -41q23 -4 29 6l80 129q16 23 -2 29q-127 55 -356 55q-305 0 -545 -233q-250 -244 -250 -572z" />
<glyph unicode="H" horiz-adv-x="1390" d="M92 20q-2 -20 17 -20h145q20 0 22 20l84 594h730l-84 -594q-2 -20 16 -20h145q20 0 23 20l190 1354q0 20 -18 21h-143q-23 0 -23 -21l-84 -588h-727l82 588q2 20 -16 21h-146q-23 0 -22 -21z" />
<glyph unicode="I" horiz-adv-x="477" d="M92 20q-2 -20 17 -20h145q20 0 22 20l191 1354q2 20 -16 21h-146q-23 0 -22 -21z" />
<glyph unicode="J" horiz-adv-x="987" d="M-31 70q125 -88 307 -88q338 0 488 278q23 41 40 90t30 103q8 29 15 77t17 113l103 731q0 20 -17 21h-145q-23 0 -23 -21l-110 -780q-35 -227 -125 -324q-103 -110 -243 -110h-3q-123 0 -217 63q-23 16 -33 0l-80 -119q-8 -16 -8 -25q0 -6 4 -9z" />
<glyph unicode="K" horiz-adv-x="1157" d="M92 20q-2 -20 17 -20h145q20 0 22 20l72 512l154 150l346 -662q8 -20 31 -20h172q10 0 14 10t-2 17l-430 784l569 557q8 8 8 18q-2 8 -12 9h-203q-16 0 -37 -21l-573 -581l82 581q2 20 -16 21h-146q-23 0 -22 -21z" />
<glyph unicode="L" horiz-adv-x="956" d="M92 20q-2 -20 17 -20h739q23 0 22 20l19 121q2 20 -17 21h-575l170 1212q2 20 -16 21h-146q-23 0 -22 -21z" />
<glyph unicode="M" horiz-adv-x="1746" d="M20 20q-1 -4 -1 -7q0 -13 18 -13h141q16 0 23 20l319 1000l189 -905q2 -20 20 -21h129q14 0 27 21l524 905v-1000q0 -20 16 -20h144q22 0 22 20v1354q0 20 -16 21h-143q-10 0 -23 -21l-573 -1042l-218 1042q-2 20 -16 21h-131q-16 0 -22 -21z" />
<glyph unicode="N" horiz-adv-x="1357" d="M92 20q-2 -20 17 -20h133q23 0 22 20l148 1053l598 -1065q2 -8 14 -8h113q20 0 22 20l189 1354q2 20 -17 21h-133q-20 0 -22 -21l-148 -1050l-594 1060q-6 10 -16 11h-113q-23 0 -22 -21z" />
<glyph unicode="O" horiz-adv-x="1419" d="M84 575q0 -283 172 -444q155 -149 388 -149h3q305 0 512 245q203 240 203 588q0 272 -168 440q-164 160 -401 160q-287 0 -496 -239q-213 -248 -213 -601zM272 588q0 285 166 475q152 176 350 176q164 0 273 -111q113 -114 113 -315q0 -289 -154 -475 q-150 -180 -365 -180q-162 0 -266 104q-117 113 -117 326z" />
<glyph unicode="P" horiz-adv-x="1173" d="M92 20q-2 -20 17 -20h145q20 0 22 20l68 482h174q315 0 436 71q220 133 220 375q0 248 -203 375q-119 72 -340 72h-326q-23 0 -22 -21zM367 664l79 569h205q147 0 240.5 -74t93.5 -211q0 -135 -108 -215q-95 -69 -234 -69h-4h-272z" />
<glyph unicode="Q" horiz-adv-x="1419" d="M84 575q0 -244 129 -399q119 -143 311 -182l-14 -68q-4 -16 18 -20q45 -8 78 -14.5t56 -10.5q184 -47 311 -82t201 -57q10 -3 20 -3q20 0 35 15l114 109q8 8 9 16q0 8 -9 10q-190 35 -322 60.5t-208 44.5q-6 2 -6 4q4 4 8 6q242 63 393 291q154 227 154 520 q0 272 -168 440q-164 160 -401 160q-287 0 -496 -239q-213 -248 -213 -601zM272 588q0 285 166 473q152 176 350 176q168 0 275 -113q111 -114 111 -311q0 -285 -152 -471q-152 -182 -367 -182q-164 0 -266 102q-117 113 -117 326z" />
<glyph unicode="R" horiz-adv-x="1210" d="M92 20q-2 -20 17 -20h145q20 0 22 20l74 519h242l266 -519q8 -20 31 -20h164q27 0 12 27l-283 534q389 80 389 436q0 170 -120 279q-137 119 -406 119h-340q-23 0 -22 -21zM373 700l73 531h193q344 0 344 -248q0 -160 -117 -229q-90 -53 -327 -54h-166z" />
<glyph unicode="S" horiz-adv-x="1079" d="M55 98q159 -116 402 -116h4q248 0 393 114q147 117 147 314q0 150 -120 247q-23 16 -77 48t-147 79q-82 41 -131 69t-65 38q-86 63 -86 147q0 195 309 195q154 0 244 -51q16 -10 26 6l84 133q8 11 8 18q0 8 -10 11q-139 61 -327 61q-127 0 -225.5 -29.5t-166 -82 t-102.5 -124t-35 -157.5q0 -139 96 -230q39 -37 211 -133q57 -31 112.5 -61.5t111.5 -61.5q96 -66 96 -153q0 -102 -80 -160q-88 -59 -242 -59q-193 0 -303 92q-14 10 -28 -4l-97 -121q-9 -10 -9 -17t7 -12z" />
<glyph unicode="T" horiz-adv-x="1015" d="M113 1243q-2 -20 16 -20h371l-168 -1203q-2 -20 16 -20h146q20 0 22 20l168 1203h371q23 0 22 20l19 131q2 20 -17 21h-925q-20 0 -23 -21z" />
<glyph unicode="U" horiz-adv-x="1323" d="M131 428q0 -211 115 -326q120 -120 340 -120h4q260 0 418 155q154 152 190 416l115 821q2 20 -17 21h-145q-20 0 -23 -21l-112 -799q-59 -415 -400 -415h-2q-292 0 -292 284q0 29 2 58.5t6 62.5l112 809q2 20 -16 21h-145q-23 0 -23 -21l-117 -821q-4 -33 -7 -64.5 t-3 -60.5z" />
<glyph unicode="V" horiz-adv-x="1185" d="M182 1374l250 -1360q2 -20 17 -20h143q10 0 22 20l654 1360q2 6 2 10q0 11 -15 11h-168q-14 0 -22 -21l-516 -1122l-178 1122q-2 20 -19 21h-155q-16 0 -15 -21z" />
<glyph unicode="W" horiz-adv-x="1882" d="M182 1374l213 -1360q2 -20 15 -20h176q10 0 18 20l426 1022l156 -1022q2 -20 14 -20h174q12 0 21 20l569 1360q2 6 2 11q0 10 -12 10h-172q-10 0 -19 -21l-448 -1122l-156 1122q-2 20 -16 21h-150q-12 0 -20 -21l-449 -1122l-155 1122q-2 20 -17 21h-157q-14 0 -13 -21z " />
<glyph unicode="X" horiz-adv-x="1241" d="M-47 27q-9 -12 -9 -19q0 -8 13 -8h197q20 0 34 20l424 531l256 -531q8 -20 31 -20h184q10 0 15 10q2 8 -4 17l-355 659l594 682q9 12 9 19q0 8 -13 8h-192q-20 0 -35 -21l-440 -536l-250 536q-8 20 -31 21h-184q-10 0 -14.5 -10.5t1.5 -16.5l351 -666z" />
<glyph unicode="Y" horiz-adv-x="1093" d="M127 1384q-2 -4 -2 -7q0 -5 4 -9l354 -743l-84 -605q-2 -20 17 -20h145q20 0 23 20l84 605l524 743q8 6 8 16t-12 11h-166q-23 0 -37 -21l-385 -577l-256 577q-8 20 -31 21h-172q-10 0 -14 -11z" />
<glyph unicode="Z" horiz-adv-x="1165" d="M-25 10q6 -10 17 -10h1034q23 0 23 20l18 121q2 20 -16 21h-758l919 1204q6 10 5 18q-4 10 -15 11h-993q-23 0 -23 -21l-18 -127q0 -20 18 -20h701l-907 -1196q-6 -6 -6 -14q0 -3 1 -7z" />
<glyph unicode="[" horiz-adv-x="690" d="M70 -432q-2 -20 16 -21h397q20 0 23 21l16 115q0 20 -16 20h-242l209 1538h242q20 0 22 21l15 114q2 20 -17 21h-397q-20 0 -23 -21z" />
<glyph unicode="\" horiz-adv-x="491" d="M139 1393l172 -1391q2 -20 17 -20h139q22 0 22 20l-174 1391q0 20 -14 20h-139q-25 0 -23 -20z" />
<glyph unicode="]" horiz-adv-x="645" d="M-55 -432q-2 -20 16 -21h397q20 0 23 21l246 1808q2 20 -17 21h-397q-20 0 -23 -21l-14 -114q-2 -20 17 -21h241l-211 -1538h-241q-20 0 -21 -20z" />
<glyph unicode="^" />
<glyph unicode="_" horiz-adv-x="1079" d="M12 -264q-2 -20 17 -21h948q20 0 22 21l13 90q0 20 -17 20h-948q-20 0 -22 -20z" />
<glyph unicode="`" horiz-adv-x="520" d="M334 1374l151 -268q8 -12 21 -12h72q18 0 16 20l-78 260q-2 20 -18 21h-150q-27 0 -14 -21z" />
<glyph unicode="a" d="M78 375q0 -201 115 -305q90 -84 208 -84q160 0 246 100l2 -2l-8 -64q-2 -20 16 -20h136q20 0 22 20l125 885q1 3 1 5q0 12 -17 16q-127 12 -236 12q-236 0 -409 -137q-201 -160 -201 -426zM266 369q0 188 121 299q115 102 287 102h74l-54 -379q-6 -49 -29.5 -93 t-57.5 -76t-76 -51t-89 -19q-53 0 -100 34q-76 57 -76 183z" />
<glyph unicode="b" horiz-adv-x="1017" d="M92 18q-2 -16 17 -20q63 -8 128.5 -12t137.5 -4q238 0 395 139q178 155 178 442q0 193 -123 295q-96 78 -221 78q-121 0 -221 -84l74 522q2 20 -17 21h-137q-23 0 -22 -21zM289 166l65 475q102 115 228 115q76 0 120 -45q60 -59 60 -170q0 -190 -119 -295 q-96 -86 -227 -86q-84 0 -127 6z" />
<glyph unicode="c" horiz-adv-x="839" d="M78 395q0 -186 123 -303q116 -110 283 -110h3q162 0 281 71q16 10 8 29l-53 117q-10 16 -27 4q-78 -49 -184 -49t-175 71.5t-69 194.5q0 131 100.5 237.5t237.5 106.5q84 0 162 -33q20 -8 29 6l75 123q6 9 6 16q0 8 -8 13q-86 49 -247 49q-207 0 -371 -152 q-174 -160 -174 -391z" />
<glyph unicode="d" d="M78 401q0 -215 151 -325q125 -92 312 -92q70 0 132 4t120 12q23 4 22 20l191 1354q2 20 -17 21h-137q-20 0 -23 -21l-61 -442h-94q-221 0 -391 -121q-205 -147 -205 -410zM266 403q0 174 123 273q106 88 273 88h83l-83 -598q-35 -8 -109 -8q-106 0 -178 41 q-109 61 -109 204z" />
<glyph unicode="e" horiz-adv-x="931" d="M78 395q0 -197 121 -311q109 -102 278 -102q195 0 311 73q18 12 9 29l-52 119q-8 14 -28 4q-78 -51 -205 -51q-123 0 -186 67q-41 43 -50 94h11q255 0 424 95q176 98 176 266q0 125 -85 192.5t-214 67.5q-215 0 -363 -162q-147 -160 -147 -381zM272 469q12 141 117 229 q94 78 201 78q98 0 108 -90q1 -7 1 -13q0 -76 -109 -134q-125 -70 -318 -70z" />
<glyph unicode="f" horiz-adv-x="645" d="M74 -371q-2 -20 16 -20h135q23 0 23 20l153 1139h228q20 0 22 20l15 111q2 20 -17 21h-227l24 155q27 168 177 168q84 0 155 -43q20 -12 29 0l72 105q8 11 8 18q0 6 -6 10q-98 68 -246 68q-150 0 -243 -87t-116 -222l-28 -172h-107q-20 0 -22 -21l-15 -111q-2 -20 17 -20 h106z" />
<glyph unicode="g" d="M43 -352q137 -98 287 -99q203 0 334 116t161 339l127 895q0 20 -16 21h-137q-20 0 -23 -21l-2 -22q-94 57 -209 57q-215 0 -360 -189q-131 -168 -131 -380q0 -156 76 -256q90 -127 270 -127q150 0 242 92l2 -2l-17 -92q-20 -123 -102 -193t-193 -70q-113 0 -202 78 q-16 16 -27 0l-76 -117q-8 -12 -8 -20q0 -6 4 -10zM262 371q0 180 94 288q86 100 207 101q91 -1 187 -60l-50 -338q-12 -78 -79 -141q-71 -69 -165 -69h-3q-82 0 -131 49q-59 59 -60 170z" />
<glyph unicode="h" horiz-adv-x="1021" d="M92 20q-2 -20 17 -20h135q20 0 22 20l51 361q20 162 103 276q86 121 194 121q76 0 105 -59q18 -41 18 -125q0 -20 -2 -45t-6 -53l-65 -476q-2 -20 16 -20h135q20 0 23 20l67 498q4 29 6 54.5t2 45.5q0 315 -245 316q-168 0 -287 -119l-2 2l78 557q2 20 -17 21h-137 q-23 0 -22 -21z" />
<glyph unicode="i" horiz-adv-x="460" d="M92 20q-2 -20 17 -20h135q20 0 22 20l123 879q2 20 -16 21h-135q-20 0 -23 -21zM246 1286q0 -45 32.5 -76.5t79.5 -31.5q45 0 78 31.5t33 76.5t-33 77t-78 32q-47 0 -79.5 -32t-32.5 -77z" />
<glyph unicode="j" horiz-adv-x="456" d="M-139 -344l61 -113q2 -6 13 -6q7 0 16 2q258 61 295 340l135 1020q2 20 -16 21h-136q-20 0 -22 -21l-131 -991q-25 -186 -209 -223q-13 -2 -13 -12q0 -6 7 -17zM236 1286q0 -45 32.5 -76.5t77.5 -31.5q47 0 80 31.5t33 76.5t-33 77t-80 32q-45 0 -77.5 -32t-32.5 -77z " />
<glyph unicode="k" horiz-adv-x="888" d="M92 20q-2 -20 17 -20h135q20 0 22 20l41 295l92 84l258 -385q8 -14 27 -14h158q12 0 18 8q8 10 -2 21l-336 485l408 377q5 4 5 10q0 3 -1 6q-4 12 -14 13h-179q-16 0 -30 -15l-371 -364l117 833q2 20 -17 21h-135q-23 0 -22 -21z" />
<glyph unicode="l" horiz-adv-x="460" d="M92 20q-2 -20 17 -20h135q20 0 22 20l191 1354q2 20 -17 21h-135q-23 0 -22 -21z" />
<glyph unicode="m" horiz-adv-x="1562" d="M92 20q-2 -20 17 -20h135q20 0 22 20l66 469q14 117 94 203q76 86 180 86q117 0 117 -166q0 -23 -1 -40t-3 -31l-74 -521q-2 -20 17 -20h135q23 0 22 20l68 469q14 119 92 203q76 86 180 86q117 0 117 -166q0 -23 -1 -40t-3 -31l-74 -521q-2 -20 16 -20h138q20 0 22 20 l74 539q6 45 6 72q0 305 -246 305q-182 0 -334 -145q-55 145 -219 145q-158 0 -272 -90l6 53q2 20 -16 21h-135q-20 0 -23 -21z" />
<glyph unicode="n" horiz-adv-x="1021" d="M92 20q-2 -20 17 -20h135q20 0 22 20l66 463q14 106 88 195q82 100 194 100q76 0 105 -59q18 -41 18 -125q0 -20 -2 -45t-6 -53l-65 -476q-2 -20 16 -20h135q20 0 23 20l67 498q4 29 6 54.5t2 45.5q0 315 -245 316q-78 0 -133 -16q-72 -20 -152 -95l-2 2l8 74 q2 20 -16 21h-135q-20 0 -23 -21z" />
<glyph unicode="o" horiz-adv-x="1040" d="M201 88q113 -106 282 -106q207 0 346 157q140 162 140 391q0 184 -121 299q-115 109 -283 109q-197 0 -338 -154q-149 -157 -149 -392q0 -191 123 -304zM254 414q0 150 90 256q88 106 211 106q111 0 175.5 -75.5t64.5 -198.5q0 -145 -86 -252q-82 -106 -211 -107 q-49 0 -94.5 19.5t-78 54.5t-52 85t-19.5 112z" />
<glyph unicode="p" horiz-adv-x="1013" d="M18 -455q-2 -20 17 -20h135q20 0 23 20l63 449q57 -6 106 -6q252 0 410 141q172 150 172 422q0 178 -93 282.5t-259 104.5q-102 0 -211 -72l-2 2l4 31q2 20 -16 21h-136q-23 0 -22 -21zM279 158l73 520q115 82 221 82q187 0 187 -242q0 -166 -117 -272q-109 -96 -258 -96 q-23 0 -48.5 2t-57.5 6z" />
<glyph unicode="q" horiz-adv-x="989" d="M78 369q0 -190 123 -295q100 -84 221 -84q133 0 219 67l-70 -512q-2 -20 17 -20h135q20 0 22 20l189 1348q1 3 1 5q0 12 -17 15q-139 25 -267 25q-233 0 -391 -137q-182 -158 -182 -432zM260 383q0 188 113 289q100 92 266 92q47 0 100 -6l-45 -336q-12 -84 -43 -139 q-70 -119 -202 -119q-72 0 -123 49q-66 61 -66 170z" />
<glyph unicode="r" horiz-adv-x="618" d="M92 20q-2 -20 17 -20h135q20 0 22 20l53 386q49 348 267 348q23 0 59 -6q23 -4 25 14l10 143q1 4 1 7q0 14 -15 16q-26 4 -60 4h-24q-106 -2 -197 -101h-4l8 68q2 20 -16 21h-135q-20 0 -23 -21z" />
<glyph unicode="s" horiz-adv-x="681" d="M-2 59q114 -77 264 -77h4q168 0 265.5 77.5t99.5 212.5v5q0 85 -64 153q-20 20 -57 45t-90 57q-174 102 -170 156q2 92 156 92q76 0 147 -30q18 -8 29 2l69 110q7 10 7 18q0 10 -11 15q-86 43 -213 43q-168 0 -264 -69.5t-98 -194.5v-6q0 -82 51 -144q35 -39 133 -100 q53 -33 88 -54.5t49 -33.5q58 -46 58 -94q0 -104 -168 -105q-100 0 -183 56q-20 14 -28 0l-70 -105q-8 -12 -8 -20q0 -5 4 -9z" />
<glyph unicode="t" horiz-adv-x="612" d="M82 788q-2 -20 16 -20h107l-68 -477q-6 -41 -6 -74q0 -235 246 -235h2q94 0 172 30q58 24 58 42q0 3 -1 5l-57 111q-4 12 -27 2q-57 -33 -118 -33q-94 0 -95 111q0 12 1 25.5t3 27.5l64 465h211q23 0 22 20l17 111q2 20 -17 21h-211l25 178q3 21 -10 21q-3 0 -6 -1 l-144 -49q-20 -6 -22 -20l-17 -129h-106q-20 0 -23 -21z" />
<glyph unicode="u" horiz-adv-x="1003" d="M115 254q0 -76 26 -131q63 -141 301 -141q223 0 332 145q74 98 94 248l76 524q2 20 -16 21h-135q-20 0 -23 -21l-70 -481q-14 -113 -41 -162q-12 -25 -35.5 -47.5t-51 -37.5t-57.5 -24.5t-56 -9.5q-143 0 -166 96q-2 10 -2 29q0 44 12 137l70 500q2 20 -17 21h-135 q-20 0 -22 -21l-74 -524q-4 -37 -7 -68t-3 -53z" />
<glyph unicode="v" horiz-adv-x="813" d="M98 899l146 -885q2 -20 16 -20h154q14 0 22 20l441 885q2 6 2 10q0 11 -15 11h-159q-10 0 -23 -21l-305 -651l-90 651q0 20 -17 21h-155q-18 0 -17 -21z" />
<glyph unicode="w" horiz-adv-x="1290" d="M98 899l127 -885q2 -20 15 -20h176q10 0 18 20l256 590l82 -590q0 -20 14 -20h166q10 0 19 20l383 885q2 6 2 10q0 10 -13 11h-157q-10 0 -19 -21l-266 -651l-78 651q-2 20 -14 21h-160q-10 0 -18 -21l-266 -651l-78 651q-2 20 -15 21h-159q-16 0 -15 -21z" />
<glyph unicode="x" horiz-adv-x="849" d="M-45 29q-11 -12 -11 -20q0 -9 19 -9h174q20 0 29 14l246 318l143 -318q6 -14 25 -14h163q27 0 17 29l-225 438l354 424q6 8 6 18q-4 10 -14 11h-174q-20 0 -29 -15l-219 -297l-123 297q-6 14 -27 15h-162q-12 0 -16 -10.5t0 -18.5l205 -424z" />
<glyph unicode="y" horiz-adv-x="913" d="M14 -449q-1 -3 -1 -6q0 -14 18 -14q170 8 291 115q115 98 208 309l428 936q4 11 4 18q0 11 -12 11h-155q-20 0 -27 -15q-125 -293 -196.5 -463t-92.5 -217q-53 238 -91 407t-60 273q-2 14 -25 15h-160q-20 0 -16 -29q70 -252 128 -476.5t107 -428.5q-55 -133 -145 -209 q-84 -66 -164 -66q-20 0 -20 -20z" />
<glyph unicode="z" horiz-adv-x="798" d="M-45 8q6 -8 16 -8h746q20 0 22 20l15 111q2 20 -17 21h-461l586 741q8 11 8 17q0 10 -18 10h-700q-20 0 -23 -21l-16 -113q0 -20 18 -20h410q-129 -168 -273.5 -351.5t-308.5 -387.5q-5 -5 -5 -12q0 -3 1 -7z" />
<glyph unicode="{" horiz-adv-x="620" d="M61 469q-2 -20 17 -20q152 0 151 -181q0 -31 -4 -68.5t-12 -84.5l-31 -181q-4 -29 -7 -54t-3 -48q0 -262 277 -262q20 0 22 20l12 95q2 20 -16 20q-137 0 -137 139q0 20 2 42t6 46l27 148q18 106 18 182q0 195 -152 268q117 53 175 146q29 51 50 127t31 178l17 147 q14 125 59 176.5t131 51.5q20 0 23 20l12 94q2 20 -16 21q-328 0 -367 -365l-20 -180q-23 -174 -64 -246q-51 -88 -162 -88q-20 0 -22 -20z" />
<glyph unicode="|" horiz-adv-x="477" d="M72 -446q-2 -20 16 -21h107q20 0 22 21l248 1820q2 20 -16 21h-107q-20 0 -23 -21z" />
<glyph unicode="}" horiz-adv-x="622" d="M-47 -410q-2 -20 16 -20q328 0 367 364l20 181q23 174 64 245q51 88 162 89q20 0 22 20l17 123q2 20 -17 20q-154 0 -153 179q0 63 18 155l35 180q12 57 12 109q0 256 -278 256q-20 0 -23 -21l-12 -94q-2 -20 16 -20q139 0 139 -135q0 -35 -10 -93l-31 -147 q-23 -113 -22 -184q0 -190 156 -267q-117 -53 -175 -145q-29 -51 -50 -127t-31 -178l-17 -148q-14 -125 -59 -176t-131 -51q-20 0 -23 -20z" />
<glyph unicode="~" />
<glyph unicode="&#xa1;" horiz-adv-x="466" d="M106 -334q0 -158 78 -158q109 0 148 304q12 96 18 219l25 520q0 20 -17 20h-57q-20 0 -22 -20l-119 -520q-14 -63 -24.5 -117.5t-16.5 -101.5q-12 -86 -13 -146zM240 817q0 -51 35.5 -87t86.5 -36t87 36t36 87t-35.5 87t-87.5 36q-51 0 -86.5 -36t-35.5 -87z" />
<glyph unicode="&#xa2;" horiz-adv-x="866" d="M78 395q0 -160 94 -272q90 -106 225 -133l-8 -49q-2 -20 17 -21h49q18 0 20 21l8 41h4q162 0 281 71q16 10 8 29l-53 117q-10 16 -27 4q-74 -47 -178 -49l119 610q29 -2 61.5 -10.5t69.5 -22.5q20 -8 29 6l75 123q12 20 -2 29q-72 45 -198 47l10 55q2 20 -16 21h-50 q-20 0 -22 -21l-10 -55q-195 -14 -346 -164q-160 -158 -160 -377zM268 420q0 119 82 215q84 103 199 123l-117 -592q-164 53 -164 254z" />
<glyph unicode="&#xa3;" horiz-adv-x="1024" d="M57 20q-2 -20 17 -20h800q18 0 21 20l18 134q2 20 -16 20h-483l63 475h307q20 0 23 21l14 112q2 20 -16 21h-307q31 215 73 305q63 129 201 129q125 0 207 -63q14 -10 29 4l98 114q14 21 0 29q-139 92 -311 92q-246 0 -365 -205q-80 -139 -117 -411l-133 -13 q-18 -2 -22 -20l-13 -94q-2 -20 17 -21h131l-64 -475h-131q-20 0 -22 -20z" />
<glyph unicode="&#xa4;" horiz-adv-x="1245" d="M2 498q-2 -20 16 -21h111q43 -233 225 -373q166 -123 379 -122q233 0 397 79q20 6 11 29l-56 129q-6 14 -24 6q-141 -66 -301 -65q-145 0 -264 82q-125 86 -168 235h450q10 0 23 21l71 112q12 20 -8 21h-555q2 68 17 121h628q10 0 23 20l72 113q14 20 -9 20h-657 q84 152 223 240q141 92 289 92q125 0 266 -41q23 -4 29 6l80 129q16 23 -2 29q-121 55 -357 55q-229 0 -434 -143q-205 -141 -301 -367h-100q-18 0 -21 -20l-16 -113q0 -20 16 -20h76q-4 -27 -8 -56.5t-6 -64.5h-78q-20 0 -23 -21z" />
<glyph unicode="&#xa5;" horiz-adv-x="1153" d="M129 344q-2 -20 16 -20h357l-43 -304q-2 -20 16 -20h146q20 0 22 20l43 304h354q20 0 23 20l14 111q2 20 -16 20h-354l18 129h354q20 0 23 21l14 110q2 20 -16 21h-279l430 612q8 6 9 16q0 10 -13 11h-166q-23 0 -37 -21l-385 -577l-256 577q-8 20 -30 21h-172 q-10 0 -14.5 -10.5t1.5 -16.5l293 -612h-276q-20 0 -23 -21l-14 -110q-2 -20 16 -21h357l-19 -129h-356q-20 0 -23 -20z" />
<glyph unicode="&#xa6;" horiz-adv-x="1024" />
<glyph unicode="&#xa7;" horiz-adv-x="784" d="M-10 -373q113 -98 274 -98q152 0 264 102q119 113 119 295q0 90 -61 183q184 160 184 333q0 164 -215 334q-186 147 -186 260q0 98 65 164q57 61 144 62q96 0 163 -72q16 -14 27 2l76 94q18 19 4 29q-102 98 -264 98q-154 0 -260 -98q-123 -111 -123 -303q0 -88 45 -164 q-172 -141 -172 -330q0 -129 104 -246q49 -45 98.5 -90t96.5 -90q104 -98 104 -182q0 -106 -67 -174q-59 -55 -123 -55q-129 0 -191 71q-10 14 -26 -2l-78 -94q-16 -18 -2 -29zM246 528q0 100 104 197q8 -6 12.5 -10t8.5 -8q39 -33 75.5 -65t75.5 -64q78 -82 78 -164 q0 -92 -121 -183l-14 13q-72 61 -110 95t-44 38q-66 72 -65 151z" />
<glyph unicode="&#xa8;" horiz-adv-x="512" d="M158 1286q0 -45 31.5 -76.5t76.5 -31.5t77 31.5t32 76.5t-32 77t-77 32t-76.5 -32t-31.5 -77zM514 1286q0 -45 32 -76.5t77 -31.5t76.5 31.5t31.5 76.5t-31.5 77t-76.5 32t-77 -32t-32 -77z" />
<glyph unicode="&#xa9;" horiz-adv-x="1757" d="M82 737q0 -311 219 -534q221 -221 535 -221q313 0 534 221t221 534t-221 533q-221 221 -534 221t-535 -221q-219 -219 -219 -533zM207 737q0 262 184 445q184 184 445 184q262 0 446 -184.5t184 -444.5t-184 -446q-184 -184 -446 -185q-260 0 -444.5 184.5t-184.5 446.5z M465 670q0 -156 96 -258q98 -102 244 -103q139 0 250 86q12 10 6 23l-35 69q-10 10 -18 5q-25 -16 -31 -19q-76 -47 -158 -47q-51 0 -95 19.5t-76 54.5t-49 82t-17 102q0 131 96 239.5t225 108.5q84 0 168 -65q10 -12 21 4l55 73q10 10 -2 19q-109 86 -227 86 q-182 0 -318 -150q-135 -147 -135 -329z" />
<glyph unicode="&#xaa;" horiz-adv-x="546" d="M49 1073q0 -121 70 -184q53 -51 127 -51q96 0 149 59l-4 -39q-4 -12 10 -12h82q12 0 13 12l75 537q2 12 -10 12q-37 4 -72.5 6t-70.5 2q-139 0 -248 -84q-121 -96 -121 -258zM100 575q0 -45 32 -76.5t77 -31.5t76.5 31.5t31.5 76.5t-31.5 77t-76.5 32t-77 -31.5 t-32 -77.5zM164 1069q0 115 74 182q68 61 172 62h45l-33 -230q-8 -59 -51 -102t-101 -43q-106 0 -106 131z" />
<glyph unicode="&#xab;" horiz-adv-x="960" d="M27 440l198 -420q8 -20 29 -20h129q16 0 8 20l-194 441l323 440q14 20 -4 21h-137q-18 0 -33 -21l-313 -420q-14 -20 -6 -41zM412 440l198 -420q8 -20 29 -20h127q16 0 10 20l-196 441l323 440q14 20 -2 21h-137q-18 0 -33 -21l-313 -420q-14 -20 -6 -41z" />
<glyph unicode="&#xac;" />
<glyph unicode="&#xad;" horiz-adv-x="860" d="M182 385q-2 -20 17 -20h424q20 0 22 20l19 131q0 20 -17 21h-426q-20 0 -20 -21z" />
<glyph unicode="&#xae;" horiz-adv-x="1757" d="M82 737q0 -311 219 -534q221 -221 535 -221q313 0 534 221t221 534t-221 533q-221 221 -534 221t-535 -221q-219 -219 -219 -533zM207 737q0 262 184 445q184 184 445 184q262 0 446 -184.5t184 -444.5t-184 -446q-184 -184 -446 -185q-260 0 -444.5 184.5t-184.5 446.5z M520 332q-4 -16 12 -17h82q16 0 17 17l41 289h145l148 -293q6 -12 20 -13h100q25 0 11 21l-146 289q96 14 170 100q70 84 70 188q0 94 -57.5 157t-149.5 63h-340q-12 0 -16 -17zM686 729l39 295h221q55 0 94 -39q41 -47 33 -108q-8 -63 -59 -105.5t-109 -42.5h-219z" />
<glyph unicode="&#xaf;" />
<glyph unicode="&#xb0;" horiz-adv-x="655" d="M127 1214q0 -115 80 -196q82 -80 196 -80q115 0 195 80q82 81 82 196t-82 195q-80 82 -195 82t-196 -82q-80 -80 -80 -195zM236 1214q0 72 49 120t118 48q72 0 121 -49t49 -119q0 -35 -13 -65.5t-35.5 -54t-53.5 -37t-68 -13.5q-70 0 -118.5 49.5t-48.5 120.5z" />
<glyph unicode="&#xb1;" />
<glyph unicode="&#xb2;" horiz-adv-x="1024" />
<glyph unicode="&#xb3;" horiz-adv-x="1024" />
<glyph unicode="&#xb4;" horiz-adv-x="522" d="M332 1114q-12 -20 10 -20h72q12 0 22 12l226 268q14 20 -9 21h-149q-12 0 -25 -21z" />
<glyph unicode="&#xb6;" horiz-adv-x="1245" d="M92 983q0 -154 92 -245t252 -101l-139 -1026q-2 -20 16 -21h119q20 0 23 21l229 1692h203l-232 -1692q0 -20 17 -21h121q20 0 22 21l229 1692h252q20 0 23 20l16 123q0 20 -16 20h-707q-215 0 -352 -107.5t-164 -305.5q-2 -16 -3 -35t-1 -35z" />
<glyph unicode="&#xb7;" horiz-adv-x="319" d="M152 707q0 -51 35.5 -87t86.5 -36t87 36t36 87t-35.5 86.5t-87.5 35.5q-51 0 -86.5 -35.5t-35.5 -86.5z" />
<glyph unicode="&#xb8;" horiz-adv-x="724" d="M197 -332q-2 -20 16 -20q10 0 31.5 -2t34.5 -2q210 14 235 188q6 49 -20.5 86t-81.5 43l4 49h-109l-35 -143q53 6 81 -9.5t24 -41.5q-6 -55 -150 -56q-20 0 -20 -20z" />
<glyph unicode="&#xb9;" horiz-adv-x="1024" />
<glyph unicode="&#xba;" horiz-adv-x="606" d="M92 1081q0 -55 19.5 -101t52.5 -78t78 -49t96 -17q127 0 211 96t84 235q0 55 -19.5 101.5t-52.5 79t-78 50t-96 17.5q-117 0 -207 -96q-88 -94 -88 -238zM154 575q0 -45 31.5 -76.5t76.5 -31.5t77 31.5t32 76.5t-32 77t-77 32t-76.5 -31.5t-31.5 -77.5zM199 1096 q0 45 14 86t40 70.5t58.5 47t69.5 17.5q66 0 105.5 -47t39.5 -121q0 -43 -14 -82t-38.5 -69.5t-57.5 -48t-70 -17.5q-59 0 -103 44t-44 120z" />
<glyph unicode="&#xbb;" horiz-adv-x="1007" d="M84 20q-14 -20 4 -20h135q20 0 35 20l313 420q15 21 7 41l-201 420q-6 20 -29 21h-127q-16 0 -8 -21l195 -440zM469 20q-14 -20 4 -20h135q20 0 35 20l313 420q15 16 5 41l-199 420q-6 20 -29 21h-127q-16 0 -10 -21l197 -440z" />
<glyph unicode="&#xbc;" horiz-adv-x="1024" />
<glyph unicode="&#xbd;" horiz-adv-x="1024" />
<glyph unicode="&#xbe;" horiz-adv-x="1024" />
<glyph unicode="&#xbf;" horiz-adv-x="890" d="M82 -139q0 -78 26.5 -142.5t73.5 -111.5t115 -73t152 -26q211 0 397 138q16 14 8 28l-59 123q-12 14 -27 6q-145 -123 -285 -122q-111 0 -166 61q-49 51 -49 137q0 119 105 203q205 162 227 184q92 100 117 285q2 20 -15 20h-141q-20 0 -22 -20q-23 -170 -191 -283 q-266 -180 -266 -407zM539 817q0 -51 35.5 -87t87.5 -36q51 0 86.5 36t35.5 87t-35.5 87t-86.5 36t-87 -36t-36 -87z" />
<glyph unicode="&#xc0;" horiz-adv-x="1318" d="M0 20q-8 -20 12 -20h168q14 0 23 20l145 318h500l49 -318q2 -20 18 -20h156q16 0 14 20l-239 1360q0 20 -17 21h-157q-10 0 -23 -21zM420 489l299 654l104 -654h-403zM731 1823l152 -269q2 -12 18 -12h74q18 1 16 21l-78 260q-2 20 -18 20h-150q-27 0 -14 -20z" />
<glyph unicode="&#xc1;" horiz-adv-x="1318" d="M0 20q-8 -20 12 -20h168q14 0 23 20l145 318h500l49 -318q2 -20 18 -20h156q16 0 14 20l-239 1360q0 20 -17 21h-157q-10 0 -23 -21zM420 489l299 654l104 -654h-403zM702 1561q-12 -20 11 -21h73q12 0 23 12l225 269q14 20 -10 20h-150q-12 0 -24 -20z" />
<glyph unicode="&#xc2;" horiz-adv-x="1318" d="M0 20q-8 -20 12 -20h168q14 0 23 20l145 318h500l49 -318q2 -20 18 -20h156q16 0 14 20l-239 1360q0 20 -17 21h-157q-10 0 -23 -21zM420 489l299 654l104 -654h-403zM563 1552q-14 -20 8 -20h70q8 0 23 14l176 170l149 -170q12 -14 19 -14h71q21 0 13 20l-136 273 q-12 16 -20 16h-160q-10 0 -22 -16z" />
<glyph unicode="&#xc3;" horiz-adv-x="1318" d="M0 20q-8 -20 12 -20h168q14 0 23 20l145 318h500l49 -318q2 -20 18 -20h156q16 0 14 20l-239 1360q0 20 -17 21h-157q-10 0 -23 -21zM420 489l299 654l104 -654h-403zM537 1577q0 -20 14 -21h47q6 0 23 23q20 51 69 51q31 0 115 -37q82 -37 131 -37q76 0 127 76 q43 58 61 146q2 20 -12 20h-45q-12 0 -23 -22q-29 -55 -69 -56q-18 0 -117 35q-96 37 -147 37q-123 0 -174 -215z" />
<glyph unicode="&#xc4;" horiz-adv-x="1318" d="M0 20q-8 -20 12 -20h168q14 0 23 20l145 318h500l49 -318q2 -20 18 -20h156q16 0 14 20l-239 1360q0 20 -17 21h-157q-10 0 -23 -21zM420 489l299 654l104 -654h-403zM541 1663q0 -45 31.5 -77t76.5 -32t77 32t32 77t-32 77t-77 32t-76.5 -32t-31.5 -77zM897 1663 q0 -45 32 -77t77 -32t76.5 32t31.5 77t-31.5 77t-76.5 32t-77 -32t-32 -77z" />
<glyph unicode="&#xc5;" horiz-adv-x="1318" d="M0 20q-8 -20 12 -20h168q14 0 23 20l145 318h500l49 -318q2 -20 18 -20h156q16 0 14 20l-239 1360q0 20 -17 21h-157q-10 0 -23 -21zM420 489l299 654l104 -654h-403zM649 1714q0 -39 15.5 -73.5t41 -60.5t60.5 -41t74 -15t73.5 15t60 41t41 60.5t15.5 73.5t-15.5 74 t-41 60.5t-60 41t-73.5 15.5t-74 -15.5t-60.5 -41t-41 -60.5t-15.5 -74zM737 1714q0 41 31 71t72 30t70.5 -30t29.5 -71t-29.5 -71.5t-70.5 -30.5t-72 30.5t-31 71.5z" />
<glyph unicode="&#xc6;" horiz-adv-x="2117" d="M0 20q-18 -20 2 -20h215q12 0 31 20l282 318h578l-45 -318q-2 -20 16 -20h932q20 0 23 20l16 121q2 20 -16 21h-766l63 461h578q20 0 22 20l19 123q2 20 -17 20h-579l63 447h660q20 0 22 20l19 121q2 20 -17 21h-839q-12 0 -31 -21zM666 489l548 617l-86 -617h-462z" />
<glyph unicode="&#xc7;" horiz-adv-x="1325" d="M178 592q0 -231 131 -399q131 -166 340 -203l-31 -123q53 6 81 -9.5t24 -41.5q-6 -55 -150 -56q-18 0 -20 -20l-10 -72q-2 -20 16 -20q10 0 31.5 -2t34.5 -2q213 16 235 188q6 49 -20.5 86t-81.5 43l2 19q236 0 424 147q20 12 10 29l-59 118q-8 14 -27 7 q-47 -29 -78 -47.5t-43 -22.5q-96 -43 -203 -43q-184 0 -303 129q-119 127 -119 324q0 227 170 415.5t396 188.5q152 0 295 -115q12 -12 26 6l92 123q10 20 -2 29q-182 145 -387 145q-270 0 -499 -213q-227 -211 -267 -502q-4 -27 -6 -53.5t-2 -52.5z" />
<glyph unicode="&#xc8;" horiz-adv-x="1187" d="M92 20q-2 -20 17 -20h972q20 0 23 20l16 121q2 20 -16 21h-807l63 461h619q23 0 22 20l19 123q2 20 -16 20h-621l63 447h701q23 0 22 20l19 121q2 20 -17 21h-866q-23 0 -22 -21zM676 1823l151 -269q6 -12 21 -12h72q18 1 16 21l-78 260q-2 20 -18 20h-150q-27 0 -14 -20 z" />
<glyph unicode="&#xc9;" horiz-adv-x="1187" d="M92 20q-2 -20 17 -20h972q20 0 23 20l16 121q2 20 -16 21h-807l63 461h619q23 0 22 20l19 123q2 20 -16 20h-621l63 447h701q23 0 22 20l19 121q2 20 -17 21h-866q-23 0 -22 -21zM682 1561q-12 -20 10 -21h74q10 0 22 12l224 269q20 20 -8 20h-150q-12 0 -25 -20z" />
<glyph unicode="&#xca;" horiz-adv-x="1187" d="M92 20q-2 -20 17 -20h972q20 0 23 20l16 121q2 20 -16 21h-807l63 461h619q23 0 22 20l19 123q2 20 -16 20h-621l63 447h701q23 0 22 20l19 121q2 20 -17 21h-866q-23 0 -22 -21zM526 1552q-14 -20 6 -20h72q8 0 23 14l174 170l151 -170q12 -14 19 -14h69q21 0 13 20 l-135 273q-10 16 -19 16h-160q-8 0 -24 -16z" />
<glyph unicode="&#xcb;" horiz-adv-x="1187" d="M92 20q-2 -20 17 -20h972q20 0 23 20l16 121q2 20 -16 21h-807l63 461h619q23 0 22 20l19 123q2 20 -16 20h-621l63 447h701q23 0 22 20l19 121q2 20 -17 21h-866q-23 0 -22 -21zM537 1663q0 -45 31.5 -77t76.5 -32t77 32t32 77t-32 77t-77 32t-76.5 -32t-31.5 -77z M893 1663q0 -45 31.5 -77t76.5 -32t77 32t32 77t-31.5 77t-77.5 32q-45 0 -76.5 -32t-31.5 -77z" />
<glyph unicode="&#xcc;" horiz-adv-x="481" d="M92 20q-2 -20 17 -20h145q20 0 22 20l189 1354q2 20 -16 21h-146q-20 0 -22 -21zM319 1823l152 -269q6 -12 21 -12h71q25 1 17 21l-78 260q-2 20 -17 20h-151q-27 0 -15 -20z" />
<glyph unicode="&#xcd;" horiz-adv-x="479" d="M92 20q-2 -20 17 -20h145q20 0 22 20l189 1354q2 20 -16 21h-146q-20 0 -22 -21zM305 1561q-12 -20 10 -21h74q12 0 23 12l225 269q14 20 -8 20h-152q-12 0 -24 -20z" />
<glyph unicode="&#xce;" horiz-adv-x="520" d="M129 20q-2 -20 16 -20h146q20 0 22 20l191 1354q2 20 -17 21h-145q-20 0 -23 -21zM195 1552q-14 -20 6 -20h71q8 0 23 14l176 170l150 -170q12 -14 18 -14h70q20 0 12 20l-135 273q-10 16 -19 16h-159q-10 0 -23 -16z" />
<glyph unicode="&#xcf;" horiz-adv-x="524" d="M133 20q-2 -20 17 -20h145q20 0 22 20l191 1354q2 20 -16 21h-146q-20 0 -22 -21zM178 1663q0 -45 32 -77t77 -32t76.5 32t31.5 77t-31.5 77t-76.5 32t-77 -32t-32 -77zM535 1663q0 -45 31.5 -77t76.5 -32t77 32t32 77t-32 77t-77 32t-76.5 -32t-31.5 -77z" />
<glyph unicode="&#xd0;" horiz-adv-x="1024" />
<glyph unicode="&#xd1;" horiz-adv-x="1357" d="M92 20q-2 -20 17 -20h133q23 0 22 20l148 1053l598 -1065q2 -8 14 -8h113q20 0 20 20l191 1354q2 20 -17 21h-133q-20 0 -22 -21l-148 -1050l-594 1060q-6 10 -16 11h-113q-23 0 -22 -21zM629 1577q-2 -20 12 -21h47q12 0 23 23q20 51 69 51q35 0 115 -37q82 -37 133 -37 q136 1 189 222q2 20 -13 20h-47q-14 0 -20 -22q-31 -55 -72 -56q-18 0 -117 35q-96 37 -145 37q-123 0 -174 -215z" />
<glyph unicode="&#xd2;" horiz-adv-x="1419" d="M84 575q0 -283 172 -444q156 -150 391 -149q305 0 512 245q203 240 203 588q0 272 -168 440q-164 160 -401 160q-287 0 -496 -239q-213 -248 -213 -601zM272 588q0 285 166 475q152 176 350 176q164 0 273 -111q113 -114 113 -315q0 -289 -154 -475q-150 -180 -365 -180 q-162 0 -266 104q-117 113 -117 326zM801 1823l153 -269q2 -12 19 -12h71q25 1 17 21l-76 260q-8 20 -18 20h-152q-23 0 -14 -20z" />
<glyph unicode="&#xd3;" horiz-adv-x="1419" d="M84 575q0 -283 172 -444q156 -150 391 -149q305 0 512 245q203 240 203 588q0 272 -168 440q-164 160 -401 160q-287 0 -496 -239q-213 -248 -213 -601zM272 588q0 285 166 475q152 176 350 176q164 0 273 -111q113 -114 113 -315q0 -289 -154 -475q-150 -180 -365 -180 q-162 0 -266 104q-117 113 -117 326zM791 1561q-8 -20 12 -21h71q12 0 23 12l225 269q14 20 -8 20h-151q-14 0 -23 -20z" />
<glyph unicode="&#xd4;" horiz-adv-x="1419" d="M84 575q0 -283 172 -444q156 -150 391 -149q305 0 512 245q203 240 203 588q0 272 -168 440q-164 160 -401 160q-287 0 -496 -239q-213 -248 -213 -601zM272 588q0 285 166 475q152 176 350 176q164 0 273 -111q113 -114 113 -315q0 -289 -154 -475q-150 -180 -365 -180 q-162 0 -266 104q-117 113 -117 326zM618 1552q-14 -20 9 -20h69q8 0 23 14l176 170l149 -170q12 -14 19 -14h72q20 0 12 20l-137 273q-10 16 -19 16h-160q-10 0 -22 -16z" />
<glyph unicode="&#xd5;" horiz-adv-x="1419" d="M84 575q0 -283 172 -444q156 -150 391 -149q305 0 512 245q203 240 203 588q0 272 -168 440q-164 160 -401 160q-287 0 -496 -239q-213 -248 -213 -601zM272 588q0 285 166 475q152 176 350 176q164 0 273 -111q113 -114 113 -315q0 -289 -154 -475q-150 -180 -365 -180 q-162 0 -266 104q-117 113 -117 326zM643 1577q-2 -20 12 -21h47q12 0 23 23q20 51 70 51q35 0 114 -37q82 -37 133 -37q136 1 189 222q2 20 -12 20h-48q-14 0 -20 -22q-31 -55 -72 -56q-18 0 -116 35q-96 37 -146 37q-123 0 -174 -215z" />
<glyph unicode="&#xd6;" horiz-adv-x="1419" d="M84 575q0 -283 172 -444q156 -150 391 -149q305 0 512 245q203 240 203 588q0 272 -168 440q-164 160 -401 160q-287 0 -496 -239q-213 -248 -213 -601zM272 588q0 285 166 475q152 176 350 176q164 0 273 -111q113 -114 113 -315q0 -289 -154 -475q-150 -180 -365 -180 q-162 0 -266 104q-117 113 -117 326zM645 1663q0 -45 32 -77t77 -32t76.5 32t31.5 77t-31.5 77t-76.5 32t-77 -32t-32 -77zM1001 1663q0 -45 32 -77t77 -32t77 32t32 77t-32 77t-77 32t-77 -32t-32 -77z" />
<glyph unicode="&#xd7;" horiz-adv-x="1024" />
<glyph unicode="&#xd8;" horiz-adv-x="1454" d="M117 575q0 -242 125 -393l-95 -106q-16 -16 -2 -29l54 -55q12 -14 28 2l95 106q152 -119 358 -118q305 0 512 245q203 240 203 588q0 213 -111 371l121 135q16 21 2 29l-53 55q-10 14 -27 -2l-119 -133q-158 145 -383 145q-287 0 -495 -239q-213 -248 -213 -601zM305 588 q0 285 166 475q152 176 350 176q157 0 266 -104l-716 -809q-66 109 -66 262zM444 240l711 800q51 -96 51 -227q0 -289 -153 -475q-150 -180 -365 -180q-143 0 -244 82z" />
<glyph unicode="&#xd9;" horiz-adv-x="1337" d="M131 428q0 -211 115 -326q121 -121 344 -120q260 0 418 155q154 152 190 416l115 821q2 20 -17 21h-145q-20 0 -23 -21l-112 -799q-59 -416 -402 -415q-293 0 -292 286q0 27 2 56.5t6 62.5l112 809q2 20 -16 21h-145q-23 0 -23 -21l-117 -821q-4 -33 -7 -64.5t-3 -60.5z M680 1823l151 -269q2 -12 19 -12h74q18 1 16 21l-78 260q-2 20 -18 20h-150q-27 0 -14 -20z" />
<glyph unicode="&#xda;" horiz-adv-x="1337" d="M131 428q0 -211 115 -326q121 -121 344 -120q260 0 418 155q154 152 190 416l115 821q2 20 -17 21h-145q-20 0 -23 -21l-112 -799q-59 -416 -402 -415q-293 0 -292 286q0 27 2 56.5t6 62.5l112 809q2 20 -16 21h-145q-23 0 -23 -21l-117 -821q-4 -33 -7 -64.5t-3 -60.5z M709 1561q-8 -20 12 -21h72q12 0 22 12l225 269q14 20 -8 20h-151q-14 0 -23 -20z" />
<glyph unicode="&#xdb;" horiz-adv-x="1337" d="M131 428q0 -211 115 -326q121 -121 344 -120q260 0 418 155q154 152 190 416l115 821q2 20 -17 21h-145q-20 0 -23 -21l-112 -799q-59 -416 -402 -415q-293 0 -292 286q0 27 2 56.5t6 62.5l112 809q2 20 -16 21h-145q-23 0 -23 -21l-117 -821q-4 -33 -7 -64.5t-3 -60.5z M575 1552q-14 -20 9 -20h69q8 0 23 14l176 170l149 -170q12 -14 19 -14h72q20 0 12 20l-137 273q-10 16 -19 16h-160q-10 0 -22 -16z" />
<glyph unicode="&#xdc;" horiz-adv-x="1331" d="M68 428q0 -211 114 -326q121 -121 344 -120q260 0 418 155q154 152 191 416l114 821q2 20 -16 21h-146q-20 0 -22 -21l-113 -799q-59 -416 -401 -415q-293 0 -293 286q0 27 2 56.5t6 62.5l113 809q2 20 -17 21h-145q-23 0 -22 -21l-117 -821q-4 -33 -7 -64.5t-3 -60.5z M504 1663q0 -45 31.5 -77t76.5 -32t77 32t32 77t-32 77t-77 32t-76.5 -32t-31.5 -77zM860 1663q0 -45 32 -77t77 -32t76.5 32t31.5 77t-31.5 77t-76.5 32t-77 -32t-32 -77z" />
<glyph unicode="&#xdd;" horiz-adv-x="1024" />
<glyph unicode="&#xde;" horiz-adv-x="1024" />
<glyph unicode="&#xdf;" horiz-adv-x="1069" d="M92 -106q-2 -20 17 -21h131q20 0 22 21l150 1110q35 256 229 256q84 0 127 -58q35 -47 35 -108q0 -250 -293 -250q-20 0 -23 -21l-16 -123q-2 -20 16 -20q121 0 215 -59q109 -72 109 -201q0 -61 -21.5 -112.5t-60.5 -87.5t-91 -56.5t-114 -20.5q-74 0 -125 19 q-20 6 -20 -21l-19 -129q-4 -16 17 -20q29 -4 66.5 -7t88.5 -3q203 0 326 127q125 126 125 331q0 104 -61 195q-72 96 -197 133l2 4q250 72 250 350q0 113 -72 197q-90 96 -243 96q-164 0 -277 -102q-117 -106 -143 -309z" />
<glyph unicode="&#xe0;" d="M78 375q0 -201 115 -305q90 -84 208 -84q160 0 246 100l2 -2l-8 -64q-2 -20 16 -20h136q20 0 22 20l125 885q4 16 -16 21q-127 12 -236 12q-236 0 -409 -137q-201 -160 -201 -426zM266 369q0 188 121 299q115 102 287 102h74l-54 -379q-6 -49 -29.5 -93t-57.5 -76 t-76 -51t-89 -19q-53 0 -100 34q-76 57 -76 183zM451 1374l151 -268q8 -12 21 -12h71q19 0 17 20l-78 260q-2 20 -19 21h-149q-27 0 -14 -21z" />
<glyph unicode="&#xe1;" d="M78 375q0 -201 115 -305q90 -84 208 -84q160 0 246 100l2 -2l-8 -64q-2 -20 16 -20h136q20 0 22 20l125 885q4 16 -16 21q-127 12 -236 12q-236 0 -409 -137q-201 -160 -201 -426zM266 369q0 188 121 299q115 102 287 102h74l-54 -379q-6 -49 -29.5 -93t-57.5 -76 t-76 -51t-89 -19q-53 0 -100 34q-76 57 -76 183zM555 1114q-8 -20 12 -20h72q12 0 23 12l225 268q14 20 -8 21h-152q-14 0 -22 -21z" />
<glyph unicode="&#xe2;" d="M78 375q0 -201 115 -305q90 -84 208 -84q160 0 246 100l2 -2l-8 -64q-2 -20 16 -20h136q20 0 22 20l125 885q4 16 -16 21q-127 12 -236 12q-236 0 -409 -137q-201 -160 -201 -426zM266 369q0 188 121 299q115 102 287 102h74l-54 -379q-6 -49 -29.5 -93t-57.5 -76 t-76 -51t-89 -19q-53 0 -100 34q-76 57 -76 183zM354 1106q-14 -20 6 -21h72q8 0 23 15l176 170l149 -170q12 -14 19 -15h69q21 1 13 21l-136 272q-10 16 -18 17h-160q-10 0 -22 -17z" />
<glyph unicode="&#xe3;" d="M78 375q0 -201 115 -305q90 -84 208 -84q160 0 246 100l2 -2l-8 -64q-2 -20 16 -20h136q20 0 22 20l125 885q4 16 -16 21q-127 12 -236 12q-236 0 -409 -137q-201 -160 -201 -426zM266 369q0 188 121 299q115 102 287 102h74l-54 -379q-6 -49 -29.5 -93t-57.5 -76 t-76 -51t-89 -19q-53 0 -100 34q-76 57 -76 183zM336 1151q-2 -20 12 -21h47q12 0 23 23q20 51 69 51q33 0 117 -37q82 -37 131 -37q76 0 127 76q44 58 62 146q2 20 -13 20h-45q-12 0 -22 -22q-31 -55 -72 -56q-18 0 -117 35q-92 37 -145 37q-123 0 -174 -215z" />
<glyph unicode="&#xe4;" d="M78 375q0 -201 115 -305q90 -84 208 -84q160 0 246 100l2 -2l-8 -64q-2 -20 16 -20h136q20 0 22 20l125 885q4 16 -16 21q-127 12 -236 12q-236 0 -409 -137q-201 -160 -201 -426zM266 369q0 188 121 299q115 102 287 102h74l-54 -379q-6 -49 -29.5 -93t-57.5 -76 t-76 -51t-89 -19q-53 0 -100 34q-76 57 -76 183zM360 1286q0 -45 32 -76.5t77 -31.5t77 31.5t32 76.5t-32 77t-77 32t-77 -32t-32 -77zM717 1286q0 -45 31.5 -76.5t76.5 -31.5t77 31.5t32 76.5t-32 77t-77 32t-76.5 -32t-31.5 -77z" />
<glyph unicode="&#xe5;" d="M78 375q0 -201 115 -305q90 -84 208 -84q160 0 246 100l2 -2l-8 -64q-2 -20 16 -20h136q20 0 22 20l125 885q4 16 -16 21q-127 12 -236 12q-236 0 -409 -137q-201 -160 -201 -426zM266 369q0 188 121 299q115 102 287 102h74l-54 -379q-6 -49 -29.5 -93t-57.5 -76 t-76 -51t-89 -19q-53 0 -100 34q-76 57 -76 183zM506 1264q0 -39 15.5 -74t41 -60.5t60 -41t73.5 -15.5t74 15.5t60.5 41t41 60.5t15.5 74t-15.5 73.5t-41 60t-60.5 41t-74 15.5t-73.5 -15.5t-60 -41t-41 -60t-15.5 -73.5zM596 1264q0 41 29.5 71.5t70.5 30.5t72 -30.5 t31 -71.5t-31 -71t-72 -30t-70.5 30t-29.5 71z" />
<glyph unicode="&#xe6;" horiz-adv-x="1497" d="M78 375q0 -201 110 -305q90 -84 203 -84q123 0 201 39q35 16 70.5 46.5t72.5 71.5q106 -162 320 -161q186 0 303 73q16 10 8 29l-51 119q-6 12 -27 4q-76 -51 -198 -51q-88 0 -148 39q-66 43 -82 122q254 -2 424 95q168 98 168 264q0 125 -80 193.5t-209 68.5 q-135 0 -254 -76l6 43q4 16 -16 21q-123 12 -229 12q-229 0 -398 -137q-195 -160 -194 -426zM260 369q0 188 119 299q113 102 278 102h70l-51 -379q-6 -49 -28.5 -93t-54.5 -76t-74 -51t-87 -19q-51 0 -98 34q-74 57 -74 183zM856 469q12 139 115 229q90 78 194 78 q95 0 105 -90q10 -84 -107 -147q-121 -70 -307 -70z" />
<glyph unicode="&#xe7;" horiz-adv-x="839" d="M78 395q0 -168 98 -278q100 -111 244 -131l-29 -119q53 6 81 -9.5t24 -41.5q-6 -55 -150 -56q-20 0 -20 -20l-11 -72q-2 -20 17 -20q10 0 31.5 -2t33.5 -2q98 10 160 53q76 51 76 141q0 100 -103 123l2 23q131 2 236 69q16 10 8 29l-53 117q-10 16 -27 4 q-78 -49 -184 -49t-175 71.5t-69 194.5q0 131 100.5 237.5t237.5 106.5q84 0 162 -33q20 -8 29 6l75 123q12 20 -2 29q-86 49 -247 49q-207 0 -371 -152q-174 -160 -174 -391z" />
<glyph unicode="&#xe8;" horiz-adv-x="931" d="M78 395q0 -197 121 -311q109 -102 278 -102q195 0 311 73q18 12 9 29l-52 119q-8 14 -28 4q-78 -51 -205 -51q-123 0 -186 67q-41 43 -50 94q262 -2 435 95q176 98 176 266q0 125 -85 192.5t-214 67.5q-215 0 -363 -162q-147 -160 -147 -381zM272 469q12 141 117 229 q94 78 201 78q98 0 108 -90q10 -84 -108 -147q-125 -70 -318 -70zM469 1374l152 -268q8 -12 20 -12h72q18 0 16 20l-78 260q-2 20 -16 21h-152q-27 0 -14 -21z" />
<glyph unicode="&#xe9;" horiz-adv-x="931" d="M78 395q0 -197 121 -311q109 -102 278 -102q195 0 311 73q18 12 9 29l-52 119q-8 14 -28 4q-78 -51 -205 -51q-123 0 -186 67q-41 43 -50 94q262 -2 435 95q176 98 176 266q0 125 -85 192.5t-214 67.5q-215 0 -363 -162q-147 -160 -147 -381zM272 469q12 141 117 229 q94 78 201 78q98 0 108 -90q10 -84 -108 -147q-125 -70 -318 -70zM518 1114q-12 -20 10 -20h72q12 0 23 12l225 268q14 20 -8 21h-152q-10 0 -22 -21z" />
<glyph unicode="&#xea;" horiz-adv-x="931" d="M78 395q0 -197 121 -311q109 -102 278 -102q195 0 311 73q18 12 9 29l-52 119q-8 14 -28 4q-78 -51 -205 -51q-123 0 -186 67q-41 43 -50 94q262 -2 435 95q176 98 176 266q0 125 -85 192.5t-214 67.5q-215 0 -363 -162q-147 -160 -147 -381zM272 469q12 141 117 229 q94 78 201 78q98 0 108 -90q10 -84 -108 -147q-125 -70 -318 -70zM336 1106q-14 -20 6 -21h72q8 0 22 15l174 170l152 -170q12 -14 18 -15h70q20 1 12 21l-135 272q-10 16 -18 17h-160q-12 0 -25 -17z" />
<glyph unicode="&#xeb;" horiz-adv-x="931" d="M78 395q0 -197 121 -311q109 -102 278 -102q195 0 311 73q18 12 9 29l-52 119q-8 14 -28 4q-78 -51 -205 -51q-123 0 -186 67q-41 43 -50 94q262 -2 435 95q176 98 176 266q0 125 -85 192.5t-214 67.5q-215 0 -363 -162q-147 -160 -147 -381zM272 469q12 141 117 229 q94 78 201 78q98 0 108 -90q10 -84 -108 -147q-125 -70 -318 -70zM303 1286q0 -45 32 -76.5t77 -31.5t76.5 31.5t31.5 76.5t-31.5 77t-76.5 32t-77 -32t-32 -77zM659 1286q0 -45 32 -76.5t77 -31.5t77 31.5t32 76.5t-32 77t-77 32t-77 -32t-32 -77z" />
<glyph unicode="&#xec;" horiz-adv-x="481" d="M111 20q-2 -20 16 -20h131q20 0 23 20l118 879q2 20 -16 21h-131q-20 0 -23 -21zM219 1374l154 -268q6 -12 18 -12h72q24 0 16 20l-76 260q-8 20 -18 21h-152q-23 0 -14 -21z" />
<glyph unicode="&#xed;" horiz-adv-x="479" d="M111 20q-2 -20 16 -20h131q20 0 23 20l118 879q2 20 -16 21h-131q-20 0 -23 -21zM213 1114q-12 -20 10 -20h72q12 0 22 12l226 268q14 20 -8 21h-152q-10 0 -23 -21z" />
<glyph unicode="&#xee;" horiz-adv-x="483" d="M94 1106q-14 -20 6 -21h72q8 0 23 15l174 170l151 -170q12 -14 19 -15h69q21 1 13 21l-136 272q-10 16 -18 17h-160q-12 0 -24 -17zM111 20q-2 -20 16 -20h131q20 0 23 20l118 879q2 20 -16 21h-131q-20 0 -23 -21z" />
<glyph unicode="&#xef;" horiz-adv-x="485" d="M80 1286q0 -45 31.5 -76.5t76.5 -31.5t77 31.5t32 76.5t-32 77t-77 32t-76.5 -32t-31.5 -77zM111 20q-2 -20 16 -20h131q20 0 23 20l118 879q2 20 -16 21h-131q-20 0 -23 -21zM436 1286q0 -45 32 -76.5t77 -31.5t76.5 31.5t31.5 76.5t-31.5 77t-76.5 32t-77 -32t-32 -77z " />
<glyph unicode="&#xf0;" horiz-adv-x="1024" />
<glyph unicode="&#xf1;" horiz-adv-x="1036" d="M92 20q-2 -20 17 -20h135q20 0 22 20l66 463q14 106 88 195q82 100 194 100q76 0 105 -59q18 -41 18 -125q0 -20 -2 -45t-6 -53l-65 -476q-2 -20 16 -20h135q20 0 23 20l67 498q4 29 6 54.5t2 45.5q0 315 -245 316q-78 0 -133 -16q-72 -20 -152 -95l-2 2l8 74 q2 20 -16 21h-135q-20 0 -23 -21zM340 1151q-2 -20 12 -21h47q12 0 23 23q20 51 70 51q31 0 114 -37q82 -37 133 -37q136 1 189 222q2 20 -13 20h-47q-12 0 -22 -22q-29 -55 -70 -56q-18 0 -117 35q-96 37 -145 37q-123 0 -174 -215z" />
<glyph unicode="&#xf2;" horiz-adv-x="1040" d="M78 389q0 -188 123 -301q113 -106 282 -106q207 0 346 157q140 162 140 391q0 184 -121 299q-115 109 -283 109q-197 0 -338 -154q-150 -158 -149 -395zM254 414q0 150 90 256q88 106 211 106q111 0 175.5 -75.5t64.5 -198.5q0 -145 -86 -252q-82 -106 -211 -107 q-49 0 -94.5 19.5t-78 54.5t-52 85t-19.5 112zM461 1374l151 -268q8 -12 19 -12h74q18 0 16 20l-78 260q-2 20 -18 21h-150q-27 0 -14 -21z" />
<glyph unicode="&#xf3;" horiz-adv-x="1040" d="M78 389q0 -188 123 -301q113 -106 282 -106q207 0 346 157q140 162 140 391q0 184 -121 299q-115 109 -283 109q-197 0 -338 -154q-150 -158 -149 -395zM254 414q0 150 90 256q88 106 211 106q111 0 175.5 -75.5t64.5 -198.5q0 -145 -86 -252q-82 -106 -211 -107 q-49 0 -94.5 19.5t-78 54.5t-52 85t-19.5 112zM432 1114q-12 -20 10 -20h74q12 0 23 12l225 268q14 20 -8 21h-152q-12 0 -24 -21z" />
<glyph unicode="&#xf4;" horiz-adv-x="1040" d="M78 389q0 -188 123 -301q113 -106 282 -106q207 0 346 157q140 162 140 391q0 184 -121 299q-115 109 -283 109q-197 0 -338 -154q-150 -158 -149 -395zM254 414q0 150 90 256q88 106 211 106q111 0 175.5 -75.5t64.5 -198.5q0 -145 -86 -252q-82 -106 -211 -107 q-49 0 -94.5 19.5t-78 54.5t-52 85t-19.5 112zM330 1106q-14 -20 6 -21h72q8 0 22 15l174 170l152 -170q12 -14 18 -15h70q20 1 12 21l-135 272q-10 16 -19 17h-159q-12 0 -25 -17z" />
<glyph unicode="&#xf5;" horiz-adv-x="1040" d="M78 389q0 -188 123 -301q113 -106 282 -106q207 0 346 157q140 162 140 391q0 184 -121 299q-115 109 -283 109q-197 0 -338 -154q-150 -158 -149 -395zM254 414q0 150 90 256q88 106 211 106q111 0 175.5 -75.5t64.5 -198.5q0 -145 -86 -252q-82 -106 -211 -107 q-49 0 -94.5 19.5t-78 54.5t-52 85t-19.5 112zM338 1151q-2 -20 12 -21h47q12 0 23 23q20 51 69 51q35 0 115 -37q82 -37 133 -37q136 1 189 222q2 20 -13 20h-47q-14 0 -20 -22q-31 -55 -72 -56q-18 0 -117 35q-96 37 -145 37q-123 0 -174 -215z" />
<glyph unicode="&#xf6;" horiz-adv-x="1040" d="M78 389q0 -188 123 -301q113 -106 282 -106q207 0 346 157q140 162 140 391q0 184 -121 299q-115 109 -283 109q-197 0 -338 -154q-150 -158 -149 -395zM254 414q0 150 90 256q88 106 211 106q111 0 175.5 -75.5t64.5 -198.5q0 -145 -86 -252q-82 -106 -211 -107 q-49 0 -94.5 19.5t-78 54.5t-52 85t-19.5 112zM367 1286q0 -45 31.5 -76.5t76.5 -31.5t77 31.5t32 76.5t-32 77t-77 32t-76.5 -32t-31.5 -77zM723 1286q0 -45 31.5 -76.5t76.5 -31.5t77 31.5t32 76.5t-31.5 77t-77.5 32q-45 0 -76.5 -32t-31.5 -77z" />
<glyph unicode="&#xf7;" />
<glyph unicode="&#xf8;" horiz-adv-x="1028" d="M78 389q0 -168 98 -274l-86 -97q-10 -14 -2 -28l29 -31q12 -14 28 2l88 100q104 -80 250 -79q207 0 346 157q139 162 140 391q0 158 -86 263l90 100q14 15 2 29l-29 30q-10 14 -26 -2l-93 -102q-109 90 -262 90q-197 0 -338 -154q-150 -158 -149 -395zM254 414 q0 150 90 256q88 106 211 106q92 0 158 -59l-416 -465q-43 70 -43 162zM352 193l408 460q35 -65 35 -151q0 -145 -86 -252q-82 -106 -211 -107q-84 0 -146 50z" />
<glyph unicode="&#xf9;" horiz-adv-x="1003" d="M115 254q0 -76 26 -131q63 -141 301 -141q223 0 332 145q74 98 94 248l76 524q2 20 -16 21h-135q-20 0 -23 -21l-70 -481q-14 -113 -41 -162q-12 -25 -35.5 -47.5t-51 -37.5t-57.5 -24.5t-56 -9.5q-143 0 -166 96q-8 31 10 166l70 500q2 20 -17 21h-135q-20 0 -22 -21 l-74 -524q-4 -37 -7 -68t-3 -53zM479 1374l152 -268q8 -12 20 -12h72q18 0 16 20l-77 260q-2 20 -17 21h-151q-27 0 -15 -21z" />
<glyph unicode="&#xfa;" horiz-adv-x="1003" d="M115 254q0 -76 26 -131q63 -141 301 -141q223 0 332 145q74 98 94 248l76 524q2 20 -16 21h-135q-20 0 -23 -21l-70 -481q-14 -113 -41 -162q-12 -25 -35.5 -47.5t-51 -37.5t-57.5 -24.5t-56 -9.5q-143 0 -166 96q-8 31 10 166l70 500q2 20 -17 21h-135q-20 0 -22 -21 l-74 -524q-4 -37 -7 -68t-3 -53zM504 1114q-12 -20 10 -20h72q12 0 22 12l226 268q14 20 -9 21h-151q-10 0 -23 -21z" />
<glyph unicode="&#xfb;" horiz-adv-x="1003" d="M115 254q0 -76 26 -131q63 -141 301 -141q223 0 332 145q74 98 94 248l76 524q2 20 -16 21h-135q-20 0 -23 -21l-70 -481q-14 -113 -41 -162q-12 -25 -35.5 -47.5t-51 -37.5t-57.5 -24.5t-56 -9.5q-143 0 -166 96q-8 31 10 166l70 500q2 20 -17 21h-135q-20 0 -22 -21 l-74 -524q-4 -37 -7 -68t-3 -53zM354 1106q-14 -20 6 -21h72q8 0 23 15l176 170l149 -170q12 -14 19 -15h69q23 1 15 21l-138 272q-10 16 -18 17h-160q-10 0 -22 -17z" />
<glyph unicode="&#xfc;" horiz-adv-x="1011" d="M115 254q0 -76 26 -131q63 -141 301 -141q223 0 332 145q74 98 94 248l76 524q2 20 -16 21h-135q-20 0 -23 -21l-70 -481q-14 -113 -41 -162q-12 -25 -35.5 -47.5t-51 -37.5t-57.5 -24.5t-56 -9.5q-143 0 -166 96q-8 31 10 166l70 500q2 20 -17 21h-135q-20 0 -22 -21 l-74 -524q-4 -37 -7 -68t-3 -53zM381 1286q0 -45 31.5 -76.5t76.5 -31.5t77 31.5t32 76.5t-31.5 77t-77.5 32q-45 0 -76.5 -32t-31.5 -77zM737 1286q0 -45 32 -76.5t77 -31.5t76.5 31.5t31.5 76.5t-31.5 77t-76.5 32t-77 -32t-32 -77z" />
<glyph unicode="&#xfd;" horiz-adv-x="1024" />
<glyph unicode="&#xfe;" horiz-adv-x="1024" />
<glyph unicode="&#xff;" horiz-adv-x="870" d="M14 -449q-4 -20 17 -20q170 8 291 115q115 98 208 309l428 936q12 29 -8 29h-155q-20 0 -27 -15q-125 -295 -196.5 -464t-92.5 -216q-53 238 -91 407t-60 273q-2 14 -25 15h-160q-20 0 -16 -29q70 -252 128 -476.5t107 -428.5q-55 -133 -145 -209q-84 -66 -164 -66 q-20 0 -20 -20zM248 1286q0 -45 31.5 -76.5t76.5 -31.5t77 31.5t32 76.5t-32 77t-77 32t-76.5 -32t-31.5 -77zM604 1286q0 -45 32 -76.5t77 -31.5t76.5 31.5t31.5 76.5t-31.5 77t-76.5 32t-77 -32t-32 -77z" />
<glyph unicode="&#x152;" horiz-adv-x="2166" d="M84 575q0 -283 172 -444q156 -150 391 -149q250 0 445 176l-21 -138q0 -20 19 -20h970q23 0 23 20l18 121q2 20 -16 21h-809l63 461h621q20 0 22 20l19 123q2 20 -16 20h-621l61 447h703q20 0 22 20l19 121q0 20 -19 21h-866q-20 0 -22 -21l-23 -170q-166 211 -446 211 q-287 0 -496 -239q-213 -248 -213 -601zM272 588q0 285 166 475q152 176 350 176q164 0 273 -111q113 -114 113 -315q0 -289 -154 -475q-150 -180 -365 -180q-162 0 -266 104q-117 113 -117 326z" />
<glyph unicode="&#x153;" horiz-adv-x="1630" d="M78 389q0 -188 123 -301q113 -106 282 -106q213 0 359 170q109 -170 334 -170q193 0 313 73q16 14 8 29l-53 119q-10 16 -27 4q-82 -51 -205 -51q-125 0 -188 67q-41 43 -49 94q266 -2 438 95q172 94 172 264q0 129 -85 195.5t-214 66.5q-225 0 -379 -180 q-113 180 -342 180q-197 0 -338 -154q-150 -158 -149 -395zM254 414q0 150 90 256q88 106 211 106q111 0 175.5 -75.5t64.5 -198.5q0 -145 -86 -252q-82 -106 -211 -107q-49 0 -94.5 19.5t-78 54.5t-52 85t-19.5 112zM971 469q16 141 119 229q94 78 198 78q99 0 109 -90 q10 -84 -109 -147q-125 -70 -317 -70z" />
<glyph unicode="&#x178;" horiz-adv-x="1093" d="M127 1384.5q-4 -10.5 2 -16.5l354 -743l-84 -605q-2 -20 17 -20h145q20 0 23 20l84 605l524 743q8 6 8 16t-12 11h-166q-23 0 -37 -21l-385 -577l-256 577q-8 20 -31 21h-172q-10 0 -14 -10.5zM463 1663q0 -45 31.5 -77t76.5 -32t77 32t32 77t-32 77t-77 32t-76.5 -32 t-31.5 -77zM819 1663q0 -45 32 -77t77 -32t76.5 32t31.5 77t-31.5 77t-76.5 32t-77 -32t-32 -77z" />
<glyph unicode="&#x2c6;" horiz-adv-x="518" d="M172 1106q-14 -20 8 -21h70q8 0 22 15l177 170l149 -170q12 -14 18 -15h72q20 1 12 21l-137 272q-10 16 -18 17h-160q-10 0 -23 -17z" />
<glyph unicode="&#x2dc;" horiz-adv-x="518" d="M154 1151q-2 -20 12 -21h47q12 0 23 23q20 51 69 51q31 0 115 -37q82 -37 131 -37q76 0 127 76q43 58 61 146q8 20 -12 20h-45q-12 0 -23 -22q-29 -55 -69 -56q-18 0 -117 35q-96 37 -145 37q-129 0 -174 -215z" />
<glyph unicode="&#x2000;" horiz-adv-x="952" />
<glyph unicode="&#x2001;" horiz-adv-x="1905" />
<glyph unicode="&#x2002;" horiz-adv-x="952" />
<glyph unicode="&#x2003;" horiz-adv-x="1905" />
<glyph unicode="&#x2004;" horiz-adv-x="635" />
<glyph unicode="&#x2005;" horiz-adv-x="476" />
<glyph unicode="&#x2006;" horiz-adv-x="317" />
<glyph unicode="&#x2007;" horiz-adv-x="317" />
<glyph unicode="&#x2008;" horiz-adv-x="238" />
<glyph unicode="&#x2009;" horiz-adv-x="381" />
<glyph unicode="&#x200a;" horiz-adv-x="105" />
<glyph unicode="&#x2010;" horiz-adv-x="860" d="M182 385q-2 -20 17 -20h424q20 0 22 20l19 131q0 20 -17 21h-426q-20 0 -20 -21z" />
<glyph unicode="&#x2011;" horiz-adv-x="860" d="M182 385q-2 -20 17 -20h424q20 0 22 20l19 131q0 20 -17 21h-426q-20 0 -20 -21z" />
<glyph unicode="&#x2012;" horiz-adv-x="860" d="M182 385q-2 -20 17 -20h424q20 0 22 20l19 131q0 20 -17 21h-426q-20 0 -20 -21z" />
<glyph unicode="&#x2013;" horiz-adv-x="1083" d="M117 473q-2 -20 16 -20h948q20 0 23 20l12 90q0 20 -16 21h-948q-20 0 -23 -21z" />
<glyph unicode="&#x2014;" horiz-adv-x="2037" d="M117 473q-2 -20 16 -20h1903q20 0 22 20l13 90q0 20 -17 21h-1902q-20 0 -23 -21z" />
<glyph unicode="&#x2018;" horiz-adv-x="475" d="M168 1069q0 -74 34 -118t87 -44q119 0 135 140q6 53 -20.5 92t-67.5 43q27 88 106 155q17 13 11 29l-23 43q-4 4 -18 4q-102 -41 -172 -139q-72 -100 -72 -205z" />
<glyph unicode="&#x2019;" horiz-adv-x="616" d="M246 956l22 -43q3 -6 19 -6q100 39 171.5 139.5t71.5 204.5q0 74 -33.5 118t-86.5 44q-117 0 -134 -139q-6 -53 21 -92t65 -43q-29 -90 -106 -154q-16 -16 -10 -29z" />
<glyph unicode="&#x201a;" horiz-adv-x="616" d="M246 -201l22 -43q3 -6 19 -6q102 41 172 139q72 100 71 205q0 74 -33.5 118t-86.5 44q-117 0 -134 -139q-6 -53 21 -92t65 -43q-29 -90 -106 -154q-16 -16 -10 -29z" />
<glyph unicode="&#x201c;" horiz-adv-x="915" d="M168 1069q0 -74 34 -118t87 -44q119 0 135 140q6 53 -20.5 92t-67.5 43q27 88 106 155q17 13 11 29l-23 43q-4 4 -18 4q-102 -41 -172 -139q-72 -100 -72 -205zM588 1069q0 -74 33.5 -118t87.5 -44q117 0 133 140q6 53 -20.5 92t-65.5 43q27 88 106 155q16 13 10 29 l-22 43q-4 6 -19 4q-102 -41 -172 -139q-72 -100 -71 -205z" />
<glyph unicode="&#x201d;" horiz-adv-x="1056" d="M246 956l22 -43q3 -6 19 -6q100 39 171.5 139.5t71.5 204.5q0 74 -33.5 118t-86.5 44q-117 0 -134 -139q-6 -53 21 -92t65 -43q-29 -90 -106 -154q-16 -16 -10 -29zM666 956l22 -43q3 -6 19 -6q102 41 172 137q72 102 71 207q0 74 -33.5 118t-89.5 44q-117 0 -133 -139 q-6 -53 20.5 -92t67.5 -43q-29 -90 -106 -154q-20 -20 -10 -29z" />
<glyph unicode="&#x201e;" horiz-adv-x="1079" d="M190 -201l23 -43q2 -6 18 -6q102 41 172 139q72 100 72 205q0 74 -33.5 118t-87.5 44q-117 0 -133 -139q-6 -53 20.5 -92t65.5 -43q-29 -90 -106 -154q-16 -16 -11 -29zM610 -201l23 -43q2 -6 18 -6q102 41 172 139q72 100 72 203q0 74 -35 119t-88 45q-49 0 -87 -37 t-46 -102q-6 -53 20.5 -92t67.5 -43q-29 -90 -106 -154q-20 -20 -11 -29z" />
<glyph unicode="&#x2022;" horiz-adv-x="753" d="M133 698q0 -104 74 -180q76 -74 180 -74t178 74q76 76 76 180t-76 179q-74 76 -178 75q-104 0 -180 -75q-74 -74 -74 -179z" />
<glyph unicode="&#x2026;" horiz-adv-x="1845" d="M158 104q0 -51 35.5 -86.5t87.5 -35.5q51 0 86.5 35.5t35.5 86.5t-35.5 87t-86.5 36t-87 -35.5t-36 -87.5zM795 104q0 -51 35.5 -86.5t87.5 -35.5q51 0 86.5 35.5t35.5 86.5t-35.5 87t-86.5 36t-87 -35.5t-36 -87.5zM1432 104q0 -51 35.5 -86.5t86.5 -35.5t87 35.5 t36 86.5t-35.5 87t-87.5 36q-51 0 -86.5 -35.5t-35.5 -87.5z" />
<glyph unicode="&#x202f;" horiz-adv-x="381" />
<glyph unicode="&#x2039;" horiz-adv-x="557" d="M27 440l198 -420q8 -20 29 -20h129q16 0 8 20l-194 441l323 440q14 20 -4 21h-137q-18 0 -33 -21l-313 -420q-14 -20 -6 -41z" />
<glyph unicode="&#x203a;" horiz-adv-x="602" d="M84 20q-14 -20 4 -20h135q20 0 35 20l313 420q15 21 7 41l-201 420q-6 20 -29 21h-127q-16 0 -8 -21l195 -440z" />
<glyph unicode="&#x205f;" horiz-adv-x="476" />
<glyph unicode="&#x20ac;" horiz-adv-x="1245" d="M2 498q-2 -20 16 -21h111q43 -233 225 -373q166 -123 379 -122q233 0 397 79q20 6 11 29l-56 129q-6 14 -24 6q-141 -66 -301 -65q-145 0 -264 82q-125 86 -168 235h450q10 0 23 21l71 112q12 20 -8 21h-555q2 68 17 121h628q10 0 23 20l72 113q14 20 -9 20h-657 q84 152 223 240q141 92 289 92q125 0 266 -41q23 -4 29 6l80 129q16 23 -2 29q-121 55 -357 55q-229 0 -434 -143q-205 -141 -301 -367h-100q-18 0 -21 -20l-16 -113q0 -20 16 -20h76q-4 -27 -8 -56.5t-6 -64.5h-78q-20 0 -23 -21z" />
<glyph unicode="&#x2122;" horiz-adv-x="1499" d="M176 1372q-2 -27 21 -26h178l-80 -594q-2 -27 20 -27h72q25 0 27 27l82 594h178q27 0 28 26l9 66q2 27 -21 26h-477q-27 0 -29 -26zM657 752q-2 -27 21 -27h70q25 0 26 27l62 452l129 -293q8 -18 20 -18h55q14 0 27 18l207 293l-62 -452q-2 -27 21 -27h67q27 0 29 27 l94 686q2 27 -20 26h-70q-14 0 -22 -14l-275 -391l-168 387l-2 4q-6 14 -18 14h-70q-25 0 -26 -26z" />
<glyph unicode="&#x25fc;" horiz-adv-x="921" d="M0 0v922h922v-922h-922z" />
</font>
</defs>
</svg>
