<?xml version="1.0" standalone="no"?>
<!DOCTYPE svg PUBLIC "-//W3C//DTD SVG 1.1//EN" "http://www.w3.org/Graphics/SVG/1.1/DTD/svg11.dtd" >
<svg xmlns="http://www.w3.org/2000/svg">
<metadata></metadata>
<defs>
<font id="houschkaaltblackitalicregular" horiz-adv-x="1187" >
<font-face units-per-em="2048" ascent="1638" descent="-410" />
<missing-glyph horiz-adv-x="557" />
<glyph horiz-adv-x="2048" />
<glyph horiz-adv-x="2048" />
<glyph unicode="&#xd;" horiz-adv-x="1024" />
<glyph unicode=" "  horiz-adv-x="557" />
<glyph unicode="&#x09;" horiz-adv-x="557" />
<glyph unicode="&#xa0;" horiz-adv-x="557" />
<glyph unicode="!" horiz-adv-x="569" d="M66 160q0 -74 52 -126t126 -52t126 52t52 126q0 76 -52.5 128t-125.5 52q-74 0 -126 -52t-52 -128zM188 913l11 -495q0 -20 28 -21h86q29 0 35 21l154 495q14 45 24.5 97.5t20.5 111.5q8 47 8 95q0 197 -147 196q-170 0 -209 -291q-6 -47 -9.5 -98t-1.5 -111z" />
<glyph unicode="&#x22;" horiz-adv-x="1009" />
<glyph unicode="#" horiz-adv-x="1376" d="M8 227q-4 -31 23 -30h135l-109 -334q-10 -29 25 -29h156q20 0 30 29l109 334h289l-107 -334q-4 -10 4 -19.5t19 -9.5h155q16 0 33 29l107 334h270q23 0 33 30l20 158q2 31 -22 31h-230l88 268h176q27 0 31 31l23 159q4 29 -23 29h-135l106 332q4 10 -3 19.5t-19 9.5h-158 q-20 0 -30 -29l-107 -332h-291l107 332q4 10 -3.5 19.5t-19.5 9.5h-155q-16 0 -33 -29l-107 -332h-268q-29 0 -33 -29l-20 -159q-4 -31 22 -31h228l-86 -268h-177q-25 0 -32 -31zM449 416l86 268h290l-88 -268h-288z" />
<glyph unicode="$" horiz-adv-x="1081" d="M35 133q-20 -27 2 -43q131 -98 313 -106l-6 -58q-10 -31 23 -30h143q27 0 31 30l8 66q186 31 295.5 139.5t109.5 267.5q0 139 -106 234q-16 14 -62.5 44t-123.5 77l-11 6l41 297q84 -25 115 -39q27 -8 35 6l125 197q14 20 -13 28q-51 23 -107 38.5t-122 19.5l12 86 q4 29 -24 28h-142q-29 0 -32 -28l-13 -90q-188 -29 -297 -144q-102 -109 -102 -246q0 -135 92 -223q49 -51 189 -127l18 -10l-43 -326q-100 16 -176 74q-23 16 -37 -4zM414 944q0 74 80 103l-25 -187q-55 43 -55 84zM584 248l26 194q54 -43 54 -90q0 -72 -80 -104z" />
<glyph unicode="%" horiz-adv-x="1390" d="M96 10q-23 -29 4 -28h244q8 0 31 28l987 1374q23 29 -10 29h-238q-8 0 -31 -29zM129 1053q0 -61 20.5 -110.5t57.5 -84.5t85 -53.5t103 -18.5q137 0 228 103q92 104 92 256q0 61 -20.5 110.5t-56.5 85t-85 54t-104 18.5q-129 0 -222 -100q-98 -109 -98 -260zM338 1083 q0 51 27.5 89t66.5 38q70 0 70 -102q0 -43 -26.5 -83t-63.5 -40q-74 0 -74 98zM741 250q0 -61 20.5 -110.5t57.5 -84.5t85 -53t104 -18q137 0 227 102q90 106 90 256q0 61 -20.5 110.5t-56.5 84t-84 54t-103 19.5q-129 0 -223 -100q-96 -109 -97 -260zM948 281q0 51 28 89 t66 38q70 -1 70 -103q0 -43 -26.5 -83t-63.5 -40q-29 0 -51.5 27t-22.5 72z" />
<glyph unicode="&#x26;" horiz-adv-x="1382" d="M84 332q0 -158 102 -254q109 -100 312 -101q201 0 370 125q88 -70 125 -90q57 -31 135 -30q27 0 31 28l31 223q4 25 -23 31q-63 16 -96 51q39 66 64.5 139.5t35.5 155.5q4 29 -22 29h-203q-27 0 -30 -25.5t-5 -48.5q-6 -45 -20 -67q-45 70 -78 122t-55 87q127 80 182 137 q86 92 107 209q6 33 6 65q0 119 -80 197q-76 70 -187 69q-319 0 -395 -288q-10 -41 -10 -84q0 -98 33 -197q-268 -152 -318 -371q-12 -59 -12 -112zM360 365q0 45 15 75q39 94 133 142q84 -164 190 -299q-84 -53 -161 -54q-176 0 -177 136zM639 1030q0 31 8 49q18 53 82 54 q33 0 43 -31q8 -29 0 -49q-20 -59 -115 -113q-18 55 -18 90z" />
<glyph unicode="'" horiz-adv-x="468" d="M96 829l37 -55q2 -6 27 -6q152 49 252 161.5t100 227.5q0 117 -54.5 186.5t-148.5 69.5q-80 0 -130 -46t-50 -132q0 -70 43 -116t115 -56q-20 -63 -45 -94q-18 -23 -50 -48.5t-77 -54.5q-31 -18 -19 -37z" />
<glyph unicode="(" horiz-adv-x="647" d="M72 389q0 -303 118 -586q88 -213 148 -258q20 -18 37 -18h110q25 0 13 22q-147 279 -148 695q0 92 8.5 186t24.5 193q53 297 186 530q25 45 179 248q8 8 6 14q-2 8 -13 8h-116q-20 0 -45 -18q-145 -115 -224 -205q-209 -248 -264 -575q-10 -59 -15 -117.5t-5 -118.5z" />
<glyph unicode=")" horiz-adv-x="675" d="M-76 -451q-16 -23 6 -22h119q20 0 43 18q145 115 223 205q210 248 265 576q10 59 15 117.5t5 117.5q0 303 -119 586q-86 207 -145 258q-23 18 -39 18h-111q-25 0 -12 -22q147 -281 148 -694q0 -92 -8.5 -186.5t-24.5 -192.5q-16 -104 -45 -200.5t-70 -188.5 q-29 -66 -65.5 -128.5t-77.5 -121.5q-27 -35 -53.5 -70t-53.5 -70z" />
<glyph unicode="*" horiz-adv-x="712" d="M129 1038l47 -118q8 -20 29 -11l119 72l-19 -141q-4 -23 19 -23h129q20 0 24 23l19 141l100 -72q16 -10 31 9l80 122q14 18 -2 31l-101 72l117 69q20 13 12 31l-47 121q-8 20 -29 8l-118 -69l18 141q4 23 -16 22h-131q-23 0 -23 -22l-18 -141l-101 71q-16 12 -30 -8 l-82 -123q-14 -20 4 -31l98 -71l-117 -70q-20 -12 -12 -33z" />
<glyph unicode="+" horiz-adv-x="1134" d="M141 621q-4 -29 23 -29h293l-43 -322q-4 -31 22 -30h207q29 0 33 30l43 322h291q27 0 30 29l29 204q4 29 -25 29h-290l43 322q2 31 -23 30h-209q-29 0 -30 -30l-43 -322h-291q-23 0 -33 -29z" />
<glyph unicode="," horiz-adv-x="659" d="M72 -238l34 -53q10 -16 27 -6q152 47 250 160q100 108 100 223q0 117 -54 183.5t-148 66.5q-78 0 -128.5 -44t-50.5 -130q0 -147 158 -170q-10 -29 -21.5 -52.5t-25.5 -39.5q-37 -43 -125 -101q-29 -18 -16 -37z" />
<glyph unicode="-" horiz-adv-x="862" d="M180 317q-4 -29 25 -28h399q27 0 31 28l29 211q4 29 -25 29h-397q-29 0 -33 -29z" />
<glyph unicode="." horiz-adv-x="671" d="M127 160q0 -74 52 -126t126 -52q76 0 128 52t52 126q0 76 -52 128t-128 52q-74 0 -126 -52t-52 -128z" />
<glyph unicode="/" horiz-adv-x="876" d="M-98 -2q-6 -10 0 -21q2 -8 16 -8h254q14 0 33 29l856 1399q18 29 -19 28h-254q-14 0 -32 -28z" />
<glyph unicode="0" d="M74 420q0 -248 159 -361q115 -82 302 -82q281 0 438 207q147 187 147 488q0 444 -461 444q-281 0 -440 -209q-145 -193 -145 -487zM375 457q0 168 69 282q74 125 195 125q176 0 176 -231q0 -168 -67 -281q-72 -123 -193 -123q-180 0 -180 228z" />
<glyph unicode="1" d="M84 31q-4 -31 25 -31h841q29 0 33 31l27 182q2 31 -27 31h-231l118 843q4 29 -26 29h-168q-37 0 -64 -6l-350 -76q-33 -6 -37 -41l-24 -172q-2 -37 24 -33l303 41l-82 -585h-303q-33 0 -34 -31z" />
<glyph unicode="2" d="M104 63q-8 -63 50 -63h749q51 0 58 47l22 160q6 49 -45 49h-477q29 61 137 123q45 23 88 43t86 41q285 137 285 352q0 70 -26.5 126t-74 95t-113 59.5t-141.5 20.5q-283 0 -464 -168q-31 -27 -9 -55l107 -139q25 -25 55 4q125 119 258 119q119 0 119 -89q0 -55 -61 -100 q-23 -16 -63 -37.5t-99 -46.5q-152 -66 -250 -141q-156 -123 -180 -320z" />
<glyph unicode="3" d="M47 -172q-16 -29 0 -41q92 -66 184 -86q72 -16 185 -16q236 0 383 141q135 131 135 315q0 180 -168 291q92 55 150.5 148.5t58.5 193.5q0 150 -105 246q-102 96 -276 96q-127 0 -318 -84q-29 -16 -12 -43l88 -176q12 -25 39 -10q90 53 164 53q125 0 125 -115 q0 -82 -64 -139q-70 -66 -170 -65h-12q-6 0 -16 2h-37q-27 0 -29 -19l-39 -221q-6 -25 25 -25q6 0 30.5 3.5t53.5 3.5q211 0 211 -170q0 -53 -45 -99q-55 -57 -156 -57q-141 0 -235 70q-27 18 -41 -9z" />
<glyph unicode="4" d="M12 31q-4 -31 27 -31h551l-37 -252q-4 -29 27 -29h243q31 0 35 29l35 252h184q29 0 33 31l27 182q2 31 -27 31h-182l116 839q2 31 -24 31h-229q-23 0 -50 -31l-675 -800q-18 -23 -23 -45zM336 244l344 405l-57 -405h-287z" />
<glyph unicode="5" d="M135 -160q-16 -29 2 -41q94 -66 180 -92q80 -23 195 -22q211 0 365 153q155 154 155 377q0 188 -94 301q-100 125 -299 125q-72 0 -139 -20l39 225h432q27 0 30 28l17 195q4 29 -27 29h-661q-18 0 -27 -27l-123 -704q-4 -23 27 -31l178 -45q18 -2 27 6q84 96 184 96 q72 0 108.5 -54t36.5 -130q0 -113 -71 -191q-63 -70 -146 -69q-137 0 -237 92q-20 18 -41 -8z" />
<glyph unicode="6" d="M135 516q0 -535 438 -534q223 0 363 165q129 156 129 379q0 84 -25.5 153t-71.5 118t-113 75.5t-148 26.5q-141 0 -263 -72q43 150 134.5 234t201.5 84q98 0 166 -25q33 -12 41 6l88 222q8 27 -14 32q-117 33 -254 33q-322 0 -512 -313q-160 -262 -160 -584zM438 403 q0 49 17.5 92.5t48.5 74t69.5 48t81.5 17.5q121 0 121 -152q0 -82 -39 -151q-49 -88 -131 -88q-98 0 -141 69q-27 39 -27 90z" />
<glyph unicode="7" d="M78 -268q-18 -29 14 -29h273q29 0 45 29l641 1104q8 12 11 21l5 15l27 197q4 29 -25 29h-872q-29 0 -33 -29l-37 -369q-4 -31 25 -30h192q29 0 33 30l20 146h379q-86 -123 -135 -195.5t-66 -101.5z" />
<glyph unicode="8" d="M96 338q0 -166 121 -262q119 -94 313 -94q242 0 388 96q166 113 165 342q0 178 -186 313q207 134 207 359q0 156 -125 243q-109 78 -256 78q-229 0 -356 -95t-127 -255q0 -176 166 -320q-158 -90 -203 -135q-106 -100 -107 -270zM387 381q0 68 78 121q10 8 51 28.5 t113 55.5q162 -113 162 -205q0 -53 -54 -94q-63 -47 -166 -47q-184 0 -184 141zM526 1073q0 90 179 90q114 0 114 -119q0 -47 -51 -98q-53 -53 -98 -72q-143 106 -144 199z" />
<glyph unicode="9" d="M125 -250q-10 -25 14 -33q129 -33 254 -32q313 0 506 303q166 260 166 594q0 535 -438 534q-225 0 -363 -166q-129 -158 -129 -379q0 -84 24.5 -152.5t72 -117.5t113 -75.5t149.5 -26.5q139 0 266 86q-43 -160 -135.5 -246t-204.5 -86q-98 0 -166 24q-33 12 -41 -6z M424 614q0 84 43 156q53 84 135 84q160 0 160 -160q0 -49 -17.5 -92t-48 -73.5t-69.5 -48t-82 -17.5q-121 0 -121 151z" />
<glyph unicode=":" horiz-adv-x="641" d="M127 160q0 -74 52 -126t126 -52q76 0 128 52t52 126q0 76 -52 128t-128 52q-74 0 -126 -52t-52 -128zM223 760q0 -76 52.5 -128t125.5 -52q74 0 126.5 52t52.5 128q0 74 -52.5 126t-126.5 52t-126 -52t-52 -126z" />
<glyph unicode=";" horiz-adv-x="641" d="M90 -238l35 -53q10 -16 27 -6q152 47 249 160q101 108 101 223q0 117 -54.5 183.5t-148.5 66.5q-78 0 -128 -44t-50 -130q0 -147 158 -170q-10 -29 -21.5 -52.5t-26.5 -39.5q-37 -43 -125 -101q-29 -18 -16 -37zM223 760q0 -76 52.5 -128t125.5 -52q74 0 126.5 52 t52.5 128q0 74 -52.5 126t-126.5 52t-126 -52t-52 -126z" />
<glyph unicode="&#x3c;" horiz-adv-x="1175" d="M197 578q-4 -31 24 -43l793 -320q25 -10 28 18l31 246q2 33 -24 43l-570 197l621 194q33 8 37 48l34 256q2 12 -5 19t-21 1l-873 -322q-33 -10 -34 -43z" />
<glyph unicode="=" horiz-adv-x="1103" d="M109 432q-4 -29 24 -29h830q27 0 30 29l27 203q2 31 -23 31h-829q-29 0 -31 -31zM160 811q-4 -31 22 -31h830q27 0 30 31l29 203q4 29 -24 28h-828q-23 0 -33 -28z" />
<glyph unicode="&#x3e;" horiz-adv-x="1169" d="M74 233q-2 -12 4 -18q6 -2 20 0l877 320q33 10 35 43l41 294q4 35 -23 43l-795 320q-27 10 -28 -16l-31 -248q-4 -31 25 -41l569 -197l-621 -196q-33 -8 -36 -41z" />
<glyph unicode="?" horiz-adv-x="999" d="M133 1227l86 -183q18 -27 37 -8q125 119 256 119q84 0 123 -51q29 -39 29 -88q0 -80 -76 -144q-98 -82 -149.5 -124.5t-57.5 -51.5q-88 -94 -119 -254q-6 -29 25 -28h225q20 0 31 28q25 78 84 138q31 31 116 88q213 146 213 379q0 162 -108.5 264t-280.5 102 q-233 0 -422 -145q-23 -18 -12 -41zM207 160q0 -74 52 -126t126 -52q76 0 128 52t52 126q0 76 -52 128t-128 52q-74 0 -126 -52t-52 -128z" />
<glyph unicode="@" horiz-adv-x="1849" d="M207 678q0 -336 209 -535q211 -199 547 -198q276 0 507 92q18 8 11 22l-23 58q-6 16 -22 10q-213 -86 -473 -86q-147 0 -273 49q-180 70 -281.5 219.5t-101.5 354.5q0 272 191 454q193 184 463 185q236 0 395 -129q174 -137 174 -373q0 -156 -74 -287q-84 -145 -205 -145 q-31 0 -24 41l51 387q2 16 3 29.5t1 27.5q0 139 -100 203q-72 43 -170 43q-168 0 -305 -103q-23 -16 -13 -36l60 -119q14 -20 32 -8q102 66 193 65q61 0 61 -80q0 -20 -2 -31q-213 -35 -288 -77q-160 -90 -160 -254q0 -47 17.5 -87t47 -70t70.5 -47t90 -17q113 0 209 49 q37 -57 123 -58q217 0 358 197q123 172 123 371q0 272 -196 442q-186 162 -476 162q-313 0 -532 -213q-217 -211 -217 -508zM829 498q6 55 64 75q27 8 117 31l-17 -145q-59 -33 -104 -33q-59 0 -60 72z" />
<glyph unicode="A" horiz-adv-x="1234" d="M-6 29q-4 -9 -4 -15q0 -14 20 -14h275q18 0 30 29l101 252h389l26 -252q4 -29 23 -29h252q23 0 23 22q0 3 -1 7l-194 1343q-4 29 -25 29h-286q-16 0 -33 -29zM522 543l203 506l53 -506h-256z" />
<glyph unicode="B" horiz-adv-x="1208" d="M92 29v-7q0 -22 25 -22h514q207 0 346 96q158 115 158 316q0 254 -240 338v4q74 45 121 135q43 82 43 176q0 160 -129 250q-117 80 -291 80h-328q-23 0 -32 -29zM414 250l47 352h188q187 0 187 -170q0 -182 -261 -182h-161zM496 844l43 309h82q149 0 149 -117 q0 -192 -238 -192h-2h-34z" />
<glyph unicode="C" horiz-adv-x="1214" d="M127 610q0 -297 199 -471q175 -157 414 -157h3q223 0 392 77q27 12 14 41l-86 203q-10 25 -39 8q-102 -53 -238 -53q-147 0 -249 96q-109 102 -109 271q0 209 154 368q143 150 315 150q113 0 213 -33q29 -12 41 6l121 201q9 16 9 26t-9 15q-145 57 -350 57 q-305 0 -545 -233q-250 -244 -250 -572z" />
<glyph unicode="D" horiz-adv-x="1386" d="M92 29v-7q0 -22 25 -22h317q412 0 619 158q268 207 268 547q0 209 -91 367.5t-251 244.5q-145 78 -381 78h-285q-29 0 -32 -29zM414 264l123 869h81q121 0 230 -66q76 -47 121 -141q53 -111 53 -244q0 -104 -49 -193.5t-131 -140.5q-133 -84 -297 -84h-131z" />
<glyph unicode="E" d="M92 29v-7q0 -22 25 -22h958q29 0 33 29l29 194q4 29 -25 29h-698l45 330h506q29 0 32 28l31 197q4 29 -24 29h-508l41 307h591q27 0 31 28l29 195v7q0 22 -25 22h-850q-29 0 -32 -29z" />
<glyph unicode="F" horiz-adv-x="1093" d="M92 29v-7q0 -22 25 -22h233q27 0 33 29l76 553h428q29 0 33 28l28 197q4 29 -24 29h-428l41 307h532q27 0 33 28l26 195q2 7 2 12q0 17 -24 17h-793q-29 0 -32 -29z" />
<glyph unicode="G" horiz-adv-x="1452" d="M127 610q0 -297 192 -471q169 -157 409 -157h3q162 0 287 59l-2 -12q-4 -29 24 -29h232q29 0 33 29l88 633v7q0 22 -25 21h-477q-29 0 -33 -28l-27 -195q-4 -29 25 -29h215l-16 -119q-139 -65 -277 -65h-4q-150 0 -248 100.5t-98 270.5q0 213 156 368q143 150 317 150 q106 0 211 -33q31 -10 41 6l119 201q18 33 0 41q-117 57 -350 57q-305 0 -545 -233q-250 -244 -250 -572z" />
<glyph unicode="H" horiz-adv-x="1415" d="M92 29v-7q0 -22 25 -22h231q29 0 33 29l76 538h547l-76 -538q-4 -29 24 -29h232q29 0 33 29l188 1337v7q0 22 -25 22h-233q-29 0 -33 -29l-74 -530h-546l75 530q4 29 -24 29h-234q-23 0 -32 -29z" />
<glyph unicode="I" horiz-adv-x="579" d="M92 29v-7q0 -22 25 -22h231q29 0 33 29l188 1337q1 4 1 7q0 22 -25 22h-234q-23 0 -32 -29z" />
<glyph unicode="J" horiz-adv-x="1001" d="M-25 106q-8 -11 -8 -21q0 -14 15 -24q105 -79 289 -79h5q373 0 527 323q37 78 61 223q2 10 9.5 63.5t21.5 147.5l88 627v7q0 22 -25 22h-233q-23 0 -33 -29l-100 -711q-35 -233 -78 -290q-80 -109 -195 -109q-98 0 -167 45q-33 20 -48 0z" />
<glyph unicode="K" horiz-adv-x="1247" d="M92 29v-7q0 -22 25 -22h231q29 0 33 29l65 469l111 112l279 -585q12 -25 38 -25h275q16 0 18 14q4 14 -2 23l-403 782l530 537q12 12 11 26q-4 12 -17 13h-317q-23 0 -51 -29l-414 -459l65 459q4 29 -24 29h-234q-23 0 -32 -29z" />
<glyph unicode="L" horiz-adv-x="968" d="M92 29v-7q0 -22 25 -22h723q29 0 32 29l29 194q0 4 1 7q0 22 -25 22h-463l155 1114q4 29 -24 29h-234q-23 0 -32 -29z" />
<glyph unicode="M" horiz-adv-x="1767" d="M20 29q-3 -7 -3 -12q0 -17 28 -17h225q23 0 33 29l256 790l109 -706q4 -16 24 -17h230q29 0 36 21l367 702v-790q0 -29 25 -29h229q33 0 33 29v1337q0 29 -25 29h-227q-16 0 -33 -29l-457 -899l-151 899q-4 29 -25 29h-211q-23 0 -32 -29z" />
<glyph unicode="N" horiz-adv-x="1355" d="M92 29v-7q0 -22 25 -22h213q29 0 32 29l121 860l445 -879q4 -10 18 -10h178q29 0 33 29l189 1337v7q0 22 -25 22h-213q-29 0 -33 -29l-121 -858l-440 874q-10 12 -22 13h-181q-23 0 -32 -29z" />
<glyph unicode="O" horiz-adv-x="1492" d="M127 575q0 -283 178 -444q161 -149 399 -149h3q309 0 513.5 241.5t204.5 591.5q0 270 -172 440q-164 160 -409 160q-293 0 -502 -235q-215 -244 -215 -605zM422 596q0 246 139 403q123 139 277 140q127 0 206 -82q86 -90 86 -246q0 -254 -126 -412q-117 -143 -287 -143 q-123 0 -205 78q-90 90 -90 262z" />
<glyph unicode="P" horiz-adv-x="1224" d="M92 29v-7q0 -22 25 -22h231q29 0 33 29l63 450h109q166 0 225 6q145 16 232 68q215 131 215 383q0 258 -203 385q-117 74 -340 74h-371q-23 0 -32 -29zM481 731l56 410h180q78 0 141 -41q72 -49 72 -164q0 -84 -58 -141q-57 -63 -153 -64h-238z" />
<glyph unicode="Q" horiz-adv-x="1492" d="M127 575q0 -229 119 -380q106 -139 289 -191l-19 -98q-4 -23 21 -25q43 -10 75.5 -17t55.5 -11q178 -47 308 -85t216 -67q9 -3 17 -3q19 0 34 15l176 166q8 8 8 14q0 9 -18 13q-156 35 -272.5 60.5t-194.5 45.5q-16 0 -8 8v3q221 80 356 296.5t135 495.5q0 270 -172 440 q-164 160 -409 160q-293 0 -502 -235q-215 -244 -215 -605zM422 596q0 246 139 403q123 139 277 140q127 0 206 -82q86 -90 86 -246q0 -254 -126 -412q-117 -143 -287 -143q-123 0 -205 78q-90 90 -90 262z" />
<glyph unicode="R" horiz-adv-x="1259" d="M92 29v-7q0 -22 25 -22h231q29 0 33 29l68 471h178l194 -471q12 -29 45 -29h258q33 0 19 39l-217 496q295 118 295 444q0 180 -123 291q-137 125 -404 125h-383q-23 0 -32 -29zM483 752q20 147 33.5 238t18.5 130q2 2 2 8q0 -2 -2.5 -18t-6.5 -45l11 74h155 q232 -1 232 -183q0 -123 -101 -178q-43 -26 -180 -26h-10h-152z" />
<glyph unicode="S" horiz-adv-x="1116" d="M57 119q0 -12 15 -21q159 -116 403 -116h4q258 0 418 122q162 125 162 326q0 150 -115 254q-45 41 -201 129q-47 27 -93 51.5t-93 48.5q-80 51 -80 105q0 127 211 127q84 0 213 -49q27 -10 37 6l135 211q5 7 5 13q0 12 -19 20q-154 65 -325 65h-5q-260 0 -418 -133 q-141 -121 -141 -295q0 -143 98 -238q23 -20 73 -55t130 -82q51 -31 102.5 -61.5t102.5 -61.5q72 -49 72 -104t-56 -94q-66 -43 -172 -43q-158 0 -264 82q-23 18 -41 -4l-145 -179q-12 -16 -13 -24z" />
<glyph unicode="T" horiz-adv-x="1077" d="M135 1155v-7q0 -24 25 -24h323l-153 -1095q-4 -29 22 -29h234q29 0 32 29l154 1095h324q29 0 32 31l31 211q0 4 1 7q0 22 -25 22h-938q-29 0 -33 -29z" />
<glyph unicode="U" horiz-adv-x="1318" d="M133 428q0 -213 113 -326q120 -120 340 -120h4q258 0 416 155q156 150 192 416l113 813q1 4 1 7q0 22 -24 22h-233q-29 0 -33 -29l-109 -784q-47 -330 -282 -330q-104 0 -152 41q-53 47 -53 166q0 23 2 50.5t6 57.5l111 799q4 29 -25 29h-231q-29 0 -33 -29l-115 -813 q-4 -33 -6 -64.5t-2 -60.5z" />
<glyph unicode="V" horiz-adv-x="1179" d="M164 1366l194 -1343q4 -29 25 -29h246q20 0 33 29l608 1343q3 8 3 14q0 15 -22 15h-272q-18 0 -31 -29l-389 -967l-98 967q-4 29 -23 29h-248q-27 0 -27 -22q0 -3 1 -7z" />
<glyph unicode="W" horiz-adv-x="1835" d="M164 1366l172 -1343q4 -29 22 -29h287q18 0 29 29l289 778l84 -778q0 -29 20 -29h299q16 0 29 29l532 1343q3 8 3 13q0 16 -21 16h-271q-16 0 -26 -29l-346 -967l-88 967q0 29 -21 29h-239q-16 0 -27 -29l-346 -967l-88 967q0 29 -19 29h-250q-25 0 -25 -21q0 -4 1 -8z " />
<glyph unicode="X" horiz-adv-x="1251" d="M-55 14q2 -14 18 -14h301q33 0 51 29l287 426l178 -426q12 -29 45 -29h281q29 0 16 39l-311 643l530 672q9 13 9 24q0 16 -19 17h-295q-33 0 -53 -31l-301 -428l-164 430q-10 29 -45 29h-280q-29 0 -17 -39l299 -651l-522 -666q-8 -10 -8 -25z" />
<glyph unicode="Y" horiz-adv-x="1142" d="M129 1356l332 -709l-86 -618q-4 -29 24 -29h234q29 0 33 29l86 620l489 705q9 16 9 26q0 15 -21 15h-258q-35 0 -53 -31l-275 -444l-176 446q-12 29 -45 29h-272q-25 0 -25 -20q0 -8 4 -19z" />
<glyph unicode="Z" horiz-adv-x="1193" d="M-20 25q0 -25 24 -25h1055q29 0 33 29l26 194q10 29 -22 29h-615l760 1100q5 7 5 16q0 4 -1 10q-4 16 -18 17h-1006q-29 0 -33 -29l-28 -205q-4 -29 24 -28h549l-745 -1086q-8 -10 -8 -22z" />
<glyph unicode="[" horiz-adv-x="784" d="M70 -424q-4 -29 22 -29h483q27 0 31 29l25 184q4 29 -23 29h-235l182 1366h233q29 0 33 31l25 182q2 31 -25 31h-481q-29 0 -31 -31z" />
<glyph unicode="\" horiz-adv-x="585" d="M139 1384l166 -1374q4 -29 25 -28h223q35 -1 31 28l-166 1374q-4 29 -25 29h-223q-35 0 -31 -29z" />
<glyph unicode="]" horiz-adv-x="739" d="M-55 -424q-4 -29 22 -29h484q27 0 30 29l240 1792q2 31 -25 31h-481q-29 0 -31 -31l-24 -182q-4 -31 22 -31h236l-182 -1366h-234q-29 0 -33 -29z" />
<glyph unicode="^" horiz-adv-x="1009" />
<glyph unicode="_" horiz-adv-x="1110" d="M14 -285q-4 -29 25 -28h917q29 0 33 28l19 144q4 29 -23 28h-919q-27 0 -31 -28z" />
<glyph unicode="`" horiz-adv-x="540" d="M358 1368l181 -258q12 -16 28 -16h90q29 -1 23 28l-55 244q-6 29 -27 29h-219q-14 0 -21 -9q-6 -10 0 -18z" />
<glyph unicode="a" horiz-adv-x="1048" d="M78 375q0 -201 115 -305q90 -84 208 -84q106 0 185 59l4 -2l-2 -14q-10 -29 24 -29h211q29 0 33 29l121 868q1 4 1 7q0 12 -11 16q-78 18 -275 18q-238 0 -411 -137q-203 -160 -203 -426zM373 369q0 147 77.5 231t215.5 84h8l-21 -160q-18 -139 -39 -190 q-39 -100 -133 -101q-109 0 -108 136z" />
<glyph unicode="b" horiz-adv-x="1048" d="M92 29v-7q0 -23 25 -24q88 -8 161.5 -12t133.5 -4q217 0 370 122q197 156 197 461q0 188 -117 291q-96 80 -223 80q-78 0 -152 -29l66 461q10 29 -23 29h-221q-23 0 -33 -29zM397 248l54 377q76 39 141 39q96 -1 96 -136q0 -162 -106 -237q-63 -45 -125 -45h-31 q-14 0 -29 2z" />
<glyph unicode="c" horiz-adv-x="837" d="M78 395q0 -176 115 -297q116 -116 291 -116h3q178 0 287 67q25 14 12 41l-77 178q-12 27 -39 6q-44 -32 -128 -32h-5q-160 0 -160 194q0 84 65.5 162t163.5 78q86 0 117 -14q29 -12 41 8l106 178q9 16 9 26t-9 15q-80 49 -247 49q-207 0 -371 -152q-174 -160 -174 -391z " />
<glyph unicode="d" horiz-adv-x="1042" d="M78 401q0 -215 151 -325q125 -92 312 -92q76 0 145.5 5t134.5 15q27 2 31 29l186 1335q3 8 3 13q0 16 -21 16h-221q-33 0 -37 -29l-55 -436q-150 0 -256 -37q-373 -129 -373 -494zM375 406q0 129 76.5 200.5t201.5 71.5h19l-62 -430q-12 -2 -24.5 -3t-26.5 -1 q-184 0 -184 162z" />
<glyph unicode="e" horiz-adv-x="944" d="M209 76q106 -94 268 -94q190 0 311 73q20 14 13 39l-74 168q-8 27 -39 8q-59 -45 -151 -45q-141 0 -164 97q180 8 319 75q185 90 199 254q1 15 2 29q-1 44 -15 84q-18 52 -57 91.5t-98 61t-135 21.5q-211 0 -361 -162q-149 -157 -149 -378q0 -212 131 -322zM367 502 q8 45 61 110q70 86 162 86q36 0 36 -31q0 -5 -1 -10q-20 -137 -258 -155z" />
<glyph unicode="f" horiz-adv-x="716" d="M76 -362v-7q0 -22 24 -22h215q29 0 33 29l139 1046h156q29 0 33 31l22 174q8 31 -22 31h-156l19 118q20 129 106 129q61 0 127 -43q27 -18 41 2l113 162q7 10 7 18q0 15 -20 25q-121 70 -249 70q-152 0 -258.5 -77t-129.5 -214l-30 -190h-96q-31 0 -33 -31l-23 -174 q-10 -31 23 -31h98z" />
<glyph unicode="g" horiz-adv-x="1060" d="M37 -338q0 -10 20 -24q117 -86 310 -87q211 0 347 119t167 346l123 875v7q0 22 -25 22h-209q-25 0 -27 -19l-2 -6q-76 39 -176 39q-215 0 -360 -189q-131 -168 -131 -380q0 -141 63 -242q88 -141 283 -141q98 0 188 47l4 -2l-12 -52q-8 -37 -28.5 -69.5t-48 -57 t-61.5 -40t-71 -15.5q-121 0 -192 60q-29 23 -45 -5l-109 -163q-8 -10 -8 -23zM369 375q0 168 82 243q55 55 129 56q50 0 116 -25l-32 -241q-23 -170 -187 -170q-51 0 -79.5 40.5t-28.5 96.5z" />
<glyph unicode="h" horiz-adv-x="1054" d="M92 29v-7q0 -22 25 -22h215q29 0 33 29l65 448q0 41 35 115q51 104 139 104q70 0 70 -118q0 -10 -3 -35t-7 -64l-62 -450q-4 -29 25 -29h217q29 0 33 29l65 489q6 45 6 100q0 150 -67 236q-66 80 -176 80q-129 0 -222 -55l72 487q4 29 -25 29h-219q-29 0 -32 -29z" />
<glyph unicode="i" horiz-adv-x="557" d="M96 29q-1 -4 -1 -7q0 -22 24 -22h217q29 0 33 29l120 862q4 29 -24 29h-215q-29 0 -33 -29zM246 1266q0 -68 47 -115t115 -47q66 0 113.5 47t47.5 115t-48 114.5t-113 46.5q-68 0 -115 -47t-47 -114z" />
<glyph unicode="j" horiz-adv-x="548" d="M-86 -276l100 -181q4 -6 17 -6q10 0 26 4q100 20 179 97q90 90 112 241l137 1012q4 29 -22 29h-219q-27 0 -31 -29l-127 -944q-8 -68 -33 -105q-39 -57 -133 -75q-16 -3 -16 -16q0 -11 10 -27zM242 1266q0 -68 47 -115t114 -47q68 0 115 47t47 115t-47 114.5t-115 46.5 t-114.5 -47t-46.5 -114z" />
<glyph unicode="k" horiz-adv-x="952" d="M92 29v-7q0 -22 25 -22h215q29 0 33 29l41 286l55 54l180 -349q8 -20 35 -20h239q45 0 25 39l-289 516l334 326q6 6 6 18v6q-2 14 -20 15h-254q-18 0 -39 -21l-223 -231l98 700q4 29 -25 29h-217q-23 0 -32 -29z" />
<glyph unicode="l" horiz-adv-x="557" d="M92 29v-7q0 -22 25 -22h215q29 0 33 29l188 1339v7q0 22 -25 22h-217q-23 0 -32 -29z" />
<glyph unicode="m" horiz-adv-x="1576" d="M92 29v-7q0 -22 25 -22h215q29 0 33 29l63 442q35 225 176 225q78 0 78 -86q0 -47 -2 -57l-74 -524q-6 -29 23 -29h217q29 0 33 29l63 442q35 225 168 225q82 0 82 -86q0 -47 -2 -57l-74 -524q-4 -29 25 -29h217q27 0 31 29l79 555q2 10 2 57q0 156 -84 233 q-68 61 -174 62q-190 0 -325 -98q-80 98 -187 98q-160 0 -249 -64l4 27q2 20 -19 21h-190q-29 0 -33 -29z" />
<glyph unicode="n" horiz-adv-x="1054" d="M92 29v-7q0 -22 25 -22h215q29 0 33 29l69 483q6 53 33 96q49 88 137 88q70 0 70 -118q0 -10 -3 -35t-7 -64l-62 -450q-4 -29 25 -29h217q29 0 33 29l65 489q6 45 6 100q0 150 -67 236q-66 80 -176 80q-129 0 -222 -55l2 12q10 29 -24 29h-215q-23 0 -33 -29z" />
<glyph unicode="o" horiz-adv-x="1040" d="M201 88q113 -106 282 -106q207 0 346 157q140 162 140 391q0 184 -121 299q-115 109 -283 109q-197 0 -338 -154q-149 -157 -149 -392q0 -191 123 -304zM352 430q0 104 58 182q57 80 141 80q143 0 143 -209q0 -98 -57 -176q-59 -80 -139 -80q-66 0 -106 52.5t-40 150.5z " />
<glyph unicode="p" horiz-adv-x="1048" d="M18 -446v-7q0 -22 25 -22h215q29 0 33 29l63 436q8 0 19 -2h24q252 0 410 141q172 150 172 422q0 170 -92 278q-90 109 -225 109q-115 0 -213 -47q0 29 -23 29h-186q-29 0 -33 -29zM387 238l57 399q63 39 127 39q121 0 121 -174q0 -119 -84 -197q-75 -69 -171 -69h-3h-26 q-10 0 -21 2z" />
<glyph unicode="q" horiz-adv-x="1019" d="M78 369q0 -160 90 -267q93 -112 251 -112h3q92 0 145 28l-63 -464q-4 -29 24 -29h217q29 0 33 29l187 1327v5q0 19 -25 23q-150 29 -289 29q-233 0 -391 -137q-182 -158 -182 -432zM365 391q0 135 77 213q72 72 189 72h31l-31 -230q-27 -192 -163 -192h-1q-51 0 -78 45 q-25 39 -24 92z" />
<glyph unicode="r" horiz-adv-x="739" d="M92 29v-7q0 -22 25 -22h215q29 0 33 29l51 358q39 291 254 291q23 0 63 -6q31 -2 33 20l22 205q2 25 -22.5 32t-58.5 7q-154 0 -254 -88l4 43q4 29 -23 29h-188q-29 0 -33 -29z" />
<glyph unicode="s" horiz-adv-x="747" d="M6 84q0 -16 27 -31q113 -71 268 -71h4q184 0 287.5 81.5t103.5 223.5q0 139 -184 260q-23 14 -46.5 28.5t-45.5 28.5q-61 39 -62 70q0 45 91 45q49 0 120 -31q29 -14 45 8l97 146q8 10 8 20q0 16 -29 33q-84 43 -213 43q-184 0 -284.5 -75t-100.5 -216q0 -125 144 -229 l129 -86q63 -43 63 -74q0 -53 -102 -53q-88 0 -160 51q-37 27 -55 -2l-95 -145q-10 -16 -10 -25z" />
<glyph unicode="t" horiz-adv-x="677" d="M68 715q-1 -4 -1 -8q0 -23 23 -23h100l-55 -393q-6 -41 -6 -76q0 -233 254 -233q162 0 254 61q20 12 10 29l-65 153q-12 29 -35 17q-53 -33 -105 -33q-36 0 -36 58q0 28 6 69l51 348h147q29 0 33 31l25 174q2 6 1 11q0 20 -24 20h-149l24 170q3 29 -17 29q-7 0 -16 -3 l-219 -78q-29 -8 -32 -30l-13 -88h-98q-31 0 -33 -31z" />
<glyph unicode="u" horiz-adv-x="1040" d="M117 258q0 -276 342 -276q231 0 348 145q80 98 100 248l76 516v6q0 23 -27 23h-215q-31 0 -34 -29l-68 -455q-12 -84 -27 -123q-37 -104 -131 -104q-53 0 -82 35q-11 17 -11 48q0 16 3 36l82 563q4 29 -27 29h-215q-31 0 -34 -29l-68 -494q-12 -86 -12 -139z" />
<glyph unicode="v" horiz-adv-x="888" d="M94 891l127 -868q4 -29 23 -29h256q16 0 32 29l410 868q5 9 5 16q0 13 -23 13h-250q-18 0 -31 -29l-215 -524l-57 524q-4 29 -25 29h-225q-27 0 -27 -23v-6z" />
<glyph unicode="w" horiz-adv-x="1384" d="M94 891l111 -868q4 -29 20 -29h297q18 0 29 29l158 403l49 -403q4 -29 20 -29h275q16 0 28 29l357 868q4 8 4 14q0 15 -21 15h-254q-16 0 -26 -29l-187 -524l-51 524q0 29 -20 29h-248q-16 0 -27 -29l-186 -524l-51 524q0 29 -21 29h-233q-24 0 -24 -22q0 -3 1 -7z" />
<glyph unicode="x" horiz-adv-x="884" d="M-55 18q0 -18 24 -18h267q27 0 40 20l140 213l78 -213q8 -20 34 -20h240q31 0 31 21q0 9 -6 22l-193 410l326 426q6 6 6 18v6q-4 16 -21 17h-254q-31 0 -43 -21l-122 -213l-66 213q-6 20 -35 21h-231q-14 0 -25 -17q-6 -14 0 -26l172 -404l-352 -432q-10 -14 -10 -23z " />
<glyph unicode="y" horiz-adv-x="948" d="M27 -444q-1 -3 -1 -6q0 -19 25 -19q387 20 557 424l387 924q9 16 9 26q0 15 -21 15h-248q-33 0 -39 -21l-186 -549l-100 543q-2 27 -35 27h-248q-35 0 -25 -41l228 -904q-31 -94 -117 -137q-53 -26 -100 -26q-13 0 -25 2q-33 4 -35 -33z" />
<glyph unicode="z" horiz-adv-x="831" d="M-49 20q0 -20 24 -20h773q29 0 32 29l25 176q2 31 -25 31h-346q309 438 461 645q11 15 11 25q0 14 -25 14h-764q-29 0 -33 -29l-27 -180q-4 -31 25 -31h332q-182 -268 -455 -639q-8 -8 -8 -21z" />
<glyph unicode="{" horiz-adv-x="735" d="M63 432q-4 -29 21 -29q78 0 112.5 -32.5t34.5 -114.5q0 -29 -4 -64.5t-12 -78.5l-16 -90q-12 -72 -13 -129q0 -324 357 -324q29 0 32 29l21 149q2 31 -23 31q-139 0 -139 131q0 51 15 110l18 91q8 41 12 75.5t4 67.5q0 195 -180 276q133 59 182 123q78 102 103 330l6 59 q14 133 54 186.5t132 53.5q23 0 33 31l21 149q4 29 -23 29q-195 0 -315 -100q-117 -96 -138 -258l-32 -234q-18 -133 -56 -184q-43 -57 -143 -58q-33 0 -37 -28z" />
<glyph unicode="|" horiz-adv-x="550" d="M72 -438q-4 -29 24 -29h168q27 0 33 29l242 1804q4 29 -25 29h-168q-29 0 -33 -29z" />
<glyph unicode="}" horiz-adv-x="761" d="M-8 -401q-4 -29 22 -29q195 0 316 100q117 96 137 258l33 234q8 68 22.5 114t37 74.5t56 40.5t82.5 12q33 0 37 29l27 197q4 29 -21 28q-78 0 -112.5 34t-34.5 116q0 29 4 63.5t12 77.5l17 90q12 70 12 129q0 324 -356 324q-29 0 -33 -29l-21 -149q-4 -31 23 -31 q137 0 137 -133q0 -45 -12 -109l-17 -90q-8 -41 -11 -75.5t-3 -65.5q0 -195 176 -279q-133 -59 -182 -122q-78 -102 -102 -330l-7 -60q-14 -135 -54 -187t-132 -52q-29 0 -31 -31z" />
<glyph unicode="~" horiz-adv-x="1009" />
<glyph unicode="&#xa1;" horiz-adv-x="569" d="M139 -293q0 -199 148 -199q168 0 209 289q6 45 9 97.5t1 111.5l-10 498q0 18 -29 18h-86q-33 0 -35 -18l-153 -498q-16 -53 -27.5 -105.5t-20.5 -103.5q-6 -49 -6 -90zM270 760q0 -74 53.5 -126t127.5 -52t126 52t52 126q0 76 -52.5 128t-125.5 52q-74 0 -127.5 -52 t-53.5 -128z" />
<glyph unicode="&#xa2;" horiz-adv-x="837" d="M78 395q0 -158 92 -270q94 -113 244 -137l-8 -43q-6 -29 24 -29h76q27 0 31 29l6 39q162 8 252 65q25 14 12 41l-78 178q-12 27 -38.5 6.5t-104.5 -28.5l71 428q45 -4 66 -12q29 -12 41 8l106 178q18 31 0 41q-63 39 -170 45l7 49q10 29 -23 29h-76q-27 0 -30 -29l-9 -47 q-190 -20 -338 -168q-154 -158 -153 -373zM377 436q0 66 40.5 130t106.5 93l-65 -399q-82 45 -82 176z" />
<glyph unicode="&#xa3;" horiz-adv-x="1046" d="M57 29q-4 -29 23 -29h811q29 0 33 29l28 213q8 31 -22 30h-393l45 334h217q27 0 30 31l27 178q8 31 -22 31h-220l4 37q31 268 168 268q78 0 166 -47q23 -12 39 4l139 162q20 27 -6 47q-133 96 -311 96q-420 0 -477 -491l-10 -86l-138 -19q-29 -4 -30 -31l-25 -149 q-4 -31 25 -31h135l-45 -334h-129q-29 0 -31 -30z" />
<glyph unicode="&#xa4;" horiz-adv-x="1214" d="M-23 457q-6 -31 23 -31h127q55 -211 233 -334q162 -111 361 -110q223 0 391 77q27 12 14 41l-86 203q-10 25 -39 8q-102 -53 -237 -53q-209 0 -307 168h291q16 0 32 31l78 147q8 12 2 25q-6 16 -26 16h-426q0 37 10 88h495q14 0 31 31l78 145q8 14 2 27q-4 16 -27 16 h-473q154 190 350 191q113 0 213 -33q29 -12 41 6l121 201q18 31 0 41q-145 57 -350 57q-217 0 -416 -129q-197 -127 -299 -334h-92q-25 0 -31 -28l-28 -160q-6 -31 22 -31h60q-8 -33 -11 -88h-67q-25 0 -31 -29z" />
<glyph unicode="&#xa5;" horiz-adv-x="1210" d="M129 270q-4 -31 23 -30h321l-31 -211q-4 -29 25 -29h233q29 0 33 29l29 211h317q27 0 31 30l25 176q4 29 -23 29h-317l16 123h317q27 0 31 31l25 176q4 29 -25 29h-211l361 520q23 41 -13 41h-258q-35 0 -53 -31l-274 -444l-176 446q-12 29 -46 29h-272q-39 0 -20 -39 l243 -522h-207q-29 0 -32 -29l-23 -176q-4 -31 23 -31h321l-16 -123h-322q-27 0 -30 -29z" />
<glyph unicode="&#xa6;" horiz-adv-x="1024" />
<glyph unicode="&#xa7;" horiz-adv-x="780" d="M-23 -354q0 -10 23 -27q115 -90 266 -90q158 0 273 111q129 125 129 327q0 84 -45 162q168 137 168 322q0 172 -175 321q-172 154 -172 250q0 74 38 120t96 46q80 0 127 -47q18 -20 38 2l101 123q24 29 6 47q-98 100 -264 100q-160 0 -277 -104q-129 -121 -129 -320 q0 -76 37 -149q-158 -139 -158 -322q0 -131 88 -252q20 -31 166 -184q88 -94 88 -158q0 -90 -49 -135q-41 -35 -92 -35q-68 0 -123 56q-18 20 -39 -3l-106 -133q-14 -16 -15 -28zM328 535q0 53 39 106q43 -45 69.5 -73.5t36.5 -41.5q51 -64 51 -123q0 -45 -59 -92 q-90 100 -98 111q-39 51 -39 113z" />
<glyph unicode="&#xa8;" horiz-adv-x="532" d="M84 1309q0 -68 47 -115t115 -47t115 47t47 115t-47.5 114.5t-114.5 46.5q-68 0 -115 -47t-47 -114zM477 1309q0 -68 47 -115t115 -47t115 47t47 115t-47 114.5t-115 46.5t-115 -47t-47 -114z" />
<glyph unicode="&#xa9;" horiz-adv-x="1755" d="M123 737q0 -311 219 -534q221 -221 535 -221q313 0 534 221t221 534t-221 533q-221 221 -534 221t-535 -221q-219 -219 -219 -533zM248 737q0 262 184 445q184 184 445 184q262 0 446 -184.5t184 -444.5t-184 -446q-184 -184 -446 -185q-260 0 -444.5 184.5t-184.5 446.5 zM506 670q0 -150 92 -256q94 -104 236 -105q164 0 276 82q16 14 8 31l-55 115q-10 23 -27 8q-82 -59 -176 -60q-86 0 -134 58.5t-48 144.5q0 100 76 191q76 94 174 94q96 0 166 -64q16 -16 28 4l84 111q8 14 -4 27q-102 96 -248 96q-150 0 -274 -111q-127 -113 -164 -272 q-10 -51 -10 -94z" />
<glyph unicode="&#xaa;" horiz-adv-x="563" d="M49 1073q0 -121 70 -184q53 -51 127 -51q90 0 125 41l-2 -17q-4 -16 12 -16h115q14 0 18 16l74 527q2 12 -13 14q-68 12 -157 12q-139 0 -248 -84q-121 -96 -121 -258zM100 575q0 -45 32 -76.5t77 -31.5t76.5 31.5t31.5 76.5t-31.5 77t-76.5 32t-77 -31.5t-32 -77.5z M223 1067q0 90 62 150q51 49 112 49h15l-25 -170q-6 -47 -37 -79t-63 -32q-63 0 -64 82z" />
<glyph unicode="&#xab;" horiz-adv-x="1103" d="M-8 438l201 -405q14 -33 40 -33h191q27 0 14 29l-180 434l307 432q23 29 -12 29h-207q-27 0 -51 -33l-297 -406q-18 -25 -6 -47zM471 438l201 -405q14 -33 43 -33h190q25 0 13 29l-179 434l308 432q23 29 -13 29h-209q-27 0 -51 -33l-295 -406q-16 -27 -8 -47z" />
<glyph unicode="&#xac;" horiz-adv-x="1009" />
<glyph unicode="&#xad;" horiz-adv-x="862" d="M180 317q-4 -29 25 -28h399q27 0 31 28l29 211q4 29 -25 29h-397q-29 0 -33 -29z" />
<glyph unicode="&#xae;" horiz-adv-x="1755" d="M123 737q0 -311 219 -534q221 -221 535 -221q313 0 534 221t221 534t-221 533q-221 221 -534 221t-535 -221q-219 -219 -219 -533zM248 737q0 262 184 445q184 184 445 184q262 0 446 -184.5t184 -444.5t-184 -446q-184 -184 -446 -185q-260 0 -444.5 184.5t-184.5 446.5 zM561 336q-2 -20 19 -21h127q23 0 24 21l37 272h90l117 -274q8 -18 26 -19h138q29 0 14 31l-129 275q133 43 188 137q41 72 41 149q0 94 -58 160t-157 66h-350q-23 0 -22 -23zM788 764l27 213h180q33 0 57.5 -26.5t24.5 -65.5q0 -13 -4 -33q-25 -88 -119 -88h-166z" />
<glyph unicode="&#xaf;" horiz-adv-x="1009" />
<glyph unicode="&#xb0;" horiz-adv-x="677" d="M129 1214q0 -115 80 -196q82 -80 197 -80t194 80q82 81 82 196t-82 195q-80 82 -194 82q-115 0 -197 -82q-80 -80 -80 -195zM295 1214q0 47 31.5 79t79.5 32q47 0 80.5 -32t33.5 -79t-33.5 -80.5t-80.5 -33.5t-79 33.5t-32 80.5z" />
<glyph unicode="&#xb1;" horiz-adv-x="1009" />
<glyph unicode="&#xb2;" horiz-adv-x="1024" />
<glyph unicode="&#xb3;" horiz-adv-x="1024" />
<glyph unicode="&#xb4;" horiz-adv-x="729" d="M383 1122q-16 -29 14 -28h109q16 0 33 16l229 258q6 8 6 14q0 12 -18 13h-238q-23 0 -35 -29z" />
<glyph unicode="&#xb6;" horiz-adv-x="1245" d="M92 983q0 -154 92 -245t252 -101l-139 -1026q-2 -20 16 -21h160q20 0 23 21l229 1692h162l-232 -1692q0 -20 17 -21h162q20 0 22 21l229 1692h211q20 0 23 20l16 123q0 20 -16 20h-707q-215 0 -352 -107.5t-164 -305.5q-2 -16 -3 -35t-1 -35z" />
<glyph unicode="&#xb7;" horiz-adv-x="389" d="M106 711q0 -74 52.5 -126.5t126.5 -52.5t126 52.5t52 126.5t-52.5 126t-125.5 52q-74 0 -126.5 -52.5t-52.5 -125.5z" />
<glyph unicode="&#xb8;" horiz-adv-x="745" d="M197 -332q-2 -20 16 -20q10 0 31.5 -2t34.5 -2q222 14 245 176q8 53 -21.5 96t-90.5 55l4 39h-109l-37 -151q10 2 19 2h16q78 0 72 -45q-2 -29 -62 -39h-86q-18 0 -20 -21z" />
<glyph unicode="&#xb9;" horiz-adv-x="1024" />
<glyph unicode="&#xba;" horiz-adv-x="606" d="M92 1081q0 -115 74 -182q66 -63 172 -63q127 0 211 96t84 235q0 117 -67.5 182.5t-178.5 65.5q-117 0 -207 -96q-88 -94 -88 -238zM141 575q0 -45 32 -76.5t77 -31.5t76.5 31.5t31.5 76.5t-31.5 77t-76.5 32t-77 -31.5t-32 -77.5zM254 1106q0 66 36 113t87 47 q94 0 94 -127q0 -29 -9 -56.5t-25.5 -50t-38 -36t-46.5 -13.5q-98 0 -98 123z" />
<glyph unicode="&#xbb;" horiz-adv-x="1177" d="M100 29q-23 -29 13 -29h209q27 0 51 33l295 405q20 20 8 47l-201 406q-14 33 -43 33h-190q-25 0 -13 -29l179 -434zM582 29q-23 -29 12 -29h207q27 0 51 33l297 405q18 24 6 47l-201 406q-14 33 -41 33h-190q-27 0 -14 -29l180 -434z" />
<glyph unicode="&#xbc;" horiz-adv-x="1024" />
<glyph unicode="&#xbd;" horiz-adv-x="1024" />
<glyph unicode="&#xbe;" horiz-adv-x="1024" />
<glyph unicode="&#xbf;" horiz-adv-x="940" d="M80 -125q0 -162 108.5 -264.5t280.5 -102.5q233 0 422 146q22 18 12 41l-86 182q-18 27 -37 8q-125 -119 -256 -118q-84 0 -123 51q-29 39 -28 88q0 80 76 143q98 82 149 125t57 51q88 94 119 254q6 29 -24 29h-226q-20 0 -30 -29q-25 -78 -84 -137q-31 -31 -117 -88 q-213 -145 -213 -379zM471 762q0 -76 52 -128t128 -52q74 0 126 52t52 128q0 74 -52 126t-126 52q-76 0 -128 -52t-52 -126z" />
<glyph unicode="&#xc0;" horiz-adv-x="1234" d="M-6 29q-12 -29 16 -29h275q18 0 30 29l101 252h389l26 -252q4 -29 23 -29h252q26 0 22 29l-194 1343q-4 29 -25 29h-286q-16 0 -33 -29zM522 543l203 506l53 -506h-256zM614 1817l181 -258q12 -16 28 -17h88q29 0 25 29l-57 241q-4 31 -27 31h-217q-14 0 -21 -8 q-6 -10 0 -18z" />
<glyph unicode="&#xc1;" horiz-adv-x="1234" d="M-6 29q-12 -29 16 -29h275q18 0 30 29l101 252h389l26 -252q4 -29 23 -29h252q26 0 22 29l-194 1343q-4 29 -25 29h-286q-16 0 -33 -29zM522 543l203 506l53 -506h-256zM639 1571q-12 -31 14 -31h111q16 0 33 16l227 261q20 25 -12 24h-238q-23 0 -35 -29z" />
<glyph unicode="&#xc2;" horiz-adv-x="1282" d="M-6 29q-12 -29 16 -29h275q18 0 30 29l101 252h389l26 -252q4 -29 23 -29h252q26 0 22 29l-194 1343q-4 29 -25 29h-286q-16 0 -33 -29zM494 1559q-18 -31 10 -31h110q12 0 39 20l140 111l129 -111q23 -20 34 -20h99q32 0 18 31l-119 260q-10 23 -26 22h-240 q-18 0 -35 -22zM522 543l203 506l53 -506h-256z" />
<glyph unicode="&#xc3;" horiz-adv-x="1234" d="M-6 29q-12 -29 16 -29h275q18 0 30 29l101 252h389l26 -252q4 -29 23 -29h252q26 0 22 29l-194 1343q-4 29 -25 29h-286q-16 0 -33 -29zM522 543l203 506l53 -506h-256zM530 1563q-4 -29 19 -29h72q12 0 32 33q6 12 27 12q23 0 117 -23q45 -10 79.5 -15t57.5 -5 q141 0 215 264q8 31 -19 31h-69q-8 0 -14 -10q-8 -10 -11.5 -15.5t-5.5 -7.5q-12 -14 -35 -14q-14 0 -114 18q-51 10 -90 15.5t-66 5.5q-125 0 -195 -260z" />
<glyph unicode="&#xc4;" horiz-adv-x="1351" d="M-6 29q-12 -29 16 -29h275q18 0 30 29l101 252h389l26 -252q4 -29 23 -29h252q26 0 22 29l-194 1343q-4 29 -25 29h-286q-16 0 -33 -29zM465 1686q0 -68 47 -115t115 -47q66 0 113.5 47t47.5 115t-48 114.5t-113 46.5q-68 0 -115 -47t-47 -114zM522 543l203 506l53 -506 h-256zM858 1686q0 -68 47 -115t115 -47q66 0 114 47t48 115t-48.5 114.5t-113.5 46.5q-68 0 -115 -47t-47 -114z" />
<glyph unicode="&#xc5;" horiz-adv-x="1234" d="M-6 29q-12 -29 16 -29h275q18 0 30 29l101 252h389l26 -252q4 -29 23 -29h252q26 0 22 29l-194 1343q-4 29 -25 29h-286q-16 0 -33 -29zM522 543l203 506l53 -506h-256zM625 1714q0 -39 15 -73.5t41 -60.5t60.5 -41t73.5 -15t74 15t60.5 41t41 60.5t15.5 73.5t-15.5 74 t-41 60.5t-60.5 41t-74 15.5t-73.5 -15.5t-60.5 -41t-41 -60.5t-15 -74zM758 1714q0 57 57 58q57 -1 57 -58t-57 -57t-57 57z" />
<glyph unicode="&#xc6;" horiz-adv-x="2185" d="M-6 29q-29 -29 2 -29h348q20 0 45 29l223 252h533l-35 -252q-10 -29 23 -29h940q29 0 32 29l27 194q4 29 -25 29h-677l47 330h485q29 0 33 28l28 197q4 29 -24 29h-488l43 307h570q29 0 33 28l28 195q4 29 -24 29h-875q-18 0 -47 -29zM846 543l399 448l-63 -448h-336z " />
<glyph unicode="&#xc7;" horiz-adv-x="1214" d="M127 610q0 -274 172 -448q156 -156 381 -176l-31 -127q10 2 19 2h16q78 0 72 -45q-2 -29 -62 -39h-86q-18 0 -20 -21l-13 -88q-2 -20 17 -20q10 0 31.5 -2t33.5 -2q221 16 244 176q8 53 -20.5 96t-89.5 55l2 13q98 2 182 21.5t160 53.5q27 12 14 41l-86 203q-10 25 -39 8 q-102 -53 -238 -53q-147 0 -249 96q-109 102 -109 271q0 209 154 368q143 150 315 150q113 0 213 -33q29 -12 41 6l121 201q18 31 0 41q-145 57 -350 57q-305 0 -545 -233q-250 -244 -250 -572z" />
<glyph unicode="&#xc8;" d="M92 29q-4 -29 25 -29h958q29 0 33 29l29 194q4 29 -25 29h-698l45 330h506q29 0 32 28l31 197q4 29 -24 29h-508l41 307h591q27 0 31 28l29 195q4 29 -25 29h-850q-29 0 -32 -29zM668 1817l180 -258q12 -16 29 -17h88q30 0 24 29l-55 241q-6 31 -27 31h-219q-14 0 -20 -8 q-6 -10 0 -18z" />
<glyph unicode="&#xc9;" d="M92 29q-4 -29 25 -29h958q29 0 33 29l29 194q4 29 -25 29h-698l45 330h506q29 0 32 28l31 197q4 29 -24 29h-508l41 307h591q27 0 31 28l29 195q4 29 -25 29h-850q-29 0 -32 -29zM727 1571q-12 -31 14 -31h109q16 0 33 16l229 261q20 25 -12 24h-238q-23 0 -35 -29z" />
<glyph unicode="&#xca;" d="M92 29q-4 -29 25 -29h958q29 0 33 29l29 194q4 29 -25 29h-698l45 330h506q29 0 32 28l31 197q4 29 -24 29h-508l41 307h591q27 0 31 28l29 195q4 29 -25 29h-850q-29 0 -32 -29zM516 1559q-18 -31 10 -31h111q12 0 39 20l139 111l127 -111q20 -20 37 -20h98 q10 0 16.5 10.5t0.5 20.5l-117 260q-10 23 -27 22h-241q-16 0 -33 -22z" />
<glyph unicode="&#xcb;" d="M92 29q-4 -29 25 -29h958q29 0 33 29l29 194q4 29 -25 29h-698l45 330h506q29 0 32 28l31 197q4 29 -24 29h-508l41 307h591q27 0 31 28l29 195q4 29 -25 29h-850q-29 0 -32 -29zM387 1686q0 -68 47 -115t115 -47t115 47t47 115t-47.5 114.5t-114.5 46.5q-68 0 -115 -47 t-47 -114zM780 1686q0 -68 47 -115t115 -47t115 47t47 115t-47 114.5t-115 46.5t-115 -47t-47 -114z" />
<glyph unicode="&#xcc;" horiz-adv-x="579" d="M92 29q-4 -29 25 -29h231q29 0 33 29l188 1337q4 29 -24 29h-234q-23 0 -32 -29zM350 1817l180 -258q12 -16 29 -17h88q31 0 25 29l-56 241q-6 31 -26 31h-219q-14 0 -21 -8q-6 -10 0 -18z" />
<glyph unicode="&#xcd;" horiz-adv-x="577" d="M92 29q-4 -29 25 -29h231q29 0 33 29l188 1337q4 29 -24 29h-234q-23 0 -32 -29zM383 1571q-12 -31 14 -31h109q16 0 33 16l227 261q20 25 -10 24h-238q-23 0 -35 -29z" />
<glyph unicode="&#xce;" horiz-adv-x="579" d="M92 29q-4 -29 25 -29h231q29 0 33 29l188 1337q4 29 -24 29h-234q-23 0 -32 -29zM203 1559q-18 -31 8 -31h111q14 0 40 20l140 111l127 -111q20 -20 35 -20h98q32 0 18 31l-116 260q-16 23 -29 22h-240q-18 0 -35 -22z" />
<glyph unicode="&#xcf;" horiz-adv-x="579" d="M92 29q-4 -29 25 -29h231q29 0 33 29l188 1337q4 29 -24 29h-234q-23 0 -32 -29zM125 1686q0 -68 48 -115t114 -47q68 0 115 47t47 115t-47.5 114.5t-114.5 46.5q-66 0 -114 -47t-48 -114zM518 1686q0 -68 48 -115t114 -47q68 0 115 47t47 115t-47 114.5t-115 46.5 q-66 0 -114 -47t-48 -114z" />
<glyph unicode="&#xd0;" horiz-adv-x="1024" />
<glyph unicode="&#xd1;" horiz-adv-x="1355" d="M92 29q-4 -29 25 -29h213q29 0 32 29l121 860l445 -879q4 -10 18 -10h178q29 0 33 29l189 1337q4 29 -25 29h-213q-29 0 -33 -29l-121 -858l-440 874q-10 12 -22 13h-181q-23 0 -32 -29zM567 1563q-6 -29 17 -29h71q12 0 33 33q6 12 27 12q23 0 116 -23q45 -10 80 -15 t58 -5q141 0 215 264q8 31 -19 31h-67q-6 0 -33 -33q-12 -14 -33 -14q-16 0 -117 18q-51 10 -90 15.5t-65 5.5q-129 0 -193 -260z" />
<glyph unicode="&#xd2;" horiz-adv-x="1492" d="M127 575q0 -283 178 -444q162 -150 402 -149q309 0 513.5 241.5t204.5 591.5q0 270 -172 440q-164 160 -409 160q-293 0 -502 -235q-215 -244 -215 -605zM422 596q0 246 139 403q123 139 277 140q127 0 206 -82q86 -90 86 -246q0 -254 -126 -412q-117 -143 -287 -143 q-123 0 -205 78q-90 90 -90 262zM811 1817l180 -258q12 -16 27 -17h90q28 0 22 29l-55 241q-4 31 -26 31h-218q-14 0 -20 -8q-6 -10 0 -18z" />
<glyph unicode="&#xd3;" horiz-adv-x="1492" d="M127 575q0 -283 178 -444q162 -150 402 -149q309 0 513.5 241.5t204.5 591.5q0 270 -172 440q-164 160 -409 160q-293 0 -502 -235q-215 -244 -215 -605zM422 596q0 246 139 403q123 139 277 140q127 0 206 -82q86 -90 86 -246q0 -254 -126 -412q-117 -143 -287 -143 q-123 0 -205 78q-90 90 -90 262zM852 1571q-12 -31 14 -31h111q16 0 33 16l227 261q20 25 -12 24h-238q-23 0 -35 -29z" />
<glyph unicode="&#xd4;" horiz-adv-x="1492" d="M127 575q0 -283 178 -444q162 -150 402 -149q309 0 513.5 241.5t204.5 591.5q0 270 -172 440q-164 160 -409 160q-293 0 -502 -235q-215 -244 -215 -605zM422 596q0 246 139 403q123 139 277 140q127 0 206 -82q86 -90 86 -246q0 -254 -126 -412q-117 -143 -287 -143 q-123 0 -205 78q-90 90 -90 262zM618 1559q-18 -31 9 -31h110q14 0 41 20l140 111l126 -111q20 -20 35 -20h101q30 0 16 31l-117 260q-16 23 -28 22h-240q-18 0 -35 -22z" />
<glyph unicode="&#xd5;" horiz-adv-x="1492" d="M127 575q0 -283 178 -444q162 -150 402 -149q309 0 513.5 241.5t204.5 591.5q0 270 -172 440q-164 160 -409 160q-293 0 -502 -235q-215 -244 -215 -605zM422 596q0 246 139 403q123 139 277 140q127 0 206 -82q86 -90 86 -246q0 -254 -126 -412q-117 -143 -287 -143 q-123 0 -205 78q-90 90 -90 262zM659 1563q-6 -29 17 -29h72q12 0 32 33q6 12 27 12q23 0 117 -23q45 -10 79.5 -15t57.5 -5q141 0 215 264q8 31 -19 31h-67q-6 0 -33 -33q-12 -14 -33 -14q-16 0 -116 18q-51 10 -90 15.5t-66 5.5q-129 0 -193 -260z" />
<glyph unicode="&#xd6;" horiz-adv-x="1492" d="M127 575q0 -283 178 -444q162 -150 402 -149q309 0 513.5 241.5t204.5 591.5q0 270 -172 440q-164 160 -409 160q-293 0 -502 -235q-215 -244 -215 -605zM422 596q0 246 139 403q123 139 277 140q127 0 206 -82q86 -90 86 -246q0 -254 -126 -412q-117 -143 -287 -143 q-123 0 -205 78q-90 90 -90 262zM524 1686q0 -68 48.5 -115t113.5 -47q68 0 115 47t47 115t-47 114.5t-115 46.5q-66 0 -114 -47t-48 -114zM918 1686q0 -68 48 -115t113 -47q68 0 115 47t47 115t-47 114.5t-115 46.5q-66 0 -113.5 -47t-47.5 -114z" />
<glyph unicode="&#xd7;" horiz-adv-x="1024" />
<glyph unicode="&#xd8;" horiz-adv-x="1492" d="M127 575q0 -223 113 -372l-76 -84q-23 -23 -2 -41l84 -86q20 -20 39 4l80 88q152 -102 342 -102q309 0 513.5 241.5t204.5 591.5q0 201 -98 352l94 107q20 25 2 43l-84 86q-18 16 -39 -4l-92 -105q-158 121 -364 121q-293 0 -502 -235q-215 -244 -215 -605zM422 596 q0 246 139 403q123 139 277 140q102 -1 180 -60l-569 -641q-27 68 -27 158zM557 301l557 629q16 -60 16 -119q0 -254 -126 -412q-117 -143 -287 -143q-90 0 -160 45z" />
<glyph unicode="&#xd9;" horiz-adv-x="1372" d="M133 428q0 -213 113 -326q121 -121 344 -120q258 0 416 155q156 150 192 416l113 813q4 29 -23 29h-233q-29 0 -33 -29l-109 -784q-47 -330 -282 -330q-104 0 -152 41q-53 47 -53 164q0 23 2 50.5t6 59.5l111 799q4 29 -25 29h-231q-29 0 -33 -29l-115 -813 q-4 -33 -6 -64.5t-2 -60.5zM635 1817l180 -258q12 -16 29 -17h88q30 0 24 29l-55 241q-6 31 -27 31h-219q-14 0 -20 -8q-6 -10 0 -18z" />
<glyph unicode="&#xda;" horiz-adv-x="1372" d="M133 428q0 -213 113 -326q121 -121 344 -120q258 0 416 155q156 150 192 416l113 813q4 29 -23 29h-233q-29 0 -33 -29l-109 -784q-47 -330 -282 -330q-104 0 -152 41q-53 47 -53 164q0 23 2 50.5t6 59.5l111 799q4 29 -25 29h-231q-29 0 -33 -29l-115 -813 q-4 -33 -6 -64.5t-2 -60.5zM715 1571q-12 -31 14 -31h109q16 0 32 16l230 261q20 25 -13 24h-237q-23 0 -35 -29z" />
<glyph unicode="&#xdb;" horiz-adv-x="1372" d="M133 428q0 -213 113 -326q121 -121 344 -120q258 0 416 155q156 150 192 416l113 813q4 29 -23 29h-233q-29 0 -33 -29l-109 -784q-47 -330 -282 -330q-104 0 -152 41q-53 47 -53 164q0 23 2 50.5t6 59.5l111 799q4 29 -25 29h-231q-29 0 -33 -29l-115 -813 q-4 -33 -6 -64.5t-2 -60.5zM535 1559q-18 -31 8 -31h112q12 0 39 20l140 111l127 -111q20 -20 36 -20h99q30 0 16 31l-117 260q-10 23 -26 22h-242q-16 0 -33 -22z" />
<glyph unicode="&#xdc;" horiz-adv-x="1327" d="M82 428q0 -213 113 -326q121 -121 344 -120q258 0 415 155q156 150 193 416l113 813q4 29 -23 29h-233q-29 0 -33 -29l-109 -784q-47 -330 -282 -330q-104 0 -152 41q-53 47 -53 164q0 23 2 50.5t6 59.5l111 799q4 29 -25 29h-231q-29 0 -33 -29l-115 -813 q-4 -33 -6 -64.5t-2 -60.5zM408 1686q0 -68 47 -115t114 -47q66 0 114 47t48 115t-48 114.5t-114 46.5q-68 0 -114.5 -47t-46.5 -114zM801 1686q0 -68 47 -115t115 -47q66 0 113.5 47t47.5 115t-48 114.5t-113 46.5q-68 0 -115 -47t-47 -114z" />
<glyph unicode="&#xdd;" horiz-adv-x="1024" />
<glyph unicode="&#xde;" horiz-adv-x="1024" />
<glyph unicode="&#xdf;" horiz-adv-x="1112" d="M74 -98q-4 -29 18 -29h213q29 0 33 29l143 1095q25 184 158 185q100 0 100 -121q0 -74 -34 -121q-41 -55 -109 -55h-31q-23 0 -24 -25l-27 -203q-2 -20 29 -20h18q68 0 121 -53q66 -66 66 -170q0 -86 -50.5 -139.5t-136.5 -53.5q-43 0 -88 6q-29 4 -33 -30l-20 -183 q-2 -27 24 -28q57 -6 131 -6q209 0 330 133q111 124 111 333q0 90 -45 168q-61 111 -189 152v4q225 80 226 336q0 115 -70 199q-92 111 -268 110q-180 0 -299 -102q-125 -111 -154 -324z" />
<glyph unicode="&#xe0;" horiz-adv-x="1048" d="M78 375q0 -201 115 -305q90 -84 208 -84q106 0 185 59l4 -2l-2 -14q-10 -29 24 -29h211q29 0 33 29l121 868q2 18 -10 23q-80 18 -275 18q-238 0 -411 -137q-203 -160 -203 -426zM373 369q0 147 77.5 231t215.5 84h8l-21 -160q-18 -139 -39 -190q-39 -100 -133 -101 q-109 0 -108 136zM395 1368l180 -258q12 -16 27 -16h90q29 -1 23 28l-56 244q-6 29 -26 29h-217q-14 0 -21 -9q-6 -10 0 -18z" />
<glyph unicode="&#xe1;" horiz-adv-x="1048" d="M78 375q0 -201 115 -305q90 -84 208 -84q106 0 185 59l4 -2l-2 -14q-10 -29 24 -29h211q29 0 33 29l121 868q2 18 -10 23q-80 18 -275 18q-238 0 -411 -137q-203 -160 -203 -426zM373 369q0 147 77.5 231t215.5 84h8l-21 -160q-18 -139 -39 -190q-39 -100 -133 -101 q-109 0 -108 136zM600 1122q-12 -29 14 -28h111q16 0 33 16l227 258q20 27 -12 27h-238q-18 0 -35 -29z" />
<glyph unicode="&#xe2;" horiz-adv-x="1048" d="M78 375q0 -201 115 -305q90 -84 208 -84q106 0 185 59l4 -2l-2 -14q-10 -29 24 -29h211q29 0 33 29l121 868q2 18 -10 23q-80 18 -275 18q-238 0 -411 -137q-203 -160 -203 -426zM344 1112q-18 -29 10 -29h111q16 0 39 19l139 110l129 -110q20 -18 35 -19h98q31 0 19 29 l-119 260q-10 23 -27 23h-239q-18 0 -35 -23zM373 369q0 147 77.5 231t215.5 84h8l-21 -160q-18 -139 -39 -190q-39 -100 -133 -101q-109 0 -108 136z" />
<glyph unicode="&#xe3;" horiz-adv-x="1048" d="M78 375q0 -201 115 -305q90 -84 208 -84q106 0 185 59l4 -2l-2 -14q-10 -29 24 -29h211q29 0 33 29l121 868q2 18 -10 23q-80 18 -275 18q-238 0 -411 -137q-203 -160 -203 -426zM330 1137q-4 -31 18 -31h72q8 0 33 35q12 12 26 12q23 0 117 -23q45 -10 80 -15t57 -5 q141 0 215 264q10 29 -18 29h-70q-6 0 -31 -33q-12 -12 -34 -12q-14 0 -115 18q-102 18 -156 19q-127 0 -194 -258zM373 369q0 147 77.5 231t215.5 84h8l-21 -160q-18 -139 -39 -190q-39 -100 -133 -101q-109 0 -108 136z" />
<glyph unicode="&#xe4;" horiz-adv-x="1048" d="M78 375q0 -201 115 -305q90 -84 208 -84q106 0 185 59l4 -2l-2 -14q-10 -29 24 -29h211q29 0 33 29l121 868q2 18 -10 23q-80 18 -275 18q-238 0 -411 -137q-203 -160 -203 -426zM291 1309q0 -68 48 -115t114 -47q68 0 114.5 47t46.5 115t-47 114.5t-114 46.5 q-66 0 -114 -47t-48 -114zM373 369q0 147 77.5 231t215.5 84h8l-21 -160q-18 -139 -39 -190q-39 -100 -133 -101q-109 0 -108 136zM684 1309q0 -68 47 -115t115 -47t115 47t47 115t-47.5 114.5t-114.5 46.5q-68 0 -115 -47t-47 -114z" />
<glyph unicode="&#xe5;" horiz-adv-x="1048" d="M78 375q0 -201 115 -305q90 -84 208 -84q106 0 185 59l4 -2l-2 -14q-10 -29 24 -29h211q29 0 33 29l121 868q2 18 -10 23q-80 18 -275 18q-238 0 -411 -137q-203 -160 -203 -426zM373 369q0 147 77.5 231t215.5 84h8l-21 -160q-18 -139 -39 -190q-39 -100 -133 -101 q-109 0 -108 136zM537 1264q0 -39 15 -74t40.5 -60.5t60.5 -41t74 -15.5t74 15.5t60.5 41t41 60.5t15.5 74t-15.5 73.5t-41 60t-60.5 41t-74 15.5t-74 -15.5t-60.5 -41t-40.5 -60t-15 -73.5zM670 1264q0 57 57 57t57 -57t-57 -58q-57 0 -57 58z" />
<glyph unicode="&#xe6;" horiz-adv-x="1507" d="M78 375q0 -201 117 -305q94 -84 213 -84q109 0 163 16q92 29 162 113q115 -133 305 -133q193 0 314 73q20 14 12 39l-74 168q-10 25 -39 8q-63 -45 -153 -45q-139 0 -162 97q92 4 172 23.5t145 51.5q183 90 201 254q12 123 -68.5 205t-234.5 82q-115 0 -215 -51v12 q2 20 -18 25q-43 8 -99.5 11t-126.5 3q-238 0 -411 -137q-203 -160 -203 -426zM373 369q0 147 77.5 231t215.5 84h8l-21 -160q-14 -131 -41 -188q-41 -102 -131 -103q-37 0 -69 29q-39 33 -39 107zM930 502q6 45 59 110q70 86 162 86q43 0 37 -41q-20 -137 -258 -155z" />
<glyph unicode="&#xe7;" horiz-adv-x="837" d="M78 395q0 -160 92 -272q94 -115 246 -135l-33 -129q10 2 18 2h17q78 0 71 -45q-2 -29 -61 -39h-86q-18 0 -20 -21l-13 -88q-2 -20 17 -20q10 0 31.5 -2t33.5 -2q223 14 246 176q8 53 -21.5 96t-91.5 55l2 11q152 8 248 67q25 14 12 41l-77 178q-12 27 -39 6 q-45 -33 -133 -32q-160 0 -160 194q0 84 65.5 162t163.5 78q86 0 117 -14q29 -12 41 8l106 178q18 31 0 41q-80 49 -247 49q-207 0 -371 -152q-174 -160 -174 -391z" />
<glyph unicode="&#xe8;" horiz-adv-x="944" d="M78 395q0 -209 131 -319q106 -94 268 -94q190 0 311 73q20 14 13 39l-74 168q-8 27 -39 8q-59 -45 -151 -45q-141 0 -164 97q180 8 319 75q185 90 199 254q6 61 -12.5 113.5t-57.5 91.5t-98 60.5t-135 21.5q-211 0 -361 -162q-150 -158 -149 -381zM367 502q6 45 59 110 q70 86 162 86q43 0 37 -41q-20 -137 -258 -155zM424 1368l180 -258q12 -16 29 -16h88q28 -1 24 28l-57 244q-4 29 -26 29h-218q-14 0 -20 -9q-6 -10 0 -18z" />
<glyph unicode="&#xe9;" horiz-adv-x="944" d="M78 395q0 -209 131 -319q106 -94 268 -94q190 0 311 73q20 14 13 39l-74 168q-8 27 -39 8q-59 -45 -151 -45q-141 0 -164 97q180 8 319 75q185 90 199 254q6 61 -12.5 113.5t-57.5 91.5t-98 60.5t-135 21.5q-211 0 -361 -162q-150 -158 -149 -381zM367 502q6 45 59 110 q70 86 162 86q43 0 37 -41q-20 -137 -258 -155zM555 1122q-12 -29 14 -28h111q16 0 33 16l227 258q20 27 -10 27h-240q-20 0 -33 -29z" />
<glyph unicode="&#xea;" horiz-adv-x="944" d="M78 395q0 -209 131 -319q106 -94 268 -94q190 0 311 73q20 14 13 39l-74 168q-8 27 -39 8q-59 -45 -151 -45q-141 0 -164 97q180 8 319 75q185 90 199 254q6 61 -12.5 113.5t-57.5 91.5t-98 60.5t-135 21.5q-211 0 -361 -162q-150 -158 -149 -381zM293 1112 q-18 -29 10 -29h111q18 0 41 19l139 110l127 -110q20 -18 35 -19h98q30 0 18 29l-118 260q-10 23 -27 23h-240q-18 0 -34 -23zM367 502q6 45 59 110q70 86 162 86q43 0 37 -41q-20 -137 -258 -155z" />
<glyph unicode="&#xeb;" horiz-adv-x="950" d="M78 395q0 -209 131 -319q106 -94 268 -94q190 0 311 73q20 14 13 39l-74 168q-8 27 -39 8q-59 -45 -151 -45q-141 0 -164 97q180 8 319 75q185 90 199 254q6 61 -12.5 113.5t-57.5 91.5t-98 60.5t-135 21.5q-211 0 -361 -162q-150 -158 -149 -381zM213 1309 q0 -68 47 -115t115 -47t115 47t47 115t-47.5 114.5t-114.5 46.5q-68 0 -115 -47t-47 -114zM367 502q6 45 59 110q70 86 162 86q43 0 37 -41q-20 -137 -258 -155zM606 1309q0 -68 47 -115t115 -47t115 47t47 115t-47 114.5t-115 46.5t-115 -47t-47 -114z" />
<glyph unicode="&#xec;" horiz-adv-x="579" d="M123 29q-4 -29 22 -29h209q29 0 33 29l115 862q4 29 -23 29h-211q-27 0 -30 -29zM231 1386q-6 -10 2 -18l179 -258q12 -16 28 -16h90q29 -1 23 28l-55 244q-6 29 -27 29h-219q-14 0 -21 -9z" />
<glyph unicode="&#xed;" horiz-adv-x="577" d="M123 29q-4 -29 22 -29h209q29 0 33 29l115 862q4 29 -23 29h-211q-27 0 -30 -29zM248 1122q-12 -29 14 -28h111q16 0 33 16l227 258q20 27 -12 27h-238q-18 0 -35 -29z" />
<glyph unicode="&#xee;" horiz-adv-x="579" d="M123 29q-4 -29 22 -29h209q29 0 33 29l115 862q4 29 -23 29h-211q-27 0 -30 -29zM135 1112q-18 -29 8 -29h113q16 0 39 19l139 110l127 -110q27 -18 37 -19h98q29 0 17 29l-117 260q-10 23 -29 23h-239q-16 0 -33 -23z" />
<glyph unicode="&#xef;" horiz-adv-x="575" d="M70 1309q0 -68 47 -115t114 -47q66 0 114 47t48 115t-48 114.5t-114 46.5q-68 0 -114.5 -47t-46.5 -114zM123 29q-4 -29 22 -29h209q29 0 33 29l115 862q4 29 -23 29h-211q-27 0 -30 -29zM463 1309q0 -68 47 -115t115 -47q66 0 113.5 47t47.5 115t-48 114.5t-113 46.5 q-68 0 -115 -47t-47 -114z" />
<glyph unicode="&#xf0;" horiz-adv-x="1024" />
<glyph unicode="&#xf1;" horiz-adv-x="1054" d="M92 29q-4 -29 25 -29h215q29 0 33 29l69 483q6 53 33 96q49 88 137 88q70 0 70 -118q0 -10 -3 -35t-7 -64l-62 -450q-4 -29 25 -29h217q29 0 33 29l65 489q6 45 6 100q0 150 -67 236q-66 80 -176 80q-129 0 -222 -55l2 12q10 29 -24 29h-215q-23 0 -33 -29zM322 1137 q-4 -31 16 -31h74q8 0 30 35q25 12 29 12q14 0 42 -6t73 -16.5t79.5 -15.5t59.5 -5q145 0 213 264q10 29 -16 29h-70q-8 0 -33 -33q-10 -12 -33 -12q-16 0 -116 18q-102 18 -154 19q-131 0 -194 -258z" />
<glyph unicode="&#xf2;" horiz-adv-x="1040" d="M78 389q0 -188 123 -301q113 -106 282 -106q207 0 346 157q140 162 140 391q0 184 -121 299q-115 109 -283 109q-197 0 -338 -154q-150 -158 -149 -395zM352 430q0 104 58 182q57 80 141 80q143 0 143 -209q0 -98 -57 -176q-59 -80 -139 -80q-66 0 -106 52.5t-40 150.5z M408 1368l178 -258q12 -16 28 -16h91q28 -1 22 28l-55 244q-6 29 -27 29h-219q-16 0 -18 -9q-6 -10 0 -18z" />
<glyph unicode="&#xf3;" horiz-adv-x="1040" d="M78 389q0 -188 123 -301q113 -106 282 -106q207 0 346 157q140 162 140 391q0 184 -121 299q-115 109 -283 109q-197 0 -338 -154q-150 -158 -149 -395zM352 430q0 104 58 182q57 80 141 80q143 0 143 -209q0 -98 -57 -176q-59 -80 -139 -80q-66 0 -106 52.5t-40 150.5z M414 1122q-12 -29 14 -28h111q14 0 30 16l230 258q6 8 6 14q0 12 -19 13h-237q-23 0 -35 -29z" />
<glyph unicode="&#xf4;" horiz-adv-x="1040" d="M78 389q0 -188 123 -301q113 -106 282 -106q207 0 346 157q140 162 140 391q0 184 -121 299q-115 109 -283 109q-197 0 -338 -154q-150 -158 -149 -395zM326 1112q-18 -29 10 -29h110q16 0 39 19l140 110l129 -110q20 -18 34 -19h99q30 0 18 29l-119 260q-10 23 -26 23 h-242q-16 0 -33 -23zM352 430q0 104 58 182q57 80 141 80q143 0 143 -209q0 -98 -57 -176q-59 -80 -139 -80q-66 0 -106 52.5t-40 150.5z" />
<glyph unicode="&#xf5;" horiz-adv-x="1036" d="M78 389q0 -188 123 -301q113 -106 282 -106q207 0 346 157q140 162 140 391q0 184 -121 299q-115 109 -283 109q-197 0 -338 -154q-150 -158 -149 -395zM315 1137q-4 -31 17 -31h74q8 0 30 35q12 12 27 12q23 0 117 -23q45 -10 79.5 -15t59.5 -5q145 0 213 264 q10 29 -17 29h-69q-8 0 -33 -33q-10 -12 -33 -12q-16 0 -116 18q-102 18 -154 19q-131 0 -195 -258zM352 430q0 104 58 182q57 80 141 80q143 0 143 -209q0 -98 -57 -176q-59 -80 -139 -80q-66 0 -106 52.5t-40 150.5z" />
<glyph unicode="&#xf6;" horiz-adv-x="1038" d="M78 389q0 -188 123 -301q113 -106 282 -106q207 0 346 157q140 162 140 391q0 184 -121 299q-115 109 -283 109q-197 0 -338 -154q-150 -158 -149 -395zM293 1309q0 -68 47 -115t115 -47t114.5 47t46.5 115t-47 114.5t-114 46.5q-68 0 -115 -47t-47 -114zM352 430 q0 104 58 182q57 80 141 80q143 0 143 -209q0 -98 -57 -176q-59 -80 -139 -80q-66 0 -106 52.5t-40 150.5zM686 1309q0 -68 47 -115t115 -47t115 47t47 115t-47.5 114.5t-114.5 46.5q-68 0 -115 -47t-47 -114z" />
<glyph unicode="&#xf7;" horiz-adv-x="1009" />
<glyph unicode="&#xf8;" horiz-adv-x="1040" d="M78 389q0 -147 84 -260l-78 -86q-20 -27 -2 -43l49 -41q20 -20 39 2l78 90q102 -70 235 -69q207 0 346 157q139 162 140 391q0 143 -74 246l78 88q18 21 2 41l-43 47q-16 20 -39 -2l-80 -90q-109 78 -248 78q-197 0 -338 -154q-150 -158 -149 -395zM352 430q0 106 58 182 q57 80 139 80q57 1 88 -30l-275 -308q-10 41 -10 76zM428 252l262 295q2 -20 3 -37t1 -27q0 -96 -53 -174q-57 -82 -139 -82q-43 0 -74 25z" />
<glyph unicode="&#xf9;" horiz-adv-x="1040" d="M117 258q0 -276 342 -276q231 0 348 145q80 98 100 248l76 516q4 29 -27 29h-215q-31 0 -34 -29l-68 -455q-12 -84 -27 -123q-37 -104 -131 -104q-53 0 -82 35q-16 25 -8 84l82 563q4 29 -27 29h-215q-31 0 -34 -29l-68 -494q-12 -86 -12 -139zM463 1368l180 -258 q12 -16 27 -16h90q28 -1 22 28l-55 244q-6 29 -27 29h-219q-12 0 -18 -9q-6 -10 0 -18z" />
<glyph unicode="&#xfa;" horiz-adv-x="1040" d="M117 258q0 -276 342 -276q231 0 348 145q80 98 100 248l76 516q4 29 -27 29h-215q-31 0 -34 -29l-68 -455q-12 -84 -27 -123q-37 -104 -131 -104q-53 0 -82 35q-16 25 -8 84l82 563q4 29 -27 29h-215q-31 0 -34 -29l-68 -494q-12 -86 -12 -139zM506 1122q-12 -29 14 -28 h111q16 0 33 16l227 258q20 27 -12 27h-238q-18 0 -35 -29z" />
<glyph unicode="&#xfb;" horiz-adv-x="1040" d="M117 258q0 -276 342 -276q231 0 348 145q80 98 100 248l76 516q4 29 -27 29h-215q-31 0 -34 -29l-68 -455q-12 -84 -27 -123q-37 -104 -131 -104q-53 0 -82 35q-16 25 -8 84l82 563q4 29 -27 29h-215q-31 0 -34 -29l-68 -494q-12 -86 -12 -139zM332 1112q-16 -29 8 -29 h111q18 0 41 19l139 110l127 -110q20 -18 35 -19h100q28 0 16 29l-116 260q-10 23 -29 23h-240q-18 0 -35 -23z" />
<glyph unicode="&#xfc;" horiz-adv-x="1052" d="M117 258q0 -276 342 -276q231 0 348 145q80 98 100 248l76 516q4 29 -27 29h-215q-31 0 -34 -29l-68 -455q-12 -84 -27 -123q-37 -104 -131 -104q-53 0 -82 35q-16 25 -8 84l82 563q4 29 -27 29h-215q-31 0 -34 -29l-68 -494q-12 -86 -12 -139zM279 1309q0 -68 47 -115 t114 -47q66 0 114 47t48 115t-48 114.5t-114 46.5q-68 0 -114.5 -47t-46.5 -114zM672 1309q0 -68 47 -115t115 -47q66 0 113.5 47t47.5 115t-48 114.5t-113 46.5q-68 0 -115 -47t-47 -114z" />
<glyph unicode="&#xfd;" horiz-adv-x="1024" />
<glyph unicode="&#xfe;" horiz-adv-x="1024" />
<glyph unicode="&#xff;" horiz-adv-x="919" d="M27 -444q-4 -25 24 -25q387 20 557 424l387 924q23 41 -12 41h-248q-33 0 -39 -21l-186 -549l-100 543q-2 27 -35 27h-248q-35 0 -25 -41l228 -904q-31 -94 -117 -137q-68 -33 -125 -24q-33 4 -35 -33zM199 1309q0 -68 47 -115t114 -47q66 0 114 47t48 115t-48 114.5 t-114 46.5q-68 0 -114.5 -47t-46.5 -114zM592 1309q0 -68 47 -115t115 -47q66 0 113.5 47t47.5 115t-48 114.5t-113 46.5q-68 0 -115 -47t-47 -114z" />
<glyph unicode="&#x152;" horiz-adv-x="2125" d="M127 575q0 -283 178 -444q162 -150 402 -149q176 0 327 86l-6 -39q-4 -29 25 -29h958q29 0 33 29l29 194q4 29 -25 29h-698l45 330h508q27 0 30 28l31 197q4 29 -25 29h-507l41 307h591q27 0 33 28l27 195q10 29 -23 29h-852q-29 0 -32 -29l-11 -70q-156 119 -362 119 q-293 0 -502 -235q-215 -244 -215 -605zM422 596q0 246 139 403q123 139 277 140q127 0 206 -82q86 -90 86 -246q0 -254 -126 -412q-117 -143 -287 -143q-123 0 -205 78q-90 90 -90 262z" />
<glyph unicode="&#x153;" horiz-adv-x="1548" d="M78 389q0 -188 123 -301q113 -106 282 -106q172 0 305 114q115 -115 291 -114q193 0 314 73q20 14 12 39l-74 168q-12 27 -39 8q-63 -45 -153 -45q-139 0 -162 97q92 4 172 23.5t145 51.5q183 90 201 254q6 61 -12.5 113.5t-57.5 91.5t-99 60.5t-136 21.5 q-184 0 -324 -125q-119 125 -301 125q-197 0 -338 -154q-150 -158 -149 -395zM352 430q0 106 58 182q57 80 139 80q145 0 145 -209q0 -96 -53 -174q-57 -82 -139 -82q-63 0 -106.5 55.5t-43.5 147.5zM971 502q6 45 59 110q70 86 162 86q43 0 37 -41q-20 -137 -258 -155z" />
<glyph unicode="&#x178;" horiz-adv-x="1142" d="M129 1356l332 -709l-86 -618q-4 -29 24 -29h234q29 0 33 29l86 620l489 705q23 41 -12 41h-258q-35 0 -53 -31l-275 -444l-176 446q-12 29 -45 29h-272q-35 0 -21 -39zM375 1686q0 -68 47 -115t115 -47q66 0 113.5 47t47.5 115t-48 114.5t-113 46.5q-68 0 -115 -47 t-47 -114zM768 1686q0 -68 47 -115t115 -47q66 0 114 47t48 115t-48.5 114.5t-113.5 46.5q-68 0 -115 -47t-47 -114z" />
<glyph unicode="&#x2c6;" horiz-adv-x="538" d="M104 1112q-18 -29 9 -29h112q16 0 39 19l139 110l127 -110q27 -18 37 -19h99q28 0 16 29l-117 260q-10 23 -28 23h-240q-16 0 -33 -23z" />
<glyph unicode="&#x2dc;" horiz-adv-x="536" d="M178 1137q-4 -31 17 -31h71q10 0 33 35q12 12 27 12q23 0 116 -23q45 -10 80 -15t60 -5q139 0 213 264q10 29 -17 29h-69q-8 0 -33 -33q-10 -12 -33 -12q-16 0 -117 18q-102 18 -153 19q-131 0 -195 -258z" />
<glyph unicode="&#x2000;" horiz-adv-x="952" />
<glyph unicode="&#x2001;" horiz-adv-x="1905" />
<glyph unicode="&#x2002;" horiz-adv-x="952" />
<glyph unicode="&#x2003;" horiz-adv-x="1905" />
<glyph unicode="&#x2004;" horiz-adv-x="635" />
<glyph unicode="&#x2005;" horiz-adv-x="476" />
<glyph unicode="&#x2006;" horiz-adv-x="317" />
<glyph unicode="&#x2007;" horiz-adv-x="317" />
<glyph unicode="&#x2008;" horiz-adv-x="238" />
<glyph unicode="&#x2009;" horiz-adv-x="381" />
<glyph unicode="&#x200a;" horiz-adv-x="105" />
<glyph unicode="&#x2010;" horiz-adv-x="862" d="M180 317q-4 -29 25 -28h399q27 0 31 28l29 211q4 29 -25 29h-397q-29 0 -33 -29z" />
<glyph unicode="&#x2011;" horiz-adv-x="862" d="M180 317q-4 -29 25 -28h399q27 0 31 28l29 211q4 29 -25 29h-397q-29 0 -33 -29z" />
<glyph unicode="&#x2012;" horiz-adv-x="862" d="M180 317q-4 -29 25 -28h399q27 0 31 28l29 211q4 29 -25 29h-397q-29 0 -33 -29z" />
<glyph unicode="&#x2013;" horiz-adv-x="1087" d="M117 449q-4 -31 22 -31h928q29 0 33 31l18 141q2 31 -22 31h-928q-25 0 -33 -31z" />
<glyph unicode="&#x2014;" horiz-adv-x="2023" d="M117 449q-4 -31 22 -31h1866q27 0 31 31l20 141q2 31 -24 31h-1864q-25 0 -33 -31z" />
<glyph unicode="&#x2018;" horiz-adv-x="618" d="M129 1024q0 -117 55.5 -186.5t149.5 -69.5q80 0 130 46t50 132q0 70 -44 116t-116 56q23 63 47 94q18 23 50 48.5t77 54.5q31 23 17 37l-35 55q-4 6 -27 6q-156 -51 -254 -162q-100 -113 -100 -227z" />
<glyph unicode="&#x2019;" horiz-adv-x="862" d="M246 829l35 -55q2 -6 28 -6q152 49 252.5 161.5t100.5 227.5q0 117 -54.5 186.5t-148.5 69.5q-80 0 -131.5 -46t-51.5 -132q0 -70 44.5 -116t115.5 -56q-20 -63 -45 -94q-18 -23 -50 -48.5t-77 -54.5q-29 -18 -18 -37z" />
<glyph unicode="&#x201a;" horiz-adv-x="782" d="M176 -233l35 -56q2 -6 29 -6q152 49 252 161.5t100 227.5q0 117 -55.5 186.5t-149.5 69.5q-82 0 -127 -45q-53 -47 -53 -133q0 -70 44 -116t116 -56q-23 -63 -48 -94q-16 -23 -47.5 -48.5t-76.5 -54.5q-29 -18 -19 -36z" />
<glyph unicode="&#x201c;" horiz-adv-x="1120" d="M129 1024q0 -117 55.5 -186.5t149.5 -69.5q80 0 130 46t50 132q0 70 -44 116t-116 56q23 63 47 94q18 23 50 48.5t77 54.5q31 23 17 37l-35 55q-4 6 -27 6q-156 -51 -254 -162q-100 -113 -100 -227zM629 1024q0 -117 55 -186.5t150 -69.5q80 0 130 46t50 132 q0 70 -44 116t-114 56q20 63 45 94q18 23 50 48.5t77 54.5q30 23 16 37l-34 55q-4 6 -27 6q-156 -51 -254 -162q-100 -113 -100 -227z" />
<glyph unicode="&#x201d;" horiz-adv-x="1361" d="M246 829l35 -55q2 -6 28 -6q152 49 252.5 161.5t100.5 227.5q0 117 -54.5 186.5t-148.5 69.5q-80 0 -131.5 -46t-51.5 -132q0 -70 44.5 -116t115.5 -56q-20 -63 -45 -94q-18 -23 -50 -48.5t-77 -54.5q-29 -18 -18 -37zM745 829l35 -55q2 -6 29 -6q152 49 252 161.5 t100 227.5q0 117 -54 186.5t-149 69.5q-80 0 -130 -46t-50 -132q0 -70 43 -116t115 -56q-20 -63 -45 -94q-18 -23 -50 -48.5t-77 -54.5q-29 -18 -19 -37z" />
<glyph unicode="&#x201e;" horiz-adv-x="1282" d="M176 -233l35 -56q2 -6 29 -6q152 49 252 161.5t100 227.5q0 117 -55.5 186.5t-149.5 69.5q-82 0 -127 -45q-53 -47 -53 -133q0 -70 44 -116t116 -56q-23 -63 -48 -94q-16 -23 -47.5 -48.5t-76.5 -54.5q-29 -18 -19 -36zM676 -233l35 -56q2 -6 28 -6q152 49 252.5 161.5 t100.5 227.5q0 117 -54.5 186.5t-148.5 69.5q-80 0 -131 -46t-51 -132q0 -70 44 -116t115 -56q-20 -63 -45 -94q-18 -23 -50 -48.5t-77 -54.5q-29 -18 -18 -36z" />
<glyph unicode="&#x2022;" horiz-adv-x="753" d="M133 698q0 -104 74 -180q76 -74 180 -74t178 74q76 76 76 180t-76 179q-74 76 -178 75q-104 0 -180 -75q-74 -74 -74 -179z" />
<glyph unicode="&#x2026;" horiz-adv-x="2246" d="M166 160q0 -74 53 -126t127 -52t126 52t52 126q0 76 -52 128t-126 52t-127 -52t-53 -128zM928 160q0 -74 52 -126t126 -52q76 0 128 52t52 126q0 76 -52 128t-128 52q-74 0 -126 -52t-52 -128zM1688 160q0 -74 53 -126t127 -52t126 52t52 126q0 76 -52 128t-126 52 t-127 -52t-53 -128z" />
<glyph unicode="&#x202f;" horiz-adv-x="381" />
<glyph unicode="&#x2039;" horiz-adv-x="622" d="M-8 438l201 -405q14 -33 40 -33h191q27 0 14 29l-180 434l307 432q23 29 -12 29h-207q-27 0 -51 -33l-297 -406q-18 -25 -6 -47z" />
<glyph unicode="&#x203a;" horiz-adv-x="698" d="M100 29q-23 -29 13 -29h209q27 0 51 33l295 405q20 20 8 47l-201 406q-14 33 -43 33h-190q-25 0 -13 -29l179 -434z" />
<glyph unicode="&#x205f;" horiz-adv-x="476" />
<glyph unicode="&#x20ac;" horiz-adv-x="1214" d="M-23 457q-6 -31 23 -31h127q55 -211 233 -334q162 -111 361 -110q223 0 391 77q27 12 14 41l-86 203q-10 25 -39 8q-102 -53 -237 -53q-209 0 -307 168h291q16 0 32 31l78 147q8 12 2 25q-6 16 -26 16h-426q0 37 10 88h495q14 0 31 31l78 145q8 14 2 27q-4 16 -27 16 h-473q154 190 350 191q113 0 213 -33q29 -12 41 6l121 201q18 31 0 41q-145 57 -350 57q-217 0 -416 -129q-197 -127 -299 -334h-92q-25 0 -31 -28l-28 -160q-6 -31 22 -31h60q-8 -33 -11 -88h-67q-25 0 -31 -29z" />
<glyph unicode="&#x2122;" horiz-adv-x="1476" d="M176 1319q-6 -39 31 -39h129l-68 -514q-2 -39 31 -39h113q39 0 41 39l67 514h131q35 0 41 39l15 104q2 37 -31 37h-445q-39 0 -41 -37zM657 766q-6 -39 31 -39h107q39 0 41 39l41 315l51 -166q8 -27 33 -26h81q27 0 41 26l93 166l-41 -315q-2 -39 30 -39h107q35 0 41 39 l88 657q2 37 -31 37h-117q-18 0 -30 -20l-189 -314l-110 308q-8 27 -31 26h-107q-39 0 -41 -37z" />
<glyph unicode="&#x25fc;" horiz-adv-x="921" d="M0 0v922h922v-922h-922z" />
</font>
</defs>
</svg>
