<?xml version="1.0" standalone="no"?>
<!DOCTYPE svg PUBLIC "-//W3C//DTD SVG 1.1//EN" "http://www.w3.org/Graphics/SVG/1.1/DTD/svg11.dtd" >
<svg xmlns="http://www.w3.org/2000/svg">
<metadata></metadata>
<defs>
<font id="houschkaaltlightitalicregular" horiz-adv-x="1024" >
<font-face units-per-em="2048" ascent="1638" descent="-410" />
<missing-glyph horiz-adv-x="548" />
<glyph horiz-adv-x="2048" />
<glyph horiz-adv-x="2048" />
<glyph unicode="&#xd;" />
<glyph unicode=" "  horiz-adv-x="548" />
<glyph unicode="&#x09;" horiz-adv-x="548" />
<glyph unicode="&#xa0;" horiz-adv-x="548" />
<glyph unicode="!" horiz-adv-x="387" d="M92 12q-4 -12 10 -12h72q14 0 16 14l25 183q0 14 -10 14h-74q-12 0 -14 -14zM160 365q-2 -14 10 -15h35q12 0 14 15l168 1034q2 12 -10 12h-76q-14 0 -14 -12z" />
<glyph unicode="&#x22;" horiz-adv-x="995" />
<glyph unicode="#" horiz-adv-x="1318" d="M-8 274q0 -12 10 -12h199l-140 -416q-4 -12 11 -12h61q8 0 14 14l140 414h430l-139 -416q-4 -12 12 -12h59q12 0 15 14l139 414h313q14 0 14 12l9 56q2 14 -11 14h-299l140 408h215q14 0 14 14l8 55q2 12 -10 13h-201l140 417q2 12 -11 13h-61q-6 0 -14 -15l-140 -415 h-432l141 417q2 12 -12 13h-59q-12 0 -15 -15l-141 -415h-309q-14 0 -14 -13l-9 -55q0 -14 11 -14h295l-138 -408h-213q-14 -2 -14 -14zM313 344l138 408h432l-138 -408h-432z" />
<glyph unicode="$" horiz-adv-x="1073" d="M41 90q0 -2 4 -6q137 -96 350 -102l-10 -72q-2 -14 10 -14h66q14 0 14 14l10 74q193 16 300.5 115.5t107.5 265.5q0 129 -98 213q-49 45 -211 116l73 529q137 -4 234 -49q14 -4 16 4l41 65q10 12 -2 17q-115 49 -276 55l12 94q2 14 -10 14h-66q-12 0 -14 -14l-12 -96 q-199 -14 -301.5 -103.5t-102.5 -236.5q0 -129 92 -211q47 -43 197 -119l20 -10l-77 -561q-186 6 -302 94q-6 6 -18 -2l-47 -60q-2 -6 0 -14zM276 983q0 215 289 238l-65 -488q-106 51 -156 96q-68 63 -68 154zM498 76l71 518q53 -27 93 -49.5t63 -44.5q68 -62 68 -150 q0 -244 -295 -274z" />
<glyph unicode="%" horiz-adv-x="1273" d="M96 -6q-12 -12 4 -12h86q8 0 15 14l1044 1405q12 12 -6 12h-82q-6 0 -14 -14zM137 1053q0 -61 20.5 -110.5t57.5 -84.5t85 -53.5t103 -18.5q137 0 228 103q92 104 92 256q0 61 -20.5 110.5t-56.5 85t-85 54t-104 18.5q-129 0 -221 -100q-98 -109 -99 -260zM217 1063 q0 117 70 192q70 80 164 80q82 0 136 -54t54 -146q0 -113 -68 -193q-66 -80 -163 -80q-80 0 -136.5 54.5t-56.5 146.5zM616 248q0 -61 20.5 -110.5t57.5 -85.5t85 -54t104 -18q137 0 227 104q92 104 92 256q0 61 -20.5 110.5t-56 85t-85 54t-104.5 18.5q-129 0 -221 -100 q-98 -109 -99 -260zM694 258q0 117 70 193q70 80 166 79q82 0 136 -54t54 -146q0 -113 -67 -193q-66 -80 -166 -80q-80 0 -133 54q-59 55 -60 147z" />
<glyph unicode="&#x26;" horiz-adv-x="1280" d="M90 356q-10 -188 109 -288q109 -90 282 -91q211 0 375 142q150 -137 270 -137q14 0 15 14l10 74q-2 8 -10 12q-90 -4 -217 111q145 174 180 436q2 14 -10 14h-72q-14 0 -14 -14q-35 -229 -152 -371q-193 199 -299 469q197 94 270 156q125 106 136 252q8 111 -54.5 180 t-187.5 69q-139 0 -232 -98q-90 -98 -98 -246q-6 -98 47 -270q-156 -76 -233 -158q-104 -104 -115 -256zM190 356q2 111 89 197q57 61 190 129q118 -293 319 -498q-127 -111 -294 -110q-315 0 -304 282zM489 1038q4 111 68 180.5t154 69.5q159 1 153 -153q-2 -106 -108 -191 q-59 -47 -228 -129q-43 123 -39 223z" />
<glyph unicode="'" horiz-adv-x="331" d="M84 969l14 -23q6 -10 15 -4q180 82 209 307l18 146q0 12 -12 12h-70q-14 0 -16 -12l-25 -185q-4 -12 10 -12h29q-23 -127 -164 -213q-12 -2 -8 -16z" />
<glyph unicode="(" horiz-adv-x="475" d="M66 291q0 -424 229 -746q6 -8 18 -8h39q14 0 6 14q-182 309 -182 693q0 680 408 1155q12 14 -4 14h-37q-12 0 -21 -8q-457 -475 -456 -1114z" />
<glyph unicode=")" horiz-adv-x="503" d="M-80 -449q-12 -14 4 -14h37q12 0 21 8q456 475 456 1114q0 424 -229 746q-6 8 -19 8h-38q-14 0 -7 -14q182 -309 183 -692q0 -680 -408 -1156z" />
<glyph unicode="*" horiz-adv-x="716" d="M129 999l18 -43q2 -8 13 -4l225 127l-35 -252q-4 -12 8 -12h45q12 0 13 12l35 252l190 -125q10 -12 14 4l29 41q8 10 -2 15l-190 127l225 127q14 4 6 14l-16 43q-2 6 -15 4l-223 -127l35 252q0 12 -10 12h-45q-10 0 -13 -12l-35 -252l-190 127q-6 4 -14 -4l-29 -43 q-8 -10 2 -14l190 -127l-225 -127q-10 -4 -6 -15z" />
<glyph unicode="+" horiz-adv-x="1124" d="M141 688q0 -12 11 -12h397l-57 -422q0 -12 10 -12h69q14 0 15 12l57 422h399q12 0 15 14l8 68q2 12 -10 12h-398l58 422q2 12 -10 12h-70q-12 0 -14 -12l-58 -422h-399q-12 0 -12 -14z" />
<glyph unicode="," horiz-adv-x="440" d="M23 -199l12 -24q8 -4 12 -4q72 23 127 90t68 151l26 183q0 14 -12 14h-70q-14 0 -16 -14l-25 -185q-4 -12 11 -12h26q-25 -115 -151 -182q-10 -10 -8 -17z" />
<glyph unicode="-" horiz-adv-x="858" d="M182 438q0 -12 13 -12h444q12 0 14 14l11 66q0 12 -13 12h-444q-12 0 -14 -14z" />
<glyph unicode="." horiz-adv-x="452" d="M143 12q0 -12 11 -12h73q12 0 15 14l24 183q2 14 -10 14h-74q-12 0 -14 -14z" />
<glyph unicode="/" horiz-adv-x="688" d="M-109 -18q-10 -12 9 -13h86q6 0 14 15l877 1429q8 12 -11 12h-86q-10 0 -12 -14z" />
<glyph unicode="0" horiz-adv-x="1187" d="M76 420q0 -248 160 -361q115 -82 301 -82q285 0 444 213q141 191 141 482q0 444 -460 444q-285 0 -443 -213q-143 -193 -143 -483zM180 430q0 246 113 408q129 188 362 188q361 0 361 -367q0 -242 -111 -403q-129 -188 -362 -188q-150 0 -244 73q-119 92 -119 289z" />
<glyph unicode="1" horiz-adv-x="1187" d="M147 12q0 -12 13 -12h729q14 0 14 14l10 60q0 14 -12 14h-280l143 1016q0 12 -12 12h-58q-14 0 -26 -4l-363 -86q-14 -2 -14 -16l-8 -58q-2 -14 8 -14l354 76l-131 -926h-342q-14 0 -16 -14z" />
<glyph unicode="2" horiz-adv-x="1187" d="M150 20q-2 -20 16 -20h747q20 0 21 16l6 56q4 16 -14 16h-658l2 10q25 123 131 205q80 66 252 137q199 82 287 156q117 101 117 238q0 145 -105 219q-88 63 -237 63q-256 0 -424 -160q-12 -10 -2 -20l37 -45q10 -12 18 2q150 139 356 139q258 0 258 -205 q0 -115 -110 -196q-39 -29 -104.5 -61.5t-161.5 -71.5q-78 -33 -142.5 -67t-111.5 -73q-147 -117 -172 -295z" />
<glyph unicode="3" horiz-adv-x="1187" d="M55 -197q-8 -12 2 -18q143 -100 342 -100q231 0 371 141q123 129 123 315q0 221 -205 289q-2 2 0 4q109 39 179.5 132t70.5 210q0 154 -92 244q-100 96 -271 96q-133 0 -301 -90q-10 -6 -6 -16l33 -64q4 -8 14 -4q131 80 252 80q135 0 207 -72q66 -70 66 -180 q0 -125 -101 -213q-98 -90 -231 -86l-133 2q-12 2 -13 -10l-14 -72q0 -14 10 -14q37 2 58 2h26q41 -2 68 -3t37 -1q119 -12 183.5 -81t64.5 -169q0 -139 -95 -236q-109 -111 -294 -110q-172 0 -295 92q-8 8 -17 -4z" />
<glyph unicode="4" horiz-adv-x="1187" d="M74 12q0 -12 12 -12h707l-41 -279q0 -14 12 -14h78q14 0 16 14l39 279h197q12 0 14 14l8 60q2 14 -10 14h-197l142 1002q0 12 -13 12h-71q-14 0 -23 -12l-850 -992q-8 -8 -10 -16zM193 88l731 848l-119 -848h-612z" />
<glyph unicode="5" horiz-adv-x="1187" d="M158 -195q-8 -12 2 -18q145 -102 346 -102q207 0 358 153q150 152 150 377q0 174 -96 281q-102 109 -277 108q-164 0 -295 -117l90 519h522q14 0 15 12l6 67q0 12 -12 13h-600q-12 0 -17 -17l-123 -725q-2 -8 11 -12l67 -16q6 -2 14 12q135 164 314 164q129 0 203.5 -78 t74.5 -213q0 -182 -120 -307q-119 -125 -283 -125q-168 0 -293 92q-8 8 -18 -4z" />
<glyph unicode="6" horiz-adv-x="1187" d="M162 438q0 -457 383 -456q223 0 354 161q125 150 125 369q0 152 -80 244q-94 106 -282 106q-121 0 -236 -71q-90 -57 -137 -136q41 279 151 451q135 209 348 209q106 0 197 -25q14 -2 16 4l31 76q10 12 -6 16q-92 27 -225 27q-317 0 -496 -342q-143 -279 -143 -633z M279 352q0 168 110 289q113 123 264 123q269 0 269 -266q0 -168 -93 -287q-102 -133 -272 -133q-141 0 -215 86q-63 72 -63 188z" />
<glyph unicode="7" horiz-adv-x="1187" d="M145 776q-4 -12 11 -12h65q10 0 15 12l32 230h664q-66 -104 -120 -191.5t-95 -157.5l-561 -942q-2 -2 2 -7t8 -5h88q12 0 18 14l760 1289q6 6 6 14l11 65q0 12 -11 13h-839q-14 0 -17 -15z" />
<glyph unicode="8" horiz-adv-x="1187" d="M100 301q0 -168 127 -252q104 -68 281 -67q244 0 383 114q129 106 129 297q0 121 -96 213q-68 63 -195 129q334 131 334 383q0 137 -96.5 216t-261.5 79q-217 0 -337 -92t-120 -248q0 -201 264 -332q-215 -82 -313.5 -186t-98.5 -254zM203 315q0 233 411 369 q143 -68 203 -117q101 -81 101 -190q0 -127 -91 -207q-104 -92 -307 -92q-317 0 -317 237zM350 1083q0 102 84 164q94 72 266 72q263 0 263 -217q0 -207 -336 -316q-276 125 -277 297z" />
<glyph unicode="9" horiz-adv-x="1187" d="M166 -272q-6 -12 6 -17q88 -27 227 -26q319 0 496 344q143 274 143 630q0 457 -383 457q-223 0 -354 -162q-125 -150 -125 -368q0 -172 96.5 -261t264.5 -89q106 0 213 57q109 59 161 149q-37 -258 -141 -430q-137 -229 -358 -229q-109 0 -197 24q-16 4 -18 -4zM276 600 q0 166 93 287q102 133 274 133q141 0 215 -86q64 -72 64 -189q0 -170 -113 -290q-115 -121 -264 -121q-268 0 -269 266z" />
<glyph unicode=":" horiz-adv-x="352" d="M143 12q0 -12 13 -12h71q14 0 15 14l24 183q2 14 -10 14h-72q-14 0 -14 -14zM244 723q0 -14 10 -14h74q12 0 14 14l25 184q2 12 -11 13h-71q-14 0 -17 -15z" />
<glyph unicode=";" horiz-adv-x="403" d="M23 -199l10 -24q4 -4 14 -4q72 25 127 90t68 151l24 183q2 14 -10 14h-72q-14 0 -14 -14l-27 -185q0 -12 13 -12h26q-25 -115 -151 -182q-16 -10 -8 -17zM244 723q0 -14 10 -14h74q12 0 14 14l25 184q2 12 -11 13h-71q-14 0 -17 -15z" />
<glyph unicode="&#x3c;" horiz-adv-x="1081" d="M197 676q0 -12 10 -19l717 -442q14 -8 14 6l14 82q0 12 -8 21l-643 401l754 399q8 6 12 17l12 82q0 20 -14 12l-840 -444q-14 -8 -14 -17z" />
<glyph unicode="=" horiz-adv-x="1132" d="M109 440q0 -14 12 -14h885q14 0 14 14l10 68q0 12 -10 12h-887q-14 0 -14 -12zM178 938q0 -12 10 -12h887q14 0 15 14l10 68q0 12 -13 12h-884q-14 0 -15 -14z" />
<glyph unicode="&#x3e;" horiz-adv-x="1077" d="M78 221q6 -6 12 -6l840 442q10 8 14 19l12 98q4 10 -8 17l-717 444q-14 2 -14 -8l-14 -82q-2 -10 8 -19l643 -401l-754 -401q-10 -6 -14 -19z" />
<glyph unicode="?" horiz-adv-x="909" d="M133 1268l33 -64q4 -14 16 -4q162 119 318 119q131 0 200 -76q63 -70 64 -180q0 -154 -166 -277q-92 -70 -144.5 -109.5t-64.5 -53.5q-82 -88 -106 -258q0 -14 12 -15h74q14 0 14 15q25 176 176 280q156 109 213 178q94 109 94 250q0 74 -24.5 136.5t-70.5 107.5 t-110.5 70.5t-144.5 25.5q-195 0 -377 -127q-10 -10 -6 -18zM236 12q0 -12 12 -12h71q14 0 15 14l24 183q2 14 -10 14h-72q-14 0 -14 -14z" />
<glyph unicode="@" horiz-adv-x="1837" d="M238 678q0 -336 208 -535q211 -199 547 -198q260 0 475 80q10 4 7 16l-13 33q-6 10 -16 6q-197 -76 -453 -76q-164 0 -293 51q-188 72 -292 232q-111 162 -111 385q0 281 201 475q205 195 489 194q260 0 430 -143q182 -154 182 -401q0 -186 -100 -326 q-102 -141 -223 -141q-63 0 -53 71l51 373q2 18 3 35.5t1 34.5q0 145 -96 211q-63 45 -162 45q-152 0 -272 -96q-10 -6 -7 -17l29 -51q4 -10 14 -2q106 82 226 82q180 0 180 -182q0 -14 -1 -27.5t-3 -30.5v-6q-209 -12 -320 -49q-221 -78 -221 -262q0 -98 66.5 -153.5 t171.5 -55.5q147 0 245 104q0 -98 95 -98q188 0 317 176q119 162 119 363q0 272 -197 442q-186 162 -477 162q-311 0 -530 -213q-217 -211 -217 -508zM731 471q2 106 123 162q61 29 162 43q29 4 68 7t90 7l-31 -227q-100 -135 -252 -131q-164 4 -160 139z" />
<glyph unicode="A" horiz-adv-x="1206" d="M0 12q-4 -4 -4 -7q0 -5 12 -5h88q10 0 17 14l174 353h622l70 -355q0 -12 12 -12h78q14 0 12 14l-284 1375q0 12 -11 12h-73q-8 0 -17 -15zM336 463l397 794l156 -794h-553z" />
<glyph unicode="B" horiz-adv-x="1212" d="M92 12q-1 -3 -1 -5q0 -7 11 -7h527q219 0 350 94q156 107 156 318q0 270 -316 327q-2 2 0 4q242 74 242 330q0 154 -139 244q-121 78 -281 78h-342q-14 0 -14 -15zM207 90l82 596h344q178 0 280 -63q117 -72 117 -207q0 -172 -131 -254q-109 -72 -287 -72h-405zM301 774 l76 533h258q125 0 215 -58q106 -69 106 -186q0 -289 -397 -289h-258z" />
<glyph unicode="C" horiz-adv-x="1224" d="M90 610q0 -297 199 -471q175 -157 415 -157h3q227 0 397 79q12 2 8 19l-31 67q-4 14 -16 5q-160 -72 -344 -72q-209 0 -359 135q-166 150 -165 399q0 285 215 498q205 203 465 203q166 0 307 -47q16 -4 18 4l41 69q4 5 4 10t-6 9q-133 55 -356 55q-305 0 -545 -233 q-250 -244 -250 -572z" />
<glyph unicode="D" horiz-adv-x="1368" d="M92 12q-1 -3 -1 -5q0 -7 11 -7h334q412 0 619 158q268 207 268 547q0 209 -93 367.5t-253 244.5q-145 78 -375 78h-303q-14 0 -14 -15zM207 94l168 1206h233q188 0 322 -73q287 -160 287 -535q0 -291 -234 -463q-184 -135 -512 -135h-264z" />
<glyph unicode="E" horiz-adv-x="1148" d="M92 12q-1 -3 -1 -5q0 -7 11 -7h945q14 0 14 14l10 64q0 14 -10 14h-854l78 563h667q14 0 15 15l10 65q0 12 -10 13h-670l78 557h749q12 0 17 12l8 65q2 12 -10 13h-840q-14 0 -14 -15z" />
<glyph unicode="F" horiz-adv-x="1005" d="M92 12q-1 -3 -1 -5q0 -7 11 -7h78q12 0 15 14l90 641h587q14 0 15 15l10 65q0 12 -12 13h-588l78 557h692q10 0 14 12l11 65q0 12 -13 13h-780q-14 0 -14 -15z" />
<glyph unicode="G" horiz-adv-x="1376" d="M90 610q0 -297 197 -471q175 -157 412 -157h3q215 0 398 108l-10 -78q-4 -12 10 -12h76q14 0 16 14l86 619q0 14 -12 14h-523q-12 0 -14 -14l-8 -66q-4 -12 10 -12h434l-49 -348q-176 -129 -401 -129q-209 0 -355 137q-164 152 -163 399q0 285 215 498q205 203 465 203 q166 0 307 -47q16 -4 18 4l41 69q8 12 -2 19q-133 55 -356 55q-305 0 -545 -233q-250 -244 -250 -572z" />
<glyph unicode="H" horiz-adv-x="1386" d="M92 12q-1 -3 -1 -5q0 -7 11 -7h78q14 0 15 14l90 637h886l-90 -639q0 -12 13 -12h75q14 0 17 14l190 1368q2 12 -10 13h-78q-12 0 -14 -15l-88 -632h-889l90 634q0 12 -12 13h-76q-14 0 -14 -15z" />
<glyph unicode="I" horiz-adv-x="397" d="M92 12q-1 -3 -1 -5q0 -7 11 -7h78q14 0 15 14l192 1368q0 12 -12 13h-76q-14 0 -14 -15z" />
<glyph unicode="J" horiz-adv-x="976" d="M-31 78q131 -96 307 -96q307 0 457 241q80 129 111 346l112 813q2 12 -10 13h-78q-12 0 -14 -15l-117 -835q-35 -240 -159.5 -352.5t-286.5 -112.5q-154 0 -256 82q-12 12 -21 0l-43 -64q-6 -9 -6 -14q0 -4 4 -6z" />
<glyph unicode="K" horiz-adv-x="1101" d="M92 12q-1 -3 -1 -5q0 -7 11 -7h78q14 0 15 14l75 543l207 191l408 -732q10 -16 22 -16h90q16 0 9 18l-455 801l596 557q6 6 6 13q-4 6 -8 6h-107q-10 0 -24 -15l-723 -678l96 680q0 12 -12 13h-76q-14 0 -14 -15z" />
<glyph unicode="L" horiz-adv-x="946" d="M92 12q-1 -3 -1 -5q0 -7 11 -7h752q14 0 16 14l9 64q2 14 -11 14h-663l182 1290q0 12 -12 13h-76q-14 0 -14 -15z" />
<glyph unicode="M" horiz-adv-x="1748" d="M20 12q-1 -3 -1 -5q0 -7 12 -7h75q10 0 17 14l373 1174l254 -1082q4 -4 4 -6q0 -10 16 -10l66 2q10 2 14 12l643 1084v-1176q0 -12 10 -12h76q16 0 16 14v1368q0 12 -12 13h-74q-6 0 -14 -15l-672 -1153l-274 1153q0 14 -10 15h-70q-8 0 -16 -15z" />
<glyph unicode="N" horiz-adv-x="1359" d="M92 12q-1 -3 -1 -5q0 -7 11 -7h72q14 0 14 14l168 1203l717 -1211q6 -6 10 -6h60q14 0 16 14l191 1368q2 12 -11 13h-71q-12 0 -15 -15l-168 -1206l-716 1212q-2 8 -13 9h-57q-14 0 -14 -15z" />
<glyph unicode="O" horiz-adv-x="1413" d="M90 575q0 -283 172 -444q155 -149 388 -149h3q305 0 512 245q203 240 203 588q0 272 -168 440q-164 160 -401 160q-287 0 -496 -239q-213 -248 -213 -601zM195 582q0 313 188 530q174 205 414 205q197 0 329 -133q137 -137 138 -371v2q0 -311 -177 -524 q-174 -211 -430 -211q-197 0 -321 123q-141 137 -141 379z" />
<glyph unicode="P" horiz-adv-x="1134" d="M92 12q-1 -3 -1 -5q0 -7 11 -7h78q14 0 15 14l71 506h211q324 0 438 70q220 133 220 366q0 246 -203 369q-113 70 -340 70h-293q-14 0 -14 -15zM279 610l96 693h227q168 0 264 -56q164 -96 164 -291q0 -174 -158 -276q-106 -70 -333 -70h-260z" />
<glyph unicode="Q" horiz-adv-x="1413" d="M90 575q0 -254 141 -413q131 -147 334 -174l-6 -37q-4 -10 10 -14q29 -4 63 -11.5t68 -15.5q229 -51 363.5 -82t177.5 -45q5 -2 11 -2q12 0 22 10l72 68q4 4 2 10t-11 8q-53 8 -124.5 20.5t-165.5 28.5q-104 20 -176 34.5t-113 23.5q-6 2 -6 4t6 2q264 39 436 274 q174 232 174 551q0 272 -168 440q-164 160 -401 160q-287 0 -496 -239q-213 -248 -213 -601zM195 582q0 313 188 530q174 205 414 205q197 0 329 -133q137 -137 138 -371v2q0 -311 -177 -524q-174 -211 -430 -211q-197 0 -321 123q-141 137 -141 379z" />
<glyph unicode="R" horiz-adv-x="1171" d="M92 12q-1 -3 -1 -5q0 -7 11 -7h78q14 0 15 14l77 555h291l324 -557q8 -12 20 -12h90q16 0 7 16l-332 566q2 0 8 1t20 3q435 66 435 426q0 166 -123 268q-139 115 -404 115h-309q-14 0 -14 -15zM285 662l90 641h229q426 0 426 -299q0 -178 -137 -267q-117 -75 -370 -75h-7 h-231z" />
<glyph unicode="S" horiz-adv-x="1058" d="M55 98q0 -4 4 -8q155 -108 394 -108h4q242 0 377 109.5t135 301.5q0 147 -123 240q-20 16 -82 49t-166 82q-156 76 -201 110q-90 74 -90 181q0 258 385 258q158 0 275 -53q14 -4 18 4l43 71q4 5 4 10t-6 9q-133 57 -321 57q-248 0 -376 -96t-128 -271q0 -137 98 -225 q53 -51 211 -129q41 -20 82 -38.5t82 -39.5q88 -45 133 -94q55 -59 55 -141q0 -141 -100 -220t-293 -79q-211 0 -344 100q-12 8 -19 -2l-51 -63q-1 -3 -1 -7t1 -8z" />
<glyph unicode="T" horiz-adv-x="985" d="M113 1311q-1 -3 -1 -5q0 -7 11 -8h407l-180 -1286q0 -12 12 -12h76q14 0 15 14l180 1284h407q14 0 15 13l10 71q2 12 -10 13h-918q-14 0 -14 -15z" />
<glyph unicode="U" horiz-adv-x="1325" d="M135 428q0 -215 113.5 -330.5t341.5 -115.5q258 0 418 153q154 150 190 418l117 829q0 12 -12 13h-76q-14 0 -17 -15l-112 -813q-31 -231 -156 -356q-131 -131 -340 -131q-364 0 -364 356q0 31 2 60.5t6 62.5l114 823q2 12 -10 13h-78q-12 0 -14 -15l-115 -827 q-4 -33 -6 -64.5t-2 -60.5z" />
<glyph unicode="V" horiz-adv-x="1161" d="M156 1380l284 -1374q2 -12 11 -12h79q8 0 17 14l696 1374q2 12 -8 13h-88q-10 0 -17 -15l-620 -1243l-246 1245q-4 12 -12 13h-84q-12 0 -12 -15z" />
<glyph unicode="W" horiz-adv-x="1904" d="M156 1380l247 -1374q2 -12 11 -12h90q12 0 14 14l531 1204l215 -1206q0 -12 8 -12h94q8 0 14 14l605 1374q3 4 3 7q0 5 -10 6h-88q-8 0 -14 -15l-539 -1243l-215 1245q0 12 -10 13h-82q-8 0 -14 -15l-541 -1243l-213 1245q0 12 -10 13h-84q-12 0 -12 -15z" />
<glyph unicode="X" horiz-adv-x="1234" d="M-47 16q-8 -8 -8 -12t10 -4h106q12 0 25 14l537 592l325 -594q6 -12 19 -12h92q18 0 8 16l-375 670l637 692q7 7 7 11q0 5 -11 6h-106q-12 0 -25 -15l-549 -606l-332 608q-6 12 -20 13h-94q-16 0 -6 -17l380 -682z" />
<glyph unicode="Y" horiz-adv-x="1054" d="M129 1378l373 -772l-84 -594q0 -12 12 -12h76q14 0 14 14l84 590l551 774q5 7 5 11q0 5 -9 6h-90q-14 0 -23 -15l-473 -680l-315 682q-10 12 -21 13h-92q-10 0 -10 -8q0 -4 2 -9z" />
<glyph unicode="Z" horiz-adv-x="1157" d="M-23 6q2 -6 9 -6h1030q14 0 14 14l10 64q0 14 -12 14h-870l1046 1286q4 6 4 10q0 6 -10 7h-993q-14 0 -15 -15l-10 -67q0 -12 13 -13h825l-1038 -1282q-4 -4 -3 -12z" />
<glyph unicode="[" horiz-adv-x="618" d="M70 -440q0 -12 10 -13h334q12 0 14 15l8 61q0 12 -10 12h-248l232 1674h245q14 0 15 12l10 61q0 14 -12 15h-332q-14 0 -14 -15z" />
<glyph unicode="\" horiz-adv-x="415" d="M139 1399l176 -1403q2 -14 13 -14h73q15 0 15 14l-178 1403q0 14 -11 14h-73q-14 0 -15 -14z" />
<glyph unicode="]" horiz-adv-x="573" d="M-55 -440q0 -12 10 -13h334q12 0 14 15l252 1820q0 14 -12 15h-332q-14 0 -14 -15l-9 -61q-2 -14 11 -14h247l-231 -1672h-248q-12 0 -14 -14z" />
<glyph unicode="^" horiz-adv-x="1486" />
<glyph unicode="_" horiz-adv-x="1058" d="M10 -248q0 -14 10 -14h973q12 0 15 14l6 49q2 12 -10 13h-973q-12 0 -15 -13z" />
<glyph unicode="`" horiz-adv-x="503" d="M313 1378l148 -276q2 -8 12 -8h49q12 0 10 14l-116 274q-6 12 -10 13h-82q-20 0 -11 -17z" />
<glyph unicode="a" horiz-adv-x="978" d="M78 379q0 -201 115 -309q90 -84 208 -84q180 0 295 120h4l-14 -94q0 -12 10 -12h74q12 0 14 14l125 891q1 2 1 4q0 12 -21 17q-74 12 -195 12q-254 0 -428 -147q-188 -158 -188 -412zM182 373q0 219 158 352q139 119 340 119q82 0 123 -6l-68 -480q-18 -127 -110 -202 q-94 -78 -203 -78q-84 0 -148 57q-92 80 -92 238z" />
<glyph unicode="b" horiz-adv-x="997" d="M92 12q-1 -2 -1 -4q0 -8 13 -8q92 -18 242 -18q256 0 414 151q166 156 166 430q0 199 -127 297q-94 76 -219 76q-150 0 -275 -102l76 548q2 14 -10 15h-74q-12 0 -14 -15zM201 90l86 617q133 131 280 131q96 0 166 -58q90 -77 90 -229q0 -217 -133 -350 q-127 -123 -325 -123q-102 0 -164 12z" />
<glyph unicode="c" horiz-adv-x="839" d="M78 395q0 -176 116.5 -294.5t292.5 -118.5q162 0 281 71q10 4 6 17l-29 61q-4 10 -18 4q-96 -59 -227 -59q-141 0 -229.5 94t-88.5 238q0 176 133 305q131 131 299 131q115 0 201 -41q14 -2 16 4l41 63q3 4 3 8q0 5 -5 11q-84 49 -247 49q-207 0 -371 -152 q-174 -160 -174 -391z" />
<glyph unicode="d" horiz-adv-x="983" d="M78 401q0 -201 137 -313q125 -104 326 -104q53 0 110.5 3t120.5 11q14 0 14 12l193 1372q2 14 -10 15h-74q-12 0 -14 -15l-64 -456q-31 6 -143 6q-221 0 -391 -121q-205 -147 -205 -410zM182 403q0 211 160 332q139 102 326 103q106 -1 137 -7l-105 -741q-41 -4 -79.5 -7 t-73.5 -3q-143 0 -240 65q-125 82 -125 258z" />
<glyph unicode="e" horiz-adv-x="915" d="M78 395q0 -190 115 -305q108 -108 281 -108h3q193 0 311 75q8 6 7 19l-29 61q-6 8 -16 2q-100 -63 -254 -63q-145 0 -228 86q-72 70 -80 178h115q219 0 381 82q190 97 190 275v14q-6 113 -92 174q-78 53 -194 53q-215 0 -363 -162q-147 -164 -147 -381zM184 428 q0 168 119 293q119 129 287 129q182 0 182 -154q0 -113 -123 -186.5t-330 -83.5q-44 -2 -75 -2q-46 0 -60 4z" />
<glyph unicode="f" horiz-adv-x="587" d="M72 -379q0 -12 12 -12h72q14 0 14 14l164 1211h282q12 0 17 12l8 61q0 12 -12 13h-285q12 74 18 129q18 129 89 198q66 66 155 66q106 0 185 -47q16 -4 18 2l37 55q4 6 4 11q0 7 -6 12q-86 55 -232 55q-150 0 -241 -103q-82 -94 -103 -239q-10 -63 -14 -97t-6 -42h-113 q-14 0 -14 -13l-8 -61q-4 -12 10 -12h113z" />
<glyph unicode="g" horiz-adv-x="968" d="M39 -346q-1 0 -1 -1q0 -3 5 -7q135 -92 268 -92q193 0 317 109.5t154 330.5l129 913q2 12 -10 13h-74q-12 0 -14 -15l-8 -53q-100 82 -240 82q-215 0 -360 -189q-131 -168 -131 -380q0 -166 84 -269q91 -114 259 -114h3q182 0 280 131h2l-20 -129q-27 -166 -122 -252 t-238 -86q-115 0 -224 84q-12 8 -18 0l-39 -62q-5 -5 -5 -8t3 -6zM178 369q0 190 111 329q111 141 274 142q119 0 230 -92l-60 -412q-16 -111 -104 -186.5t-193 -75.5q-117 0 -184 73q-74 76 -74 222z" />
<glyph unicode="h" horiz-adv-x="997" d="M92 12q0 -12 10 -12h74q12 0 14 14l66 473q20 152 125 256q102 102 231 103q178 0 179 -240q0 -20 -2.5 -44.5t-6.5 -53.5l-69 -496q0 -12 12 -12h72q14 0 14 14l70 504q6 45 6 100q0 102 -25 168q-55 147 -223 148q-205 0 -342 -166q0 -2 -2 -2l86 616q0 14 -10 15h-74 q-12 0 -14 -15z" />
<glyph unicode="i" horiz-adv-x="385" d="M92 12q-1 -3 -1 -5q0 -7 11 -7h74q12 0 14 14l125 891q0 14 -12 15h-72q-12 0 -14 -15zM262 1221q-2 -14 10 -15h72q14 0 14 15l23 161q2 12 -10 13h-72q-14 0 -14 -15z" />
<glyph unicode="j" horiz-adv-x="382" d="M-174 -397l31 -62q4 -4 18 -4q258 68 295 342l137 1026q2 14 -10 15h-74q-12 0 -12 -15l-135 -1009q-31 -221 -246 -275q-8 -1 -8 -7q0 -4 4 -11zM254 1221q0 -14 12 -15h72q14 0 14 15l23 161q0 12 -10 13h-74q-12 0 -15 -15z" />
<glyph unicode="k" horiz-adv-x="847" d="M92 12q-1 -3 -1 -5q0 -7 11 -7h74q12 0 14 14l41 301l162 140l322 -445q6 -10 18 -10h82q20 0 12 18l-364 500l432 383q4 4 4 12q-4 6 -8 7h-96q-8 0 -23 -11l-522 -467l131 940q2 14 -10 15h-72q-14 0 -14 -15z" />
<glyph unicode="l" horiz-adv-x="385" d="M92 12q-1 -3 -1 -5q0 -7 11 -7h74q12 0 14 14l191 1368q2 14 -10 15h-72q-14 0 -14 -15z" />
<glyph unicode="m" horiz-adv-x="1589" d="M92 12q-1 -3 -1 -5q0 -7 11 -7h74q12 0 14 14l70 490q25 166 133 262q94 82 211 82q174 0 174 -234q0 -10 -2 -31.5t-6 -50.5l-72 -520q0 -12 13 -12h71q14 0 15 14l67 492q20 162 131 260q94 82 213 82q174 0 174 -234q0 -39 -6 -84l-71 -518q-4 -12 10 -12h71 q14 0 17 14l72 527q6 45 6 84q0 311 -248 311t-373 -205q-39 205 -233 205q-207 0 -330 -158l18 129q0 12 -10 13h-74q-12 0 -14 -15z" />
<glyph unicode="n" horiz-adv-x="997" d="M92 12q-1 -3 -1 -5q0 -7 11 -7h74q12 0 14 14l68 482q20 156 123 252q100 98 231 98q178 0 179 -240q0 -20 -2.5 -44.5t-6.5 -53.5l-69 -496q0 -12 12 -12h72q14 0 14 14l70 504q6 45 6 100q0 102 -25 168q-55 147 -223 148q-205 0 -340 -158q0 -2 -2 -2l18 133 q0 12 -12 13h-72q-12 0 -14 -15z" />
<glyph unicode="o" horiz-adv-x="1040" d="M201 88q113 -106 282 -106q207 0 346 157q140 162 140 391q0 184 -121 299q-115 109 -283 109q-197 0 -338 -154q-149 -157 -149 -392q0 -191 123 -304zM176 401q0 188 115 320q113 129 268 129q133 0 223 -92q90 -95 90 -242q0 -184 -110 -315q-106 -131 -270 -131 q-131 0 -220 88q-96 92 -96 243z" />
<glyph unicode="p" horiz-adv-x="985" d="M18 -463q-1 -3 -1 -5q0 -7 12 -7h73q12 0 15 14l63 461q63 -12 154 -12q252 0 409 141q172 150 172 422q0 178 -93 282.5t-259 104.5q-141 0 -262 -102h-4l12 71q0 12 -12 13h-72q-14 0 -14 -15zM193 90l88 623q125 129 274 129q117 0 184 -76q74 -84 74 -231 q0 -215 -141 -340q-127 -119 -326 -119q-37 0 -75 3t-78 11z" />
<glyph unicode="q" horiz-adv-x="966" d="M78 369q0 -180 108 -285q94 -94 236 -94q182 0 278 114l-77 -565q-2 -14 10 -14h72q14 0 14 14l192 1364q0 12 -12 12q-109 23 -248 23q-233 0 -391 -137q-182 -158 -182 -432zM180 377q0 229 144 354q127 113 321 113q68 -1 158 -13l-62 -432q-16 -109 -53 -174 q-84 -141 -252 -141q-106 0 -181 74.5t-75 218.5z" />
<glyph unicode="r" horiz-adv-x="587" d="M92 12q0 -12 10 -12h74q12 0 14 14l60 430q27 201 125 306q84 84 192 84q33 0 62 -7q12 -4 12 7l10 77q0 14 -10 15q-31 8 -76 8q-170 0 -264 -150q0 -4 -4 0l16 123q2 12 -8 13h-74q-14 0 -14 -13z" />
<glyph unicode="s" horiz-adv-x="692" d="M-2 63q0 -2 4 -6q112 -75 270 -75h4q160 0 254.5 69.5t94.5 200.5q0 100 -80 166q-25 23 -166 94q-111 57 -131 72q-66 53 -66 118q2 150 238 150q94 0 186 -39q14 -6 19 4l37 60q3 5 3 8q0 6 -8 10q-96 43 -225 43q-156 0 -248 -61q-96 -63 -100 -183v-6q0 -90 63 -147 q33 -35 148 -92q139 -72 156 -87q74 -53 73 -129q0 -80 -71 -127q-61 -38 -163 -38h-5q-135 0 -230 67q-10 6 -18 -2l-37 -55q-3 -7 -3 -11q0 -2 1 -4z" />
<glyph unicode="t" horiz-adv-x="585" d="M82 846q-1 -3 -1 -5q0 -7 11 -7h113l-76 -543q-6 -41 -6 -78q0 -231 235 -231q127 0 217 53q10 6 7 16l-31 60q-4 6 -21 0q-78 -43 -157 -43q-152 0 -152 159q0 31 6 68l76 539h277q10 0 14 12l8 61q2 12 -10 13h-277l25 186q-2 8 -10 12l-76 -24q-14 -2 -14 -15 l-23 -159h-113q-12 0 -14 -13z" />
<glyph unicode="u" horiz-adv-x="985" d="M117 264q0 -74 28 -141q63 -141 289 -141q217 0 326 145q72 96 92 248l76 532q0 12 -13 13h-71q-12 0 -15 -15l-71 -508q-18 -133 -64 -200q-80 -127 -252 -127q-139 0 -190 75q-35 50 -35 147v11q0 27 3 65t11 85l64 454q2 12 -10 13h-74q-12 0 -14 -15l-72 -530 q-4 -33 -6 -60.5t-2 -50.5z" />
<glyph unicode="v" horiz-adv-x="784" d="M98 905l170 -899q2 -12 13 -12h77q8 0 17 14l475 899q2 12 -6 13h-86q-8 0 -17 -15l-401 -768l-143 770q-4 12 -13 13h-75q-12 0 -11 -15z" />
<glyph unicode="w" horiz-adv-x="1284" d="M98 905l150 -899q0 -12 10 -12h86q8 0 14 14l344 748l125 -750q2 -12 11 -12h82q8 0 14 14l414 899q3 5 3 8q0 5 -8 5h-83q-8 0 -15 -15l-350 -768l-123 770q-4 12 -12 13h-76q-8 0 -14 -15l-348 -768l-125 770q-4 12 -13 13h-75q-12 0 -11 -15z" />
<glyph unicode="x" horiz-adv-x="823" d="M-45 16q-7 -7 -7 -11q0 -5 13 -5h94q8 0 19 10l336 385l208 -385q6 -10 17 -10h84q20 0 10 16l-254 451l387 436q7 7 7 11q0 6 -13 6h-94q-8 0 -19 -11l-311 -362l-194 362q-6 10 -17 11h-84q-20 0 -10 -17l240 -430z" />
<glyph unicode="y" horiz-adv-x="897" d="M-25 -453q0 -16 13 -16q162 8 276 117q98 92 205 307l475 948q4 6 4 10q0 6 -10 7h-82q-14 0 -18 -11q-168 -332 -266.5 -530.5t-129.5 -269.5l-211 800q-4 10 -16 11h-86q-10 0 -10 -17q215 -750 258 -928q-162 -334 -379 -344q-10 0 -12 -6q-2 -4 -4 -23.5t-7 -54.5z " />
<glyph unicode="z" horiz-adv-x="772" d="M-41 16q-6 -6 -6 -10q0 -6 16 -6h723q14 0 15 14l8 60q2 12 -10 12h-562l693 817q6 6 6 10q0 6 -15 7h-688q-14 0 -14 -15l-8 -59q-2 -14 10 -15h524z" />
<glyph unicode="{" horiz-adv-x="548" d="M61 498q0 -12 7 -13q0 -4 6 0q158 -23 157 -221q0 -55 -12 -125l-45 -274q-4 -23 -6 -45.5t-2 -42.5q0 -207 213 -207q12 0 14 14l6 51q2 8 -6 13h-6q-133 0 -133 135q0 39 8 80l43 258q12 80 12 143q0 205 -135 266q182 68 230 379q8 47 16 117t18 168q25 219 189 219 q14 0 14 14l8 52q0 12 -12 12q-168 0 -235 -121q-41 -74 -62 -266q-29 -244 -57 -334q-63 -190 -199 -192q-2 -2 -8 0q-10 -2 -14 -15z" />
<glyph unicode="|" horiz-adv-x="421" d="M72 -455q0 -12 10 -12h59q12 0 15 14l252 1835q0 12 -11 13h-59q-12 0 -14 -15z" />
<glyph unicode="}" horiz-adv-x="550" d="M-47 -418q-4 -12 12 -12q168 0 236 121q41 74 61 266q29 246 57 334q61 190 199 192q2 2 6 0q14 2 15 15l10 65q0 12 -6 12q0 2 -6 0q-160 20 -160 222q0 53 12 125l47 274q4 25 6 47.5t2 42.5q0 205 -213 205q-14 0 -14 -14l-8 -52q0 -10 8 -12h4q135 0 135 -133 q0 -41 -8 -82l-45 -258q-14 -72 -14 -141q0 -207 139 -269q-188 -72 -231 -378q-10 -92 -19.5 -162t-13.5 -123q-14 -123 -59.5 -171t-131.5 -48q-12 0 -14 -15z" />
<glyph unicode="~" horiz-adv-x="1486" />
<glyph unicode="&#xa1;" horiz-adv-x="387" d="M51 -479q-4 -12 10 -13h76q14 0 15 13l129 1034q0 14 -13 14h-32q-14 0 -17 -14zM223 723q0 -14 13 -14h71q14 0 15 14l24 184q2 12 -10 13h-72q-14 0 -14 -15z" />
<glyph unicode="&#xa2;" horiz-adv-x="839" d="M78 395q0 -182 121 -299q94 -90 219 -108l-8 -56q-4 -12 10 -12h29q14 0 14 14l8 48h16q162 0 281 71q10 4 6 17l-29 61q-4 10 -18 4q-96 -59 -227 -59h-13l129 766q123 0 199 -39q14 -2 16 4l41 63q8 12 -2 19q-86 45 -237 49l10 61q0 12 -12 13h-29q-12 0 -14 -15 l-10 -61q-195 -18 -342 -166q-158 -158 -158 -375zM182 408q0 162 117 288q112 124 262 144l-127 -758q-57 12 -104 41t-80 72t-50.5 97t-17.5 116z" />
<glyph unicode="&#xa3;" horiz-adv-x="1003" d="M57 12q0 -12 11 -12h790q14 0 14 14l11 70q2 14 -13 14h-555l82 582h375q14 0 14 14l9 60q2 14 -11 14h-376l8 53q35 231 90 334q86 162 262 162q156 0 250 -70q14 -4 18 4l51 60q10 14 -4 22q-123 80 -303 80q-231 0 -350 -196q-78 -135 -115 -383l-10 -70l-131 -6 q-14 0 -14 -13l-8 -51q0 -14 12 -14h131l-82 -584h-131q-14 0 -14 -12z" />
<glyph unicode="&#xa4;" horiz-adv-x="1224" d="M12 530q0 -14 13 -14h108q31 -250 219 -401q170 -133 391 -133q233 0 398 79q12 2 8 19l-31 67q-4 14 -16 5q-160 -72 -344 -72q-186 0 -328 110q-158 121 -188 326h606q6 0 14 14l35 60q8 14 -6 14h-658q0 94 23 180h745q4 0 15 13l37 61q8 12 -9 12h-759 q82 193 258 320q176 125 370 125q166 0 308 -47q16 -4 18 4l41 69q8 12 -2 19q-133 55 -356 55q-238 0 -449 -153q-213 -154 -299 -392h-129q-14 0 -14 -12l-19 -61q0 -12 13 -13h122q-20 -80 -20 -180h-82q-14 0 -14 -14z" />
<glyph unicode="&#xa5;" horiz-adv-x="1107" d="M129 401q0 -12 10 -12h385l-53 -377q0 -12 10 -12h78q12 0 14 14l54 375h385q12 0 14 14l8 60q0 12 -10 12h-385l18 129l2 4h383q12 0 15 15l6 59q2 12 -10 12h-332l485 684q12 16 -2 17h-92q-14 0 -22 -15l-472 -680l-317 682q-6 12 -18 13h-95q-8 0 -8 -11q0 -4 2 -6 l330 -684h-330q-14 0 -14 -14l-8 -59q-4 -12 10 -13h383l2 -2l-18 -131h-385q-14 0 -15 -14z" />
<glyph unicode="&#xa6;" />
<glyph unicode="&#xa7;" horiz-adv-x="786" d="M-8 -358q-8 -12 8 -27q111 -86 262 -86q154 0 260 100q111 98 111 265q0 106 -82 200q100 76 147 148q55 86 56 194q0 104 -78 199q-25 29 -68 63.5t-102 79.5q-98 72 -139 123q-57 70 -58 156q0 123 86 200q78 72 183 72q121 0 215 -72q8 -6 18 5l37 47q8 12 -8 26 q-106 78 -258 78q-141 0 -248 -90q-119 -104 -119 -281q0 -98 66 -182q-195 -152 -195 -342q0 -131 117 -244q53 -45 108.5 -89t108.5 -89q117 -104 117 -211q0 -123 -84 -200q-78 -72 -181 -72q-139 0 -225 80q-6 6 -18 -2zM180 524q0 139 160 267l22 -23q47 -37 96.5 -74 t96.5 -76q102 -90 102 -196q0 -141 -165 -258q-2 2 -9.5 8t-9.5 6l-98 78t-96 78q-98 88 -99 190z" />
<glyph unicode="&#xa8;" horiz-adv-x="495" d="M223 1206q-4 -12 10 -12h72q12 0 17 12l22 176q2 12 -10 13h-72q-14 0 -14 -13zM569 1206q0 -12 13 -12h71q14 0 15 12l24 176q0 12 -10 13h-74q-12 0 -14 -13z" />
<glyph unicode="&#xa9;" horiz-adv-x="1757" d="M82 737q0 -311 219 -534q221 -221 535 -221q313 0 534 221t221 534t-221 533q-221 221 -534 221t-535 -221q-219 -219 -219 -533zM154 737q0 283 198 482q201 201 484 200q283 0 483.5 -200.5t200.5 -481.5h-2q0 -283 -201 -483.5t-481 -200.5q-283 0 -484 201 q-199 199 -198 483zM465 705q-12 -174 96 -289q100 -106 252 -107q127 0 242 66q8 8 6 16l-21 39q-4 10 -14 2q-102 -53 -205 -53q-125 0 -207 86q-90 98 -82 240q8 154 123 264q115 113 258 112q113 0 187 -49q6 -4 14 4l29 41q6 6 -2 15q-88 57 -219 57 q-170 0 -307.5 -131t-149.5 -313z" />
<glyph unicode="&#xaa;" horiz-adv-x="532" d="M49 1075q0 -123 70 -186q53 -51 129 -51q113 0 178 71l2 2l-6 -57q-2 -8 6 -8h45q8 0 10 8l76 541q0 8 -12 12q-33 4 -62.5 6t-58.5 2q-152 0 -260 -90q-117 -96 -117 -250zM100 555q-4 -12 11 -12h178q12 0 14 14l6 37q0 14 -12 14h-178q-12 0 -15 -14zM117 1071 q0 135 96 213q84 72 205 72q10 0 28 -1t43 -3l-38 -289q-10 -76 -66.5 -122t-124.5 -46q-49 0 -88 33q-55 45 -55 143z" />
<glyph unicode="&#xab;" horiz-adv-x="849" d="M55 442l207 -432q4 -10 19 -10h67q14 0 6 14l-207 445l338 446q12 16 -2 17h-75q-14 0 -23 -13l-326 -432q-14 -14 -4 -35zM365 442l206 -432q6 -10 19 -10h69q8 0 7 14l-209 445l338 446q12 16 -2 17h-76q-14 0 -21 -13l-327 -432q-12 -16 -4 -35z" />
<glyph unicode="&#xac;" horiz-adv-x="1486" />
<glyph unicode="&#xad;" horiz-adv-x="858" d="M182 438q0 -12 13 -12h444q12 0 14 14l11 66q0 12 -13 12h-444q-12 0 -14 -14z" />
<glyph unicode="&#xae;" horiz-adv-x="1757" d="M82 737q0 -311 219 -534q221 -221 535 -221q313 0 534 221t221 534t-221 533q-221 221 -534 221t-535 -221q-219 -219 -219 -533zM154 737q0 283 198 482q201 201 484 200q283 0 483.5 -200.5t200.5 -481.5h-2q0 -283 -201 -483.5t-481 -200.5q-283 0 -484 201 q-199 199 -198 483zM520 326q-4 -10 8 -11h45q8 0 13 11l43 313h194l178 -313q6 -10 17 -11h55q14 0 6 15l-178 311l39 4q45 6 87 27.5t72.5 55.5t50.5 77t24 92q2 51 -13.5 95t-46.5 75t-74 48.5t-92 17.5h-307q-10 0 -12 -13zM637 700l51 369h244q76 0 127 -45t47 -127 q-2 -43 -19.5 -79t-46 -61.5t-65.5 -41t-76 -15.5h-262z" />
<glyph unicode="&#xaf;" horiz-adv-x="995" />
<glyph unicode="&#xb0;" horiz-adv-x="636" d="M125 1214q0 -115 80 -196q82 -80 196 -80q115 0 195 80q82 81 82 196t-82 195q-80 82 -195 82t-196 -82q-80 -80 -80 -195zM186 1214q0 90 64 152q63 63 151 64q92 0 153.5 -62t61.5 -154q0 -88 -63 -151q-61 -63 -152 -64q-43 0 -82.5 17.5t-68.5 46.5t-46.5 68.5 t-17.5 82.5z" />
<glyph unicode="&#xb1;" horiz-adv-x="1486" />
<glyph unicode="&#xb2;" />
<glyph unicode="&#xb3;" />
<glyph unicode="&#xb4;" horiz-adv-x="505" d="M289 1106q-10 -12 8 -12h51q4 0 14 10l218 274q12 16 -7 17h-81q-8 0 -17 -15z" />
<glyph unicode="&#xb6;" horiz-adv-x="917" d="M92 983q0 -154 92 -245t252 -101l-139 -1026q-2 -20 16 -21h60q20 0 22 21l240 1763h203l-242 -1763q0 -20 16 -21h62q20 0 20 21l242 1763h203q20 0 22 21l6 51q2 20 -16 20h-539q-215 0 -352 -107.5t-164 -305.5q-2 -16 -3 -35t-1 -35z" />
<glyph unicode="&#xb7;" horiz-adv-x="452" d="M143 614q0 -14 11 -14h73q12 0 15 14l24 185q2 12 -10 12h-74q-12 0 -14 -14z" />
<glyph unicode="&#xb8;" horiz-adv-x="708" d="M193 -336q0 -14 10 -14q86 -6 73 -6q223 8 234 184v-2q8 115 -139 125l8 59l-64 2l-26 -121q10 2 18 3h19q109 0 106 -76q-4 -102 -158 -107q-10 0 -25.5 1t-35.5 3q-10 4 -14 -12z" />
<glyph unicode="&#xb9;" />
<glyph unicode="&#xba;" horiz-adv-x="606" d="M92 1081q0 -55 19.5 -101t52.5 -79t78 -50t96 -17q127 0 211 96q84 100 84 237q0 55 -19.5 101.5t-52.5 79t-78 50t-96 17.5q-117 0 -207 -96q-88 -94 -88 -238zM156 1090q0 111 67.5 188.5t159.5 77.5q82 0 134 -54.5t52 -142.5q0 -111 -65.5 -188.5t-161.5 -77.5 q-78 0 -129 51q-57 55 -57 146zM160 555q-4 -12 10 -12h178q12 0 14 14l7 37q0 14 -13 14h-178q-12 0 -14 -14z" />
<glyph unicode="&#xbb;" horiz-adv-x="872" d="M68 14q-8 -14 4 -14h75q10 0 21 10l328 432q14 17 4 37l-207 430q-6 12 -19 13h-69q-10 0 -6 -17l209 -444zM379 14q-14 -14 2 -14h76q12 0 22 10l326 432q14 17 4 37l-207 430q-6 12 -18 13h-68q-16 0 -6 -17l207 -444z" />
<glyph unicode="&#xbc;" />
<glyph unicode="&#xbd;" />
<glyph unicode="&#xbe;" />
<glyph unicode="&#xbf;" horiz-adv-x="851" d="M82 -154q0 -74 24.5 -136t70.5 -107t110.5 -71t144.5 -26q195 0 377 127q8 9 6 19l-33 63q-4 14 -16 4q-162 -119 -317 -118q-129 0 -199 75q-66 72 -66 181q0 154 166 276q92 70 144.5 110t64.5 54q82 88 105 258q2 14 -11 14h-73q-14 0 -15 -14q-25 -176 -178 -283 q-76 -53 -129 -97t-82 -79q-94 -109 -94 -250zM590 723q-2 -14 10 -14h72q14 0 14 14l27 184q0 12 -13 13h-71q-14 0 -15 -15z" />
<glyph unicode="&#xc0;" horiz-adv-x="1355" d="M-2 12q-10 -12 8 -12h90q8 0 17 14l182 353h639l72 -355q0 -12 12 -12h82q14 0 12 14l-293 1375q-4 12 -10 12h-78q-8 0 -16 -15zM344 463l408 794l161 -794h-569zM756 1827l145 -277q6 -8 12 -8h50q16 0 10 12l-115 275q-8 14 -12 14h-82q-20 0 -8 -16z" />
<glyph unicode="&#xc1;" horiz-adv-x="1355" d="M-2 12q-10 -12 8 -12h90q8 0 17 14l182 353h639l72 -355q0 -12 12 -12h82q14 0 12 14l-293 1375q-4 12 -10 12h-78q-8 0 -16 -15zM344 463l408 794l161 -794h-569zM715 1554q-8 -14 8 -14h51q6 0 17 10l215 275q12 16 -7 16h-81q-6 0 -15 -12z" />
<glyph unicode="&#xc2;" horiz-adv-x="1355" d="M-2 12q-10 -12 8 -12h90q8 0 17 14l182 353h639l72 -355q0 -12 12 -12h82q14 0 12 14l-293 1375q-4 12 -10 12h-78q-8 0 -16 -15zM344 463l408 794l161 -794h-569zM606 1546q-12 -12 4 -12h60q8 0 14 10l197 213l149 -213q10 -10 12 -10h56q12 0 10 12l-162 283 q-6 12 -12 12h-86q-6 0 -14 -12z" />
<glyph unicode="&#xc3;" horiz-adv-x="1355" d="M-2 12q-10 -12 8 -12h90q8 0 17 14l182 353h639l72 -355q0 -12 12 -12h82q14 0 12 14l-293 1375q-4 12 -10 12h-78q-8 0 -16 -15zM344 463l408 794l161 -794h-569zM571 1589q0 -14 9 -14h32q12 0 15 14q27 86 92 86q37 0 116.5 -49t131.5 -49q68 0 116 59q38 49 54 125 q0 12 -11 13h-30q-8 0 -15 -15q-23 -86 -94 -86q-33 0 -121 47q-86 49 -137 49q-115 0 -158 -180z" />
<glyph unicode="&#xc4;" horiz-adv-x="1355" d="M-2 12q-10 -12 8 -12h90q8 0 17 14l182 353h639l72 -355q0 -12 12 -12h82q14 0 12 14l-293 1375q-4 12 -10 12h-78q-8 0 -16 -15zM344 463l408 794l161 -794h-569zM635 1583q0 -12 12 -12h72q14 0 14 12l25 176q2 12 -10 13h-72q-14 0 -17 -13zM983 1583q-4 -12 10 -12 h72q12 0 16 12l25 176q0 12 -12 13h-72q-14 0 -14 -13z" />
<glyph unicode="&#xc5;" horiz-adv-x="1355" d="M-2 12q-10 -12 8 -12h90q8 0 17 14l182 353h639l72 -355q0 -12 12 -12h82q14 0 12 14l-293 1375q-4 12 -10 12h-78q-8 0 -16 -15zM344 463l408 794l161 -794h-569zM668 1714q0 -39 15 -73.5t41 -60.5t60.5 -41t73.5 -15t74 15t60.5 41t41 60.5t15.5 73.5t-15.5 74 t-41 60.5t-60.5 41t-74 15.5t-73.5 -15.5t-60.5 -41t-41 -60.5t-15 -74zM729 1714q0 53 38 91t91 38t91 -38t38 -91t-38 -91t-91 -38t-91 38t-38 91z" />
<glyph unicode="&#xc6;" horiz-adv-x="2060" d="M0 12q-10 -12 4 -12h109q10 0 22 14l311 353h660l-51 -355q0 -12 12 -12h893q12 0 14 14l8 64q2 14 -10 14h-803l78 563h617q14 0 16 15l8 65q2 12 -10 13h-616l77 557h699q10 0 14 12l10 65q0 12 -12 13h-811q-10 0 -22 -15zM530 463l699 790l-111 -790h-588z" />
<glyph unicode="&#xc7;" horiz-adv-x="1275" d="M135 653q-16 -272 133 -456q141 -174 367 -209l-21 -97q10 2 19 3h18q109 0 107 -76q-4 -104 -160 -107q-10 0 -25.5 1t-33.5 3q-14 2 -15 -12l-6 -39q0 -14 10 -14q86 -6 74 -6q221 8 234 184q8 113 -140 123l4 26q256 0 441 117q12 8 8 19l-33 63q-6 10 -16 4 q-176 -96 -359 -96q-215 0 -362 154q-156 162 -141 415q16 272 219 463q199 193 446 193q188 0 322 -84q8 -8 16 4l49 65q6 10 -2 19q-150 100 -373 100q-287 0 -524 -225q-233 -221 -256 -535z" />
<glyph unicode="&#xc8;" horiz-adv-x="1148" d="M92 12q-4 -12 10 -12h945q14 0 14 14l10 64q0 14 -10 14h-854l78 563h667q14 0 15 15l10 65q0 12 -10 13h-670l78 557h749q12 0 17 12l8 65q2 12 -10 13h-840q-14 0 -14 -15zM682 1827l145 -277q6 -8 13 -8h49q18 0 10 12l-115 275q-8 14 -12 14h-82q-20 0 -8 -16z" />
<glyph unicode="&#xc9;" horiz-adv-x="1148" d="M92 12q-4 -12 10 -12h945q14 0 14 14l10 64q0 14 -10 14h-854l78 563h667q14 0 15 15l10 65q0 12 -10 13h-670l78 557h749q12 0 17 12l8 65q2 12 -10 13h-840q-14 0 -14 -15zM645 1554q-8 -14 8 -14h52q4 0 14 10l217 275q12 16 -6 16h-82q-8 0 -17 -12z" />
<glyph unicode="&#xca;" horiz-adv-x="1148" d="M92 12q-4 -12 10 -12h945q14 0 14 14l10 64q0 14 -10 14h-854l78 563h667q14 0 15 15l10 65q0 12 -10 13h-670l78 557h749q12 0 17 12l8 65q2 12 -10 13h-840q-14 0 -14 -15zM537 1540q0 -6 8 -6h59q4 0 14 10l197 213l150 -213q4 -10 10 -10h57q14 0 8 12l-161 283 q-4 12 -13 12h-84q-4 0 -16 -12l-227 -283q-2 -2 -2 -6z" />
<glyph unicode="&#xcb;" horiz-adv-x="1148" d="M92 12q-4 -12 10 -12h945q14 0 14 14l10 64q0 14 -10 14h-854l78 563h667q14 0 15 15l10 65q0 12 -10 13h-670l78 557h749q12 0 17 12l8 65q2 12 -10 13h-840q-14 0 -14 -15zM557 1583q-4 -12 10 -12h72q14 0 14 12l25 176q2 12 -10 13h-72q-14 0 -14 -13zM903 1583 q0 -12 10 -12h74q10 0 14 12l25 176q0 12 -12 13h-72q-12 0 -14 -13z" />
<glyph unicode="&#xcc;" horiz-adv-x="397" d="M92 12q-4 -12 10 -12h78q14 0 15 14l192 1368q0 12 -12 13h-76q-14 0 -14 -15zM297 1827l147 -277q2 -8 11 -8h51q16 0 10 12l-117 275q-6 14 -12 14h-80q-20 0 -10 -16z" />
<glyph unicode="&#xcd;" horiz-adv-x="397" d="M92 12q-4 -12 10 -12h78q14 0 15 14l192 1368q0 12 -12 13h-76q-14 0 -14 -15zM246 1554q-8 -14 6 -14h53q4 0 14 10l218 275q12 16 -7 16h-84q-6 0 -14 -12z" />
<glyph unicode="&#xce;" horiz-adv-x="397" d="M92 12q-4 -12 10 -12h78q14 0 15 14l192 1368q0 12 -12 13h-76q-14 0 -14 -15zM129 1546q-12 -12 4 -12h60q8 0 14 10l196 213l150 -213q10 -10 12 -10h56q14 0 8 12l-160 283q-6 12 -12 12h-86q-6 0 -15 -12z" />
<glyph unicode="&#xcf;" horiz-adv-x="395" d="M92 12q-4 -12 10 -12h78q14 0 15 14l192 1368q0 12 -12 13h-76q-14 0 -14 -15zM152 1583q0 -12 12 -12h72q14 0 14 12l24 176q2 12 -10 13h-74q-12 0 -14 -13zM500 1583q-4 -12 10 -12h72q12 0 16 12l25 176q0 12 -13 13h-71q-14 0 -15 -13z" />
<glyph unicode="&#xd0;" />
<glyph unicode="&#xd1;" horiz-adv-x="1359" d="M92 12q-4 -12 10 -12h72q14 0 14 14l168 1203l717 -1211q6 -6 10 -6h60q14 0 16 14l191 1368q2 12 -11 13h-71q-12 0 -15 -15l-168 -1206l-716 1212q-2 8 -13 9h-57q-14 0 -14 -15zM612 1589q0 -14 11 -14h32q6 0 15 14q20 86 90 86q37 0 116.5 -49t133.5 -49 q66 0 114 59q38 49 54 125q2 12 -9 13h-32q-8 0 -15 -15q-23 -86 -94 -86q-33 0 -121 47q-84 49 -135 49q-117 0 -160 -180z" />
<glyph unicode="&#xd2;" horiz-adv-x="1413" d="M90 575q0 -283 172 -444q156 -150 391 -149q305 0 512 245q203 240 203 588q0 272 -168 440q-164 160 -401 160q-287 0 -496 -239q-213 -248 -213 -601zM195 582q0 319 186 530q178 205 416 205q197 0 329 -133q137 -137 138 -371v2q0 -311 -177 -524 q-174 -211 -430 -211q-197 0 -321 123q-141 137 -141 379zM795 1827l145 -277q6 -8 12 -8h49q19 0 11 12l-115 275q-6 14 -12 14h-80q-23 0 -10 -16z" />
<glyph unicode="&#xd3;" horiz-adv-x="1413" d="M90 575q0 -283 172 -444q156 -150 391 -149q305 0 512 245q203 240 203 588q0 272 -168 440q-164 160 -401 160q-287 0 -496 -239q-213 -248 -213 -601zM195 582q0 319 186 530q178 205 416 205q197 0 329 -133q137 -137 138 -371v2q0 -311 -177 -524 q-174 -211 -430 -211q-197 0 -321 123q-141 137 -141 379zM741 1554q-8 -14 9 -14h51q4 0 14 10l217 275q12 16 -6 16h-82q-8 0 -16 -12z" />
<glyph unicode="&#xd4;" horiz-adv-x="1413" d="M90 575q0 -283 172 -444q156 -150 391 -149q305 0 512 245q203 240 203 588q0 272 -168 440q-164 160 -401 160q-287 0 -496 -239q-213 -248 -213 -601zM195 582q0 319 186 530q178 205 416 205q197 0 329 -133q137 -137 138 -371v2q0 -311 -177 -524 q-174 -211 -430 -211q-197 0 -321 123q-141 137 -141 379zM627 1546q-12 -12 4 -12h59q8 0 15 10l196 213l150 -213q10 -10 12 -10h55q12 0 10 12l-161 283q-6 12 -13 12h-86q-6 0 -14 -12z" />
<glyph unicode="&#xd5;" horiz-adv-x="1413" d="M90 575q0 -283 172 -444q156 -150 391 -149q305 0 512 245q203 240 203 588q0 272 -168 440q-164 160 -401 160q-287 0 -496 -239q-213 -248 -213 -601zM195 582q0 319 186 530q178 205 416 205q197 0 329 -133q137 -137 138 -371v2q0 -311 -177 -524 q-174 -211 -430 -211q-197 0 -321 123q-141 137 -141 379zM631 1589q-2 -14 8 -14h33q12 0 14 14q27 86 92 86q37 0 115 -49q80 -49 133 -49q68 0 115 59q41 53 53 125q2 12 -8 13h-31q-12 0 -14 -15q-23 -86 -97 -86q-33 0 -120 47q-84 49 -136 49q-121 0 -157 -180z" />
<glyph unicode="&#xd6;" horiz-adv-x="1413" d="M90 575q0 -283 172 -444q156 -150 391 -149q305 0 512 245q203 240 203 588q0 272 -168 440q-164 160 -401 160q-287 0 -496 -239q-213 -248 -213 -601zM195 582q0 319 186 530q178 205 416 205q197 0 329 -133q137 -137 138 -371v2q0 -311 -177 -524 q-174 -211 -430 -211q-197 0 -321 123q-141 137 -141 379zM666 1583q-4 -12 10 -12h72q12 0 16 12l24 176q0 12 -12 13h-71q-14 0 -15 -13zM1012 1583q0 -12 12 -12h72q14 0 14 12l25 176q2 12 -11 13h-73q-12 0 -15 -13z" />
<glyph unicode="&#xd7;" />
<glyph unicode="&#xd8;" horiz-adv-x="1413" d="M90 575q0 -250 139 -411l-108 -123q-10 -12 0 -18l29 -31q10 -10 18 2l111 123q150 -135 374 -135q305 0 512 245q203 240 203 588q0 227 -125 389l137 154q10 10 2 18l-30 31q-8 6 -17 -2l-135 -152q-162 162 -401 162q-287 0 -496 -239q-213 -248 -213 -601zM195 582 q0 319 186 530q178 205 416 205q203 0 336 -139l-834 -936q-104 135 -104 340zM346 193l828 931q90 -127 90 -311q0 -311 -177 -524q-176 -209 -430 -209q-186 0 -311 113z" />
<glyph unicode="&#xd9;" horiz-adv-x="1310" d="M135 428q0 -215 113.5 -330.5t341.5 -115.5q258 0 418 153q154 150 190 418l117 829q0 12 -12 13h-76q-14 0 -17 -15l-112 -813q-31 -231 -156 -356q-131 -131 -340 -131q-365 0 -364 358q0 29 2 58.5t6 62.5l114 823q2 12 -10 13h-78q-12 0 -14 -15l-115 -827 q-4 -33 -6 -64.5t-2 -60.5zM715 1827l145 -277q6 -8 12 -8h50q16 0 10 12l-115 275q-8 14 -12 14h-82q-20 0 -8 -16z" />
<glyph unicode="&#xda;" horiz-adv-x="1310" d="M135 428q0 -215 113.5 -330.5t341.5 -115.5q258 0 418 153q154 150 190 418l117 829q0 12 -12 13h-76q-14 0 -17 -15l-112 -813q-31 -231 -156 -356q-131 -131 -340 -131q-365 0 -364 358q0 29 2 58.5t6 62.5l114 823q2 12 -10 13h-78q-12 0 -14 -15l-115 -827 q-4 -33 -6 -64.5t-2 -60.5zM705 1554q-8 -14 6 -14h53q4 0 14 10l217 275q12 16 -6 16h-84q-6 0 -14 -12z" />
<glyph unicode="&#xdb;" horiz-adv-x="1310" d="M135 428q0 -215 113.5 -330.5t341.5 -115.5q258 0 418 153q154 150 190 418l117 829q0 12 -12 13h-76q-14 0 -17 -15l-112 -813q-31 -231 -156 -356q-131 -131 -340 -131q-365 0 -364 358q0 29 2 58.5t6 62.5l114 823q2 12 -10 13h-78q-12 0 -14 -15l-115 -827 q-4 -33 -6 -64.5t-2 -60.5zM580 1540q0 -6 8 -6h59q4 0 15 10l196 213l148 -213q6 -10 12 -10h57q14 0 8 12l-161 283q-4 12 -13 12h-84q-4 0 -16 -12l-227 -283q-2 -2 -2 -6z" />
<glyph unicode="&#xdc;" horiz-adv-x="1333" d="M84 428q0 -215 113.5 -330.5t341.5 -115.5q258 0 417 153q154 150 191 418l117 829q0 12 -13 13h-75q-14 0 -17 -15l-112 -813q-31 -231 -156 -356q-131 -131 -340 -131q-365 0 -365 358q0 29 2 58.5t7 62.5l114 823q2 12 -10 13h-78q-12 0 -14 -15l-115 -827 q-4 -33 -6 -64.5t-2 -60.5zM563 1583q0 -12 10 -12h74q10 0 15 12l24 176q0 12 -12 13h-72q-14 0 -14 -13zM911 1583q-4 -12 11 -12h71q14 0 15 12l24 176q2 12 -10 13h-72q-14 0 -16 -13z" />
<glyph unicode="&#xdd;" />
<glyph unicode="&#xde;" />
<glyph unicode="&#xdf;" horiz-adv-x="1009" d="M84 -113q0 -14 10 -14h70q14 0 14 14l156 1127q43 313 289 313q104 0 163 -67q53 -63 54 -152q0 -121 -84 -201q-94 -90 -252 -90h-84q-10 0 -10 -10l-11 -64q-2 -14 11 -14h53q143 0 252 -65q133 -84 133 -240q0 -154 -113 -254q-111 -98 -264 -98q-104 0 -172 22 q-10 4 -14 -12l-11 -66q0 -14 11 -14q70 -20 192 -20q195 0 332 127q135 128 135 327q0 131 -80 221q-74 82 -200 111q-4 2 -2 4q133 33 210 135q68 92 68 215q0 121 -76 203q-86 90 -231 90q-338 0 -393 -399z" />
<glyph unicode="&#xe0;" horiz-adv-x="978" d="M78 379q0 -201 115 -309q90 -84 208 -84q180 0 295 120h4l-14 -94q0 -12 10 -12h74q12 0 14 14l125 889q4 18 -20 23q-74 12 -195 12q-254 0 -428 -147q-188 -158 -188 -412zM182 373q0 219 158 352q139 119 340 119q82 0 123 -6l-68 -480q-18 -127 -110 -202 q-94 -78 -203 -78q-84 0 -148 57q-92 80 -92 238zM494 1378l147 -276q2 -8 12 -8h49q13 0 11 14l-117 274q-6 12 -10 13h-82q-20 0 -10 -17z" />
<glyph unicode="&#xe1;" horiz-adv-x="978" d="M78 379q0 -201 115 -309q90 -84 208 -84q180 0 295 120h4l-14 -94q0 -12 10 -12h74q12 0 14 14l125 891q4 16 -20 21q-74 12 -195 12q-254 0 -428 -147q-188 -158 -188 -412zM182 373q0 219 158 352q139 119 340 119q82 0 123 -6l-68 -480q-18 -127 -110 -202 q-94 -78 -203 -78q-84 0 -148 57q-92 80 -92 238zM518 1106q-10 -12 8 -12h52q6 0 16 10l215 274q12 16 -6 17h-82q-6 0 -14 -15z" />
<glyph unicode="&#xe2;" horiz-adv-x="978" d="M78 379q0 -201 115 -309q90 -84 208 -84q180 0 295 120h4l-14 -94q0 -12 10 -12h74q12 0 14 14l125 891q4 16 -20 21q-74 12 -195 12q-254 0 -428 -147q-188 -158 -188 -412zM182 373q0 219 158 352q139 119 340 119q82 0 123 -6l-68 -480q-18 -127 -110 -202 q-94 -78 -203 -78q-84 0 -148 57q-92 80 -92 238zM367 1092q4 -4 6 -5h59q8 0 14 11l197 215l150 -215q6 -10 12 -11h55q16 1 8 15l-159 282q-10 10 -13 11h-86q-4 0 -16 -13l-227 -282q-2 -2 0 -8z" />
<glyph unicode="&#xe3;" horiz-adv-x="978" d="M78 379q0 -201 115 -309q90 -84 208 -84q180 0 295 120h4l-14 -94q0 -12 10 -12h74q12 0 14 14l125 891q4 16 -20 21q-74 12 -195 12q-254 0 -428 -147q-188 -158 -188 -412zM182 373q0 219 158 352q139 119 340 119q82 0 123 -6l-68 -480q-18 -127 -110 -202 q-94 -78 -203 -78q-84 0 -148 57q-92 80 -92 238zM340 1161q0 -12 10 -12h31q12 0 14 14q27 86 92 86q39 0 117 -51q80 -49 133 -49q66 0 115 61q37 49 53 125q0 12 -10 13h-31q-6 0 -14 -15q-20 -88 -94 -88q-35 0 -121 49q-84 49 -135 49q-119 0 -160 -182z" />
<glyph unicode="&#xe4;" horiz-adv-x="978" d="M78 379q0 -201 115 -309q90 -84 208 -84q180 0 295 120h4l-14 -94q0 -12 10 -12h74q12 0 14 14l125 891q4 16 -20 21q-74 12 -195 12q-254 0 -428 -147q-188 -158 -188 -412zM182 373q0 219 158 352q139 119 340 119q82 0 123 -6l-68 -480q-18 -127 -110 -202 q-94 -78 -203 -78q-84 0 -148 57q-92 80 -92 238zM422 1206q-4 -12 10 -12h72q14 0 14 12l25 176q2 12 -11 13h-71q-14 0 -15 -13zM768 1206q0 -12 10 -12h74q10 0 14 12l25 176q0 12 -12 13h-72q-14 0 -14 -13z" />
<glyph unicode="&#xe5;" horiz-adv-x="978" d="M78 379q0 -201 115 -309q90 -84 208 -84q180 0 295 120h4l-14 -94q0 -12 10 -12h74q12 0 14 14l125 891q4 16 -20 21q-74 12 -195 12q-254 0 -428 -147q-188 -158 -188 -412zM182 373q0 219 158 352q139 119 340 119q82 0 123 -6l-68 -480q-18 -127 -110 -202 q-94 -78 -203 -78q-84 0 -148 57q-92 80 -92 238zM481 1264q0 -39 15.5 -74t41 -60.5t60.5 -41t74 -15.5t73.5 15.5t60 41t41 60.5t15.5 74t-15.5 73.5t-41 60t-60 41t-73.5 15.5t-74 -15.5t-60.5 -41t-41 -60t-15.5 -73.5zM543 1264q0 53 39 91t90 38q53 0 91 -38t38 -91 t-38 -91t-91 -38q-51 0 -90 38.5t-39 90.5z" />
<glyph unicode="&#xe6;" horiz-adv-x="1576" d="M78 379q0 -201 115 -309q90 -84 208 -84q254 0 379 211q100 -215 359 -215q186 0 311 75q8 6 6 19l-29 61q-6 8 -16 2q-100 -63 -256 -63q-145 0 -227 86q-72 70 -80 178h117q219 0 381 82q198 101 190 289q-6 113 -92 174q-78 53 -195 53q-207 0 -356 -156l16 123 q4 16 -20 21q-74 12 -195 12q-254 0 -428 -147q-188 -158 -188 -412zM182 373q0 219 158 352q139 119 340 119q82 0 123 -6l-68 -480q-18 -127 -110 -202q-94 -78 -203 -78q-84 0 -148 57q-92 80 -92 238zM846 428q0 168 119 293q119 129 284 129q177 0 183 -150 q2 -115 -123 -190q-123 -74 -328 -84q-111 -4 -135 2z" />
<glyph unicode="&#xe7;" horiz-adv-x="839" d="M78 395q0 -190 123 -303q92 -86 219 -106l-21 -95q10 2 19 3h18q109 0 107 -76q-4 -102 -158 -107q-10 0 -25.5 1t-35.5 3q-10 4 -15 -12l-4 -39q-2 -14 10 -14q70 -6 74 -6q92 4 156 45q78 53 78 141q0 104 -142 121l4 22l2 11h39q137 2 242 69q10 4 6 17l-31 63 q-4 10 -16 4q-94 -59 -227 -59q-141 0 -229.5 94t-88.5 236q0 176 133 305q131 129 299 129q113 0 199 -41q14 -4 18 4l41 65q6 10 -2 19q-86 49 -247 49q-207 0 -371 -152q-174 -160 -174 -391z" />
<glyph unicode="&#xe8;" horiz-adv-x="915" d="M78 395q0 -190 115 -305q109 -109 284 -108q190 0 311 75q8 6 7 19l-29 61q-6 8 -16 2q-100 -63 -254 -63q-145 0 -228 86q-72 70 -80 178h115q219 0 381 82q198 101 190 289q-6 113 -92 174q-78 53 -194 53q-215 0 -363 -162q-147 -164 -147 -381zM184 428 q0 168 119 293q119 129 287 129q180 0 182 -150q2 -115 -123 -190q-123 -74 -330 -84q-111 -4 -135 2zM504 1378l147 -276q2 -8 13 -8h49q12 0 10 14l-117 274q-6 12 -10 13h-82q-20 0 -10 -17z" />
<glyph unicode="&#xe9;" horiz-adv-x="915" d="M78 395q0 -190 115 -305q109 -109 284 -108q190 0 311 75q8 6 7 19l-29 61q-6 8 -16 2q-100 -63 -254 -63q-145 0 -228 86q-72 70 -80 178h115q219 0 381 82q198 101 190 289q-6 113 -92 174q-78 53 -194 53q-215 0 -363 -162q-147 -164 -147 -381zM184 428 q0 168 119 293q119 129 287 129q180 0 182 -150q2 -115 -123 -190q-123 -74 -330 -84q-111 -4 -135 2zM485 1106q-10 -12 9 -12h51q4 0 14 10l217 274q12 16 -6 17h-84q-6 0 -14 -15z" />
<glyph unicode="&#xea;" horiz-adv-x="915" d="M78 395q0 -190 115 -305q109 -109 284 -108q190 0 311 75q8 6 7 19l-29 61q-6 8 -16 2q-100 -63 -254 -63q-145 0 -228 86q-72 70 -80 178h115q219 0 381 82q198 101 190 289q-6 113 -92 174q-78 53 -194 53q-215 0 -363 -162q-147 -164 -147 -381zM184 428 q0 168 119 293q119 129 287 129q180 0 182 -150q2 -115 -123 -190q-123 -74 -330 -84q-111 -4 -135 2zM373 1092q4 -4 6 -5h59q8 0 15 11l196 215l150 -215q6 -10 12 -11h55q16 1 8 15l-159 282q-10 10 -13 11h-86q-6 0 -14 -13l-227 -282q-4 -4 -2 -8z" />
<glyph unicode="&#xeb;" horiz-adv-x="915" d="M78 395q0 -190 115 -305q109 -109 284 -108q190 0 311 75q8 6 7 19l-29 61q-6 8 -16 2q-100 -63 -254 -63q-145 0 -228 86q-72 70 -80 178h115q219 0 381 82q198 101 190 289q-6 113 -92 174q-78 53 -194 53q-215 0 -363 -162q-147 -164 -147 -381zM184 428 q0 168 119 293q119 129 287 129q180 0 182 -150q2 -115 -123 -190q-123 -74 -330 -84q-111 -4 -135 2zM381 1206q-4 -12 10 -12h72q12 0 16 12l25 176q0 12 -12 13h-72q-14 0 -14 -13zM727 1206q0 -12 12 -12h72q14 0 14 12l25 176q2 12 -10 13h-74q-12 0 -14 -13z" />
<glyph unicode="&#xec;" horiz-adv-x="339" d="M100 12q0 -12 13 -12h69q12 0 15 14l122 891q2 14 -10 15h-69q-14 0 -15 -15zM209 1378l147 -276q8 -8 13 -8h49q12 0 10 14l-115 274q-10 12 -12 13h-82q-20 0 -10 -17z" />
<glyph unicode="&#xed;" horiz-adv-x="339" d="M100 12q0 -12 13 -12h69q12 0 15 14l122 891q2 14 -10 15h-69q-14 0 -15 -15zM182 1106q-10 -12 8 -12h52q4 0 14 10l217 274q12 16 -6 17h-82q-8 0 -16 -15z" />
<glyph unicode="&#xee;" horiz-adv-x="339" d="M68 1100q-12 -12 4 -13h59q6 0 16 11l197 215l148 -215q6 -10 12 -11h57q10 1 8 15l-161 282q-10 10 -13 11h-86q-6 0 -14 -13zM100 12q0 -12 13 -12h69q12 0 15 14l122 893q2 12 -10 13h-69q-14 0 -15 -15z" />
<glyph unicode="&#xef;" horiz-adv-x="339" d="M96 1206q-4 -12 10 -12h72q12 0 17 12l24 176q0 12 -12 13h-72q-14 0 -14 -13zM100 12q0 -12 13 -12h69q12 0 15 14l122 891q2 14 -10 15h-69q-14 0 -15 -15zM442 1206q0 -12 13 -12h71q14 0 15 12l24 176q2 12 -10 13h-74q-12 0 -14 -13z" />
<glyph unicode="&#xf0;" />
<glyph unicode="&#xf1;" horiz-adv-x="1026" d="M92 12q-4 -12 10 -12h74q12 0 14 14l68 482q20 156 123 252q100 98 231 98q178 0 179 -240q0 -20 -2.5 -44.5t-6.5 -53.5l-69 -496q0 -12 12 -12h72q14 0 14 14l70 504q6 45 6 100q0 102 -25 168q-55 147 -223 148q-205 0 -340 -158q0 -2 -2 -2l18 133q0 12 -12 13h-72 q-12 0 -14 -15zM354 1161q-4 -12 8 -12h33q12 0 15 14q20 86 92 86q39 0 114 -51q80 -49 134 -49q68 0 114 61q42 53 54 125q2 12 -9 13h-30q-12 0 -15 -15q-20 -88 -96 -88q-35 0 -121 49q-84 49 -135 49q-123 0 -158 -182z" />
<glyph unicode="&#xf2;" horiz-adv-x="1040" d="M78 389q0 -188 123 -301q113 -106 282 -106q207 0 346 157q140 162 140 391q0 184 -121 299q-115 109 -283 109q-197 0 -338 -154q-150 -158 -149 -395zM176 401q0 188 115 320q113 129 268 129q133 0 223 -92q90 -95 90 -242q0 -184 -110 -315q-106 -131 -270 -131 q-131 0 -220 88q-96 92 -96 243zM502 1378l147 -276q2 -8 13 -8h49q12 0 10 14l-117 274q-6 12 -10 13h-82q-20 0 -10 -17z" />
<glyph unicode="&#xf3;" horiz-adv-x="1040" d="M78 389q0 -188 123 -301q113 -106 282 -106q207 0 346 157q140 162 140 391q0 184 -121 299q-115 109 -283 109q-197 0 -338 -154q-150 -158 -149 -395zM176 401q0 188 115 320q113 129 268 129q133 0 223 -92q90 -95 90 -242q0 -184 -110 -315q-106 -131 -270 -131 q-131 0 -220 88q-96 92 -96 243zM446 1106q-10 -12 7 -12h51q6 0 16 10l215 274q16 16 -6 17h-82q-6 0 -14 -15z" />
<glyph unicode="&#xf4;" horiz-adv-x="1040" d="M78 389q0 -188 123 -301q113 -106 282 -106q207 0 346 157q140 162 140 391q0 184 -121 299q-115 109 -283 109q-197 0 -338 -154q-150 -158 -149 -395zM176 401q0 188 115 320q113 129 268 129q133 0 223 -92q90 -95 90 -242q0 -184 -110 -315q-106 -131 -270 -131 q-131 0 -220 88q-96 92 -96 243zM379 1096q0 -8 8 -9h59q8 0 15 11l196 215l150 -215q4 -10 10 -11h57q17 1 9 15l-162 282q-6 10 -10 11h-86q-4 0 -17 -13l-227 -282q-2 -2 -2 -4z" />
<glyph unicode="&#xf5;" horiz-adv-x="1040" d="M78 389q0 -188 123 -301q113 -106 282 -106q207 0 346 157q140 162 140 391q0 184 -121 299q-115 109 -283 109q-197 0 -338 -154q-150 -158 -149 -395zM176 401q0 188 115 320q113 129 268 129q133 0 223 -92q90 -95 90 -242q0 -184 -110 -315q-106 -131 -270 -131 q-131 0 -220 88q-96 92 -96 243zM365 1161q0 -12 10 -12h31q12 0 14 14q27 86 92 86q39 0 117 -51q80 -49 133 -49q66 0 115 61q37 49 53 125q0 12 -10 13h-31q-6 0 -15 -15q-20 -88 -94 -88q-35 0 -121 49q-84 49 -135 49q-119 0 -159 -182z" />
<glyph unicode="&#xf6;" horiz-adv-x="1040" d="M78 389q0 -188 123 -301q113 -106 282 -106q207 0 346 157q140 162 140 391q0 184 -121 299q-115 109 -283 109q-197 0 -338 -154q-150 -158 -149 -395zM176 401q0 188 115 320q113 129 268 129q133 0 223 -92q90 -95 90 -242q0 -184 -110 -315q-106 -131 -270 -131 q-131 0 -220 88q-96 92 -96 243zM432 1206q0 -12 10 -12h74q10 0 14 12l25 176q0 12 -12 13h-72q-12 0 -14 -13zM780 1206q-4 -12 11 -12h71q14 0 15 12l24 176q2 12 -10 13h-72q-14 0 -16 -13z" />
<glyph unicode="&#xf7;" horiz-adv-x="1486" />
<glyph unicode="&#xf8;" horiz-adv-x="1040" d="M78 389q0 -172 108 -287l-96 -106q-10 -12 0 -19l19 -18q6 -8 16 2l98 109q109 -88 260 -88q207 0 346 157q139 162 140 391q0 166 -95 273l101 112q8 13 2 19l-19 18q-6 8 -18 0l-100 -114q-113 100 -275 100q-197 0 -338 -154q-150 -158 -149 -395zM176 401 q0 188 115 320q113 129 268 129q125 0 215 -84l-522 -588q-76 88 -76 223zM287 143l520 584q65 -90 65 -211q0 -184 -110 -315q-106 -131 -270 -131q-117 0 -205 73z" />
<glyph unicode="&#xf9;" horiz-adv-x="985" d="M117 264q0 -74 28 -141q63 -141 289 -141q217 0 326 145q72 96 92 248l76 530q0 14 -13 15h-71q-12 0 -15 -15l-71 -508q-18 -133 -64 -200q-80 -127 -252 -127q-139 0 -190 75q-37 53 -35 158q0 27 3 65t11 85l64 454q2 12 -10 13h-74q-12 0 -14 -15l-72 -530 q-4 -33 -6 -60.5t-2 -50.5zM492 1378l147 -276q8 -8 12 -8h49q13 0 11 14l-115 274q-10 12 -12 13h-82q-20 0 -10 -17z" />
<glyph unicode="&#xfa;" horiz-adv-x="985" d="M117 264q0 -74 28 -141q63 -141 289 -141q217 0 326 145q72 96 92 248l76 532q0 12 -13 13h-71q-12 0 -15 -15l-71 -508q-18 -133 -64 -200q-80 -127 -252 -127q-139 0 -190 75q-37 53 -35 158q0 27 3 65t11 85l64 454q2 12 -10 13h-74q-12 0 -14 -15l-72 -530 q-4 -33 -6 -60.5t-2 -50.5zM483 1106q-10 -12 6 -12h52q6 0 16 10l215 274q16 16 -6 17h-82q-6 0 -14 -15z" />
<glyph unicode="&#xfb;" horiz-adv-x="985" d="M117 264q0 -74 28 -141q63 -141 289 -141q217 0 326 145q72 96 92 248l76 532q0 12 -13 13h-71q-12 0 -15 -15l-71 -508q-18 -133 -64 -200q-80 -127 -252 -127q-139 0 -190 75q-37 53 -35 158q0 27 3 65t11 85l64 454q2 12 -10 13h-74q-12 0 -14 -15l-72 -530 q-4 -33 -6 -60.5t-2 -50.5zM356 1100q-12 -12 4 -13h60q6 0 16 11l197 215l147 -215q6 -10 13 -11h57q10 1 8 15l-162 282q-10 10 -12 11h-86q-6 0 -14 -13z" />
<glyph unicode="&#xfc;" horiz-adv-x="985" d="M117 264q0 -74 28 -141q63 -141 289 -141q217 0 326 145q72 96 92 248l76 532q0 12 -13 13h-71q-12 0 -15 -15l-71 -508q-18 -133 -64 -200q-80 -127 -252 -127q-139 0 -190 75q-37 53 -35 158q0 27 3 65t11 85l64 454q2 12 -10 13h-74q-12 0 -14 -15l-72 -530 q-4 -33 -6 -60.5t-2 -50.5zM406 1206q0 -12 12 -12h71q14 0 15 12l24 176q2 12 -10 13h-72q-14 0 -16 -13zM754 1206q-4 -12 10 -12h72q12 0 16 12l25 176q0 12 -13 13h-71q-14 0 -15 -13z" />
<glyph unicode="&#xfd;" />
<glyph unicode="&#xfe;" />
<glyph unicode="&#xff;" horiz-adv-x="860" d="M-25 -453q0 -16 13 -16q162 8 276 117q98 92 205 307l475 948q10 16 -6 17h-82q-14 0 -18 -11q-168 -332 -266.5 -530.5t-129.5 -269.5l-211 800q-4 10 -16 11h-86q-10 0 -10 -17q215 -750 258 -928q-162 -334 -379 -344q-10 0 -12 -6q-2 -4 -4 -23.5t-7 -54.5zM332 1206 q-4 -12 10 -12h72q14 0 14 12l25 176q2 12 -11 13h-71q-14 0 -15 -13zM678 1206q0 -12 10 -12h74q10 0 14 12l25 176q0 12 -13 13h-71q-12 0 -15 -13z" />
<glyph unicode="&#x152;" horiz-adv-x="2217" d="M90 575q0 -283 172 -444q156 -150 391 -149q336 0 543 286l-35 -256q-4 -12 10 -12h945q14 0 14 14l10 64q0 14 -12 14h-854l80 563h667q14 0 15 15l10 65q0 12 -12 13h-668l78 557h749q14 0 15 12l10 65q2 12 -10 13h-840q-14 0 -16 -15l-39 -290q-70 154 -206 239.5 t-308 85.5q-287 0 -496 -239q-213 -248 -213 -601zM195 582q0 313 188 530q174 205 414 205q197 0 329 -133q138 -138 138 -371q0 -311 -177 -524q-176 -209 -430 -209q-197 0 -321 123q-141 137 -141 379z" />
<glyph unicode="&#x153;" horiz-adv-x="1695" d="M78 389q0 -188 123 -301q113 -106 282 -106q266 0 406 237q92 -238 368 -237q180 0 312 75q8 6 6 19l-29 61q-6 8 -16 2q-100 -63 -254 -63q-145 0 -227 86q-72 70 -80 178h114q219 0 381 82q199 101 191 289q-6 113 -92 174q-78 53 -195 53q-276 0 -426 -248 q-45 117 -146.5 182.5t-230.5 65.5q-197 0 -338 -154q-150 -158 -149 -395zM176 401q0 188 115 320q113 129 268 129q133 0 223 -92q90 -95 90 -242q0 -184 -110 -315q-106 -131 -270 -131q-131 0 -220 88q-96 92 -96 243zM965 428q0 168 118 293q119 129 287 129 q180 0 182 -150q2 -115 -122 -190q-123 -74 -330 -84q-111 -4 -135 2z" />
<glyph unicode="&#x178;" horiz-adv-x="1054" d="M129 1378l373 -772l-84 -594q0 -12 12 -12h76q14 0 14 14l84 590l551 774q12 16 -4 17h-90q-14 0 -23 -15l-473 -680l-315 682q-10 12 -21 13h-92q-14 0 -8 -17zM481 1583q0 -12 13 -12h71q14 0 15 12l24 176q2 12 -10 13h-74q-12 0 -14 -13zM829 1583q-4 -12 11 -12h71 q12 0 17 12l22 176q2 12 -10 13h-72q-14 0 -14 -13z" />
<glyph unicode="&#x2c6;" horiz-adv-x="503" d="M229 1096q0 -8 9 -9h59q4 0 14 11l197 215l147 -215q6 -10 13 -11h57q16 1 8 15l-162 282q-6 10 -12 11h-84q-4 0 -16 -13l-228 -282q-2 -2 -2 -4z" />
<glyph unicode="&#x2dc;" horiz-adv-x="501" d="M133 1161q0 -12 8 -12h33q12 0 14 14q27 86 93 86q39 0 116 -51q80 -49 131 -49q68 0 117 61q37 49 53 125q0 12 -10 13h-31q-12 0 -14 -15q-20 -88 -94 -88q-35 0 -121 49t-137 49q-117 0 -158 -182z" />
<glyph unicode="&#x2000;" horiz-adv-x="952" />
<glyph unicode="&#x2001;" horiz-adv-x="1905" />
<glyph unicode="&#x2002;" horiz-adv-x="952" />
<glyph unicode="&#x2003;" horiz-adv-x="1905" />
<glyph unicode="&#x2004;" horiz-adv-x="635" />
<glyph unicode="&#x2005;" horiz-adv-x="476" />
<glyph unicode="&#x2006;" horiz-adv-x="317" />
<glyph unicode="&#x2007;" horiz-adv-x="317" />
<glyph unicode="&#x2008;" horiz-adv-x="238" />
<glyph unicode="&#x2009;" horiz-adv-x="381" />
<glyph unicode="&#x200a;" horiz-adv-x="105" />
<glyph unicode="&#x2010;" horiz-adv-x="858" d="M182 438q0 -12 13 -12h444q12 0 14 14l11 66q0 12 -13 12h-444q-12 0 -14 -14z" />
<glyph unicode="&#x2011;" horiz-adv-x="858" d="M182 438q0 -12 13 -12h444q12 0 14 14l11 66q0 12 -13 12h-444q-12 0 -14 -14z" />
<glyph unicode="&#x2012;" horiz-adv-x="858" d="M182 438q0 -12 13 -12h444q12 0 14 14l11 66q0 12 -13 12h-444q-12 0 -14 -14z" />
<glyph unicode="&#x2013;" horiz-adv-x="1081" d="M117 494q0 -14 10 -15h965q14 0 14 15l6 49q2 12 -10 12h-965q-12 0 -14 -12z" />
<glyph unicode="&#x2014;" horiz-adv-x="2048" d="M117 494q0 -14 10 -15h1933q12 0 15 15l6 49q0 12 -10 12h-1934q-12 0 -14 -12z" />
<glyph unicode="&#x2018;" horiz-adv-x="331" d="M131 954q0 -14 12 -14h70q14 0 16 14l25 185q0 12 -10 12h-29q20 129 164 213q12 6 8 16l-14 23q-6 10 -15 4q-182 -86 -208 -307z" />
<glyph unicode="&#x2019;" horiz-adv-x="434" d="M184 969l15 -23q6 -10 14 -4q180 82 209 307l18 146q0 12 -12 12h-70q-14 0 -16 -12l-25 -185q-4 -12 11 -12h28q-23 -127 -163 -213q-12 -2 -9 -16z" />
<glyph unicode="&#x201a;" horiz-adv-x="487" d="M143 -229l15 -23q6 -6 14 -4q180 86 209 307l18 146q0 14 -12 14h-70q-14 0 -16 -14l-25 -185q-4 -12 11 -12h28q-23 -127 -163 -213q-12 -2 -9 -16z" />
<glyph unicode="&#x201c;" horiz-adv-x="698" d="M131 954q0 -14 12 -14h70q14 0 16 14l25 185q0 12 -10 12h-29q20 129 164 213q12 6 8 16l-14 23q-6 10 -15 4q-182 -86 -208 -307zM459 954q0 -14 12 -14h70q14 0 16 14l25 185q2 12 -11 12h-28q23 127 164 213q12 2 8 16l-15 23q-6 10 -14 4q-182 -86 -209 -307z" />
<glyph unicode="&#x201d;" horiz-adv-x="800" d="M184 969l15 -23q6 -10 14 -4q180 82 209 307l18 146q0 12 -12 12h-70q-14 0 -16 -12l-25 -185q-4 -12 11 -12h28q-23 -127 -163 -213q-12 -2 -9 -16zM512 969l14 -23q6 -10 15 -4q180 82 209 307l18 146q0 12 -12 12h-70q-14 0 -16 -12l-25 -185q0 -12 10 -12h29 q-20 -129 -164 -213q-12 -6 -8 -16z" />
<glyph unicode="&#x201e;" horiz-adv-x="800" d="M143 -229l15 -23q6 -6 14 -4q180 86 209 307l18 146q0 14 -12 14h-70q-14 0 -16 -14l-25 -185q-4 -12 11 -12h28q-23 -127 -163 -213q-12 -2 -9 -16zM473 -229l14 -23q4 -6 13 -4q180 86 209 307l18 146q2 14 -12 14h-70q-14 0 -16 -14l-25 -185q0 -12 10 -12h29 q-20 -129 -164 -213q-12 -6 -6 -16z" />
<glyph unicode="&#x2022;" horiz-adv-x="753" d="M133 698q0 -104 74 -180q76 -74 180 -74t178 74q76 76 76 180t-76 179q-74 76 -178 75q-104 0 -180 -75q-74 -74 -74 -179z" />
<glyph unicode="&#x2026;" horiz-adv-x="1531" d="M143 12q0 -12 11 -12h73q12 0 15 14l24 183q2 14 -10 14h-74q-12 0 -14 -14zM682 12q-4 -12 10 -12h72q14 0 14 14l27 183q0 14 -12 14h-72q-14 0 -14 -14zM1219 12q0 -12 12 -12h72q14 0 14 14l24 183q2 14 -10 14h-71q-14 0 -15 -14z" />
<glyph unicode="&#x202f;" horiz-adv-x="381" />
<glyph unicode="&#x2039;" horiz-adv-x="493" d="M27 442l206 -432q6 -10 19 -10h70q8 0 6 14l-209 445l338 446q12 16 -2 17h-76q-14 0 -21 -13l-327 -432q-12 -16 -4 -35z" />
<glyph unicode="&#x203a;" horiz-adv-x="536" d="M82 14q-14 -14 2 -14h76q12 0 22 10l326 432q14 17 4 37l-207 430q-4 12 -18 13h-68q-16 0 -6 -17l207 -444z" />
<glyph unicode="&#x205f;" horiz-adv-x="476" />
<glyph unicode="&#x20ac;" horiz-adv-x="1224" d="M12 530q0 -14 13 -14h108q31 -250 219 -401q170 -133 391 -133q233 0 398 79q12 2 8 19l-31 67q-4 14 -16 5q-160 -72 -344 -72q-186 0 -328 110q-158 121 -188 326h606q6 0 14 14l35 60q8 14 -6 14h-658q0 94 23 180h745q4 0 15 13l37 61q8 12 -9 12h-759 q82 193 258 320q176 125 370 125q166 0 308 -47q16 -4 18 4l41 69q8 12 -2 19q-133 55 -356 55q-238 0 -449 -153q-213 -154 -299 -392h-129q-14 0 -14 -12l-19 -61q0 -12 13 -13h122q-20 -80 -20 -180h-82q-14 0 -14 -14z" />
<glyph unicode="&#x2122;" horiz-adv-x="1515" d="M176 1413q-4 -16 12 -16h218l-91 -658q-4 -16 13 -16h41q12 0 16 16l90 658h217q14 0 19 16l4 37q4 16 -13 16h-503q-14 0 -19 -16zM657 739q-4 -16 13 -16h39q14 0 18 16l80 574l186 -406q4 -10 13 -10h32q4 0 15 10l299 406l-78 -574q-4 -16 12 -16h39q16 0 16 16 l99 711q4 16 -13 16h-41q-4 0 -14 -10l-338 -463l-211 463q-4 10 -10 10h-39q-14 0 -18 -16z" />
<glyph unicode="&#x25fc;" horiz-adv-x="921" d="M0 0v922h922v-922h-922z" />
</font>
</defs>
</svg>
