<svg xmlns="http://www.w3.org/2000/svg" xmlns:xlink="http://www.w3.org/1999/xlink" version="1.1" x="0px" y="0px" viewBox="0 0 30 30" xml:space="preserve"><g transform="translate(-570 -80)"><g xmlns="http://www.w3.org/2000/svg" xmlns:xlink="http://www.w3.org/1999/xlink"><path d="M595,105h-12v-7.586l-1,1V108c0,1.104,0.896,2,2,2h10c1.104,0,2-0.896,2-2v-9.586l-1-1V105z M589,109    c-0.553,0-1-0.447-1-1c0-0.552,0.447-1,1-1c0.553,0,1,0.448,1,1C590,108.553,589.553,109,589,109z"></path><path d="M583.121,83.979L588.142,89h1.415l-7.85-7.849c-0.781-0.781-2.048-0.781-2.828,0l-7.071,7.071    c-0.781,0.781-0.781,2.048,0,2.829L580,99.243v-1.414l-5.364-5.364L583.121,83.979z M578.879,83.979l0.707,0.707l-2.828,2.828    l-0.708-0.707L578.879,83.979z M575.343,87.515l0.707,0.707l-0.707,0.707l-0.707-0.707L575.343,87.515z"></path><rect x="590" y="91" transform="matrix(0.7071 -0.7071 0.7071 0.7071 108.0479 444.8488)" width="2" height="2"></rect><rect x="588" y="94" width="2" height="2"></rect><rect x="597" y="96" width="1" height="2"></rect><rect x="592" y="88" width="1" height="1"></rect><rect x="594" y="92" width="1" height="1"></rect><rect x="596" y="90" width="1" height="1"></rect><rect x="597" y="93" width="1" height="1"></rect></g></g></svg>