<?xml version="1.0" encoding="utf-8"?>
<!-- Generator: Adobe Illustrator 21.0.0, SVG Export Plug-In . SVG Version: 6.00 Build 0)  -->
<svg version="1.1" id="Layer_1" xmlns="http://www.w3.org/2000/svg" xmlns:xlink="http://www.w3.org/1999/xlink" x="0px" y="0px"
	 viewBox="0 0 62 89" style="enable-background:new 0 0 62 89;" xml:space="preserve">
<style type="text/css">
	.st0{fill:#FF0000;}
	.st1{fill:#FFFFFF;}
</style>
<path d="M48.3,2.5H16.1c-4.1,0-7.4,3.3-7.4,7.4v68.2c0,4.1,3.3,7.4,7.4,7.4h32.2c4.1,0,7.4-3.3,7.4-7.4V9.9
	C55.7,5.8,52.4,2.5,48.3,2.5z"/>
<path class="st0" d="M53.7,78.1c0,3-2.4,5.4-5.4,5.4H16.1c-3,0-5.4-2.4-5.4-5.4v-4.6h43L53.7,78.1L53.7,78.1z"/>
<rect x="10.7" y="15.5" class="st1" width="43" height="56"/>
<path class="st0" d="M53.7,13.5h-43V9.9c0-3,2.4-5.4,5.4-5.4h32.2c3,0,5.4,2.4,5.4,5.4L53.7,13.5L53.7,13.5z"/>
<path d="M20.4,50.7h14.9V52c0,1.9,1.5,3.4,3.4,3.4s3.4-1.5,3.4-3.4v-1.3H44c0.6,0,1-0.4,1-1s-0.4-1-1-1H20.4c-0.6,0-1,0.4-1,1
	S19.9,50.7,20.4,50.7z"/>
<path d="M37.3,51h2.8v1c0,0.8-0.6,1.4-1.4,1.4s-1.4-0.6-1.4-1.4V51z"/>
<path d="M21.8,37.9c0.2,0.2,0.5,0.3,0.7,0.3s0.5-0.1,0.7-0.3l0.8-0.8l0.8,0.8c0.2,0.2,0.5,0.3,0.7,0.3s0.5-0.1,0.7-0.3
	c0.4-0.4,0.4-1,0-1.4l-0.8-0.8l0.8-0.8c0.4-0.4,0.4-1,0-1.4s-1-0.4-1.4,0l-0.8,0.8l-0.8-0.8c-0.4-0.4-1-0.4-1.4,0s-0.4,1,0,1.4
	l0.8,0.8l-0.8,0.8C21.5,36.9,21.5,37.5,21.8,37.9z"/>
<path d="M37.8,37.9c0.2,0.2,0.5,0.3,0.7,0.3s0.5-0.1,0.7-0.3l0.8-0.8l0.8,0.8c0.2,0.2,0.5,0.3,0.7,0.3s0.5-0.1,0.7-0.3
	c0.4-0.4,0.4-1,0-1.4l-0.8-0.8l0.8-0.8c0.4-0.4,0.4-1,0-1.4s-1-0.4-1.4,0l-0.8,0.8l-0.8-0.8c-0.4-0.4-1-0.4-1.4,0s-0.4,1,0,1.4
	l0.8,0.8l-0.8,0.8C37.5,36.9,37.5,37.5,37.8,37.9z"/>
<path class="st1" d="M38.7,8.5h-9c-0.6,0-1,0.4-1,1s0.4,1,1,1h9c0.6,0,1-0.4,1-1S39.3,8.5,38.7,8.5z"/>
<circle class="st1" cx="25.4" cy="9.5" r="1.1"/>
<circle cx="32.1" cy="78.9" r="2.7"/>
</svg>
