<?xml version="1.0" encoding="utf-8"?>
<!-- Generator: Adobe Illustrator 19.0.0, SVG Export Plug-In . SVG Version: 6.00 Build 0)  -->
<svg version="1.1" id="Layer_1" xmlns="http://www.w3.org/2000/svg" xmlns:xlink="http://www.w3.org/1999/xlink" x="0px" y="0px"
	 viewBox="231.8 400.9 460 40" style="enable-background:new 231.8 400.9 460 40;" xml:space="preserve">
<style type="text/css">
	.st0{fill:#5EC1EC;}
	.st1{fill:#5BBBE6;}
	.st2{fill:#FFFFFF;}
	.st3{fill:#56B1D9;}
	.st4{fill:#9BCEE0;}
	.st5{fill:#5565AF;}
	.st6{opacity:4.000000e-002;fill:#FFFFFF;enable-background:new    ;}
	.st7{fill:#EA564B;}
	.st8{fill:#E9D419;}
	.st9{fill:#7684B7;}
	.st10{fill:#F3F4F4;}
	.st11{fill:#99CD76;}
	.st12{opacity:8.000000e-002;fill:#FFFFFF;enable-background:new    ;}
	.st13{fill:#F8F8F9;}
	.st14{fill:#009FDA;}
	.st15{fill:#FFF9F0;}
	.st16{fill:#414042;}
	.st17{fill:#E6A124;}
	.st18{fill:#F7F5F2;}
</style>
<g>
	<g>
		<g>
			<path class="st0" d="M451.8,435.9c0,2.8-2.3,5-5,5h-50c-2.8,0-5-2.3-5-5v-30c0-2.8,2.3-5,5-5h50c2.8,0,5,2.3,5,5V435.9z"/>
			<path class="st1" d="M450.3,402.4c0.9,0.9,1.5,2.2,1.5,3.5v15v15c0,1.4-0.6,2.6-1.5,3.5c-0.9,0.9-2.2,1.5-3.5,1.5h-25h-25
				c-1.4,0-2.6-0.6-3.5-1.5L450.3,402.4z"/>
			<g>
				<path class="st2" d="M409.3,425.8l-0.5-1.7h-3l-0.5,1.7h-2.8l3-9.3h3.3l3.1,9.3H409.3z M408.3,422l-0.4-1.5
					c-0.1-0.3-0.2-0.8-0.3-1.3c-0.1-0.5-0.2-0.9-0.3-1.2c0,0.2-0.1,0.6-0.2,1.1s-0.4,1.5-0.7,2.9L408.3,422L408.3,422z"/>
				<path class="st2" d="M417.1,425.8l-1.9-6.7h-0.1c0.1,1.1,0.1,2,0.1,2.7v4h-2.2v-9.3h3.3l1.9,6.6h0.1l1.9-6.6h3.3v9.3h-2.3v-4.1
					c0-0.2,0-0.4,0-0.7s0-0.9,0.1-1.9h-0.1l-1.9,6.7L417.1,425.8L417.1,425.8z"/>
				<path class="st2" d="M430.9,425.8h-5.5v-9.3h5.5v2h-3v1.5h2.8v2h-2.8v1.8h3V425.8z"/>
				<path class="st2" d="M440.9,425.8H438l-1.8-2.9l-1.8,2.9h-2.8l3.1-4.7l-2.9-4.5h2.8l1.7,2.9l1.6-2.9h2.9l-2.9,4.7L440.9,425.8z"
					/>
			</g>
			<g>
				<path class="st2" d="M409.3,425.8l-0.5-1.7h-3l-0.5,1.7h-2.8l3-9.3h3.3l3.1,9.3H409.3z M408.3,422l-0.4-1.5
					c-0.1-0.3-0.2-0.8-0.3-1.3c-0.1-0.5-0.2-0.9-0.3-1.2c0,0.2-0.1,0.6-0.2,1.1s-0.4,1.5-0.7,2.9L408.3,422L408.3,422z"/>
				<path class="st2" d="M417.1,425.8l-1.9-6.7h-0.1c0.1,1.1,0.1,2,0.1,2.7v4h-2.2v-9.3h3.3l1.9,6.6h0.1l1.9-6.6h3.3v9.3h-2.3v-4.1
					c0-0.2,0-0.4,0-0.7s0-0.9,0.1-1.9h-0.1l-1.9,6.7L417.1,425.8L417.1,425.8z"/>
				<path class="st2" d="M430.9,425.8h-5.5v-9.3h5.5v2h-3v1.5h2.8v2h-2.8v1.8h3V425.8z"/>
				<path class="st2" d="M440.9,425.8H438l-1.8-2.9l-1.8,2.9h-2.8l3.1-4.7l-2.9-4.5h2.8l1.7,2.9l1.6-2.9h2.9l-2.9,4.7L440.9,425.8z"
					/>
			</g>
			<path class="st3" d="M421.8,400.9"/>
		</g>
		<g>
			<path class="st4" d="M446.8,401.9c2.2,0,4,1.8,4,4v30c0,2.2-1.8,4-4,4h-50c-2.2,0-4-1.8-4-4v-30c0-2.2,1.8-4,4-4H446.8
				 M446.8,400.9h-50c-2.8,0-5,2.3-5,5v30c0,2.8,2.3,5,5,5h50c2.8,0,5-2.3,5-5v-30C451.8,403.1,449.5,400.9,446.8,400.9L446.8,400.9
				z"/>
		</g>
	</g>
	<g>
		<path class="st5" d="M371.8,435.9c0,2.8-2.3,5-5,5h-50c-2.8,0-5-2.3-5-5v-30c0-2.8,2.3-5,5-5h50c2.8,0,5,2.3,5,5V435.9z"/>
		<path class="st6" d="M370.3,402.4c0.9,0.9,1.5,2.2,1.5,3.5v15v15c0,1.4-0.6,2.6-1.5,3.5c-0.9,0.9-2.2,1.5-3.5,1.5h-25h-25
			c-1.4,0-2.6-0.6-3.5-1.5L370.3,402.4z"/>
		<path class="st3" d="M341.8,400.9"/>
		<g>
			<path class="st7" d="M341.8,414.3c-1.8-2.1-4.5-3.4-7.5-3.4c-5.5,0-10,4.5-10,10c0,5.5,4.5,10,10,10c3,0,5.7-1.3,7.5-3.4
				c-1.6-1.8-2.5-4.1-2.5-6.6S340.2,416.1,341.8,414.3z"/>
			<path class="st7" d="M341.8,414.3c-1.6,1.8-2.5,4.1-2.5,6.6s0.9,4.8,2.5,6.6c1.6-1.8,2.5-4.1,2.5-6.6S343.3,416.1,341.8,414.3z"
				/>
		</g>
		<path class="st8" d="M349.3,410.9c-3,0-5.7,1.3-7.5,3.4c-0.4,0.5-0.8,1-1.1,1.6h2.3c0.4,0.6,0.6,1.3,0.9,2h-4
			c-0.2,0.6-0.4,1.3-0.4,2h4.9c0,0.3,0.1,0.7,0.1,1c0,0.3,0,0.7-0.1,1h-4.9c0.1,0.7,0.2,1.4,0.4,2h4.1c-0.2,0.7-0.5,1.4-0.9,2h-2.3
			c0.3,0.6,0.7,1.1,1.1,1.6c1.8,2.1,4.5,3.4,7.5,3.4c5.5,0,10-4.5,10-10C359.3,415.4,354.8,410.9,349.3,410.9z"/>
		<g>
			<path class="st9" d="M366.8,401.9c2.2,0,4,1.8,4,4v30c0,2.2-1.8,4-4,4h-50c-2.2,0-4-1.8-4-4v-30c0-2.2,1.8-4,4-4H366.8
				 M366.8,400.9h-50c-2.8,0-5,2.3-5,5v30c0,2.8,2.3,5,5,5h50c2.8,0,5-2.3,5-5v-30C371.8,403.1,369.5,400.9,366.8,400.9L366.8,400.9
				z"/>
		</g>
	</g>
	<g>
		<path class="st10" d="M531.8,435.9c0,2.8-2.3,5-5,5h-50c-2.8,0-5-2.3-5-5v-30c0-2.8,2.3-5,5-5h50c2.8,0,5,2.3,5,5V435.9z"/>
		<g>
			<path class="st2" d="M501.8,400.9"/>
			<g>
				<path class="st5" d="M488.8,430.9h-8v-15c0-2.8,3.2-5,6-5h6v15C492.8,428.7,491.5,430.9,488.8,430.9z"/>
				<path class="st7" d="M502.8,430.9h-8v-15c0-2.8,3.2-5,6-5h6v15C506.8,428.7,505.5,430.9,502.8,430.9z"/>
				<path class="st11" d="M516.8,430.9h-8v-15c0-2.8,3.2-5,6-5h6v15C520.8,428.7,519.5,430.9,516.8,430.9z"/>
			</g>
			<path class="st12" d="M530.3,402.4c0.9,0.9,1.5,2.2,1.5,3.5v15v15c0,1.4-0.6,2.6-1.5,3.5s-2.2,1.5-3.5,1.5h-25h-25
				c-1.4,0-2.6-0.6-3.5-1.5L530.3,402.4z"/>
			<g>
				<path class="st13" d="M526.8,401.9c2.2,0,4,1.8,4,4v30c0,2.2-1.8,4-4,4h-50c-2.2,0-4-1.8-4-4v-30c0-2.2,1.8-4,4-4H526.8
					 M526.8,400.9h-50c-2.8,0-5,2.3-5,5v30c0,2.8,2.3,5,5,5h50c2.8,0,5-2.3,5-5v-30C531.8,403.1,529.5,400.9,526.8,400.9
					L526.8,400.9z"/>
			</g>
		</g>
	</g>
	<g>
		<path class="st10" d="M691.8,435.9c0,2.8-2.3,5-5,5h-50c-2.8,0-5-2.3-5-5v-30c0-2.8,2.3-5,5-5h50c2.8,0,5,2.3,5,5V435.9z"/>
		<g>
			<g>
				<circle class="st14" cx="658.6" cy="420.9" r="10"/>
				<path class="st14" d="M657.8,410.9c5,0,10,4.5,10,10c0,5.5-5,10-10,10V410.9z"/>
				<path class="st14" d="M657.8,430.9v-20h7.2c5,0,10,4.5,10,10c0,5.5-5,10-10,10H657.8z"/>
				<circle class="st10" cx="658.6" cy="420.9" r="9.4"/>
				<g>
					<path class="st14" d="M663.2,420.9c0-2.7-2.4-5-4.4-5.6v11.2C660.8,425.9,663.2,423.6,663.2,420.9z"/>
				</g>
				<g>
					<path class="st14" d="M651.3,420.9c0,2.7,2.4,5,4.4,5.6v-11.2C653.8,415.9,651.3,418.2,651.3,420.9z"/>
				</g>
			</g>
			<path class="st12" d="M690.3,402.4c0.9,0.9,1.5,2.2,1.5,3.5v15v15c0,1.4-0.6,2.6-1.5,3.5s-2.2,1.5-3.5,1.5h-25h-25
				c-1.4,0-2.6-0.6-3.5-1.5L690.3,402.4z"/>
			<g>
				<path class="st13" d="M686.8,401.9c2.2,0,4,1.8,4,4v30c0,2.2-1.8,4-4,4h-50c-2.2,0-4-1.8-4-4v-30c0-2.2,1.8-4,4-4H686.8
					 M686.8,400.9h-50c-2.8,0-5,2.3-5,5v30c0,2.8,2.3,5,5,5h50c2.8,0,5-2.3,5-5v-30C691.8,403.1,689.5,400.9,686.8,400.9
					L686.8,400.9z"/>
			</g>
		</g>
	</g>
	<g>
		<path class="st15" d="M611.8,435.9c0,2.8-2.3,5-5,5h-50c-2.8,0-5-2.3-5-5v-30c0-2.8,2.3-5,5-5h50c2.8,0,5,2.3,5,5V435.9z"/>
		<g>
			<path class="st16" d="M566.9,420.8c0,1-0.3,1.8-0.9,2.3c-0.6,0.5-1.4,0.8-2.5,0.8h-1.7v-6.1h1.9c1,0,1.8,0.3,2.3,0.8
				C566.6,419.2,566.9,419.9,566.9,420.8z M565.5,420.9c0-1.3-0.6-2-1.7-2h-0.7v4h0.6C564.9,422.9,565.5,422.2,565.5,420.9z"/>
			<path class="st16" d="M568,423.9v-6.1h1.3v6.1H568z"/>
			<path class="st16" d="M574.4,422.2c0,0.6-0.2,1-0.6,1.3c-0.4,0.3-0.9,0.5-1.7,0.5c-0.6,0-1.2-0.1-1.7-0.4v-1.2
				c0.4,0.2,0.8,0.3,1,0.4c0.3,0.1,0.5,0.1,0.8,0.1c0.3,0,0.5-0.1,0.7-0.2c0.1-0.1,0.2-0.3,0.2-0.5c0-0.1,0-0.2-0.1-0.3
				c-0.1-0.1-0.2-0.2-0.3-0.3c-0.1-0.1-0.4-0.2-0.8-0.4c-0.4-0.2-0.6-0.3-0.8-0.5c-0.2-0.2-0.3-0.3-0.4-0.6s-0.2-0.5-0.2-0.8
				c0-0.5,0.2-1,0.5-1.3c0.4-0.3,0.9-0.5,1.5-0.5c0.3,0,0.6,0,0.9,0.1c0.3,0.1,0.6,0.2,0.9,0.3l-0.4,1c-0.3-0.1-0.6-0.2-0.8-0.3
				c-0.2-0.1-0.4-0.1-0.6-0.1c-0.2,0-0.4,0.1-0.6,0.2c-0.1,0.1-0.2,0.3-0.2,0.4c0,0.1,0,0.2,0.1,0.3c0.1,0.1,0.1,0.2,0.3,0.2
				c0.1,0.1,0.4,0.2,0.8,0.4c0.6,0.3,1,0.5,1.2,0.8C574.3,421.5,574.4,421.8,574.4,422.2z"/>
			<path class="st16" d="M578.1,418.8c-0.5,0-0.9,0.2-1.1,0.5c-0.3,0.4-0.4,0.9-0.4,1.5c0,1.4,0.5,2,1.5,2c0.4,0,0.9-0.1,1.6-0.3
				v1.1c-0.5,0.2-1.1,0.3-1.7,0.3c-0.9,0-1.6-0.3-2-0.8c-0.5-0.5-0.7-1.3-0.7-2.3c0-0.6,0.1-1.2,0.3-1.7c0.2-0.5,0.6-0.8,1-1.1
				c0.4-0.3,0.9-0.4,1.5-0.4c0.6,0,1.2,0.1,1.8,0.4l-0.4,1c-0.2-0.1-0.5-0.2-0.7-0.3C578.5,418.9,578.3,418.8,578.1,418.8z"/>
			<path class="st16" d="M590,417.8h1.3l-2.1,6.1h-1.4l-2.1-6.1h1.3l1.1,3.6c0.1,0.2,0.1,0.5,0.2,0.7c0.1,0.3,0.1,0.5,0.1,0.6
				c0-0.3,0.1-0.7,0.3-1.3L590,417.8z"/>
			<path class="st16" d="M595.5,423.9H592v-6.1h3.5v1.1h-2.2v1.3h2.1v1.1h-2.1v1.6h2.2V423.9z"/>
			<path class="st16" d="M598.1,421.6v2.3h-1.3v-6.1h1.8c0.8,0,1.4,0.1,1.8,0.5c0.4,0.3,0.6,0.8,0.6,1.4c0,0.4-0.1,0.7-0.3,1
				c-0.2,0.3-0.5,0.5-0.8,0.7c0.9,1.4,1.5,2.3,1.8,2.6h-1.4l-1.5-2.3L598.1,421.6L598.1,421.6z M598.1,420.6h0.4
				c0.4,0,0.7-0.1,0.9-0.2c0.2-0.1,0.3-0.4,0.3-0.6c0-0.3-0.1-0.5-0.3-0.6s-0.5-0.2-0.9-0.2h-0.4L598.1,420.6L598.1,420.6z"/>
			<circle class="st17" cx="582.8" cy="420.9" r="3"/>
		</g>
		<path class="st17" d="M611.8,428.4v7.5c0,0.7-0.1,1.3-0.4,1.9c-0.3,0.6-0.6,1.1-1.1,1.6s-1,0.8-1.6,1.1c-0.6,0.3-1.3,0.4-1.9,0.4
			h-22.5h-22.5L611.8,428.4z"/>
		<path class="st12" d="M610.3,402.4c0.9,0.9,1.5,2.2,1.5,3.5v15v15c0,1.4-0.6,2.6-1.5,3.5s-2.2,1.5-3.5,1.5h-25h-25
			c-1.4,0-2.6-0.6-3.5-1.5L610.3,402.4z"/>
		<g>
			<path class="st18" d="M606.8,401.9c2.2,0,4,1.8,4,4v30c0,2.2-1.8,4-4,4h-50c-2.2,0-4-1.8-4-4v-30c0-2.2,1.8-4,4-4H606.8
				 M606.8,400.9h-50c-2.8,0-5,2.3-5,5v30c0,2.8,2.3,5,5,5h50c2.8,0,5-2.3,5-5v-30C611.8,403.1,609.5,400.9,606.8,400.9L606.8,400.9
				z"/>
		</g>
	</g>
	<g>
		<path class="st10" d="M291.8,435.9c0,2.8-2.3,5-5,5h-50c-2.8,0-5-2.3-5-5v-30c0-2.8,2.3-5,5-5h50c2.8,0,5,2.3,5,5V435.9z"/>
		<path class="st5" d="M232.8,410.9v-5c0-2.8,2.3-5,5-5h48c2.8,0,5,2.3,5,5v5"/>
		<path class="st17" d="M290.8,430.9v5c0,2.8-2.3,4-5,4h-48c-2.8,0-5-1.3-5-4v-5"/>
		<g>
			<path class="st5" d="M249.1,424.3c0.4-1.1,0.7-1.9,0.9-2.2l3.4-6.9h2.5l-5.8,11.4h-2.6l-1-11.4h2.3l0.4,6.9c0,0.2,0,0.6,0,1
				C249.1,423.6,249.1,424,249.1,424.3L249.1,424.3z"/>
			<path class="st5" d="M254.8,426.6l2.4-11.4h2.4l-2.4,11.4H254.8z"/>
			<path class="st5" d="M266.9,423.2c0,1.1-0.4,1.9-1.2,2.6c-0.8,0.6-1.8,0.9-3.1,0.9c-1.2,0-2.1-0.2-2.8-0.7v-2.1
				c1,0.6,1.9,0.8,2.8,0.8c0.6,0,1-0.1,1.4-0.3c0.3-0.2,0.5-0.5,0.5-0.9c0-0.2,0-0.4-0.1-0.6c-0.1-0.2-0.2-0.3-0.3-0.5
				c-0.1-0.1-0.5-0.4-1-0.8c-0.7-0.5-1.2-1-1.5-1.5c-0.3-0.5-0.4-1-0.4-1.6c0-0.7,0.2-1.3,0.5-1.8c0.3-0.5,0.8-0.9,1.4-1.2
				c0.6-0.3,1.3-0.4,2.1-0.4c1.1,0,2.2,0.3,3.1,0.8l-0.9,1.8c-0.8-0.4-1.6-0.6-2.3-0.6c-0.4,0-0.8,0.1-1.1,0.4
				c-0.3,0.2-0.4,0.5-0.4,0.9c0,0.3,0.1,0.6,0.3,0.8c0.2,0.2,0.6,0.6,1.2,0.9c0.6,0.4,1.1,0.9,1.4,1.4
				C266.8,422,266.9,422.6,266.9,423.2z"/>
			<path class="st5" d="M274.6,423.9h-3.7l-1.3,2.7h-2.5l6-11.5h2.9l1.1,11.5h-2.3L274.6,423.9z M274.5,421.9l-0.2-2.7
				c-0.1-0.7-0.1-1.3-0.1-2v-0.3c-0.2,0.6-0.5,1.3-0.9,2l-1.5,3H274.5z"/>
		</g>
		<path class="st2" d="M261.8,400.9"/>
		<path class="st6" d="M290.3,402.4c0.9,0.9,1.5,2.2,1.5,3.5v15v15c0,1.4-0.6,2.6-1.5,3.5s-2.2,1.5-3.5,1.5h-25h-25
			c-1.4,0-2.6-0.6-3.5-1.5L290.3,402.4z"/>
		<g>
			<path class="st13" d="M286.8,401.9c2.2,0,4,1.8,4,4v30c0,2.2-1.8,4-4,4h-50c-2.2,0-4-1.8-4-4v-30c0-2.2,1.8-4,4-4H286.8
				 M286.8,400.9h-50c-2.8,0-5,2.3-5,5v30c0,2.8,2.3,5,5,5h50c2.8,0,5-2.3,5-5v-30C291.8,403.1,289.5,400.9,286.8,400.9L286.8,400.9
				z"/>
		</g>
	</g>
</g>
</svg>
