<?xml version="1.0" encoding="utf-8"?>
<!-- Generator: Adobe Illustrator 21.0.0, SVG Export Plug-In . SVG Version: 6.00 Build 0)  -->
<svg version="1.1" id="Layer_1" xmlns="http://www.w3.org/2000/svg" xmlns:xlink="http://www.w3.org/1999/xlink" x="0px" y="0px"
	 viewBox="0 0 512 512" style="enable-background:new 0 0 512 512;" xml:space="preserve">
<style type="text/css">
	.st0{fill:#FF0000;}
</style>
<g id="Layer_6">
	<path class="st0" d="M228,68.7c-68.5,0-124,55.5-124,124c0,68.5,55.5,124,124,124s124-55.5,124-124C352,124.2,296.5,68.7,228,68.7z
		 M228,283.3c-50,0-90.6-40.6-90.6-90.6c0-50,40.6-90.6,90.6-90.6s90.6,40.6,90.6,90.6C318.6,242.7,278,283.3,228,283.3z"/>
	<g>
		<path class="st0" d="M392.8,414.3c6.1,9.2,4.1,21.3-4.4,26.9c-8.5,5.7-20.5,2.8-26.6-6.4l-88.6-133.2c-6.1-9.2-4.1-21.3,4.4-26.9
			c8.5-5.7,20.5-2.8,26.6,6.4L392.8,414.3z"/>
	</g>
</g>
</svg>
